<svg width="20" height="36" viewBox="0 0 20 36" fill="none" xmlns="http://www.w3.org/2000/svg">
<g clip-path="url(#clip0)">
<path d="M11.8 25.6001C11.8 25.6001 11.8 25.7001 11.8 25.6001C11.8 25.7001 11.8 25.7001 11.8 25.6001ZM11.8 25.6001C12 25.7001 12.1 25.7001 12.2 25.8001C12.4 25.9001 12.5 26.1001 12.5 26.3001C12.5 26.4001 12.5 26.4001 12.5 26.5001C12.5 26.6001 12.6 26.7001 12.8 26.8001C12.7 26.7001 12.7 26.6001 12.6 26.5001C12.6 26.4001 12.6 26.3001 12.5 26.2001C12.5 26.1001 12.4 26.0001 12.4 26.0001C12.5 26.0001 12.7 26.0001 12.8 26.0001C12.8 26.2001 12.9 26.3001 12.9 26.5001C12.9 26.5001 12.9 26.5001 12.9 26.6001C12.9 26.4001 12.9 26.2001 12.8 26.0001C13 26.0001 13.4 26.2001 13.5 26.5001C13.4 26.6001 13.3 26.7001 13.2 26.7001C13.1 26.8001 13 26.9001 12.9 27.0001C12.9 27.0001 12.8 27.1001 12.8 27.0001C12.7 27.0001 12.6 27.0001 12.4 26.9001C12.4 26.9001 12.4 26.9001 12.3 26.9001C12 26.7001 11.8 26.5001 11.6 26.2001C11.5 26.0001 11.4 25.7001 11.3 25.4001C11.6 25.5001 11.7 25.6001 11.8 25.6001ZM7.7 26.4001C7.9 26.3001 8 26.3001 8.2 26.2001C8.2 26.3001 8.2 26.4001 8.1 26.4001C8.1 26.5001 8 26.5001 8 26.6001H8.1C8.1 26.8001 8.1 27.0001 8 27.3001C7.8 27.3001 7.6 27.4001 7.4 27.4001C7.4 27.3001 7.4 27.2001 7.5 27.1001C7.5 26.9001 7.6 26.7001 7.7 26.4001ZM7.7 26.4001C7.7 26.5001 7.7 26.4001 7.7 26.4001ZM8.1 31.3001C8 31.1001 7.9 31.0001 7.7 30.8001C7.6 30.7001 7.7 30.7001 7.7 30.6001C7.8 30.4001 7.9 30.3001 8 30.1001C8 30.3001 8.1 30.5001 8.1 30.7001C8.2 30.7001 8.2 30.8001 8.2 30.9001C8.2 31.0001 8.2 31.2001 8.1 31.3001ZM8.1 31.3001C8.2 31.3001 8.1 31.3001 8.1 31.3001ZM18 29.0001C17.6 28.7001 17.1 28.6001 16.7 28.8001H16.6C16.6 28.8001 16.6 28.8001 16.6 28.7001C16.8 28.5001 17 28.2001 17.1 27.9001C17.2 27.6001 17.4 27.5001 17.6 27.4001C17.7 27.4001 17.8 27.4001 17.9 27.3001C17.7 27.3001 17.5 27.3001 17.4 27.4001C17.3 27.5001 17.2 27.7001 17.1 27.8001C17 28.0001 16.9 28.2001 16.8 28.4001C16.7 28.6001 16.5 28.7001 16.3 28.8001C16.3 28.7001 16.2 28.7001 16.2 28.6001C16.3 28.6001 16.5 28.6001 16.6 28.5001C16.7 28.4001 16.9 28.3001 16.9 28.2001C16.8 28.3001 16.7 28.3001 16.6 28.4001C16.4 28.5001 16.3 28.5001 16.1 28.5001C16 28.5001 16 28.4001 15.9 28.4001C15.7 28.3001 15.6 28.2001 15.4 28.2001C15.5 28.1001 15.5 27.9001 15.6 27.8001C15.6 27.7001 15.7 27.6001 15.8 27.6001C15.7 27.6001 15.6 27.7001 15.5 27.8001C15.5 27.9001 15.4 28.0001 15.4 28.1001C15.4 28.2001 15.3 28.2001 15.2 28.2001C15.1 28.2001 15 28.2001 15 28.3001C15 28.3001 15 28.3001 14.9 28.3001C14.8 28.2001 14.7 28.1001 14.5 28.0001C14.7 28.0001 14.8 28.0001 14.9 28.0001C15.1 27.9001 15.2 27.8001 15.3 27.7001C14.9 28.0001 14.6 28.0001 14.3 27.8001C14.3 27.8001 14.3 27.7001 14.4 27.7001C14.3 27.8001 14.3 27.8001 14.2 27.7001C14 27.5001 13.8 27.4001 13.5 27.3001C13.4 27.3001 13.4 27.2001 13.3 27.2001C13.4 27.1001 13.4 27.1001 13.5 27.0001C13.6 26.9001 13.6 26.9001 13.7 26.8001C13.8 26.7001 13.8 26.7001 13.9 26.7001C14.1 26.5001 14.3 26.5001 14.6 26.5001C14.9 26.5001 15.1 26.6001 15.4 26.6001C15.6 26.6001 15.7 26.7001 15.8 26.9001C15.9 27.0001 16 27.2001 16 27.3001C16.1 27.5001 16.4 27.6001 16.6 27.5001C16.6 27.5001 16.6 27.5001 16.5 27.5001C16.3 27.5001 16.1 27.4001 16 27.2001C15.9 27.0001 15.8 26.8001 15.6 26.6001C15.8 26.6001 16 26.4001 16.2 26.3001C16.4 26.1001 16.6 25.8001 16.6 25.7001C16.5 25.9001 16.3 26.1001 16.1 26.3001C15.8 26.5001 15.5 26.6001 15.2 26.5001C14.9 26.4001 14.6 26.4001 14.3 26.4001C14.2 26.4001 14.2 26.4001 14.1 26.4001C14.2 26.2001 14.2 26.0001 14.3 25.8001C14.3 25.5001 14.5 25.3001 14.7 25.2001C14.5 25.2001 14.3 25.4001 14.2 25.7001C14.2 25.8001 14.1 26.0001 14.1 26.1001C14 26.4001 13.9 26.5001 13.7 26.6001C13.5 26.3001 13.3 26.1001 13 26.0001C13 25.9001 13 25.9001 13 25.8001C13 25.7001 13.1 25.7001 13.2 25.7001C13.2 25.7001 13.2 25.7001 13.3 25.7001C13.3 25.7001 13.3 25.7001 13.4 25.7001C13.2 25.6001 13.1 25.8001 12.9 25.9001C12.8 25.7001 12.6 25.5001 12.5 25.4001C12.6 25.4001 12.7 25.3001 12.8 25.3001C13 25.2001 13.2 25.2001 13.4 25.4001C13.3 25.2001 13.1 25.1001 12.8 25.2001C12.7 25.2001 12.6 25.3001 12.5 25.3001C12.5 25.2001 12.6 25.1001 12.6 25.0001C12.6 25.0001 12.6 25.1001 12.5 25.1001C12.4 25.2001 12.4 25.3001 12.3 25.3001C12.2 25.3001 12.1 25.3001 11.9 25.3001C11.7 25.2001 11.5 25.1001 11.3 24.9001C11.3 24.9001 11.3 24.9001 11.3 24.8001C11.2 24.6001 10.7 23.8001 10.6 23.6001C10.1 23.6001 10.4 23.6001 9.9 23.6001C9.9 23.7001 9.5 24.3001 9.4 24.4001C9.3 24.7001 9.1 24.9001 8.9 25.1001C8.8 25.2001 8.7 25.2001 8.6 25.1001C8.5 25.0001 8.5 24.9001 8.4 24.9001C8.5 25.0001 8.5 25.1001 8.6 25.2001C8.6 25.0001 8.4 25.0001 8.3 25.1001C8.2 25.2001 8 25.2001 7.9 25.2001C7.7 25.2001 7.5 25.1001 7.3 24.9001C7.2 24.8001 7.2 24.7001 7.1 24.5001C7.2 24.9001 7.4 25.2001 7.7 25.3001H7.6C7.5 25.3001 7.4 25.2001 7.3 25.2001C7.2 25.2001 7.2 25.1001 7.1 25.1001C7.2 25.3001 7.3 25.4001 7.5 25.5001C7.1 25.7001 6.9 26.1001 6.6 26.4001C6.8 26.2001 7 26.0001 7.2 25.8001C7.3 25.7001 7.4 25.6001 7.5 25.6001C7.5 25.6001 7.6 25.5001 7.7 25.5001C7.8 25.5001 7.8 25.5001 7.9 25.5001C8 25.5001 8 25.5001 8.1 25.5001C8.2 25.5001 8.4 25.5001 8.5 25.5001C8.5 25.6001 8.4 25.7001 8.4 25.7001C8.4 25.8001 8.3 25.8001 8.3 25.9001C8 25.9001 7.7 26.0001 7.4 26.2001C7.3 26.3001 7.1 26.4001 7 26.4001C6.9 26.5001 6.7 26.5001 6.6 26.4001C6.5 26.3001 6.4 26.3001 6.3 26.2001C6.2 26.1001 6.1 26.1001 6 26.1001C6 26.0001 6 25.9001 6 25.8001C6 25.6001 5.8 25.4001 5.6 25.4001C5.7 25.5001 5.8 25.5001 5.8 25.6001C5.9 25.7001 5.9 25.9001 6 26.1001V26.2001C5.9 26.2001 5.9 26.3001 5.8 26.3001C5.9 26.3001 6 26.2001 6.1 26.2001C6.1 26.3001 6.2 26.5001 6.2 26.6001C6.1 26.6001 6 26.6001 5.9 26.6001C5.6 26.6001 5.4 26.6001 5.1 26.7001H5C4.9 26.7001 4.9 26.6001 4.8 26.6001L5 26.7001C4.5 26.7001 4.1 26.3001 3.8 25.9001C4 26.4001 4.3 26.7001 4.7 26.9001C4.5 27.0001 4.4 27.2001 4.4 27.4001C4.2 27.4001 4.1 27.5001 4 27.7001C4 27.7001 3.9 27.8001 3.9 27.7001C3.8 27.8001 3.8 27.8001 3.8 27.9001C3.9 27.9001 3.9 27.8001 4 27.8001H4.1C4.3 27.8001 4.4 27.7001 4.5 27.6001C4.5 27.6001 4.5 27.6001 4.6 27.6001C4.7 27.6001 4.9 27.6001 5 27.7001C5.1 27.8001 5.2 27.8001 5.3 27.9001C5.6 28.0001 5.9 28.1001 6.2 28.0001C6.3 28.0001 6.3 28.0001 6.4 27.9001V28.0001C6.4 28.1001 6.4 28.1001 6.3 28.2001C6.2 28.3001 6.1 28.3001 6 28.4001C5.9 28.5001 5.7 28.5001 5.6 28.4001C5.4 28.4001 5.3 28.3001 5.2 28.1001C5.3 28.4001 5.6 28.5001 6 28.5001C5.9 28.6001 5.8 28.7001 5.7 28.8001C5.6 28.9001 5.5 28.9001 5.5 28.8001C5.4 28.7001 5.3 28.8001 5.2 28.8001C5.4 28.7001 5.5 28.8001 5.6 28.9001C5.4 29.0001 5.1 29.2001 4.9 29.2001C4.1 29.0001 3.9 29.0001 3.7 29.0001C3.5 28.9001 3.3 28.8001 3.2 28.5001C3.2 28.4001 3.1 28.4001 3.1 28.3001C3.1 28.1001 3 28.0001 3 27.9001C2.9 27.7001 2.7 27.5001 2.5 27.5001C2.4 27.5001 2.3 27.5001 2.3 27.5001C2.4 27.5001 2.6 27.6001 2.7 27.6001C2.9 27.7001 3 27.9001 3.1 28.1001C3.2 28.3001 3.2 28.5001 3.4 28.7001C3.5 28.8001 3.6 28.9001 3.6 29.0001C3.5 29.0001 3.5 28.9001 3.4 28.9001C3.1 28.8001 2.8 28.7001 2.5 28.9001C2.2 29.0001 2 29.1001 1.8 29.2001C1.7 29.3001 1.6 29.3001 1.5 29.4001C1.7 29.3001 1.9 29.2001 2.1 29.1001C2.3 29.1001 2.5 29.0001 2.7 29.0001C3 29.0001 3.3 29.1001 3.5 29.3001C3 29.5001 2.8 29.9001 2.8 30.4001C2.8 30.3001 2.8 30.2001 2.9 30.1001C3 29.8001 3.1 29.6001 3.4 29.5001C3.5 29.4001 3.6 29.4001 3.7 29.4001C3.9 29.4001 4 29.4001 4.2 29.4001C4.3 29.4001 4.4 29.3001 4.5 29.3001V29.4001V29.5001C4.4 29.9001 4.4 30.2001 4.4 30.6001C4.4 30.8001 4.4 31.0001 4.3 31.2001C4.3 31.2001 4.3 31.2001 4.3 31.3001C4.3 31.3001 4.3 31.3001 4.3 31.4001C4.2 31.5001 4.2 31.6001 4.1 31.6001C4.1 31.7001 4 31.7001 4 31.7001C4.1 31.6001 4.3 31.5001 4.4 31.4001C4.5 31.3001 4.5 31.3001 4.6 31.4001L4.7 31.5001C4.7 31.6001 4.8 31.7001 4.8 31.8001C4.8 31.9001 4.8 31.9001 4.7 31.9001H4.6C4.4 31.9001 4.2 32.1001 4 32.3001C4.2 32.1001 4.4 32.0001 4.6 32.0001C4.5 32.2001 4.4 32.4001 4.4 32.6001C4.5 32.4001 4.6 32.3001 4.7 32.1001H4.8C4.9 31.9001 5 32.0001 5.1 32.0001C5.3 32.1001 5.5 32.2001 5.8 32.1001H5.9C5.8 32.2001 5.8 32.4001 5.7 32.5001V32.6001C5.7 32.7001 5.7 32.7001 5.7 32.8001V32.9001C5.5 32.9001 5.4 33.0001 5.3 33.0001C5.2 33.0001 5.1 33.0001 5.1 33.0001C5 33.0001 4.9 33.1001 4.8 33.3001C4.9 33.0001 5.1 33.0001 5.2 33.0001C5.3 33.0001 5.4 33.0001 5.6 32.9001C5.6 33.0001 5.6 33.1001 5.6 33.2001V33.3001C5.5 33.4001 5.4 33.5001 5.3 33.5001C5.2 33.6001 5.1 33.7001 4.9 33.7001C4.7 33.8001 4.4 33.7001 4.2 33.6001C4.1 33.6001 4 33.5001 4 33.4001C4.3 33.7001 4.6 33.9001 5 33.8001C4.8 34.0001 4.7 34.2001 4.7 34.5001V34.6001H4.8V34.5001C4.9 34.0001 5.2 33.7001 5.7 33.5001C5.7 33.6001 5.6 33.8001 5.5 33.8001L5.4 33.9001C5.4 33.9001 5.4 33.9001 5.5 33.9001C5.6 33.8001 5.7 33.6001 5.8 33.4001C5.8 33.3001 5.8 33.3001 5.9 33.3001C5.9 33.4001 5.9 33.5001 5.9 33.6001C5.9 33.8001 6 33.9001 6 34.1001C6.1 34.3001 6.1 34.4001 6 34.6001C6 34.6001 6 34.7001 5.9 34.7001C6 34.6001 6 34.5001 6 34.3001C6 34.1001 6 34.0001 5.9 33.9001C5.9 33.8001 5.8 33.6001 5.8 33.5001C5.8 33.4001 5.8 33.3001 5.9 33.2001C6 33.1001 6.1 33.1001 6.1 33.0001C6.2 32.9001 6.3 32.8001 6.3 32.8001C6.3 32.8001 6.3 32.8001 6.4 32.8001H6.5C6.6 32.8001 6.6 32.8001 6.6 32.9001C6.6 33.1001 6.5 33.2001 6.5 33.4001C6.5 33.5001 6.4 33.5001 6.4 33.6001C6.6 33.5001 6.7 33.3001 6.7 33.0001C6.7 33.1001 6.8 33.2001 6.8 33.3001C6.9 33.4001 6.9 33.5001 6.8 33.6001V33.7001V33.6001C6.8 33.8001 6.7 34.1001 6.6 34.3001C6.8 34.1001 6.9 33.9001 6.9 33.6001C7 33.8001 7.2 34.0001 7.3 34.2001C7.4 34.3001 7.4 34.4001 7.4 34.5001C7.4 34.6001 7.4 34.8001 7.4 34.9001C7.5 34.9001 7.5 34.9001 7.6 34.9001C7.6 34.8001 7.6 34.7001 7.6 34.5001C7.6 34.4001 7.6 34.2001 7.6 34.1001C7.7 34.1001 7.8 34.2001 7.9 34.2001C8 34.2001 8.1 34.3001 8.2 34.4001C8.3 34.5001 8.4 34.7001 8.4 34.9001C8.4 34.9001 8.4 34.9001 8.4 35.0001C8.4 34.9001 8.4 34.8001 8.5 34.7001C8.5 34.4001 8.5 34.1001 8.4 33.9001C8.4 33.8001 8.3 33.8001 8.3 33.7001C8.4 34.0001 8.6 34.0001 8.8 34.1001C8.9 34.1001 9 34.2001 9.1 34.3001C9.2 34.4001 9.2 34.5001 9.2 34.5001C9.2 34.3001 9 34.1001 8.9 34.1001C8.8 34.1001 8.7 34.1001 8.6 34.0001C8.4 33.9001 8.2 33.7001 8.2 33.4001C8.2 33.0001 8.2 32.6001 8.3 32.2001C8.3 32.2001 8.3 32.2001 8.3 32.1001C8.3 32.4001 8.5 32.5001 8.6 32.6001C8.6 32.5001 8.5 32.5001 8.5 32.4001V32.3001C8.5 32.2001 8.5 32.0001 8.5 31.9001V31.8001C8.6 31.7001 8.7 31.6001 8.7 31.5001C8.8 31.4001 8.8 31.4001 8.9 31.3001C8.9 31.4001 9 31.4001 9 31.5001C9 31.8001 9 32.1001 9.1 32.4001C9.1 32.5001 9.1 32.6001 9 32.7001C9 32.8001 8.9 32.9001 8.9 33.0001C8.8 33.1001 8.8 33.3001 8.9 33.4001C8.9 33.3001 8.9 33.1001 8.9 33.0001C9 32.9001 9.1 32.7001 9.1 32.6001C9.3 32.9001 9.5 33.1001 9.7 33.1001C9.7 33.0001 9.5 33.0001 9.4 32.9001C9.2 32.7001 9.1 32.5001 9.1 32.3001C9.1 32.0001 9 31.7001 8.9 31.5001C8.9 31.5001 9 31.5001 9 31.6001C9.1 31.9001 9.2 32.2001 9.4 32.5001C9.5 32.6001 9.6 32.7001 9.6 32.9001C9.8 33.2001 9.9 33.6001 9.8 34.0001C9.8 34.1001 9.7 34.3001 9.7 34.4001C10 33.9001 10 33.5001 9.8 33.0001C9.9 33.1001 10.1 33.1001 10.2 33.1001C10.1 33.0001 10 33.0001 9.9 32.9001C9.8 32.8001 9.7 32.7001 9.6 32.6001C9.5 32.4001 9.4 32.2001 9.3 32.1001C9.2 32.0001 9.2 31.8001 9.2 31.6001V31.5001C9.3 31.5001 9.4 31.5001 9.5 31.5001C9.5 31.5001 9.6 31.6001 9.7 31.6001C9.7 31.5001 9.6 31.5001 9.6 31.5001V31.4001C9.6 31.3001 9.7 31.1001 9.7 31.0001C9.7 30.9001 9.7 30.8001 9.7 30.8001L9.8 30.9001C10 31.0001 10.1 31.2001 10.2 31.4001V31.5001C10.1 31.7001 10.1 31.9001 10.1 32.2001C10.1 32.4001 10.1 32.5001 10.2 32.7001C10.2 32.4001 10.1 32.0001 10.3 31.7001C10.4 32.0001 10.4 32.3001 10.4 32.6001C10.5 32.4001 10.5 31.9001 10.4 31.6001C10.4 31.5001 10.4 31.4001 10.5 31.3001C10.5 31.3001 10.5 31.3001 10.6 31.2001C10.7 31.1001 10.8 31.0001 10.9 30.9001C10.9 30.9001 10.9 30.9001 11 30.9001C11.1 30.9001 11.2 30.9001 11.3 31.0001L11.4 31.1001C11.3 30.9001 11.2 30.8001 11 30.8001C11.1 30.7001 11.1 30.6001 11.2 30.5001C11.3 30.6001 11.4 30.7001 11.4 30.9001C11.5 31.0001 11.5 31.1001 11.5 31.2001C11.5 31.3001 11.5 31.3001 11.5 31.3001C11.4 31.4001 11.3 31.5001 11.3 31.7001C11.3 31.5001 11.4 31.4001 11.5 31.3001C11.6 31.7001 11.5 32.2001 11.4 32.6001C11.5 32.4001 11.6 32.3001 11.6 32.1001C11.6 31.9001 11.7 31.7001 11.7 31.5001C11.7 31.4001 11.7 31.3001 11.8 31.3001C11.8 31.5001 11.8 31.7001 11.9 31.8001C12 32.0001 12.2 32.2001 12.2 32.2001C12.1 32.1001 12 31.9001 12 31.8001C11.9 31.6001 11.9 31.5001 11.9 31.3001C12.1 31.4001 12.3 31.6001 12.5 31.7001C12.8 31.9001 13 32.1001 13.2 32.4001V32.5001C13.2 32.6001 13.2 32.8001 13.1 32.9001C13.1 33.0001 13 33.1001 12.9 33.2001C12.8 33.3001 12.7 33.3001 12.5 33.2001C12.4 33.2001 12.3 33.1001 12.3 33.1001C12.4 33.2001 12.4 33.3001 12.5 33.3001C12.6 33.4001 12.8 33.3001 12.9 33.3001V33.4001C12.8 33.6001 12.6 33.8001 12.4 33.9001C12.1 33.9001 12 34.0001 11.8 34.0001C11.5 34.1001 11.4 34.3001 11.4 34.6001C11.5 34.3001 11.7 34.1001 12 34.0001C12.1 34.0001 12.3 33.9001 12.4 33.9001C12.2 34.3001 12.2 34.4001 12.2 34.8001C12.2 34.9001 12.2 35.0001 12.3 35.1001H12.4C12.4 35.0001 12.4 34.8001 12.4 34.7001C12.4 34.4001 12.5 34.1001 12.7 33.9001C12.8 33.8001 12.9 33.7001 13 33.6001C13 33.6001 13 33.6001 13.1 33.5001C13.1 33.8001 13.2 34.0001 13.4 34.2001C13.4 34.2001 13.4 34.2001 13.4 34.1001C13.3 33.9001 13.2 33.6001 13.3 33.3001C13.3 33.2001 13.4 33.1001 13.4 33.0001H13.5C13.5 33.1001 13.6 33.2001 13.5 33.3001C13.4 33.6001 13.5 33.8001 13.5 34.1001V33.5001C13.5 33.7001 13.5 33.8001 13.5 34.0001C13.5 34.2001 13.5 34.3001 13.5 34.5001C13.5 34.7001 13.5 34.8001 13.4 35.0001C13.4 35.0001 13.4 35.0001 13.4 34.9001C13.5 34.4001 13.6 33.8001 13.5 33.3001V33.2001C13.6 33.1001 13.6 33.0001 13.7 32.9001C13.8 33.0001 13.9 33.1001 14 33.1001C14 33.1001 14 33.1001 14 33.2001C14.1 33.4001 14.1 33.5001 14 33.7001C14 33.9001 13.9 34.0001 13.9 34.2001C13.8 34.4001 13.9 34.7001 14.1 34.8001C14 34.6001 14 34.3001 14.1 34.1001C14.2 34.0001 14.2 33.8001 14.2 33.7001C14.2 33.6001 14.2 33.5001 14.2 33.4001C14.3 33.4001 14.4 33.5001 14.4 33.5001C14.4 33.6001 14.4 33.8001 14.4 33.9001C14.4 33.8001 14.4 33.7001 14.4 33.5001C14.6 33.6001 14.8 33.8001 14.9 34.0001C15 34.1001 15 34.3001 15.1 34.4001C15.1 34.5001 15.1 34.5001 15.1 34.6001H15.2C15.2 34.5001 15.1 34.3001 15.1 34.2001C15.1 34.1001 15.1 34.0001 15.1 34.0001C15.2 34.0001 15.4 34.0001 15.5 33.9001C15.6 33.8001 15.8 33.7001 15.8 33.6001C15.6 33.8001 15.3 33.9001 15.1 33.9001V33.8001C15 33.5001 14.9 33.3001 14.7 33.1001C14.6 32.9001 14.4 32.8001 14.4 32.5001C14.4 32.4001 14.3 32.3001 14.3 32.1001C14.5 32.3001 14.7 32.5001 14.8 32.8001C14.7 32.5001 14.5 32.2001 14.3 32.0001C14.3 32.0001 14.3 32.0001 14.2 32.0001C14.2 31.9001 14.2 31.8001 14.2 31.7001C14.3 31.7001 14.4 31.7001 14.5 31.7001C14.6 31.8001 14.8 31.9001 15 31.9001C15 31.9001 15.1 31.9001 15.1 32.0001C15.2 32.1001 15.3 32.3001 15.4 32.5001C15.4 32.6001 15.4 32.6001 15.5 32.7001C15.5 32.6001 15.4 32.4001 15.4 32.3001C15.5 32.5001 15.6 32.6001 15.6 32.8001V32.7001C15.6 32.4001 15.5 32.2001 15.3 32.1001C15.2 31.9001 15 31.8001 14.8 31.8001H14.7C14.7 31.7001 14.6 31.7001 14.6 31.6001L14.7 31.5001L14.6 31.6001C14.5 31.4001 14.5 31.3001 14.5 31.1001C14.5 30.8001 14.5 30.5001 14.5 30.3001C14.6 30.5001 14.7 30.7001 15 30.7001C14.8 30.6001 14.6 30.5001 14.6 30.2001C14.6 30.1001 14.6 30.0001 14.5 29.9001C14.4 29.7001 14.4 29.5001 14.3 29.3001C14.6 29.3001 14.9 29.5001 15.1 29.7001C15.3 29.9001 15.5 30.1001 15.6 30.3001V30.4001C15.6 30.7001 15.6 30.9001 15.6 31.2001C15.6 31.5001 15.7 31.7001 15.8 31.9001V32.0001C15.8 32.2001 15.9 32.4001 16 32.5001C15.9 32.3001 15.8 32.2001 15.8 32.0001C15.9 32.0001 15.9 32.1001 16 32.1001C16 32.1001 16 32.0001 15.9 32.0001C15.8 31.9001 15.8 31.9001 15.8 31.7001C15.9 31.5001 15.9 31.2001 15.9 31.0001C15.9 30.9001 15.9 30.9001 15.9 30.8001C16 30.9001 16.2 30.9001 16.3 31.0001C16.4 31.1001 16.5 31.2001 16.6 31.3001C16.7 31.4001 16.8 31.5001 16.8 31.6001C16.8 31.7001 16.8 31.8001 16.8 31.9001C16.8 31.7001 16.8 31.5001 16.7 31.3001C16.7 31.2001 16.6 31.2001 16.5 31.1001C16.5 31.0001 16.4 31.0001 16.4 30.9001C16.5 30.9001 16.6 30.9001 16.6 30.9001C16.9 30.8001 17.1 30.9001 17.3 31.1001C17.4 31.2001 17.5 31.3001 17.6 31.4001C17.5 31.3001 17.4 31.1001 17.3 31.0001C17.1 30.8001 16.9 30.7001 16.6 30.8001C16.6 30.8001 16.6 30.8001 16.5 30.8001C16.7 30.7001 16.8 30.5001 16.9 30.3001C16.9 30.5001 17 30.6001 17 30.8001C17 30.6001 17 30.5001 16.9 30.3001V30.2001C17 30.2001 17 30.1001 17.1 30.1001C17.2 30.1001 17.2 30.1001 17.3 30.1001C17.1 30.0001 17 30.1001 16.8 30.2001C16.7 30.1001 16.7 30.0001 16.6 29.9001C16.5 29.8001 16.4 29.8001 16.3 29.7001C16.5 29.6001 16.6 29.6001 16.8 29.5001C17.1 29.4001 17.3 29.4001 17.6 29.5001C17.8 29.6001 18 29.7001 18.2 29.8001L18.5 29.9001C18.4 29.3001 18.2 29.1001 18 29.0001ZM12.3 25.2001C12.5 25.3001 12.6 25.5001 12.7 25.7001C12.6 25.7001 12.6 25.8001 12.5 25.8001C12.3 25.8001 12.1 25.7001 11.9 25.6001C11.8 25.5001 11.8 25.5001 11.8 25.4001C11.8 25.3001 11.8 25.2001 11.7 25.1001C11.9 25.1001 12.1 25.1001 12.3 25.2001ZM13 28.3001C13 28.4001 13 28.5001 13 28.6001C12.9 28.5001 12.9 28.4001 12.8 28.4001C12.7 28.3001 12.6 28.2001 12.5 28.0001C12.4 27.8001 12.3 27.7001 12.2 27.5001C12.3 27.5001 12.5 27.5001 12.6 27.5001C12.7 27.5001 12.8 27.6001 12.8 27.7001C12.9 27.8001 13 28.1001 13 28.3001ZM10.7 27.2001C10.8 27.3001 10.8 27.3001 10.8 27.4001V27.5001C10.8 27.6001 10.7 27.7001 10.7 27.8001V27.2001ZM10.9 28.4001C10.9 28.6001 10.9 28.9001 10.8 29.1001C10.8 29.0001 10.8 29.0001 10.8 28.9001C10.8 28.8001 10.8 28.7001 10.8 28.6001V28.5001C10.8 28.5001 10.8 28.4001 10.9 28.4001ZM9.9 26.5001C9.9 26.8001 9.9 27.2001 9.7 27.5001C9.6 27.3001 9.4 27.3001 9.2 27.2001C9.5 27.0001 9.7 26.7001 9.9 26.5001ZM9.8 27.5001C9.7 27.7001 9.6 27.8001 9.5 27.9001C9.5 27.8001 9.5 27.7001 9.4 27.6001C9.4 27.5001 9.3 27.4001 9.3 27.3001C9.4 27.3001 9.5 27.4001 9.6 27.4001C9.7 27.4001 9.7 27.4001 9.8 27.5001ZM9.2 25.6001C9.2 25.5001 9.3 25.4001 9.3 25.3001C9.3 25.2001 9.4 25.2001 9.5 25.2001C9.4 25.6001 9.3 26.0001 9 26.3001C9.1 26.0001 9.1 25.8001 9.2 25.6001ZM9 27.6001C9 27.5001 9.1 27.4001 9.2 27.3001C9.3 27.5001 9.4 27.7001 9.4 28.0001C9.4 28.0001 9.4 28.0001 9.4 28.1001C9.2 28.2001 9.1 28.3001 8.9 28.4001C8.9 28.2001 9 28.0001 9 27.9001C8.9 27.8001 9 27.7001 9 27.6001ZM9.1 28.4001C9 28.6001 9 28.7001 8.9 28.9001C8.9 28.8001 8.9 28.7001 8.8 28.6001C8.9 28.5001 9 28.5001 9.1 28.4001ZM8.9 25.8001C8.9 26.0001 8.9 26.1001 8.9 26.3001C8.9 26.3001 8.9 26.3001 8.9 26.4001C8.9 26.5001 8.9 26.6001 8.8 26.7001C8.7 26.8001 8.6 27.0001 8.5 27.1001C8.5 27.1001 8.5 27.2001 8.4 27.2001C8.3 26.8001 8.7 26.0001 8.9 25.8001ZM8.4 28.6001H8.5C8.5 28.8001 8.6 29.0001 8.6 29.3001C8.7 29.5001 8.7 29.7001 8.8 29.9001C8.7 29.9001 8.5 29.7001 8.5 29.5001C8.5 29.4001 8.5 29.2001 8.4 29.1001V29.0001C8.3 28.8001 8.4 28.7001 8.4 28.6001ZM7.5 30.5001C7.4 30.2001 7.4 30.0001 7.5 29.7001C7.6 29.5001 7.7 29.2001 7.8 29.0001L7.9 28.9001C7.9 28.8001 8 28.8001 8 28.7001C8.1 29.0001 7.7 30.1001 7.5 30.5001ZM7.5 26.5001C7.5 26.7001 7.4 26.8001 7.4 27.0001C7.4 27.1001 7.4 27.2001 7.3 27.3001C7.3 27.3001 7.3 27.4001 7.2 27.4001C7.1 27.4001 7 27.4001 6.9 27.3001C6.9 27.2001 6.8 27.1001 6.7 27.1001C7 26.8001 7.3 26.6001 7.5 26.5001ZM6 26.2001C6.1 26.2001 6.2 26.2001 6.3 26.3001C6.4 26.4001 6.6 26.5001 6.7 26.6001H6.8C6.7 26.7001 6.7 26.8001 6.6 26.9001C6.5 26.8001 6.3 26.8001 6.2 26.7001L6.1 26.6001C6 26.4001 6 26.3001 6 26.2001ZM6.7 27.5001C6.5 27.6001 6.3 27.7001 6.1 27.8001C6.1 27.7001 6.1 27.6001 6.2 27.5001C6.3 27.4001 6.4 27.4001 6.5 27.3001C6.6 27.3001 6.7 27.4001 6.7 27.5001ZM4.7 27.4001C4.6 27.3001 4.4 27.3001 4.3 27.3001C4.4 27.2001 4.5 27.1001 4.6 27.0001C4.7 26.9001 4.8 26.9001 5 26.9001V27.0001C5 27.2001 5.1 27.5001 5.2 27.7001C5 27.5001 4.9 27.4001 4.7 27.4001ZM5.6 27.6001C5.4 27.7001 5.2 27.6001 5.1 27.3001C5 27.1001 5 26.9001 5 26.8001C5.1 26.8001 5.1 26.8001 5.2 26.8001C5.4 26.8001 5.6 26.8001 5.9 26.8001C6.1 26.8001 6.3 26.9001 6.5 27.1001C6.2 27.3001 5.9 27.5001 5.6 27.6001ZM5.7 31.9001C5.7 32.0001 5.7 32.0001 5.7 31.9001C5.5 32.0001 5.4 31.9001 5.3 31.9001C5.2 31.9001 5.1 31.8001 5 31.7001C5.1 31.6001 5.3 31.5001 5.5 31.5001C5.7 31.5001 5.8 31.5001 6 31.5001H6.1L6 31.6001C5.8 31.7001 5.7 31.8001 5.7 31.9001ZM5.7 33.2001C5.7 33.0001 5.8 32.8001 5.8 32.6001C5.9 32.7001 6 32.7001 6.1 32.8001C6 33.0001 5.8 33.1001 5.7 33.2001ZM6.2 32.7001C6.2 32.7001 6.1 32.7001 6.2 32.7001C6 32.7001 5.9 32.7001 5.8 32.6001C6 32.2001 6.2 32.0001 6.5 31.7001C6.5 32.1001 6.4 32.4001 6.2 32.7001ZM6.7 30.9001C6.6 30.9001 6.6 30.9001 6.7 30.9001C6.5 30.8001 6.4 30.7001 6.3 30.6001C6.1 30.5001 5.9 30.5001 5.7 30.6001C5.8 30.6001 5.8 30.6001 5.8 30.5001C6 30.4001 6.2 30.5001 6.3 30.6001C6.4 30.7001 6.5 30.8001 6.6 30.9001C6.5 31.1001 6.3 31.1001 6.1 31.2001C5.9 31.3001 5.7 31.2001 5.5 31.0001C5.6 31.1001 5.7 31.2001 5.8 31.3001C5.5 31.3001 5.2 31.3001 5 31.5001C4.9 31.4001 4.8 31.1001 4.6 31.1001C4.7 30.8001 4.7 30.6001 4.7 30.3001C4.7 30.1001 4.7 29.8001 4.7 29.6001C4.7 29.4001 4.8 29.3001 4.9 29.1001C4.8 29.3001 4.8 29.5001 4.8 29.7001C4.8 29.6001 4.9 29.4001 4.9 29.2001C5 28.9001 5.1 28.8001 5.4 28.7001C5.5 28.7001 5.5 28.6001 5.6 28.6001C5.7 28.5001 5.8 28.5001 5.9 28.4001C5.9 28.6001 5.9 28.7001 6 28.9001C6 29.0001 6 29.2001 5.9 29.3001C6 29.2001 6.1 29.0001 6 28.9001C6 28.8001 6 28.7001 5.9 28.5001C5.9 28.4001 5.9 28.3001 6 28.1001C6 28.0001 6.1 27.9001 6.2 27.9001C6.6 27.6001 7.1 27.5001 7.6 27.5001C7.7 27.5001 7.9 27.5001 8 27.5001C8 27.5001 8 27.5001 8 27.6001C7.8 27.8001 7.7 28.0001 7.6 28.3001C7.6 28.3001 7.6 28.3001 7.5 28.4001C7.4 28.5001 7.4 28.5001 7.3 28.6001C7.3 28.5001 7.2 28.5001 7.2 28.4001C7.1 28.3001 7 28.3001 6.9 28.4001C7.1 28.4001 7.1 28.4001 7.3 28.6001C7.1 29.0001 7.1 29.0001 7 29.0001C6.7 29.0001 6.6 29.2001 6.5 29.5001C6.5 29.5001 6.5 29.6001 6.4 29.6001C6.3 29.6001 6.2 29.6001 6.1 29.6001C6.2 29.6001 6.3 29.6001 6.4 29.7001C6.6 29.7001 6.8 29.5001 6.9 29.4001L7 29.3001C7 29.2001 7.1 29.2001 7.2 29.2001V29.3001C7.1 29.6001 7 30.0001 7 30.3001C6.9 30.6001 6.8 30.8001 6.7 30.9001ZM7 29.1001C6.9 29.3001 6.7 29.5001 6.5 29.5001C6.6 29.3001 6.8 29.1001 7 29.1001ZM7.4 34.1001C7.2 34.0001 7.1 33.7001 7 33.5001C7.1 33.3001 7.3 33.4001 7.5 33.3001C7.5 33.6001 7.4 33.8001 7.4 34.1001ZM7.5 33.1001C7.5 33.2001 7.5 33.2001 7.5 33.1001C7.4 33.2001 7.3 33.2001 7.3 33.2001C7.2 33.2001 7.1 33.3001 7 33.4001C6.9 33.2001 6.9 33.1001 6.8 32.9001C7.1 32.9001 7.4 32.7001 7.7 32.5001C7.6 32.7001 7.6 32.9001 7.5 33.1001ZM8.2 34.1001C8.3 34.3001 8.3 34.6001 8.3 34.8001C8.3 34.7001 8.3 34.7001 8.2 34.6001C8.1 34.5001 8 34.4001 7.9 34.3001C7.8 34.3001 7.7 34.2001 7.6 34.2001C7.7 34.1001 7.8 34.1001 7.9 34.0001C7.8 34.1001 7.7 34.1001 7.5 34.1001C7.5 33.9001 7.5 33.7001 7.5 33.6001C7.5 33.4001 7.6 33.3001 7.6 33.1001C7.6 33.1001 7.6 33.1001 7.6 33.0001C7.8 33.1001 7.8 33.0001 7.9 33.0001V33.1001C7.9 33.4001 7.9 33.6001 8 33.9001C8.1 33.9001 8.2 34.0001 8.2 34.1001ZM8.1 31.6001V31.7001C8.1 31.8001 8.1 31.8001 8 31.9001C7.8 32.1001 7.7 32.3001 7.5 32.4001C7.3 32.6001 7.1 32.7001 6.9 32.7001H6.8C6.8 32.4001 6.9 32.2001 6.9 31.9001C6.9 32.0001 6.9 32.0001 7 32.1001C7 32.1001 7 32.1001 7 32.0001C6.9 31.8001 6.9 31.6001 7 31.5001C7 31.4001 7.1 31.3001 7.1 31.2001C7.1 31.2001 7.1 31.2001 7.1 31.1001C7.2 31.0001 7.4 30.9001 7.5 30.8001V30.9001C7.5 31.0001 7.4 31.1001 7.4 31.2001C7.3 31.4001 7.3 31.6001 7.5 31.8001C7.5 31.7001 7.5 31.6001 7.4 31.6001C7.4 31.4001 7.4 31.3001 7.5 31.2001C7.5 31.1001 7.6 31.0001 7.6 30.9001C7.7 31.0001 7.9 31.1001 8 31.3001C8.1 31.4001 8.2 31.5001 8.1 31.6001ZM8.6 31.2001C8.5 31.3001 8.5 31.4001 8.4 31.4001C8.4 31.2001 8.4 31.1001 8.4 31.0001C8.5 31.0001 8.5 31.1001 8.6 31.2001ZM8.5 30.7001C8.5 30.8001 8.4 30.8001 8.4 30.8001C8.4 30.8001 8.3 30.8001 8.3 30.7001C8.3 30.4001 8.2 30.2001 8.1 29.9001C8.1 29.8001 8.1 29.8001 8.1 29.7001C8.2 29.5001 8.2 29.2001 8.3 29.0001C8.3 29.1001 8.4 29.3001 8.4 29.4001C8.4 29.6001 8.5 29.8001 8.7 29.9001C8.7 29.9001 8.7 29.9001 8.7 30.0001C8.7 30.1001 8.7 30.2001 8.6 30.3001C8.5 30.4001 8.5 30.6001 8.4 30.7001C8.6 30.6001 8.5 30.6001 8.5 30.7001ZM9 30.6001C8.9 30.6001 8.8 30.7001 8.6 30.7001C8.6 30.7001 8.6 30.6001 8.7 30.6001C8.8 30.4001 8.9 30.2001 8.9 30.0001C9 30.1001 9.1 30.2001 9.2 30.4001C9.2 30.4001 9.2 30.4001 9.2 30.5001C9.1 30.5001 9.1 30.6001 9 30.6001ZM9.5 31.4001C9.4 31.4001 9.3 31.4001 9.2 31.4001C9.2 31.3001 9.2 31.2001 9.2 31.1001C9.3 31.0001 9.3 30.9001 9.4 30.8001C9.6 30.8001 9.6 31.2001 9.5 31.4001ZM9.3 30.2001C9.2 30.1001 9.2 30.0001 9.1 30.0001C8.9 29.8001 8.9 29.5001 8.8 29.2001V29.1001C9.1 29.4001 9.2 29.5001 9.5 29.5001C9.4 29.5001 9.4 29.5001 9.3 29.4001C9.2 29.3001 9.1 29.2001 9 29.0001V28.9001C9.1 28.7001 9.3 28.4001 9.4 28.3001C9.4 28.4001 9.3 28.5001 9.3 28.6001C9.3 28.7001 9.2 28.8001 9.2 28.9001C9.3 28.8001 9.4 28.6001 9.4 28.4001C9.4 28.2001 9.5 28.1001 9.6 28.0001C9.7 27.9001 9.8 27.7001 9.9 27.6001C9.9 28.5001 9.7 29.4001 9.3 30.2001ZM10.3 31.2001C10.3 31.1001 10.2 31.0001 10.2 31.0001C10.3 31.0001 10.4 31.0001 10.6 31.0001C10.4 31.0001 10.3 31.1001 10.3 31.2001ZM10.5 30.8001C10.4 30.8001 10.4 30.8001 10.3 30.8001C10.1 30.8001 10 30.7001 9.8 30.6001C9.9 30.5001 9.9 30.5001 10 30.4001C10.1 30.3001 10.2 30.4001 10.3 30.4001C10.5 30.5001 10.6 30.5001 10.8 30.5001C10.7 30.6001 10.7 30.7001 10.5 30.8001ZM10.5 30.4001C10.4 30.4001 10.3 30.3001 10.2 30.3001C10 30.3001 9.9 30.4001 9.8 30.5001C9.8 30.5001 9.7 30.4001 9.6 30.4001C9.8 30.0001 10 29.6001 10.1 29.2001V29.3001C10.1 29.2001 10.1 29.1001 10.2 29.0001C10.3 29.2001 10.3 29.4001 10.4 29.6001C10.3 29.7001 10.2 29.8001 10.1 29.8001C10.2 29.7001 10.3 29.7001 10.4 29.6001C10.5 29.8001 10.7 30.1001 10.8 30.3001C10.8 30.4001 10.7 30.5001 10.5 30.4001ZM11.1 29.8001C11 29.8001 11 29.7001 10.9 29.6001C10.9 29.6001 10.9 29.5001 10.8 29.5001C10.7 29.4001 10.7 29.3001 10.8 29.1001C10.9 29.0001 10.9 28.8001 10.9 28.6001C10.9 28.6001 10.9 28.6001 10.9 28.5001C11 28.6001 11 28.7001 11 28.9001C11.1 29.2001 11.2 29.5001 11.1 29.8001ZM11.2 30.1001C11.2 29.9001 11.3 29.8001 11.3 29.6001C11.4 29.8001 11.6 30.0001 11.6 30.2001C11.5 30.2001 11.4 30.1001 11.2 30.1001ZM11.8 30.0001C11.7 29.9001 11.7 29.7001 11.6 29.6001V29.5001C11.6 29.3001 11.6 29.1001 11.5 29.0001C11.5 28.9001 11.4 28.9001 11.4 28.8001C11.4 28.7001 11.4 28.6001 11.3 28.4001C11.3 28.3001 11.3 28.2001 11.3 28.1001V28.0001C11.3 28.0001 11.3 28.0001 11.3 27.9001C11.4 27.9001 11.4 27.9001 11.4 28.0001L11.3 27.9001V27.8001C11.3 27.7001 11.3 27.6001 11.3 27.4001C11.4 27.5001 11.4 27.5001 11.4 27.5001C11.5 27.6001 11.5 27.6001 11.6 27.7001C11.8 27.9001 11.9 28.2001 11.9 28.5001C11.9 28.6001 11.9 28.6001 11.9 28.7001C12 28.5001 12 28.3001 11.9 28.0001L12 28.1001C12.1 28.3001 12.3 28.6001 12.4 28.8001C12.4 28.9001 12.4 28.9001 12.4 29.0001C12.4 29.0001 12.4 29.0001 12.4 29.1001C12.4 29.1001 12.4 29.0001 12.5 29.0001C12.6 29.3001 12.6 29.5001 12.6 29.8001C12.6 30.0001 12.5 30.2001 12.3 30.3001C12.2 30.3001 12.1 30.2001 12 30.2001C12.1 30.2001 12.2 30.2001 12.3 30.1001C12.2 30.1001 12.1 30.1001 12 30.1001C12 30.1001 11.9 30.1001 11.9 30.0001C11.8 30.1001 11.8 30.1001 11.8 30.0001ZM11.8 30.6001C11.8 30.5001 11.8 30.4001 11.8 30.3001C11.9 30.4001 12 30.4001 12.2 30.5001C12.1 30.6001 12 30.7001 11.9 30.8001C11.8 30.8001 11.8 30.7001 11.8 30.6001ZM12.1 31.0001C12.1 31.0001 12.1 30.9001 12.1 31.0001C12.1 30.8001 12.1 30.7001 12.2 30.7001L12.3 30.6001C12.4 30.7001 12.4 30.8001 12.4 30.9001C12.4 30.8001 12.4 30.7001 12.3 30.6001C12.4 30.5001 12.5 30.3001 12.6 30.2001C12.7 30.6001 12.8 31.0001 12.9 31.5001C12.6 31.3001 12.3 31.2001 12.1 31.0001ZM13.4 32.9001C13.4 32.8001 13.3 32.6001 13.3 32.5001C13.3 32.4001 13.3 32.4001 13.3 32.3001C13.4 32.5001 13.5 32.6001 13.6 32.8001C13.6 32.8001 13.5 32.9001 13.4 32.9001ZM15.1 33.6001C14.9 33.5001 14.7 33.4001 14.5 33.2001C14.5 33.0001 14.6 32.9001 14.6 32.7001C14.9 33.0001 15.1 33.2001 15.1 33.6001ZM14.2 32.0001C14.2 32.1001 14.3 32.2001 14.3 32.3001C14.3 32.4001 14.4 32.5001 14.4 32.5001C14.5 32.6001 14.5 32.7001 14.5 32.8001C14.5 32.9001 14.4 33.0001 14.4 33.1001C14.2 33.0001 14 32.8001 13.8 32.6001C13.8 32.5001 13.9 32.5001 13.9 32.5001C13.9 32.5001 13.9 32.5001 14 32.5001C14.1 32.5001 14.1 32.4001 14.2 32.4001C14.1 32.4001 14.1 32.4001 14 32.5001C14.1 32.3001 14.2 32.2001 14.2 32.0001ZM14 32.2001C14 32.3001 14 32.3001 13.9 32.4001C13.8 32.5001 13.8 32.5001 13.7 32.5001C13.6 32.5001 13.5 32.4001 13.5 32.3001C13.4 32.1001 13.3 31.9001 13.3 31.7001C13.5 31.7001 13.7 31.6001 14 31.7001C14.1 31.7001 14.1 31.7001 14.1 31.8001C14.1 31.9001 14.1 32.1001 14 32.2001ZM14.1 31.5001C13.9 31.5001 13.6 31.5001 13.4 31.4001H13.3C13.3 31.3001 13.2 31.3001 13.3 31.2001C13.4 31.0001 13.4 31.0001 13.5 31.1001C13.7 31.2001 13.9 31.3001 14 31.3001C14 31.3001 14.1 31.3001 14.1 31.4001C14.1 31.4001 14.1 31.4001 14.1 31.5001ZM14.1 31.1001C13.9 31.1001 13.7 31.0001 13.6 30.9001C13.8 30.8001 14 30.7001 14.1 30.5001V31.1001ZM14.1 30.1001C14.1 30.4001 13.9 30.6001 13.7 30.8001C13.7 30.8001 13.6 30.8001 13.6 30.9001C13.5 31.0001 13.5 31.0001 13.4 30.9001C13.2 30.7001 13.1 30.5001 13 30.3001C13 30.1001 12.9 29.9001 12.9 29.7001C12.9 29.6001 12.9 29.5001 12.8 29.4001V29.3001C12.8 29.2001 12.9 29.1001 12.9 29.0001C13.1 29.4001 13.4 29.5001 13.8 29.4001C13.7 29.4001 13.6 29.4001 13.5 29.4001C13.3 29.4001 13.2 29.3001 13.1 29.1001C13 28.8001 13 28.7001 13 28.6001C13.1 28.4001 13.1 28.2001 13 27.9001C13 27.9001 13 27.9001 13 27.8001C13.1 27.9001 13.2 28.0001 13.2 28.1001C13.5 28.5001 13.8 28.9001 13.9 29.5001C14 29.7001 14.1 29.9001 14.1 30.1001ZM15.1 28.4001C15.2 28.3001 15.4 28.3001 15.5 28.3001C15.7 28.4001 15.9 28.4001 16 28.5001C16.1 28.5001 16.1 28.6001 16.2 28.7001C16.1 28.7001 16 28.7001 16 28.7001C15.7 28.8001 15.4 28.6001 15.1 28.4001ZM15.7 31.2001C15.6 31.0001 15.5 30.9001 15.5 30.7001C15.5 30.6001 15.5 30.4001 15.5 30.3001C15.5 30.2001 15.5 30.1001 15.5 30.0001C15.5 30.1001 15.6 30.1001 15.6 30.2001C15.7 30.4001 15.8 30.5001 15.7 30.7001C15.8 30.8001 15.7 31.0001 15.7 31.2001ZM16.6 29.3001C16.8 29.4001 16.9 29.5001 17 29.6001C16.9 29.7001 16.9 29.8001 16.8 29.9001C16.7 30.0001 16.6 30.0001 16.6 30.0001C16.5 30.0001 16.3 30.0001 16.2 29.9001C16 29.8001 15.8 29.6001 15.7 29.4001C15.7 29.2001 15.6 29.0001 15.6 28.8001C15.6 28.8001 15.6 28.8001 15.7 28.8001C15.9 28.9001 16.2 29.0001 16.5 29.0001C16.6 29.0001 16.6 29.0001 16.7 29.1001C16.5 29.3001 16.5 29.3001 16.6 29.3001Z" stroke="white" stroke-width="0.25" stroke-miterlimit="10" stroke-linecap="round" stroke-linejoin="round"/>
<path d="M19.8002 10.4999C19.8002 10.3999 19.7002 10.3999 19.7002 10.3999C19.6002 10.3999 19.6002 10.2999 19.5002 10.2999C19.4002 10.1999 19.4002 10.1999 19.3002 10.0999L19.2002 9.9999C19.1002 9.8999 19.1002 9.7999 19.0002 9.6999V9.5999C19.0002 9.4999 18.9002 9.4999 18.9002 9.3999C18.8002 9.2999 18.8002 9.1999 18.7002 9.0999C18.6002 8.9999 18.6002 8.9999 18.5002 8.8999C18.4002 8.7999 18.3002 8.6999 18.1002 8.5999H18.0002H17.9002C17.9002 8.5999 17.8002 8.5999 17.8002 8.4999C17.7002 8.4999 17.7002 8.3999 17.7002 8.3999C17.6002 8.2999 17.6002 8.1999 17.5002 8.0999C17.5002 7.9999 17.5002 7.8999 17.5002 7.6999C17.5002 7.5999 17.6002 7.5999 17.6002 7.4999C17.6002 7.4999 17.6002 7.3999 17.7002 7.3999V7.2999V7.1999C17.6002 7.2999 17.5002 7.2999 17.4002 7.2999C17.3002 7.2999 17.1002 7.2999 17.0002 7.3999C16.9002 7.3999 16.8002 7.3999 16.6002 7.3999H16.5002H16.4002H16.3002C16.2002 7.3999 16.2002 7.3999 16.1002 7.3999C15.9002 7.3999 15.8002 7.3999 15.6002 7.3999C15.3002 7.4999 15.1002 7.5999 14.8002 7.7999C14.7002 7.8999 14.6002 7.9999 14.5002 8.1999C14.4002 8.3999 14.3002 8.4999 14.3002 8.6999C14.2002 8.5999 14.2002 8.4999 14.0002 8.4999H13.9002C13.8002 8.4999 13.6002 8.5999 13.6002 8.6999C13.6002 8.6999 13.6002 8.6999 13.5002 8.6999C13.4002 8.6999 13.4002 8.6999 13.3002 8.6999H13.2002C13.1002 8.6999 13.0002 8.6999 12.9002 8.7999C12.8002 8.7999 12.7002 8.8999 12.6002 8.8999H12.5002L12.4002 8.9999C12.3002 8.9999 12.2002 9.0999 12.2002 9.0999C12.1002 9.0999 12.0002 9.1999 11.8002 9.1999H11.7002C11.6002 9.1999 11.5002 9.1999 11.4002 9.0999C11.4002 9.0999 11.4002 9.0999 11.4002 9.1999C11.4002 9.2999 11.5002 9.2999 11.5002 9.2999C11.5002 9.3999 11.6002 9.4999 11.6002 9.5999C11.6002 9.6999 11.6002 9.8999 11.5002 10.0999C11.5002 10.1999 11.4002 10.2999 11.4002 10.3999C11.4002 10.3999 11.4002 10.3999 11.4002 10.4999C11.4002 10.4999 11.4002 10.4999 11.4002 10.5999V10.6999C11.2002 10.8999 11.0002 10.9999 10.9002 11.1999C10.8002 11.2999 10.7002 11.3999 10.6002 11.5999C10.6002 11.4999 10.6002 11.3999 10.6002 11.2999C10.6002 11.1999 10.6002 11.1999 10.6002 11.0999C10.6002 10.9999 10.6002 10.9999 10.6002 10.8999C10.6002 10.7999 10.6002 10.7999 10.6002 10.6999V10.5999C10.6002 10.4999 10.6002 10.4999 10.6002 10.3999V10.2999C10.6002 10.1999 10.6002 10.0999 10.6002 9.9999C10.6002 9.8999 10.6002 9.6999 10.7002 9.5999C10.7002 9.3999 10.8002 9.1999 10.9002 8.9999C11.0002 8.7999 11.1002 8.5999 11.2002 8.3999L11.3002 8.2999C11.7002 7.9999 12.2002 7.5999 12.6002 7.2999L12.8002 6.9999L13.9002 6.0999L14.0002 6.1999C14.1002 6.3999 14.1002 6.4999 14.2002 6.5999C14.3002 6.7999 14.3002 6.9999 14.2002 7.0999V7.1999C14.2002 7.2999 14.2002 7.3999 14.2002 7.4999C14.2002 7.5999 14.2002 7.6999 14.2002 7.7999C14.2002 7.8999 14.2002 7.9999 14.3002 7.9999C14.3002 7.9999 14.3002 7.9999 14.4002 7.9999C14.4002 7.8999 14.5002 7.7999 14.6002 7.6999L14.7002 7.5999C14.7002 7.5999 14.8002 7.4999 14.9002 7.4999H15.0002L15.1002 7.3999L15.2002 7.2999C15.3002 7.1999 15.3002 7.1999 15.4002 7.0999C15.5002 6.9999 15.6002 6.7999 15.7002 6.5999C15.7002 6.4999 15.7002 6.3999 15.8002 6.2999V6.1999V6.0999C15.8002 5.9999 15.8002 5.9999 15.8002 5.8999C15.8002 5.7999 15.9002 5.6999 15.9002 5.5999C15.9002 5.4999 16.0002 5.4999 16.0002 5.3999C16.1002 5.2999 16.2002 5.2999 16.3002 5.1999C16.4002 5.1999 16.5002 5.1999 16.6002 5.2999C16.7002 5.2999 16.8002 5.3999 16.8002 5.3999L16.9002 5.4999L17.0002 5.5999C17.0002 5.5999 17.0002 5.5999 17.1002 5.5999C17.1002 5.5999 17.1002 5.5999 17.2002 5.5999V5.4999C17.2002 5.5999 17.3002 5.5999 17.3002 5.6999C17.3002 5.6999 17.3002 5.6999 17.3002 5.5999C17.2002 5.3999 17.1002 5.1999 17.1002 4.8999C17.1002 4.6999 17.0002 4.5999 17.0002 4.4999C17.0002 4.3999 17.0002 4.1999 17.0002 4.0999V3.9999C17.0002 3.8999 16.9002 3.6999 16.8002 3.6999C16.8002 3.6999 16.7002 3.6999 16.7002 3.5999C16.7002 3.5999 16.7002 3.5999 16.6002 3.5999C16.6002 3.5999 16.6002 3.5999 16.5002 3.5999C16.5002 3.5999 16.4002 3.5999 16.4002 3.4999C16.3002 3.4999 16.3002 3.3999 16.3002 3.2999V3.1999C16.3002 3.1999 16.3002 3.1999 16.2002 3.1999C16.2002 3.2999 16.1002 3.2999 16.1002 3.3999C16.1002 3.4999 16.1002 3.4999 16.2002 3.5999C16.2002 3.6999 16.3002 3.6999 16.3002 3.6999C16.3002 3.6999 16.3002 3.6999 16.4002 3.7999C16.4002 3.7999 16.4002 3.7999 16.5002 3.8999L16.6002 3.9999C16.7002 4.0999 16.7002 4.0999 16.7002 4.1999C16.7002 4.2999 16.7002 4.2999 16.7002 4.3999C16.7002 4.4999 16.7002 4.6999 16.8002 4.7999C16.8002 4.9999 16.9002 5.1999 17.0002 5.3999C16.9002 5.2999 16.8002 5.1999 16.7002 5.0999C16.6002 4.9999 16.4002 4.9999 16.2002 4.9999C16.1002 4.9999 16.0002 4.9999 15.9002 5.0999C15.7002 5.1999 15.5002 5.2999 15.4002 5.4999C15.3002 5.5999 15.3002 5.6999 15.3002 5.7999C15.3002 5.8999 15.2002 5.9999 15.2002 6.0999C15.2002 6.1999 15.1002 6.2999 15.1002 6.3999C15.0002 6.6999 14.8002 6.8999 14.6002 7.0999C14.6002 6.9999 14.6002 6.8999 14.6002 6.8999V6.7999C14.6002 6.6999 14.5002 6.5999 14.5002 6.3999L14.4002 6.1999C14.4002 6.0999 14.4002 6.0999 14.3002 5.9999L14.2002 5.8999C14.1002 5.7999 14.1002 5.7999 14.0002 5.7999H13.9002H13.8002C13.7002 5.7999 13.6002 5.8999 13.5002 5.9999C13.4002 6.0999 13.4002 6.0999 13.3002 6.1999C13.3002 6.1999 13.3002 6.1999 13.2002 6.2999C12.3002 6.7999 11.5002 7.4999 10.8002 8.0999C10.7002 8.1999 10.7002 8.1999 10.6002 8.2999C10.5002 8.2999 10.5002 8.3999 10.4002 8.3999C10.3002 8.3999 10.3002 8.3999 10.2002 8.4999C10.1002 8.4999 10.1002 8.4999 10.0002 8.4999C9.9002 8.4999 9.9002 8.4999 9.8002 8.4999C9.8002 8.4999 9.7002 8.4999 9.7002 8.3999L9.6002 8.2999C9.5002 8.2999 9.5002 8.1999 9.4002 8.1999C9.1002 7.8999 8.7002 7.5999 8.4002 7.1999C8.2002 6.6999 7.8002 6.2999 7.6002 5.9999C7.4002 5.6999 7.2002 5.4999 7.0002 5.2999L6.9002 5.1999C6.9002 5.0999 6.8002 5.0999 6.7002 4.9999C6.7002 4.8999 6.6002 4.7999 6.6002 4.6999C6.5002 4.5999 6.4002 4.4999 6.4002 4.2999C6.3002 4.1999 6.2002 4.0999 6.1002 3.9999C6.0002 3.8999 5.8002 3.8999 5.7002 3.7999C5.6002 3.6999 5.4002 3.6999 5.3002 3.6999C5.2002 3.6999 5.2002 3.6999 5.1002 3.6999C5.0002 3.6999 4.9002 3.7999 4.8002 3.8999L4.7002 3.9999C4.7002 3.9999 4.7002 3.9999 4.7002 3.8999C5.1002 3.2999 5.6002 2.7999 6.3002 2.2999C6.1002 2.5999 6.0002 2.8999 5.9002 3.1999V3.2999C5.9002 3.2999 5.9002 3.2999 6.0002 3.2999C6.0002 3.2999 6.0002 3.2999 6.1002 3.2999C6.1002 3.1999 6.2002 3.1999 6.2002 3.0999V2.9999C6.2002 2.9999 6.3002 2.7999 6.4002 2.6999C6.5002 2.5999 6.6002 2.3999 6.6002 2.2999C6.8002 2.1999 6.9002 1.9999 7.0002 1.9999C7.0002 1.9999 7.0002 1.9999 7.1002 1.9999H7.2002C7.4002 1.8999 7.5002 1.8999 7.7002 1.7999C8.0002 1.5999 8.2002 1.5999 8.5002 1.4999C8.6002 1.4999 8.6002 1.4999 8.7002 1.4999C8.9002 1.4999 9.0002 1.4999 9.1002 1.4999H9.2002C9.2002 1.4999 9.2002 1.4999 9.3002 1.4999C9.3002 1.4999 9.3002 1.4999 9.3002 1.5999H9.4002H9.5002H9.6002C9.7002 1.5999 9.7002 1.5999 9.8002 1.6999C9.9002 1.7999 10.0002 1.7999 10.1002 1.8999C10.1002 1.9999 10.2002 1.9999 10.2002 2.0999C10.2002 2.0999 10.2002 2.0999 10.2002 2.1999C10.1002 1.9999 10.0002 1.8999 9.7002 1.8999H9.6002C9.6002 1.8999 9.6002 1.8999 9.6002 1.9999C9.7002 1.9999 9.8002 1.9999 9.8002 2.0999C10.0002 2.1999 10.2002 2.3999 10.3002 2.5999C10.3002 2.5999 10.3002 2.5999 10.3002 2.6999V2.7999C10.3002 2.8999 10.3002 2.8999 10.3002 2.9999C10.3002 3.1999 10.3002 3.4999 10.2002 3.6999C10.2002 3.8999 10.1002 3.9999 10.1002 4.1999L10.0002 4.2999C10.0002 4.5999 9.9002 4.5999 9.9002 4.6999C9.8002 4.6999 9.7002 4.7999 9.7002 4.7999C9.6002 4.7999 9.5002 4.8999 9.4002 4.8999C9.2002 4.8999 9.0002 4.9999 8.9002 5.0999C8.8002 5.1999 8.7002 5.2999 8.6002 5.3999C8.5002 5.5999 8.4002 5.7999 8.4002 5.9999C8.4002 6.0999 8.4002 6.1999 8.4002 6.2999C8.4002 6.2999 8.4002 6.3999 8.5002 6.3999C8.5002 6.3999 8.5002 6.3999 8.5002 6.2999C8.6002 5.9999 8.7002 5.7999 8.9002 5.5999C9.1002 5.2999 9.4002 5.0999 9.8002 4.9999H9.9002H10.0002C10.1002 4.9999 10.2002 4.8999 10.2002 4.8999V4.9999C10.2002 5.0999 10.2002 5.1999 10.1002 5.2999C10.0002 5.4999 10.0002 5.6999 9.9002 5.8999V5.9999V6.0999C9.8002 6.1999 9.8002 6.2999 9.7002 6.2999C9.7002 6.2999 9.6002 6.2999 9.6002 6.3999H9.5002L9.4002 6.4999C9.3002 6.5999 9.2002 6.5999 9.1002 6.6999C9.0002 6.8999 9.0002 7.0999 9.0002 7.1999C9.0002 7.1999 9.0002 7.1999 9.0002 7.2999C9.0002 7.2999 9.0002 7.2999 9.1002 7.2999H9.2002C9.2002 7.2999 9.2002 7.2999 9.2002 7.1999C9.2002 7.0999 9.3002 6.9999 9.4002 6.8999C9.5002 6.6999 9.7002 6.4999 9.9002 6.3999V6.4999V6.5999C9.9002 6.6999 9.9002 6.7999 9.9002 6.9999V7.0999C9.9002 7.1999 9.8002 7.1999 9.8002 7.2999C9.8002 7.2999 9.8002 7.3999 9.7002 7.3999V7.4999C9.7002 7.5999 9.6002 7.5999 9.6002 7.6999C9.6002 7.7999 9.5002 7.7999 9.5002 7.8999C9.5002 7.9999 9.5002 7.9999 9.5002 8.0999C9.5002 8.0999 9.5002 8.1999 9.6002 8.1999C9.6002 8.1999 9.7002 8.1999 9.7002 8.0999C9.7002 7.9999 9.7002 7.8999 9.8002 7.8999C9.8002 7.8999 9.8002 7.7999 9.9002 7.7999C9.9002 7.6999 10.0002 7.6999 10.0002 7.5999V7.6999C10.0002 7.6999 10.0002 7.8999 10.1002 7.9999C10.1002 7.9999 10.1002 7.9999 10.2002 8.0999C10.2002 7.9999 10.1002 7.8999 10.1002 7.6999C10.1002 7.5999 10.1002 7.4999 10.1002 7.3999C10.1002 7.3999 10.2002 7.3999 10.2002 7.4999C10.2002 7.4999 10.2002 7.4999 10.3002 7.5999L10.4002 7.6999C10.5002 7.7999 10.5002 7.7999 10.5002 7.8999C10.5002 7.8999 10.5002 7.9999 10.6002 7.9999V7.8999C10.6002 7.7999 10.6002 7.7999 10.5002 7.7999C10.5002 7.6999 10.4002 7.6999 10.4002 7.5999L10.3002 7.4999L10.2002 7.3999C10.2002 7.3999 10.1002 7.2999 10.1002 7.1999C10.1002 7.1999 10.1002 7.1999 10.1002 7.0999C10.1002 6.9999 10.1002 6.7999 10.1002 6.6999C10.1002 6.5999 10.1002 6.4999 10.1002 6.3999C10.1002 6.2999 10.1002 6.1999 10.1002 6.0999C10.2002 6.1999 10.3002 6.2999 10.4002 6.3999C10.5002 6.3999 10.5002 6.4999 10.6002 6.4999C10.7002 6.4999 10.7002 6.5999 10.7002 6.5999C10.9002 6.7999 11.0002 6.9999 11.1002 7.2999V7.3999V7.4999C11.1002 7.4999 11.1002 7.4999 11.2002 7.4999C11.2002 7.4999 11.2002 7.4999 11.3002 7.4999C11.3002 7.2999 11.3002 7.1999 11.3002 7.0999C11.2002 6.7999 11.1002 6.4999 10.8002 6.2999L10.7002 6.1999C10.7002 6.1999 10.6002 6.1999 10.6002 6.0999C10.5002 6.0999 10.5002 5.9999 10.4002 5.9999C10.4002 5.9999 10.3002 5.9999 10.3002 5.8999C10.3002 5.7999 10.2002 5.7999 10.2002 5.6999C10.2002 5.5999 10.2002 5.5999 10.2002 5.4999L10.3002 5.2999L10.4002 4.9999C10.4002 4.8999 10.4002 4.8999 10.4002 4.7999C10.4002 4.8999 10.5002 4.8999 10.6002 4.9999C10.8002 4.9999 10.9002 4.9999 11.0002 5.0999C11.1002 5.0999 11.2002 5.1999 11.2002 5.1999C11.2002 5.1999 11.3002 5.1999 11.3002 5.2999C11.3002 5.2999 11.4002 5.2999 11.4002 5.3999C11.5002 5.3999 11.6002 5.4999 11.6002 5.4999C11.9002 5.4999 12.0002 5.5999 12.0002 5.6999C12.1002 5.8999 12.2002 6.0999 12.2002 6.3999C12.2002 6.3999 12.2002 6.3999 12.2002 6.4999C12.2002 6.4999 12.2002 6.3999 12.2002 6.2999C12.2002 6.1999 12.2002 6.0999 12.1002 5.9999V5.8999H12.2002H12.3002C12.4002 5.8999 12.5002 5.9999 12.6002 5.9999C12.6002 5.9999 12.6002 5.9999 12.7002 5.9999C12.7002 5.9999 12.7002 5.9999 12.8002 5.9999C12.8002 5.9999 12.8002 5.9999 12.8002 5.8999C12.8002 5.8999 12.8002 5.8999 12.8002 5.7999C12.8002 5.6999 12.7002 5.6999 12.6002 5.5999C12.5002 5.5999 12.5002 5.5999 12.4002 5.4999H12.3002H12.2002H12.1002C12.1002 5.4999 12.1002 5.4999 12.0002 5.4999L11.9002 5.3999C11.8002 5.2999 11.7002 5.2999 11.6002 5.1999C11.5002 5.0999 11.4002 5.0999 11.4002 4.9999H11.3002V4.9999C11.2002 4.9999 11.2002 4.8999 11.1002 4.8999C11.0002 4.7999 10.9002 4.7999 10.9002 4.6999C10.8002 4.5999 10.7002 4.4999 10.6002 4.3999C10.6002 4.2999 10.5002 4.2999 10.5002 4.1999C10.5002 4.1999 10.5002 4.1999 10.5002 4.0999C10.5002 4.0999 10.5002 4.0999 10.5002 3.9999C10.5002 3.8999 10.5002 3.7999 10.5002 3.5999C10.5002 3.3999 10.5002 3.2999 10.5002 3.1999C10.5002 3.0999 10.5002 2.9999 10.5002 2.8999C10.5002 2.8999 10.5002 2.8999 10.5002 2.7999C10.5002 2.6999 10.6002 2.6999 10.7002 2.5999C10.8002 2.4999 10.9002 2.4999 11.0002 2.4999H11.1002C11.2002 2.4999 11.4002 2.5999 11.5002 2.5999C11.7002 2.8999 11.9002 2.9999 12.0002 3.0999C12.0002 3.0999 12.0002 3.0999 12.0002 3.1999C11.9002 2.9999 11.7002 2.8999 11.5002 2.7999C11.6002 2.7999 11.7002 2.7999 11.8002 2.7999C11.9002 2.7999 12.0002 2.7999 12.1002 2.7999C12.2002 2.7999 12.4002 2.7999 12.5002 2.7999C12.5002 2.7999 12.5002 2.7999 12.5002 2.6999C12.5002 2.6999 12.5002 2.5999 12.4002 2.5999C12.3002 2.5999 12.3002 2.5999 12.2002 2.4999C12.1002 2.4999 12.0002 2.4999 12.0002 2.4999C11.8002 2.4999 11.7002 2.4999 11.6002 2.4999H11.5002C11.4002 2.4999 11.3002 2.4999 11.2002 2.5999C11.2002 2.5999 11.2002 2.5999 11.1002 2.5999H11.0002C10.9002 2.5999 10.9002 2.5999 10.9002 2.5999C10.7002 2.5999 10.6002 2.5999 10.4002 2.6999C10.5002 2.4999 10.7002 2.3999 11.0002 2.2999C11.0002 2.2999 11.0002 2.2999 11.1002 2.2999C11.1002 2.2999 11.2002 2.2999 11.2002 2.1999V2.0999C11.2002 2.0999 11.2002 2.0999 11.1002 2.0999H11.0002C10.8002 2.0999 10.7002 2.1999 10.5002 2.2999C10.4002 2.2999 10.4002 2.3999 10.4002 2.3999L10.3002 2.1999V2.0999C10.3002 1.9999 10.4002 1.8999 10.5002 1.8999C10.6002 1.8999 10.6002 1.7999 10.7002 1.7999C10.8002 1.7999 10.8002 1.7999 10.9002 1.7999C10.9002 1.7999 11.0002 1.7999 11.1002 1.7999C11.2002 1.7999 11.3002 1.7999 11.4002 1.8999H11.5002V1.7999C11.3002 1.6999 11.2002 1.6999 11.0002 1.6999C10.9002 1.6999 10.9002 1.6999 10.8002 1.6999C10.7002 1.6999 10.7002 1.6999 10.6002 1.7999C10.5002 1.7999 10.5002 1.7999 10.4002 1.7999H10.3002C10.4002 1.6999 10.4002 1.5999 10.4002 1.4999C10.4002 1.4999 10.4002 1.4999 10.5002 1.4999H10.6002H10.7002C10.7002 1.4999 10.7002 1.4999 10.8002 1.4999H10.9002C11.0002 1.4999 11.0002 1.4999 11.1002 1.5999C11.2002 1.5999 11.3002 1.6999 11.3002 1.6999L11.4002 1.7999C11.5002 1.8999 11.6002 1.8999 11.7002 1.9999V2.0999C11.7002 2.0999 11.7002 2.1999 11.8002 2.1999C11.9002 2.1999 12.0002 2.1999 12.2002 2.2999L12.3002 2.3999C12.3002 2.3999 12.4002 2.3999 12.4002 2.4999C12.4002 2.4999 12.4002 2.4999 12.5002 2.5999L12.6002 2.6999C12.7002 2.7999 12.8002 2.7999 12.9002 2.8999H13.0002H13.1002H13.2002C13.3002 2.8999 13.4002 2.9999 13.5002 3.0999C13.9002 2.9999 13.9002 2.9999 14.0002 3.0999C14.1002 3.1999 14.1002 3.1999 14.1002 3.2999C14.1002 3.3999 14.2002 3.3999 14.2002 3.4999C14.3002 3.6999 14.5002 3.8999 14.7002 4.0999C14.9002 4.3999 15.2002 4.5999 15.5002 4.7999C15.5002 4.7999 15.6002 4.7999 15.6002 4.8999C15.6002 4.8999 15.6002 4.8999 15.6002 4.7999L15.5002 4.6999L15.1002 4.1999L14.6002 3.5999L14.3002 3.2999C14.4002 3.2999 14.4002 3.3999 14.5002 3.3999C14.6002 3.3999 14.6002 3.3999 14.7002 3.4999H14.8002H14.9002C15.0002 3.4999 15.1002 3.5999 15.2002 3.5999C15.3002 3.6999 15.5002 3.6999 15.6002 3.7999C15.9002 3.9999 16.1002 4.1999 16.2002 4.4999C16.3002 4.5999 16.3002 4.6999 16.3002 4.7999V4.8999V4.7999C16.2002 4.4999 16.1002 4.2999 16.0002 4.0999C15.8002 3.7999 15.6002 3.5999 15.3002 3.4999C15.2002 3.4999 15.1002 3.3999 15.1002 3.3999C15.0002 3.3999 14.8002 3.2999 14.7002 3.2999C14.6002 3.2999 14.4002 3.1999 14.3002 3.1999C14.2002 3.0999 14.1002 3.0999 14.0002 2.9999L13.9002 2.8999C13.8002 2.7999 13.6002 2.7999 13.5002 2.6999H13.4002H13.3002C13.2002 2.6999 13.1002 2.5999 13.0002 2.5999C12.9002 2.5999 12.9002 2.4999 12.8002 2.4999C12.7002 2.3999 12.6002 2.3999 12.6002 2.2999C12.7002 2.2999 12.8002 2.2999 12.9002 2.2999C13.0002 2.2999 13.1002 2.2999 13.2002 2.2999C13.3002 2.2999 13.5002 2.2999 13.6002 2.2999C13.7002 2.2999 13.8002 2.3999 13.9002 2.3999H14.0002C14.3002 2.4999 14.6002 2.5999 14.9002 2.5999C15.1002 2.6999 15.3002 2.6999 15.5002 2.7999C15.7002 2.8999 15.9002 2.9999 16.1002 3.0999C16.0002 2.9999 15.9002 2.8999 15.8002 2.7999C15.7002 2.6999 15.6002 2.6999 15.6002 2.5999C15.5002 2.4999 15.4002 2.4999 15.3002 2.3999C15.2002 2.0999 15.0002 1.9999 14.9002 1.9999C14.8002 1.9999 14.7002 1.9999 14.7002 1.9999C14.6002 1.9999 14.6002 1.9999 14.5002 1.9999C14.4002 1.9999 14.3002 1.9999 14.2002 1.8999C14.1002 1.8999 14.1002 1.7999 14.1002 1.7999C14.1002 1.7999 14.1002 1.7999 14.0002 1.7999C14.0002 1.7999 13.9002 1.7999 13.9002 1.6999C13.9002 1.6999 13.8002 1.5999 13.7002 1.5999C13.6002 1.4999 13.5002 1.4999 13.4002 1.4999C13.3002 1.4999 13.2002 1.4999 13.1002 1.4999H13.0002C12.9002 1.4999 12.8002 1.4999 12.8002 1.4999H12.7002C12.6002 1.4999 12.4002 1.4999 12.3002 1.3999C12.2002 1.3999 12.2002 1.2999 12.1002 1.2999C12.1002 1.2999 12.0002 1.2999 12.0002 1.1999C12.0002 1.1999 11.9002 1.1999 11.9002 1.0999C11.8002 1.0999 11.8002 0.999902 11.7002 0.999902C11.6002 0.999902 11.6002 0.899902 11.5002 0.899902C11.4002 0.899902 11.2002 0.799902 11.1002 0.799902C11.0002 0.799902 10.9002 0.799902 10.8002 0.799902C10.7002 0.799902 10.6002 0.899902 10.5002 0.899902C10.5002 0.699902 10.5002 0.599902 10.5002 0.399902C10.5002 0.299902 10.4002 0.199902 10.3002 0.0999023C10.2002 -9.76548e-05 10.1002 -0.100098 10.0002 -0.100098C9.9002 -0.100098 9.8002 -0.100098 9.8002 -0.100098C9.8002 -0.100098 9.8002 -0.100098 9.7002 -0.100098C9.6002 -0.100098 9.5002 -0.100098 9.4002 -9.76548e-05C9.3002 -9.76548e-05 9.2002 0.0999023 9.1002 0.0999023C9.1002 0.299902 9.1002 0.399902 9.0002 0.399902C8.8002 0.499902 8.6002 0.599902 8.4002 0.699902C8.0002 0.799902 7.5002 0.999902 6.9002 1.0999C6.7002 1.0999 6.6002 1.1999 6.4002 1.1999C6.3002 1.1999 6.2002 1.1999 6.1002 1.1999C6.0002 1.1999 6.0002 1.1999 5.9002 1.1999H5.8002C5.6002 1.1999 5.5002 1.1999 5.3002 1.1999C5.2002 1.1999 5.0002 1.1999 4.9002 1.1999C4.8002 1.1999 4.7002 1.1999 4.7002 1.1999C4.5002 1.1999 4.4002 1.1999 4.3002 1.1999C4.2002 1.1999 4.1002 1.1999 4.0002 1.1999C3.9002 1.1999 3.9002 1.1999 3.8002 1.1999C3.7002 1.1999 3.7002 1.1999 3.6002 1.1999H3.5002H3.4002C3.2002 1.1999 3.1002 1.2999 3.0002 1.4999C3.0002 1.4999 3.0002 1.5999 3.0002 1.6999C3.0002 1.7999 2.9002 1.8999 2.9002 1.9999C2.9002 2.0999 2.9002 2.1999 2.9002 2.2999C2.9002 2.3999 2.9002 2.4999 2.9002 2.5999C2.9002 2.6999 2.9002 2.7999 2.8002 2.8999C2.8002 2.8999 2.8002 2.9999 2.7002 2.9999L2.6002 3.1999C2.6002 3.1999 2.6002 3.1999 2.6002 3.2999C2.6002 3.2999 2.6002 3.3999 2.7002 3.3999H2.8002C2.8002 3.3999 2.8002 3.3999 2.9002 3.3999C2.9002 3.3999 2.9002 3.3999 3.0002 3.3999H3.1002C3.6002 3.5999 4.0002 3.8999 4.3002 4.2999C4.3002 4.2999 4.2002 4.2999 4.2002 4.3999C4.0002 4.4999 3.9002 4.5999 3.8002 4.6999C3.6002 4.7999 3.5002 4.9999 3.4002 5.1999C3.4002 5.1999 3.4002 5.2999 3.3002 5.2999C3.3002 5.3999 3.2002 5.4999 3.2002 5.5999C3.2002 5.6999 3.2002 5.7999 3.2002 5.8999C3.2002 5.9999 3.3002 5.9999 3.3002 5.9999C3.3002 5.9999 3.3002 5.9999 3.3002 5.8999C3.3002 5.7999 3.3002 5.6999 3.4002 5.5999C3.4002 5.4999 3.5002 5.3999 3.6002 5.2999C3.9002 5.0999 4.0002 4.9999 4.2002 4.8999C4.3002 4.8999 4.3002 4.8999 4.4002 4.8999C4.5002 4.8999 4.5002 4.8999 4.6002 4.7999C4.7002 4.7999 4.7002 4.6999 4.8002 4.6999C4.9002 4.6999 5.0002 4.5999 5.0002 4.4999C5.1002 4.5999 5.3002 4.5999 5.4002 4.5999H5.5002C5.5002 4.5999 5.5002 4.6999 5.6002 4.6999L5.7002 4.7999C5.7002 4.7999 5.7002 4.7999 5.8002 4.7999C6.0002 4.9999 6.0002 4.9999 6.0002 5.0999V5.1999V5.2999C6.0002 5.2999 6.0002 5.3999 5.9002 5.3999V5.4999C5.9002 5.5999 5.9002 5.7999 6.1002 5.7999C6.0002 5.9999 6.0002 5.9999 6.1002 5.9999H6.2002H6.3002C6.3002 5.9999 6.3002 5.9999 6.4002 5.9999H6.5002C6.6002 5.9999 6.6002 6.0999 6.7002 6.0999V6.1999C6.7002 6.1999 6.7002 6.1999 6.7002 6.2999C6.7002 6.2999 6.7002 6.2999 6.7002 6.3999C6.7002 6.3999 6.6002 6.3999 6.5002 6.3999C6.5002 6.3999 6.5002 6.3999 6.4002 6.3999C6.3002 6.3999 6.2002 6.3999 6.1002 6.3999C6.0002 6.3999 5.9002 6.4999 5.9002 6.4999C5.9002 6.4999 5.8002 6.4999 5.8002 6.5999C5.8002 6.5999 5.8002 6.6999 5.7002 6.6999C5.6002 6.8999 5.5002 6.8999 5.5002 6.9999C5.5002 7.0999 5.4002 7.0999 5.4002 7.1999V7.2999L5.3002 7.3999C5.3002 7.4999 5.2002 7.4999 5.2002 7.5999C5.2002 7.6999 5.1002 7.6999 5.1002 7.7999C5.0002 7.8999 4.9002 7.9999 4.8002 8.0999C4.8002 8.0999 4.8002 8.0999 4.8002 8.1999H4.9002C5.0002 7.9999 5.1002 7.9999 5.1002 7.8999C5.1002 7.7999 5.2002 7.7999 5.2002 7.6999C5.2002 7.5999 5.3002 7.5999 5.3002 7.4999V7.3999V7.2999C5.3002 7.1999 5.4002 7.1999 5.4002 7.0999C5.6002 7.0999 5.7002 6.9999 5.8002 6.8999H5.9002C5.9002 6.8999 5.9002 6.8999 6.0002 6.8999C6.1002 6.8999 6.2002 6.8999 6.3002 6.9999C6.3002 6.8999 6.4002 6.9999 6.5002 6.9999C6.6002 6.9999 6.6002 7.0999 6.7002 7.1999C6.8002 7.2999 6.8002 7.2999 6.9002 7.3999C7.1002 7.6999 7.5002 7.9999 7.8002 8.2999C8.0002 8.5999 8.3002 8.7999 8.6002 8.9999C8.5002 8.9999 8.4002 8.9999 8.3002 8.9999C8.3002 8.9999 8.2002 8.9999 8.2002 8.8999C8.1002 8.8999 8.0002 8.8999 8.0002 8.8999C8.0002 8.8999 7.9002 8.8999 7.8002 8.8999C7.7002 8.8999 7.5002 8.8999 7.4002 8.9999C7.3002 8.9999 7.2002 9.0999 7.2002 9.0999C7.2002 8.9999 7.1002 8.8999 7.1002 8.8999C7.0002 8.7999 6.9002 8.5999 6.8002 8.4999C6.6002 8.3999 6.5002 8.3999 6.3002 8.3999C6.2002 8.3999 6.1002 8.3999 6.0002 8.3999C5.9002 8.3999 5.8002 8.3999 5.7002 8.3999H5.6002C5.5002 8.3999 5.4002 8.3999 5.3002 8.3999C5.3002 8.3999 5.3002 8.3999 5.2002 8.3999V8.4999C5.2002 8.4999 5.2002 8.5999 5.3002 8.5999C5.3002 8.5999 5.4002 8.6999 5.4002 8.7999C5.4002 8.8999 5.4002 8.9999 5.3002 9.0999C5.3002 9.0999 5.3002 9.0999 5.2002 9.1999H5.1002C5.0002 9.2999 4.9002 9.2999 4.8002 9.3999C4.8002 9.3999 4.7002 9.4999 4.7002 9.5999C4.6002 9.5999 4.5002 9.4999 4.4002 9.4999C4.2002 9.4999 4.0002 9.2999 3.8002 9.1999C3.8002 9.1999 3.8002 9.1999 3.7002 9.2999V9.3999C3.8002 9.5999 3.8002 9.6999 3.8002 9.7999C3.9002 9.9999 3.9002 10.1999 3.8002 10.3999C3.8002 10.4999 3.8002 10.5999 3.7002 10.6999C3.6002 10.7999 3.6002 10.8999 3.4002 10.9999C3.4002 10.9999 3.3002 11.0999 3.2002 11.0999C3.1002 11.0999 3.0002 11.1999 3.0002 11.1999H2.9002C3.0002 10.9999 3.0002 10.9999 2.9002 11.0999C2.7002 11.1999 2.5002 11.1999 2.4002 11.3999C2.3002 11.3999 2.3002 11.4999 2.2002 11.4999C2.1002 11.5999 2.0002 11.6999 1.8002 11.7999C1.8002 11.8999 1.7002 11.9999 1.6002 11.9999L1.5002 12.0999C1.4002 12.1999 1.4002 12.2999 1.3002 12.2999C1.2002 12.4999 1.0002 12.5999 0.900195 12.6999C0.700195 12.8999 0.700195 12.9999 0.600195 12.9999C0.500195 12.9999 0.500195 13.0999 0.400195 13.0999C0.500195 12.6999 0.700195 12.3999 0.900195 11.9999C1.1002 11.5999 1.4002 11.2999 1.7002 10.9999V10.8999C1.6002 10.9999 1.5002 10.9999 1.5002 10.9999C1.3002 11.0999 1.2002 11.1999 1.1002 11.2999C1.0002 11.3999 0.800195 11.5999 0.700195 11.7999C0.500195 11.9999 0.400195 12.2999 0.300195 12.5999C0.300195 12.7999 0.200195 12.8999 0.200195 13.0999C0.200195 13.1999 0.200195 13.3999 0.200195 13.4999V13.5999C0.200195 13.5999 0.200195 13.5999 0.200195 13.6999V13.5999C0.300195 13.6999 0.400195 13.6999 0.500195 13.7999C0.500195 13.7999 0.600195 13.7999 0.600195 13.8999C0.700195 13.8999 0.700195 13.9999 0.800195 13.9999C1.1002 14.1999 1.4002 14.4999 1.6002 14.8999C1.7002 15.0999 1.8002 15.2999 1.8002 15.5999C1.8002 15.6999 1.8002 15.7999 1.8002 15.9999C1.8002 16.1999 1.7002 16.2999 1.6002 16.4999V16.5999L1.7002 16.4999C1.7002 16.4999 1.7002 16.5999 1.8002 16.5999L1.9002 16.6999C2.0002 16.6999 2.0002 16.7999 2.1002 16.8999C2.2002 16.9999 2.2002 17.0999 2.3002 17.1999C2.4002 17.3999 2.4002 17.5999 2.4002 17.6999C2.4002 17.7999 2.4002 17.8999 2.4002 17.9999C2.4002 18.0999 2.3002 18.1999 2.3002 18.2999C2.3002 18.2999 2.3002 18.2999 2.3002 18.3999C2.5002 18.4999 2.6002 18.6999 2.8002 18.8999C3.1002 19.2999 3.2002 19.7999 3.3002 20.2999C3.3002 20.4999 3.3002 20.7999 3.2002 20.9999C3.2002 20.9999 3.2002 20.9999 3.3002 20.8999L3.4002 20.7999C3.5002 20.6999 3.5002 20.6999 3.6002 20.5999C3.9002 20.2999 4.3002 19.9999 4.7002 19.6999C5.2002 19.3999 5.6002 19.0999 6.1002 18.8999C6.6002 18.6999 7.1002 18.5999 7.5002 18.4999C7.6002 18.4999 7.8002 18.4999 7.9002 18.4999C8.1002 18.4999 8.3002 18.4999 8.5002 18.4999C8.7002 18.4999 9.0002 18.5999 9.2002 18.6999H9.3002C9.4002 18.6999 9.5002 18.7999 9.5002 18.7999C9.6002 18.7999 9.7002 18.8999 9.7002 18.8999C9.7002 19.0999 9.7002 19.1999 9.7002 19.3999V19.4999C9.7002 19.5999 9.7002 19.6999 9.7002 19.6999C9.7002 19.7999 9.7002 19.8999 9.7002 19.8999C9.7002 19.9999 9.7002 19.9999 9.7002 20.0999V20.1999V20.2999V20.3999V20.4999C9.7002 20.5999 9.7002 20.6999 9.7002 20.7999V20.9999C9.7002 21.0999 9.7002 21.1999 9.7002 21.2999C9.7002 21.4999 9.7002 21.5999 9.7002 21.7999C9.7002 21.9999 9.7002 22.2999 9.7002 22.4999V22.5999C9.7002 22.7999 9.7002 22.9999 9.7002 23.0999V23.2999V23.7999V24.2999H10.5002C10.5002 24.2999 10.5002 24.2999 10.5002 24.1999C10.5002 24.0999 10.5002 23.9999 10.5002 23.8999V23.5999C10.5002 23.4999 10.5002 23.3999 10.5002 23.3999V23.1999V22.4999C10.5002 22.3999 10.5002 22.3999 10.5002 22.2999C10.5002 22.1999 10.5002 22.1999 10.5002 22.0999C10.5002 21.9999 10.5002 21.9999 10.5002 21.8999C10.5002 21.7999 10.5002 21.6999 10.5002 21.6999V21.4999C10.5002 21.3999 10.5002 21.2999 10.5002 21.2999C10.5002 21.1999 10.5002 21.1999 10.5002 21.0999V20.5999C10.5002 20.4999 10.5002 20.3999 10.5002 20.2999V20.1999V20.0999V19.9999V19.8999V19.7999V19.6999V19.5999V19.3999V19.2999C10.5002 19.2999 10.5002 19.1999 10.5002 19.0999C10.5002 18.9999 10.5002 18.9999 10.5002 18.8999C10.5002 18.6999 10.5002 18.4999 10.5002 18.2999C10.5002 18.1999 10.5002 17.9999 10.5002 17.8999C10.5002 17.6999 10.6002 17.4999 10.6002 17.2999C10.7002 16.8999 10.9002 16.4999 11.1002 16.0999C11.2002 15.8999 11.3002 15.6999 11.4002 15.5999C11.4002 15.5999 11.4002 15.5999 11.4002 15.4999C11.4002 15.4999 11.4002 15.4999 11.4002 15.3999C11.4002 15.3999 11.4002 15.3999 11.4002 15.2999C11.4002 15.1999 11.4002 15.0999 11.3002 14.9999C11.3002 14.8999 11.3002 14.6999 11.3002 14.5999C11.3002 14.4999 11.3002 14.2999 11.3002 14.1999C11.3002 14.0999 11.4002 13.8999 11.4002 13.7999C11.5002 13.6999 11.5002 13.5999 11.6002 13.4999V13.3999C11.5002 13.3999 11.5002 13.3999 11.4002 13.3999H11.3002C11.2002 13.3999 11.1002 13.3999 11.0002 13.2999C10.9002 13.2999 10.7002 13.1999 10.6002 13.0999C10.5002 12.9999 10.3002 12.8999 10.2002 12.7999V12.6999V12.5999C10.3002 12.4999 10.4002 12.3999 10.4002 12.1999C10.4002 12.0999 10.5002 11.9999 10.6002 11.8999C10.6002 11.7999 10.7002 11.7999 10.7002 11.6999L10.8002 11.5999L10.9002 11.4999C10.9002 11.3999 11.0002 11.3999 11.0002 11.2999C11.1002 11.1999 11.1002 11.0999 11.2002 11.0999C11.3002 11.2999 11.3002 11.4999 11.3002 11.7999C11.3002 11.9999 11.3002 12.1999 11.3002 12.3999C11.3002 12.4999 11.3002 12.6999 11.2002 12.7999C11.2002 12.8999 11.2002 12.9999 11.1002 13.0999C11.1002 13.0999 11.1002 13.0999 11.1002 13.1999V13.2999C11.1002 13.2999 11.1002 13.2999 11.2002 13.2999C11.3002 13.2999 11.4002 13.1999 11.4002 13.1999C11.6002 13.0999 11.9002 13.0999 12.1002 12.9999C12.2002 12.9999 12.3002 12.9999 12.3002 12.9999C12.4002 12.9999 12.5002 12.9999 12.6002 12.9999C12.8002 12.9999 13.0002 13.0999 13.3002 13.1999C13.5002 13.2999 13.8002 13.3999 14.0002 13.4999C14.4002 13.6999 14.7002 13.9999 15.0002 14.2999C15.3002 14.5999 15.5002 14.7999 15.7002 15.1999C15.7002 15.1999 15.7002 15.2999 15.8002 15.2999C15.8002 15.2999 15.8002 15.2999 15.8002 15.1999C15.8002 15.1999 15.8002 15.1999 15.8002 15.0999C15.8002 14.9999 15.8002 14.8999 15.8002 14.7999C15.9002 14.4999 16.0002 14.1999 16.2002 13.9999C16.4002 13.7999 16.6002 13.5999 16.8002 13.4999V13.3999C16.8002 13.2999 16.8002 13.1999 16.8002 13.0999C16.8002 12.9999 16.9002 12.7999 17.0002 12.6999C17.1002 12.5999 17.2002 12.4999 17.3002 12.3999C17.3002 12.3999 17.4002 12.3999 17.4002 12.2999C17.4002 12.2999 17.4002 12.2999 17.4002 12.1999C17.3002 12.0999 17.3002 11.8999 17.4002 11.6999C17.4002 11.4999 17.5002 11.3999 17.6002 11.1999C17.8002 10.9999 18.0002 10.7999 18.3002 10.6999C18.3002 10.6999 18.4002 10.6999 18.4002 10.5999H18.5002H18.6002C18.6002 10.5999 18.7002 10.5999 18.7002 10.4999C19.7002 10.5999 19.7002 10.5999 19.8002 10.4999ZM19.8002 10.4999C19.7002 10.5999 19.7002 10.5999 19.8002 10.4999ZM16.4002 3.2999C16.5002 3.2999 16.5002 3.2999 16.4002 3.2999C16.5002 3.2999 16.5002 3.2999 16.4002 3.2999ZM16.4002 3.2999C16.5002 3.2999 16.5002 3.2999 16.4002 3.2999ZM14.4002 8.0999C14.4002 8.0999 14.3002 8.0999 14.4002 8.0999C14.3002 8.0999 14.3002 8.0999 14.4002 8.0999ZM14.4002 8.0999C14.3002 8.0999 14.4002 8.0999 14.4002 8.0999ZM5.7002 4.1999C5.6002 4.1999 5.5002 4.1999 5.4002 4.1999C5.3002 4.1999 5.1002 4.1999 5.0002 4.1999C4.9002 4.1999 4.9002 4.1999 4.8002 4.1999C4.8002 4.0999 4.9002 4.0999 5.0002 3.9999C5.1002 3.9999 5.2002 3.9999 5.3002 3.9999C5.4002 3.9999 5.5002 3.9999 5.7002 4.1999ZM5.7002 4.1999C5.7002 4.0999 5.8002 4.1999 5.8002 4.1999H5.7002ZM10.2002 8.9999C10.1002 8.9999 10.1002 8.9999 10.2002 8.9999C10.1002 8.9999 10.1002 8.9999 10.2002 8.9999ZM10.2002 8.9999C10.1002 8.9999 10.1002 8.9999 10.2002 8.9999ZM7.7002 9.0999H7.8002C7.9002 9.0999 8.0002 9.0999 8.0002 9.0999H8.1002H8.2002H8.3002H8.4002H8.5002V9.1999C8.5002 9.1999 8.5002 9.1999 8.5002 9.2999C8.4002 9.2999 8.2002 9.1999 7.9002 9.0999C7.8002 9.0999 7.7002 9.0999 7.7002 9.0999ZM7.7002 9.0999C7.6002 9.0999 7.6002 9.0999 7.7002 9.0999ZM8.2002 13.2999C8.3002 13.2999 8.3002 13.2999 8.4002 13.2999C8.4002 13.2999 8.3002 13.2999 8.2002 13.2999ZM8.2002 13.2999C8.3002 13.2999 8.3002 13.2999 8.2002 13.2999ZM19.4002 10.4999C19.2002 10.5999 19.0002 10.5999 18.8002 10.6999C18.6002 10.7999 18.4002 10.9999 18.3002 11.0999C18.1002 11.3999 18.0002 11.6999 18.0002 11.9999C18.0002 12.0999 18.0002 12.0999 18.1002 12.1999C18.0002 12.1999 17.9002 12.2999 17.8002 12.2999C17.6002 12.3999 17.5002 12.5999 17.4002 12.7999V12.8999C17.4002 12.9999 17.4002 13.0999 17.3002 13.0999C17.3002 13.1999 17.2002 13.3999 17.1002 13.4999L17.0002 13.5999L16.9002 13.6999L16.8002 13.7999C16.7002 13.8999 16.7002 13.9999 16.6002 13.9999C16.5002 14.1999 16.4002 14.3999 16.4002 14.6999C16.4002 14.5999 16.3002 14.5999 16.3002 14.4999C16.2002 14.3999 16.2002 14.2999 16.1002 14.1999C16.0002 14.0999 15.9002 13.9999 15.9002 13.8999C15.6002 13.5999 15.3002 13.3999 15.0002 13.1999C14.4002 12.7999 13.7002 12.6999 13.0002 12.5999C12.8002 12.5999 12.6002 12.5999 12.4002 12.6999C12.3002 12.6999 12.2002 12.6999 12.1002 12.7999C12.0002 12.7999 12.0002 12.7999 12.0002 12.8999V12.7999C12.1002 12.5999 12.1002 12.2999 12.2002 11.9999C12.2002 11.7999 12.2002 11.5999 12.1002 11.2999C12.0002 10.9999 11.9002 10.7999 11.8002 10.5999C11.7002 10.4999 11.7002 10.3999 11.6002 10.2999C11.7002 10.1999 11.8002 10.0999 11.8002 9.9999C11.9002 9.8999 11.9002 9.6999 11.9002 9.5999C11.9002 9.4999 11.9002 9.3999 11.9002 9.2999C11.9002 9.2999 11.9002 9.2999 12.0002 9.2999H12.1002C12.2002 9.2999 12.2002 9.2999 12.3002 9.2999C12.4002 9.2999 12.5002 9.2999 12.5002 9.1999C12.6002 9.1999 12.6002 9.0999 12.7002 9.0999H12.8002C12.8002 9.0999 12.9002 9.0999 12.9002 8.9999C12.8002 9.0999 12.9002 8.9999 13.0002 8.9999C13.1002 8.9999 13.2002 8.9999 13.3002 8.9999H13.4002C13.6002 8.9999 13.7002 9.0999 13.8002 9.0999C13.9002 9.0999 13.9002 9.1999 14.0002 9.1999C14.0002 9.1999 14.0002 9.1999 14.1002 9.1999C14.0002 9.1999 13.9002 9.0999 13.8002 9.0999C13.7002 9.0999 13.7002 9.0999 13.6002 9.0999C13.5002 9.0999 13.5002 9.0999 13.4002 9.0999C13.2002 9.0999 13.1002 9.0999 12.9002 9.1999C12.7002 9.2999 12.4002 9.3999 12.2002 9.4999V9.5999H12.3002C12.4002 9.5999 12.4002 9.5999 12.5002 9.5999C12.6002 9.5999 12.7002 9.5999 12.8002 9.4999H12.9002H13.0002C13.1002 9.4999 13.1002 9.4999 13.2002 9.3999C13.3002 9.3999 13.5002 9.2999 13.6002 9.2999C13.7002 9.2999 13.7002 9.2999 13.8002 9.2999H13.9002H14.0002C14.0002 9.2999 14.0002 9.2999 14.1002 9.2999L14.0002 9.3999C14.0002 9.3999 14.0002 9.3999 13.9002 9.4999L13.8002 9.5999C13.7002 9.6999 13.7002 9.6999 13.6002 9.7999C13.5002 9.7999 13.5002 9.7999 13.4002 9.8999H13.3002C13.2002 9.8999 13.2002 9.8999 13.1002 9.8999C13.0002 9.8999 12.9002 9.9999 12.8002 9.9999C12.7002 10.0999 12.6002 10.0999 12.5002 10.1999C12.4002 10.2999 12.4002 10.3999 12.3002 10.4999C12.3002 10.4999 12.3002 10.4999 12.4002 10.4999C12.4002 10.4999 12.4002 10.4999 12.5002 10.4999C12.6002 10.3999 12.6002 10.3999 12.8002 10.2999C12.8002 10.2999 12.9002 10.2999 13.0002 10.1999C13.1002 10.1999 13.2002 10.0999 13.3002 10.0999C13.4002 10.0999 13.5002 9.9999 13.6002 9.9999C13.6002 9.9999 13.6002 10.0999 13.5002 10.0999C13.4002 10.1999 13.4002 10.3999 13.3002 10.5999H13.2002C13.2002 10.6999 13.1002 10.8999 13.0002 10.9999C12.9002 11.2999 12.6002 11.5999 12.4002 11.8999C12.4002 11.8999 12.4002 11.8999 12.4002 11.9999C12.5002 11.8999 12.6002 11.8999 12.7002 11.7999C12.9002 11.6999 13.0002 11.4999 13.1002 11.2999C13.1002 11.1999 13.2002 11.1999 13.2002 11.0999C13.2002 10.9999 13.3002 10.8999 13.3002 10.7999V10.8999C13.3002 10.9999 13.3002 11.0999 13.3002 11.1999C13.3002 11.2999 13.3002 11.3999 13.3002 11.4999C13.3002 11.5999 13.3002 11.6999 13.3002 11.7999C13.3002 11.8999 13.2002 11.9999 13.2002 12.0999C13.2002 12.0999 13.2002 12.0999 13.2002 12.1999C13.2002 12.1999 13.2002 12.1999 13.3002 12.0999C13.4002 11.9999 13.4002 11.8999 13.5002 11.7999C13.6002 11.6999 13.6002 11.4999 13.6002 11.3999C13.6002 11.2999 13.6002 11.0999 13.6002 10.9999V10.8999C13.6002 10.7999 13.6002 10.5999 13.6002 10.4999C13.6002 10.3999 13.6002 10.1999 13.6002 10.0999V9.9999C13.7002 9.8999 13.7002 9.7999 13.8002 9.6999L13.9002 9.5999C14.0002 9.4999 14.1002 9.3999 14.2002 9.2999C14.2002 9.2999 14.3002 9.2999 14.3002 9.3999C14.3002 9.4999 14.4002 9.4999 14.4002 9.5999C14.5002 9.6999 14.6002 9.8999 14.7002 9.9999V10.0999C14.7002 10.1999 14.7002 10.2999 14.7002 10.3999C14.7002 10.4999 14.6002 10.5999 14.6002 10.6999C14.6002 10.7999 14.5002 10.8999 14.5002 10.9999C14.4002 11.0999 14.4002 11.2999 14.4002 11.4999C14.4002 11.5999 14.4002 11.7999 14.4002 11.8999C14.4002 11.9999 14.4002 11.9999 14.4002 12.0999C14.4002 12.0999 14.4002 12.1999 14.5002 12.1999C14.5002 12.1999 14.5002 12.1999 14.5002 12.0999C14.5002 11.8999 14.5002 11.7999 14.6002 11.5999C14.6002 11.4999 14.7002 11.3999 14.7002 11.1999V11.0999C14.7002 10.9999 14.8002 10.8999 14.8002 10.7999C14.8002 10.6999 14.9002 10.4999 14.9002 10.3999C15.0002 10.6999 15.2002 10.9999 15.3002 11.2999V11.3999C15.3002 11.4999 15.3002 11.6999 15.2002 11.7999C15.2002 11.8999 15.1002 12.0999 15.1002 12.1999C15.1002 12.3999 15.1002 12.4999 15.1002 12.6999C15.1002 12.7999 15.2002 12.9999 15.2002 13.0999C15.2002 12.9999 15.2002 12.9999 15.2002 12.8999C15.2002 12.7999 15.2002 12.6999 15.2002 12.5999C15.2002 12.4999 15.2002 12.3999 15.3002 12.2999V12.0999V11.9999C15.4002 12.3999 15.6002 12.8999 15.7002 13.4999L15.8002 13.7999V13.9999V13.8999V13.7999C15.8002 13.6999 15.8002 13.6999 15.8002 13.5999C15.8002 13.3999 15.8002 13.1999 15.7002 13.0999C15.7002 12.9999 15.7002 12.7999 15.6002 12.6999C15.5002 12.3999 15.5002 12.1999 15.4002 11.8999C15.3002 11.5999 15.2002 11.2999 15.0002 10.9999C15.2002 11.0999 15.4002 11.0999 15.5002 11.1999C15.7002 11.2999 15.9002 11.3999 16.1002 11.5999C16.3002 11.7999 16.4002 11.9999 16.6002 12.2999V12.3999V12.2999C16.5002 12.0999 16.4002 11.8999 16.3002 11.6999C16.2002 11.4999 16.0002 11.3999 15.8002 11.2999C15.7002 11.1999 15.6002 11.0999 15.4002 11.0999C15.3002 11.0999 15.3002 10.9999 15.2002 10.9999C15.1002 10.9999 15.1002 10.8999 15.0002 10.8999C14.9002 10.7999 14.8002 10.6999 14.6002 10.6999C14.6002 10.6999 14.5002 10.6999 14.5002 10.5999C14.5002 10.5999 14.5002 10.4999 14.4002 10.4999C14.4002 10.4999 14.4002 10.3999 14.3002 10.3999C14.2002 10.1999 14.1002 10.0999 14.0002 9.8999C14.0002 9.7999 13.9002 9.7999 13.9002 9.6999C14.0002 9.6999 14.1002 9.6999 14.2002 9.6999C14.3002 9.6999 14.5002 9.6999 14.6002 9.7999C14.8002 9.8999 15.0002 9.8999 15.2002 9.9999C15.3002 10.0999 15.4002 10.1999 15.4002 10.2999C15.5002 10.3999 15.6002 10.4999 15.7002 10.5999L15.8002 10.6999C15.8002 10.7999 15.9002 10.7999 15.9002 10.8999C16.0002 10.9999 16.1002 11.0999 16.1002 11.1999C16.2002 11.2999 16.3002 11.3999 16.3002 11.3999C16.3002 11.3999 16.3002 11.3999 16.4002 11.3999C16.4002 11.3999 16.4002 11.3999 16.4002 11.2999C16.3002 11.1999 16.2002 11.0999 16.1002 10.8999L16.0002 10.7999C16.0002 10.7999 16.0002 10.6999 15.9002 10.6999V10.5999C15.9002 10.4999 15.8002 10.3999 15.8002 10.3999C15.8002 10.2999 15.7002 10.2999 15.7002 10.1999C16.1002 10.2999 16.5002 10.4999 17.0002 10.5999C17.2002 10.5999 17.4002 10.6999 17.7002 10.6999C17.9002 10.6999 18.1002 10.6999 18.2002 10.7999C18.2002 10.7999 18.2002 10.7999 18.3002 10.7999C18.3002 10.7999 18.3002 10.7999 18.3002 10.6999H18.2002H18.0002L17.8002 10.5999C17.4002 10.4999 17.0002 10.3999 16.5002 10.2999C16.4002 10.2999 16.3002 10.2999 16.2002 10.1999C16.5002 9.9999 16.8002 9.9999 17.1002 9.8999C17.1002 9.8999 17.1002 9.8999 17.2002 9.8999C17.2002 9.8999 17.2002 9.8999 17.2002 9.7999H17.1002H17.0002C16.9002 9.7999 16.8002 9.7999 16.7002 9.7999C16.6002 9.7999 16.4002 9.8999 16.3002 9.8999H16.2002H16.1002C16.0002 9.8999 16.0002 9.9999 15.9002 9.9999C15.9002 9.9999 15.9002 9.9999 15.8002 9.9999C15.8002 9.9999 15.8002 9.9999 15.7002 9.9999H15.6002C15.6002 9.9999 15.6002 9.9999 15.5002 9.9999C15.5002 9.9999 15.4002 9.9999 15.3002 9.9999H15.2002C15.0002 9.8999 14.9002 9.8999 14.7002 9.7999C14.6002 9.7999 14.5002 9.6999 14.4002 9.6999C14.3002 9.6999 14.2002 9.6999 14.1002 9.5999C14.0002 9.5999 13.9002 9.5999 13.8002 9.6999C13.8002 9.6999 13.7002 9.6999 13.7002 9.5999C13.8002 9.5999 13.8002 9.4999 13.9002 9.4999C14.9002 8.9999 15.0002 8.9999 15.1002 8.9999C15.2002 8.9999 15.3002 8.9999 15.4002 8.9999C15.6002 8.9999 15.7002 8.8999 15.8002 8.8999C16.1002 8.7999 16.3002 8.5999 16.5002 8.2999V8.1999L16.4002 8.2999C16.1002 8.4999 15.8002 8.5999 15.5002 8.6999C15.4002 8.6999 15.3002 8.6999 15.2002 8.7999C15.1002 8.7999 15.0002 8.7999 15.0002 8.8999C14.9002 8.8999 14.9002 8.8999 14.8002 8.9999C14.7002 8.9999 14.7002 9.0999 14.7002 9.0999C14.7002 8.9999 14.8002 8.8999 14.8002 8.6999C14.9002 8.4999 15.1002 8.2999 15.3002 8.0999C15.5002 7.9999 15.6002 7.8999 15.8002 7.7999C15.9002 7.7999 16.0002 7.7999 16.2002 7.7999C16.3002 7.7999 16.3002 7.7999 16.4002 7.7999C16.5002 7.7999 16.6002 7.7999 16.7002 7.7999H16.8002C16.9002 7.7999 17.0002 7.7999 17.1002 7.7999C17.2002 7.7999 17.3002 7.7999 17.4002 7.7999H17.5002C17.5002 7.7999 17.5002 7.7999 17.5002 7.8999C17.5002 7.9999 17.5002 8.1999 17.5002 8.2999C17.5002 8.3999 17.6002 8.4999 17.7002 8.6999C17.8002 8.7999 17.9002 8.8999 18.0002 8.8999C18.1002 8.8999 18.1002 8.9999 18.2002 8.9999L18.3002 9.0999C18.3002 9.0999 18.4002 9.0999 18.4002 9.1999C18.5002 9.2999 18.7002 9.3999 18.8002 9.4999C18.9002 9.5999 18.9002 9.6999 19.0002 9.7999L19.1002 9.8999C19.1002 9.9999 19.2002 9.9999 19.2002 10.0999C19.3002 10.1999 19.4002 10.2999 19.5002 10.3999C19.1002 10.2999 19.2002 10.3999 19.4002 10.4999ZM19.4002 10.4999C19.3002 10.4999 19.4002 10.4999 19.4002 10.4999ZM16.4002 5.0999C16.4002 5.0999 16.3002 5.0999 16.4002 5.0999C16.3002 5.0999 16.3002 5.0999 16.4002 5.0999ZM13.9002 5.7999H14.0002H13.9002ZM8.4002 6.3999C8.5002 6.3999 8.4002 6.3999 8.4002 6.3999V6.3999ZM12.2002 2.4999H12.1002H12.2002ZM11.1002 2.5999H11.2002H11.1002ZM11.1002 1.5999H11.2002C11.2002 1.5999 11.2002 1.5999 11.1002 1.5999ZM15.7002 4.8999C15.6002 4.8999 15.6002 4.8999 15.7002 4.8999C15.6002 4.8999 15.7002 4.8999 15.7002 4.8999ZM13.3002 1.5999C13.3002 1.5999 13.2002 1.5999 13.3002 1.5999C13.2002 1.5999 13.3002 1.5999 13.3002 1.5999ZM12.8002 1.9999C12.7002 1.9999 12.6002 1.9999 12.5002 1.9999C12.6002 1.9999 12.7002 1.9999 12.8002 1.9999ZM10.7002 1.2999C10.6002 1.2999 10.6002 1.2999 10.7002 1.2999C10.6002 1.2999 10.7002 1.2999 10.7002 1.2999ZM8.9002 1.3999C9.0002 1.3999 8.9002 1.3999 8.9002 1.3999V1.3999ZM9.8002 0.199902C9.9002 0.199902 9.9002 0.199902 9.8002 0.199902C9.9002 0.199902 9.8002 0.199902 9.8002 0.199902ZM8.7002 1.1999C8.8002 1.1999 8.8002 1.0999 8.9002 1.0999C8.9002 1.0999 8.9002 0.999902 9.0002 0.999902V0.899902L9.1002 0.799902C9.2002 0.799902 9.2002 0.699902 9.3002 0.699902C9.4002 0.699902 9.4002 0.599902 9.5002 0.599902H9.6002C9.6002 0.599902 9.6002 0.599902 9.7002 0.599902C9.8002 0.599902 9.8002 0.599902 9.9002 0.699902C10.0002 0.699902 10.0002 0.699902 10.0002 0.699902C10.1002 0.799902 10.1002 0.899902 10.2002 0.999902C10.2002 1.0999 10.2002 1.2999 10.2002 1.3999C10.2002 1.3999 10.2002 1.3999 10.1002 1.3999H10.0002H9.9002H9.8002C9.7002 1.3999 9.6002 1.3999 9.6002 1.2999H9.5002C9.4002 1.2999 9.3002 1.2999 9.2002 1.2999H8.9002C8.8002 1.2999 8.6002 1.2999 8.5002 1.2999C8.6002 1.2999 8.6002 1.2999 8.7002 1.1999ZM2.7002 3.2999C2.6002 3.2999 2.6002 3.2999 2.7002 3.2999C2.6002 3.2999 2.6002 3.2999 2.7002 3.2999ZM8.3002 1.2999C8.2002 1.2999 8.2002 1.2999 8.2002 1.2999C8.2002 1.2999 8.2002 1.2999 8.3002 1.2999ZM5.9002 1.5999C5.8002 1.5999 5.8002 1.5999 5.9002 1.5999C5.8002 1.5999 5.8002 1.5999 5.7002 1.5999C5.8002 1.5999 5.8002 1.5999 5.9002 1.5999ZM3.7002 1.2999C3.8002 1.2999 3.8002 1.2999 3.9002 1.2999C3.8002 1.2999 3.7002 1.2999 3.6002 1.2999C3.6002 1.2999 3.7002 1.2999 3.7002 1.2999ZM2.9002 3.1999C3.0002 3.1999 3.0002 3.1999 3.0002 3.1999C2.9002 3.1999 2.9002 3.1999 2.9002 3.1999ZM4.5002 4.1999C4.5002 4.0999 4.4002 3.9999 4.3002 3.8999C4.0002 3.5999 3.7002 3.3999 3.2002 3.1999C3.1002 3.1999 3.0002 3.1999 2.9002 3.0999C3.0002 3.0999 3.0002 2.9999 3.1002 2.8999C3.1002 2.7999 3.1002 2.7999 3.1002 2.6999C3.1002 2.5999 3.1002 2.5999 3.1002 2.4999C3.1002 2.3999 3.1002 2.2999 3.1002 2.2999C3.1002 2.1999 3.1002 2.1999 3.1002 2.0999C3.1002 1.9999 3.1002 1.8999 3.2002 1.8999C3.3002 1.7999 3.4002 1.6999 3.5002 1.6999C3.6002 1.6999 3.6002 1.6999 3.7002 1.6999H3.8002C3.8002 1.6999 3.8002 1.6999 3.9002 1.6999C4.0002 1.6999 4.1002 1.6999 4.2002 1.6999H4.4002H5.0002H5.3002H5.4002C5.5002 1.6999 5.6002 1.6999 5.7002 1.6999H5.8002C5.9002 1.6999 6.1002 1.6999 6.2002 1.6999C6.4002 1.6999 6.6002 1.5999 6.7002 1.5999C6.8002 1.5999 6.8002 1.4999 6.9002 1.4999C7.0002 1.4999 7.0002 1.3999 7.1002 1.3999C7.2002 1.3999 7.2002 1.3999 7.3002 1.3999H7.4002C7.5002 1.3999 7.5002 1.3999 7.6002 1.3999C7.7002 1.3999 7.7002 1.3999 7.8002 1.3999C7.9002 1.3999 8.0002 1.3999 8.1002 1.3999H8.2002C8.1002 1.3999 8.1002 1.3999 8.0002 1.3999C7.9002 1.3999 7.7002 1.4999 7.5002 1.5999C7.4002 1.5999 7.4002 1.5999 7.3002 1.6999C7.2002 1.6999 7.1002 1.7999 7.1002 1.7999C7.1002 1.7999 7.1002 1.7999 7.0002 1.7999C6.9002 1.7999 6.8002 1.7999 6.6002 1.8999H6.2002H5.8002L5.4002 1.9999C5.2002 1.9999 4.9002 2.0999 4.6002 2.0999C4.5002 2.0999 4.3002 2.0999 4.2002 2.0999H3.9002C3.9002 2.0999 3.8002 2.0999 3.8002 2.1999C3.8002 2.1999 3.8002 2.1999 3.8002 2.2999L3.9002 2.3999H4.0002C4.1002 2.3999 4.2002 2.3999 4.3002 2.3999C4.4002 2.3999 4.5002 2.3999 4.6002 2.2999H4.8002L5.2002 2.1999L5.6002 2.0999H6.0002L6.5002 1.9999C6.5002 1.9999 6.4002 1.9999 6.4002 2.0999C6.0002 2.1999 5.7002 2.3999 5.4002 2.6999C5.2002 2.8999 5.0002 3.0999 4.8002 3.3999C4.7002 3.5999 4.6002 3.6999 4.5002 3.8999V3.9999C4.6002 4.0999 4.5002 4.0999 4.5002 4.1999ZM4.2002 2.2999C4.2002 2.2999 4.1002 2.2999 4.2002 2.2999H4.1002C4.1002 2.2999 4.1002 2.2999 4.2002 2.2999ZM5.5002 4.5999H5.4002C5.4002 4.5999 5.4002 4.5999 5.5002 4.5999ZM10.1002 8.9999C10.2002 8.9999 10.2002 8.9999 10.2002 8.9999C10.2002 9.0999 10.1002 9.0999 10.1002 9.1999C10.1002 9.0999 10.1002 9.0999 10.1002 8.9999ZM9.9002 11.8999V11.9999V12.0999C9.9002 12.0999 9.9002 12.0999 9.9002 12.1999V12.2999C9.9002 12.3999 9.9002 12.3999 9.9002 12.4999C9.8002 12.4999 9.8002 12.3999 9.7002 12.3999C9.5002 12.2999 9.3002 12.2999 9.1002 12.2999H9.0002C8.8002 12.2999 8.7002 12.3999 8.5002 12.3999C8.5002 12.2999 8.6002 12.1999 8.7002 12.0999C8.8002 11.9999 8.8002 11.8999 8.9002 11.7999C9.0002 11.6999 9.0002 11.6999 9.1002 11.5999C9.2002 11.4999 9.3002 11.4999 9.4002 11.4999C9.4002 11.4999 9.4002 11.4999 9.5002 11.4999C9.6002 11.4999 9.7002 11.4999 9.8002 11.5999C9.9002 11.5999 9.9002 11.6999 9.9002 11.6999C9.8002 11.7999 9.9002 11.7999 9.9002 11.8999ZM9.1002 12.2999H9.0002C9.0002 12.2999 9.0002 12.2999 9.1002 12.2999ZM8.1002 11.6999C8.0002 11.7999 7.9002 11.8999 7.8002 12.0999C7.8002 11.8999 7.8002 11.7999 7.7002 11.5999C7.9002 11.4999 8.0002 11.3999 8.2002 11.3999C8.3002 11.3999 8.3002 11.3999 8.4002 11.3999C8.3002 11.4999 8.2002 11.5999 8.1002 11.6999ZM8.5002 11.2999H8.6002C8.6002 11.1999 8.5002 11.2999 8.5002 11.2999ZM9.3002 10.9999C9.2002 10.9999 9.1002 10.9999 9.0002 10.9999C9.0002 10.8999 9.0002 10.7999 8.9002 10.6999C8.9002 10.5999 8.9002 10.4999 8.9002 10.3999C8.9002 10.2999 8.9002 10.1999 8.9002 10.1999C9.0002 10.3999 9.2002 10.4999 9.3002 10.6999C9.4002 10.7999 9.5002 10.8999 9.5002 10.9999C9.5002 10.9999 9.4002 10.9999 9.3002 10.9999ZM9.8002 10.7999C9.7002 10.7999 9.7002 10.6999 9.6002 10.6999C9.4002 10.5999 9.3002 10.3999 9.2002 10.2999C9.1002 10.0999 9.1002 9.9999 9.0002 9.8999C9.0002 9.8999 9.0002 9.8999 9.0002 9.7999V9.6999C9.0002 9.5999 8.9002 9.5999 8.9002 9.4999C8.9002 9.3999 8.9002 9.2999 8.9002 9.2999C9.1002 9.4999 9.4002 9.5999 9.6002 9.7999V9.8999C9.7002 10.0999 9.7002 10.3999 9.8002 10.5999C9.8002 10.5999 9.8002 10.6999 9.8002 10.7999ZM9.6002 8.6999L9.7002 8.9999C9.6002 8.8999 9.6002 8.6999 9.5002 8.5999L9.6002 8.6999ZM6.2002 5.9999H6.1002C6.1002 5.9999 6.2002 5.9999 6.2002 5.9999ZM8.5002 8.3999C8.3002 8.2999 8.1002 8.1999 7.9002 7.9999C7.9002 7.8999 7.8002 7.7999 7.7002 7.7999C7.6002 7.6999 7.6002 7.5999 7.5002 7.4999C7.5002 7.4999 7.4002 7.3999 7.3002 7.2999C7.2002 7.1999 7.1002 7.0999 7.0002 6.9999C6.9002 6.8999 6.7002 6.7999 6.6002 6.6999C6.5002 6.6999 6.4002 6.5999 6.3002 6.5999C6.4002 6.5999 6.5002 6.4999 6.6002 6.4999C6.6002 6.4999 6.6002 6.4999 6.7002 6.4999C6.7002 6.4999 6.7002 6.4999 6.7002 6.3999C6.8002 6.3999 6.9002 6.2999 6.9002 6.1999C6.9002 6.0999 6.9002 5.9999 6.9002 5.8999C6.9002 5.6999 6.8002 5.5999 6.6002 5.5999C6.5002 5.5999 6.5002 5.5999 6.4002 5.5999H6.3002C6.2002 5.5999 6.2002 5.4999 6.1002 5.4999C6.1002 5.3999 6.1002 5.3999 6.1002 5.3999C6.1002 5.3999 6.2002 5.3999 6.2002 5.2999C6.4002 5.0999 6.4002 4.9999 6.4002 4.9999C6.4002 4.8999 6.3002 4.7999 6.3002 4.7999L6.2002 4.6999C6.2002 4.6999 6.2002 4.6999 6.1002 4.5999C6.1002 4.5999 6.1002 4.5999 6.0002 4.4999C6.0002 4.3999 6.0002 4.3999 6.0002 4.3999L6.1002 4.4999C6.2002 4.5999 6.2002 4.6999 6.3002 4.7999C6.5002 4.8999 6.5002 4.9999 6.6002 5.0999L6.7002 5.1999L6.8002 5.2999L6.9002 5.3999C7.0002 5.4999 7.1002 5.5999 7.1002 5.6999C7.3002 5.8999 7.4002 6.1999 7.6002 6.3999C7.6002 6.4999 7.7002 6.4999 7.7002 6.5999C7.9002 6.7999 8.0002 6.7999 8.0002 6.8999L8.1002 6.9999C8.1002 6.9999 8.1002 6.9999 8.1002 7.0999C8.1002 7.0999 8.1002 7.1999 8.2002 7.1999C8.4002 7.4999 8.7002 7.7999 8.9002 7.9999L9.0002 8.0999V8.1999C9.0002 8.1999 9.0002 8.1999 9.0002 8.2999C9.2002 8.4999 9.2002 8.6999 9.3002 8.9999C9.3002 8.8999 9.2002 8.7999 9.1002 8.7999C9.0002 8.6999 8.9002 8.6999 8.8002 8.5999L8.7002 8.4999C8.6002 8.4999 8.6002 8.4999 8.5002 8.3999ZM7.8002 8.8999C7.8002 8.8999 7.7002 8.8999 7.8002 8.8999C7.7002 8.8999 7.7002 8.8999 7.8002 8.8999ZM7.7002 9.1999C7.6002 9.1999 7.6002 9.1999 7.5002 9.1999C7.5002 9.1999 7.6002 9.1999 7.7002 9.1999ZM7.1002 9.8999C7.2002 9.7999 7.2002 9.6999 7.2002 9.5999H7.3002C7.3002 9.5999 7.4002 9.5999 7.4002 9.6999C7.4002 9.6999 7.4002 9.6999 7.5002 9.6999C7.5002 9.6999 7.5002 9.6999 7.6002 9.6999C7.7002 9.6999 7.7002 9.7999 7.8002 9.8999V9.9999C7.8002 10.0999 7.8002 10.0999 7.8002 10.1999C7.8002 10.2999 7.8002 10.3999 7.8002 10.4999C7.8002 10.5999 7.8002 10.6999 7.9002 10.7999C7.9002 10.8999 8.0002 10.9999 8.1002 10.9999C8.1002 10.9999 8.1002 10.9999 8.2002 10.9999C8.2002 10.9999 8.2002 10.9999 8.2002 10.8999C8.0002 10.9999 8.0002 10.8999 8.0002 10.8999C8.0002 10.7999 8.0002 10.7999 7.9002 10.6999C7.9002 10.5999 7.9002 10.5999 7.9002 10.4999C7.9002 10.4999 7.9002 10.4999 7.9002 10.3999C7.9002 10.4999 8.0002 10.4999 8.0002 10.5999C8.1002 10.6999 8.2002 10.7999 8.3002 10.8999C8.3002 10.8999 8.3002 10.8999 8.3002 10.7999C8.2002 10.6999 8.1002 10.5999 8.0002 10.3999C8.0002 10.3999 7.9002 10.2999 7.9002 10.1999V10.0999V9.9999C7.9002 9.8999 7.8002 9.8999 7.8002 9.7999C7.9002 9.7999 7.9002 9.7999 8.0002 9.7999H8.1002C8.2002 9.7999 8.3002 9.7999 8.3002 9.8999C8.3002 9.8999 8.3002 9.8999 8.4002 9.8999C8.4002 9.7999 8.2002 9.7999 8.1002 9.6999H8.0002H7.9002H7.8002L7.7002 9.5999C7.7002 9.5999 7.7002 9.5999 7.6002 9.5999L7.7002 9.4999H7.8002C7.9002 9.4999 7.9002 9.4999 8.0002 9.4999H8.1002C8.2002 9.4999 8.3002 9.4999 8.4002 9.4999C8.4002 9.4999 8.5002 9.4999 8.5002 9.5999C8.6002 9.6999 8.7002 9.7999 8.7002 9.7999C8.7002 9.7999 8.7002 9.8999 8.8002 9.8999V9.9999C8.7002 10.1999 8.7002 10.3999 8.7002 10.6999C8.7002 10.7999 8.7002 10.8999 8.8002 10.9999C8.8002 10.9999 8.7002 10.9999 8.7002 11.0999C8.4002 11.0999 8.1002 11.1999 7.8002 11.2999V11.1999C7.7002 10.9999 7.6002 10.7999 7.4002 10.5999C7.4002 10.5999 7.4002 10.5999 7.4002 10.4999V10.3999V10.2999C7.4002 10.1999 7.3002 10.0999 7.3002 10.0999V9.9999C7.1002 9.9999 7.1002 9.8999 7.1002 9.8999ZM7.0002 9.4999C7.0002 9.5999 7.0002 9.6999 7.0002 9.7999V9.8999C6.5002 10.0999 6.4002 9.9999 6.2002 9.9999C6.2002 9.9999 6.2002 9.9999 6.2002 9.8999C6.3002 9.7999 6.3002 9.7999 6.4002 9.6999C6.5002 9.6999 6.5002 9.5999 6.6002 9.5999C6.7002 9.5999 6.7002 9.5999 6.8002 9.4999C6.9002 9.4999 6.9002 9.4999 7.0002 9.4999ZM6.2002 8.3999H6.1002C6.2002 8.3999 6.2002 8.3999 6.2002 8.3999ZM5.4002 8.6999C5.4002 8.5999 5.4002 8.6999 5.4002 8.6999V8.6999ZM5.2002 9.4999L5.3002 9.3999C5.3002 9.3999 5.4002 9.2999 5.4002 9.1999C5.5002 9.1999 5.5002 9.0999 5.6002 8.9999C5.6002 8.8999 5.6002 8.7999 5.6002 8.6999H5.7002H5.8002C5.9002 8.6999 6.0002 8.6999 6.1002 8.6999C6.2002 8.6999 6.3002 8.6999 6.4002 8.6999C6.5002 8.6999 6.6002 8.6999 6.7002 8.7999C6.8002 8.7999 6.8002 8.8999 6.9002 8.8999C6.9002 8.9999 7.0002 9.0999 7.0002 9.0999C7.0002 9.0999 6.9002 9.0999 6.8002 8.9999C6.8002 8.9999 6.7002 8.9999 6.6002 8.9999C6.5002 9.0999 6.3002 8.9999 6.1002 8.8999H6.0002C6.0002 8.8999 6.0002 8.8999 5.9002 8.8999C5.9002 8.8999 5.9002 8.8999 5.9002 8.9999C6.0002 9.0999 6.2002 9.1999 6.3002 9.2999C6.4002 9.2999 6.4002 9.2999 6.5002 9.2999H6.6002H6.7002C6.7002 9.2999 6.8002 9.2999 6.9002 9.3999H6.8002C6.7002 9.3999 6.7002 9.3999 6.6002 9.3999C6.5002 9.3999 6.5002 9.3999 6.4002 9.4999C6.4002 9.4999 6.3002 9.4999 6.3002 9.5999H6.2002H6.1002C6.0002 9.5999 6.0002 9.6999 5.9002 9.6999C5.9002 9.6999 5.8002 9.6999 5.8002 9.7999C5.7002 9.7999 5.7002 9.7999 5.6002 9.7999H5.5002C5.4002 9.7999 5.3002 9.7999 5.3002 9.7999C5.2002 9.7999 5.2002 9.7999 5.1002 9.7999C5.1002 9.7999 5.1002 9.7999 5.0002 9.7999C5.1002 9.5999 5.1002 9.5999 5.2002 9.4999ZM11.2002 13.7999C11.2002 13.7999 11.1002 13.7999 11.2002 13.7999V13.7999ZM10.5002 13.5999C10.6002 13.6999 10.6002 13.6999 10.7002 13.6999C10.8002 13.6999 10.8002 13.7999 10.9002 13.7999C11.0002 13.7999 11.0002 13.7999 11.1002 13.7999H11.2002C11.1002 13.9999 11.1002 14.2999 11.1002 14.4999C11.1002 14.5999 11.1002 14.6999 11.1002 14.7999C11.1002 14.9999 11.2002 15.1999 11.3002 15.2999C11.3002 15.2999 11.4002 15.3999 11.4002 15.4999C11.3002 15.5999 11.2002 15.6999 11.1002 15.7999C10.9002 15.9999 10.7002 16.2999 10.6002 16.5999C10.3002 17.0999 10.2002 17.6999 10.2002 18.1999C10.2002 18.3999 10.2002 18.4999 10.2002 18.6999V18.7999C10.1002 18.6999 9.9002 18.6999 9.7002 18.5999H9.6002C9.4002 18.4999 9.2002 18.4999 9.0002 18.3999C8.8002 18.2999 8.5002 18.2999 8.3002 18.2999C8.2002 18.2999 8.0002 18.2999 7.9002 18.2999C7.6002 18.2999 7.3002 18.2999 7.0002 18.3999C6.8002 18.3999 6.6002 18.4999 6.4002 18.4999C6.0002 18.5999 5.6002 18.7999 5.2002 18.9999C4.8002 19.1999 4.5002 19.4999 4.1002 19.7999C4.0002 19.8999 3.9002 19.9999 3.8002 20.0999C3.7002 20.1999 3.6002 20.2999 3.6002 20.3999C3.6002 20.1999 3.6002 20.0999 3.6002 19.8999C3.6002 19.7999 3.6002 19.6999 3.6002 19.5999C3.6002 19.3999 3.5002 19.2999 3.5002 19.0999C3.5002 18.9999 3.4002 18.7999 3.3002 18.6999L3.2002 18.5999L3.1002 18.4999C3.0002 18.3999 3.0002 18.2999 2.9002 18.1999C2.8002 18.0999 2.8002 17.9999 2.8002 17.8999C2.8002 17.7999 2.8002 17.6999 2.8002 17.5999C2.8002 17.4999 2.8002 17.2999 2.8002 17.1999C2.8002 16.8999 2.7002 16.6999 2.5002 16.4999C2.4002 16.3999 2.4002 16.3999 2.3002 16.2999C2.1002 16.2999 2.0002 16.1999 2.0002 16.1999C2.0002 16.1999 2.0002 16.1999 1.9002 16.1999C2.0002 16.0999 2.0002 15.9999 2.1002 15.8999C2.2002 15.6999 2.2002 15.4999 2.2002 15.2999C2.2002 15.0999 2.2002 14.8999 2.1002 14.6999C2.0002 14.2999 1.7002 13.9999 1.4002 13.7999C1.2002 13.6999 1.1002 13.5999 0.900195 13.4999C0.800195 13.4999 0.800195 13.3999 0.700195 13.3999C0.800195 13.3999 0.900195 13.3999 0.900195 13.2999C1.0002 13.2999 1.1002 13.1999 1.2002 13.0999C1.3002 12.9999 1.5002 12.8999 1.6002 12.7999C1.7002 12.6999 1.8002 12.5999 1.9002 12.4999C2.0002 12.3999 2.1002 12.2999 2.3002 12.1999C2.5002 11.9999 2.7002 11.8999 3.0002 11.7999L3.1002 11.6999H3.2002H3.3002C3.4002 11.6999 3.4002 11.6999 3.5002 11.5999C3.6002 11.4999 3.7002 11.4999 3.8002 11.3999C3.9002 11.2999 4.0002 11.1999 4.1002 11.0999C4.3002 10.8999 4.4002 10.6999 4.4002 10.4999C4.4002 10.3999 4.4002 10.2999 4.4002 10.1999C4.4002 10.0999 4.4002 10.0999 4.4002 10.0999C4.5002 10.1999 4.7002 10.2999 4.9002 10.2999C5.0002 10.2999 5.2002 10.3999 5.4002 10.3999C5.5002 10.3999 5.5002 10.3999 5.6002 10.3999C5.7002 10.3999 5.8002 10.3999 5.9002 10.4999C6.0002 10.4999 6.2002 10.5999 6.3002 10.5999C6.6002 10.6999 6.8002 10.7999 7.0002 11.0999C7.1002 11.1999 7.2002 11.2999 7.2002 11.3999C7.4002 11.6999 7.6002 12.0999 7.6002 12.4999C7.6002 12.5999 7.5002 12.5999 7.5002 12.6999C7.5002 12.5999 7.4002 12.5999 7.4002 12.4999C7.4002 12.4999 7.3002 12.3999 7.2002 12.3999C7.1002 12.3999 7.1002 12.2999 7.0002 12.2999C6.9002 12.2999 6.9002 12.1999 6.8002 12.1999C6.7002 12.1999 6.6002 12.0999 6.5002 12.0999C6.0002 11.8999 5.6002 11.4999 5.3002 11.0999C5.3002 11.0999 5.3002 11.0999 5.3002 11.1999C5.4002 11.4999 5.6002 11.6999 5.8002 11.8999C6.0002 12.0999 6.3002 12.2999 6.6002 12.3999C6.7002 12.3999 6.7002 12.3999 6.8002 12.4999C6.9002 12.4999 7.0002 12.5999 7.1002 12.5999C7.2002 12.5999 7.3002 12.6999 7.3002 12.6999L7.4002 12.7999C7.5002 12.8999 7.5002 12.8999 7.6002 12.8999V12.9999C7.6002 12.9999 7.6002 12.9999 7.5002 13.0999C7.4002 12.9999 7.2002 12.8999 7.0002 12.8999C6.9002 12.8999 6.8002 12.8999 6.7002 12.8999C6.6002 12.8999 6.6002 12.8999 6.5002 12.8999C6.3002 12.8999 6.2002 12.8999 6.0002 12.9999C5.7002 13.0999 5.5002 13.0999 5.2002 13.0999C5.2002 13.0999 5.2002 13.0999 5.1002 13.0999H5.0002H4.9002H4.8002H4.6002C4.6002 13.0999 4.6002 13.0999 4.5002 13.0999C4.4002 12.9999 4.3002 12.9999 4.2002 12.8999L4.1002 12.7999H4.0002C3.9002 12.6999 3.8002 12.6999 3.8002 12.5999C3.5002 12.3999 3.3002 12.3999 3.0002 12.2999H2.9002H2.8002C2.8002 12.2999 2.7002 12.2999 2.7002 12.3999C2.7002 12.3999 2.7002 12.3999 2.7002 12.4999C2.7002 12.4999 2.7002 12.4999 2.8002 12.4999C3.0002 12.4999 3.1002 12.5999 3.3002 12.6999C3.6002 12.7999 3.8002 12.9999 4.1002 13.1999C4.0002 13.1999 4.0002 13.1999 3.9002 13.1999C3.8002 13.1999 3.7002 13.1999 3.6002 13.1999C3.4002 13.1999 3.3002 13.1999 3.1002 13.1999C3.0002 13.1999 2.8002 13.1999 2.7002 13.1999H2.6002C2.4002 13.1999 2.3002 13.1999 2.1002 13.1999C1.9002 13.1999 1.8002 13.1999 1.6002 13.1999H1.4002H1.0002C1.0002 13.1999 1.0002 13.1999 0.900195 13.1999C0.900195 13.1999 0.900195 13.1999 0.900195 13.2999C0.900195 13.3999 0.900195 13.2999 0.900195 13.2999H1.0002C1.1002 13.2999 1.1002 13.2999 1.2002 13.2999C1.3002 13.2999 1.3002 13.2999 1.4002 13.2999H1.5002C1.7002 13.2999 1.9002 13.2999 2.0002 13.2999C2.1002 13.2999 2.3002 13.2999 2.4002 13.2999C2.5002 13.2999 2.5002 13.2999 2.6002 13.2999C2.8002 13.2999 3.0002 13.2999 3.1002 13.2999C3.3002 13.2999 3.5002 13.2999 3.7002 13.2999C3.9002 13.2999 4.1002 13.2999 4.2002 13.1999C4.3002 13.1999 4.5002 13.1999 4.6002 13.0999C4.5002 13.1999 4.5002 13.1999 4.4002 13.2999C4.3002 13.3999 4.2002 13.4999 4.2002 13.4999C4.2002 13.7999 4.1002 13.8999 4.0002 13.9999L3.9002 14.0999C3.8002 14.1999 3.7002 14.3999 3.6002 14.4999C3.5002 14.5999 3.4002 14.6999 3.2002 14.7999C3.2002 14.7999 3.2002 14.7999 3.1002 14.7999C3.2002 14.6999 3.3002 14.6999 3.4002 14.5999C3.5002 14.4999 3.7002 14.3999 3.8002 14.2999C3.9002 14.1999 4.0002 14.0999 4.1002 13.9999C4.3002 14.0999 4.4002 13.9999 4.5002 13.9999L4.6002 13.8999C4.7002 13.7999 4.9002 13.5999 5.0002 13.4999C5.1002 13.3999 5.3002 13.2999 5.4002 13.1999H5.5002H5.6002H5.7002C5.9002 13.1999 6.1002 13.0999 6.3002 13.0999H6.4002C6.5002 13.0999 6.6002 13.0999 6.7002 13.0999C6.9002 13.0999 7.1002 13.1999 7.2002 13.2999C7.2002 13.2999 7.2002 13.2999 7.3002 13.3999C7.3002 13.4999 7.2002 13.4999 7.2002 13.5999L7.1002 13.6999L7.0002 13.7999C6.9002 13.8999 6.9002 13.9999 6.8002 13.9999L6.7002 14.0999C6.6002 14.0999 6.6002 14.1999 6.6002 14.1999C6.6002 14.2999 6.5002 14.2999 6.5002 14.2999C6.5002 14.2999 6.5002 14.3999 6.4002 14.3999C6.4002 14.3999 6.4002 14.3999 6.3002 14.4999C6.1002 14.5999 5.9002 14.6999 5.7002 14.7999L5.5002 14.8999C5.3002 14.8999 5.2002 14.9999 5.0002 14.9999C4.8002 15.0999 4.6002 15.1999 4.4002 15.2999C4.1002 15.3999 3.9002 15.5999 3.7002 15.7999C3.4002 16.0999 3.2002 16.3999 3.0002 16.7999C3.0002 16.7999 3.0002 16.7999 3.0002 16.8999C3.0002 16.8999 3.0002 16.7999 3.1002 16.7999C3.3002 16.4999 3.5002 16.2999 3.7002 16.0999C3.9002 15.8999 4.2002 15.6999 4.5002 15.5999C4.7002 15.4999 5.0002 15.3999 5.3002 15.3999C5.4002 15.3999 5.6002 15.3999 5.7002 15.2999C5.6002 15.4999 5.5002 15.5999 5.3002 15.7999C5.0002 16.1999 4.8002 16.5999 4.6002 16.9999C4.4002 17.3999 4.2002 17.8999 4.1002 18.3999L4.0002 18.9999L3.9002 19.3999C3.9002 19.3999 3.9002 19.3999 3.9002 19.4999C3.9002 19.4999 3.9002 19.4999 3.9002 19.3999L4.0002 19.0999C4.1002 18.8999 4.1002 18.7999 4.2002 18.5999C4.4002 18.0999 4.6002 17.5999 4.8002 17.1999C4.9002 16.9999 5.0002 16.7999 5.1002 16.6999C5.1002 16.7999 5.1002 16.7999 5.1002 16.8999V17.1999C5.1002 17.3999 5.1002 17.4999 5.1002 17.6999C5.1002 17.7999 5.1002 17.9999 5.1002 18.0999C5.1002 18.2999 5.0002 18.3999 5.0002 18.4999C5.0002 18.4999 5.0002 18.4999 5.0002 18.5999C5.1002 18.4999 5.1002 18.3999 5.2002 18.2999C5.3002 18.0999 5.3002 17.9999 5.3002 17.7999C5.3002 17.5999 5.3002 17.3999 5.3002 17.1999C5.3002 17.0999 5.3002 16.8999 5.3002 16.7999C5.3002 16.5999 5.3002 16.4999 5.3002 16.2999V16.1999C5.3002 16.1999 5.3002 16.1999 5.3002 16.0999C5.5002 15.6999 5.8002 15.3999 6.0002 14.9999C6.0002 15.0999 6.0002 15.0999 6.0002 15.1999C6.0002 15.3999 6.0002 15.5999 6.0002 15.7999C6.0002 15.8999 6.0002 16.0999 6.1002 16.1999C6.1002 16.3999 6.1002 16.4999 6.2002 16.6999C6.2002 16.7999 6.2002 16.9999 6.2002 17.1999C6.2002 17.2999 6.2002 17.3999 6.2002 17.4999V17.5999C6.2002 17.5999 6.2002 17.5999 6.2002 17.6999C6.2002 17.6999 6.3002 17.6999 6.3002 17.5999C6.3002 17.5999 6.3002 17.5999 6.3002 17.4999C6.4002 17.2999 6.4002 16.9999 6.5002 16.7999C6.5002 16.5999 6.5002 16.3999 6.5002 16.1999C6.5002 15.9999 6.5002 15.8999 6.5002 15.6999V15.5999C6.5002 15.4999 6.5002 15.3999 6.5002 15.2999C6.5002 15.1999 6.5002 14.9999 6.5002 14.7999C6.5002 14.6999 6.5002 14.5999 6.6002 14.4999V14.3999L6.7002 14.2999C6.7002 14.1999 6.8002 14.1999 6.8002 14.0999C6.9002 13.9999 7.0002 13.8999 7.1002 13.7999C7.2002 13.6999 7.2002 13.5999 7.4002 13.4999C7.4002 13.4999 7.4002 13.4999 7.5002 13.3999C7.5002 13.3999 7.5002 13.3999 7.6002 13.3999C7.6002 13.4999 7.6002 13.4999 7.7002 13.5999C7.7002 13.6999 7.8002 13.6999 7.8002 13.7999C8.0002 13.8999 8.1002 13.9999 8.1002 14.0999C8.1002 14.1999 8.2002 14.1999 8.2002 14.2999C8.3002 14.3999 8.3002 14.5999 8.4002 14.6999V14.7999C8.4002 14.9999 8.4002 15.0999 8.3002 15.2999C8.3002 15.4999 8.2002 15.5999 8.2002 15.7999C8.1002 15.9999 8.1002 16.1999 8.0002 16.4999C8.0002 16.5999 8.0002 16.6999 8.0002 16.8999C8.0002 16.9999 8.0002 17.1999 8.0002 17.2999C8.0002 17.3999 8.1002 17.5999 8.1002 17.6999C8.1002 17.7999 8.2002 17.7999 8.2002 17.8999C8.2002 17.8999 8.2002 17.8999 8.2002 17.7999C8.2002 17.6999 8.1002 17.5999 8.1002 17.3999C8.1002 17.2999 8.1002 17.0999 8.1002 16.9999C8.1002 16.8999 8.2002 16.6999 8.2002 16.4999C8.2002 16.3999 8.3002 16.1999 8.3002 16.0999C8.3002 15.9999 8.3002 15.8999 8.4002 15.7999C8.4002 15.8999 8.4002 15.9999 8.5002 16.0999C8.5002 16.2999 8.6002 16.4999 8.6002 16.6999C8.7002 16.9999 8.8002 17.1999 8.9002 17.3999C9.0002 17.5999 9.2002 17.7999 9.4002 17.9999C9.4002 17.9999 9.4002 17.9999 9.4002 17.8999V17.7999L9.3002 17.6999C9.0002 17.2999 8.8002 16.7999 8.7002 16.2999C8.7002 16.0999 8.6002 15.8999 8.6002 15.7999C8.6002 15.5999 8.6002 15.4999 8.5002 15.2999C8.5002 15.0999 8.4002 14.9999 8.4002 14.7999C8.5002 14.7999 8.5002 14.8999 8.6002 14.8999C8.7002 14.8999 8.7002 14.9999 8.8002 14.9999H8.9002C8.9002 14.9999 9.0002 14.9999 9.0002 15.0999C9.1002 15.0999 9.2002 15.1999 9.3002 15.2999C9.5002 15.3999 9.6002 15.5999 9.7002 15.6999C9.7002 15.6999 9.7002 15.6999 9.8002 15.7999C9.8002 15.7999 9.8002 15.7999 9.9002 15.7999C9.9002 15.5999 9.8002 15.4999 9.7002 15.3999C9.6002 15.2999 9.5002 15.0999 9.4002 14.9999C9.3002 14.8999 9.2002 14.8999 9.1002 14.7999C9.0002 14.7999 8.9002 14.6999 8.9002 14.6999C8.9002 14.6999 8.8002 14.6999 8.8002 14.5999C8.7002 14.5999 8.7002 14.5999 8.6002 14.4999C8.5002 14.4999 8.4002 14.3999 8.4002 14.3999C8.3002 14.2999 8.3002 14.1999 8.2002 14.0999L8.1002 13.9999L8.0002 13.8999C8.0002 13.7999 7.9002 13.7999 7.9002 13.6999C7.9002 13.5999 7.9002 13.5999 7.8002 13.4999C7.9002 13.4999 7.9002 13.4999 8.0002 13.4999C8.0002 13.4999 8.0002 13.4999 8.1002 13.4999H8.2002C8.2002 13.4999 8.2002 13.4999 8.3002 13.4999C8.4002 13.4999 8.4002 13.4999 8.5002 13.4999C8.7002 13.4999 8.9002 13.5999 9.0002 13.6999C9.1002 13.6999 9.1002 13.7999 9.2002 13.7999L9.3002 13.8999C9.3002 13.8999 9.4002 13.8999 9.4002 13.9999C9.8002 13.8999 9.8002 13.9999 9.9002 13.9999C10.0002 13.9999 10.1002 14.0999 10.1002 14.0999C10.2002 14.0999 10.3002 14.0999 10.4002 14.0999V13.9999C10.2002 13.8999 10.0002 13.6999 9.8002 13.5999C9.6002 13.4999 9.5002 13.3999 9.4002 13.2999C9.1002 13.1999 8.9002 13.0999 8.6002 12.9999C8.5002 12.9999 8.4002 12.9999 8.4002 12.9999C8.3002 12.9999 8.2002 12.9999 8.1002 12.9999H8.0002H8.1002C8.2002 12.9999 8.2002 12.8999 8.3002 12.8999C8.4002 12.8999 8.4002 12.7999 8.5002 12.7999C8.6002 12.7999 8.8002 12.6999 8.9002 12.6999H9.0002C9.1002 12.6999 9.2002 12.6999 9.2002 12.6999C9.5002 12.6999 9.7002 12.7999 9.9002 12.9999C10.0002 12.9999 10.0002 13.0999 10.1002 13.1999L10.2002 13.2999L10.3002 13.3999C10.4002 13.4999 10.4002 13.5999 10.5002 13.5999ZM6.6002 12.7999C6.5002 12.7999 6.4002 12.7999 6.4002 12.7999C6.4002 12.7999 6.5002 12.7999 6.6002 12.7999ZM2.9002 12.2999H2.8002H2.9002ZM2.6002 13.4999C2.5002 13.4999 2.5002 13.4999 2.4002 13.4999C2.3002 13.4999 2.1002 13.4999 2.0002 13.4999C2.3002 13.4999 2.4002 13.4999 2.6002 13.4999ZM16.3002 7.3999H16.5002H16.6002C16.4002 7.3999 16.3002 7.3999 16.1002 7.3999C16.2002 7.3999 16.3002 7.3999 16.3002 7.3999ZM16.8002 7.7999C16.7002 7.7999 16.6002 7.7999 16.5002 7.7999H16.4002C16.5002 7.7999 16.6002 7.7999 16.8002 7.7999ZM14.0002 8.4999C14.0002 8.4999 13.9002 8.4999 14.0002 8.4999C13.9002 8.4999 14.0002 8.4999 14.0002 8.4999ZM13.3002 8.5999H13.2002C13.3002 8.5999 13.3002 8.5999 13.3002 8.5999ZM11.9002 9.3999H11.8002C11.9002 9.3999 11.9002 9.3999 11.9002 9.3999ZM12.6002 12.8999C12.7002 12.8999 12.7002 12.8999 12.8002 12.8999C12.8002 12.8999 12.7002 12.8999 12.6002 12.8999ZM13.8002 9.2999C13.7002 9.2999 13.7002 9.2999 13.6002 9.2999C13.7002 9.2999 13.7002 9.2999 13.8002 9.2999ZM12.4002 9.6999H12.3002H12.4002ZM14.7002 12.5999C14.6002 12.5999 14.6002 12.5999 14.7002 12.5999C14.6002 12.5999 14.7002 12.5999 14.7002 12.5999ZM14.9002 9.2999C15.0002 9.2999 15.0002 9.2999 14.9002 9.2999H15.0002C15.0002 9.2999 15.0002 9.2999 14.9002 9.2999ZM17.7002 9.4999C17.8002 9.4999 17.8002 9.4999 17.7002 9.4999C17.8002 9.4999 17.8002 9.4999 17.9002 9.4999C17.9002 9.4999 17.8002 9.4999 17.7002 9.4999Z" stroke="white" stroke-width="0.25" stroke-miterlimit="10" stroke-linecap="round" stroke-linejoin="round"/>
</g>
<defs>
<clipPath id="clip0">
<rect width="19.9" height="35.3" fill="white"/>
</clipPath>
</defs>
</svg>
