<svg width="48" height="30" viewBox="0 0 48 30" fill="none" xmlns="http://www.w3.org/2000/svg">
<path d="M3.25836 2.14014H44.975C45.4907 2.14014 45.8588 2.54254 45.8588 2.97827V27.5287C45.8588 27.9643 45.4906 28.3668 44.975 28.3668H3.25836C2.74273 28.3668 2.37451 27.9643 2.37451 27.5287V2.97827C2.37451 2.54259 2.74268 2.14014 3.25836 2.14014Z" stroke="white" stroke-width="3"/>
<path d="M5.59782 10.4779L4.76995 8.50781L3.94678 10.4779H5.59782Z" fill="white"/>
<path d="M23.8557 9.72903C23.6894 9.82756 23.4929 9.83078 23.2573 9.83078H21.7878V8.73291H23.2773C23.4881 8.73291 23.708 8.74219 23.851 8.82204C24.0078 8.8941 24.1048 9.04738 24.1048 9.25899C24.1048 9.47505 24.0126 9.64893 23.8557 9.72903Z" fill="white"/>
<path d="M39.3811 6.70703V7.52118L38.9106 6.70703H35.4624V7.52118L35.0303 6.70703H30.3724C29.5928 6.70703 28.9074 6.81343 28.3539 7.10953V6.70703H25.1396V7.10953C24.7873 6.80427 24.3072 6.70703 23.7735 6.70703H12.0302L11.2424 8.4876L10.4333 6.70703H6.73455V7.52118L6.32822 6.70703H3.17384L1.70898 9.98463V12.6063L3.8751 7.66357H5.67224L7.72949 12.3434V7.66357H9.70373L11.2868 11.0166L12.7408 7.66357H14.7548V12.6063H13.5149L13.5102 8.73521L11.7563 12.6063H10.6942L8.93567 8.73181V12.6063H6.47544L6.01072 11.5039H3.49221L3.02267 12.6063H1.70898V13.6006H1.70905V13.6008H3.77582L4.2419 12.5028H5.28509L5.74987 13.6006H9.81631V12.7613L10.1793 13.6042H12.2904L12.6533 12.7487V13.6006H22.7592L22.7544 11.7985H22.95C23.0869 11.8032 23.1269 11.8155 23.1269 12.0362V13.6006H28.3537V13.1811C28.7752 13.4017 29.431 13.6006 30.2938 13.6006H32.4927L32.9632 12.5028H34.0065L34.4667 13.6006H38.7042V12.5578L39.3457 13.6006H42.7415V6.70679H39.3808L39.3811 6.70703ZM19.6901 8.6929H16.859V9.58387H19.6222V10.5971H16.859V11.5841H19.6901V12.6063H15.6493V7.66357H19.6901V8.6929ZM25.1306 10.7284C25.3014 10.9743 25.3309 11.1939 25.3309 11.6354V12.6063H24.1107L24.1061 11.983C24.1061 11.6856 24.1352 11.2578 23.9151 11.02C23.7385 10.8461 23.4691 10.8085 23.0336 10.8085H21.7351V12.6062H20.5256V7.6635H23.3077C23.9258 7.6635 24.3811 7.67952 24.7724 7.90035C25.1551 8.12111 25.3845 8.4435 25.3845 8.99469C25.3845 9.78292 24.8461 10.19 24.5322 10.3122C24.7969 10.4107 25.0229 10.5844 25.1306 10.7284ZM26.0901 12.6063V7.66357H27.3242V12.6063H26.0901ZM41.6523 12.6062L39.9381 12.6063L37.6452 8.89641V12.6062H35.1818L34.7111 11.5038H32.1984L31.7418 12.6062H30.3264C29.7382 12.6062 28.9939 12.4792 28.5724 12.0596C28.1473 11.6399 27.9262 11.0714 27.9262 10.1726C27.9262 9.43962 28.0584 8.76942 28.5783 8.23987C28.9693 7.84548 29.5818 7.66344 30.4153 7.66344H31.5862V8.72265H30.4397C29.9982 8.72265 29.749 8.78674 29.5089 9.01548C29.3029 9.2235 29.1611 9.61696 29.1611 10.1351C29.1611 10.6647 29.269 11.0463 29.4938 11.2959C29.68 11.4914 30.0183 11.5508 30.3369 11.5508H30.8801L32.5848 7.66369H34.3974L36.4452 12.3388V7.66369H38.287L40.4133 11.106V7.66369H41.6523V12.6062Z" fill="white"/>
<path d="M34.3003 10.4779L33.4634 8.50781L32.6309 10.4779H34.3003Z" fill="white"/>
<path d="M17.319 20.1209H14.345V19.1367H17.0004V18.1285H14.345V17.2297H17.3777L18.7008 18.6703L17.319 20.1209Z" fill="white"/>
<path d="M22.1113 20.6866L20.2544 18.6726L22.1113 16.7229V20.6866Z" fill="white"/>
<path d="M24.8583 18.4883H23.2952V17.2292H24.8724C25.3091 17.2292 25.6122 17.4031 25.6122 17.8355C25.6121 18.263 25.323 18.4883 24.8583 18.4883Z" fill="white"/>
<path d="M30.8114 18.2377C30.6498 18.3315 30.4495 18.3395 30.2142 18.3395H28.7449V17.2292H30.2343C30.4495 17.2292 30.6652 17.2336 30.8115 17.3184C30.9683 17.3984 31.0621 17.5517 31.0621 17.7632C31.0621 17.9746 30.9683 18.1451 30.8115 18.2377H30.8114Z" fill="white"/>
<path d="M46.5291 20.4984V20.4983C46.2355 20.9179 45.6626 21.1308 44.8876 21.1308H42.5517V20.0706H44.878C45.1089 20.0706 45.2705 20.041 45.3676 19.9482C45.4595 19.8654 45.5113 19.7482 45.5106 19.6257C45.5106 19.4817 45.4519 19.3672 45.3627 19.2988C45.275 19.2233 45.1474 19.1893 44.9365 19.1893C43.8008 19.1516 42.3838 19.2235 42.3838 17.6589C42.3838 16.9417 42.8499 16.1871 44.1194 16.1871H46.5288V15.2034H44.2902C43.6146 15.2034 43.124 15.3614 42.7762 15.607V15.2034H39.4651C38.9357 15.2034 38.3141 15.3317 38.0201 15.607V15.2034H32.1073V15.607C31.6368 15.2756 30.8426 15.2034 30.4761 15.2034H26.576V15.607C26.2037 15.2551 25.3757 15.2034 24.8711 15.2034H20.5061L19.5073 16.2592L18.5717 15.2034H12.0515V22.1021H18.4492L19.4784 21.0295L20.4481 22.1021L24.3917 22.1054V20.4827H24.7794C25.3027 20.4906 25.9198 20.4702 26.4642 20.2402V22.1019H29.7167V20.304H29.8738C30.0739 20.304 30.0938 20.3121 30.0938 20.5076V22.1017H39.9752C40.6026 22.1017 41.2581 21.9449 41.6213 21.6603V22.1017H44.7556C45.4079 22.1017 46.0449 22.0125 46.5296 21.7839V20.4987H46.5294L46.5291 20.4984ZM24.8303 19.5019H23.321V21.1602H20.9699L19.4805 19.5235L17.9327 21.1602H13.1413V16.2161H18.0063L19.4946 17.8369L21.0332 16.2161H24.8984C25.8581 16.2161 26.9366 16.4757 26.9366 17.8448C26.9366 19.2183 25.8876 19.5019 24.8303 19.5019ZM32.0884 19.2777C32.259 19.5188 32.2838 19.7441 32.2887 20.1801V21.1602H31.0743V20.5415C31.0743 20.2443 31.1038 19.8037 30.8788 19.5737C30.7021 19.3967 30.4327 19.3544 29.9914 19.3544H28.6987V21.16H27.4833V16.216H30.2759C30.8883 16.216 31.3342 16.2425 31.7314 16.4493C32.1131 16.6745 32.3531 16.9833 32.3531 17.5471C32.3531 18.3363 31.8142 18.7389 31.4959 18.8625C31.7652 18.9596 31.9851 19.1335 32.0884 19.2777ZM37.0851 17.2385H34.2525V18.1373H37.016V19.146H34.2525V20.1298L37.0851 20.134V21.16H33.0479V16.216H37.0851V17.2385ZM40.1933 21.1599H37.8375V20.0996H40.184C40.4134 20.0996 40.5762 20.0701 40.6781 19.9772C40.7611 19.9009 40.821 19.7898 40.821 19.6549C40.821 19.5108 40.7563 19.3963 40.6733 19.3279C40.5808 19.2524 40.4533 19.2184 40.2425 19.2184C39.1113 19.1807 37.6948 19.2525 37.6948 17.688C37.6948 16.9709 38.156 16.2161 39.4241 16.2161H41.8491V17.2685H39.6304C39.4103 17.2685 39.2673 17.2766 39.1457 17.3577C39.013 17.4378 38.9639 17.5567 38.9639 17.7135C38.9639 17.8999 39.0764 18.0266 39.2285 18.0817C39.3561 18.1251 39.4933 18.1376 39.6993 18.1376L40.3503 18.1547C41.0069 18.1704 41.4578 18.2814 41.7319 18.5524H41.7318C41.9672 18.7904 42.0936 19.0909 42.0936 19.5999C42.0936 20.6633 41.4132 21.1599 40.1933 21.1599Z" fill="white"/>
<path d="M46.5315 17.2297H44.3266C44.1066 17.2297 43.9603 17.2377 43.8373 17.3189C43.7096 17.3989 43.6606 17.518 43.6606 17.6747C43.6606 17.8612 43.7682 17.9882 43.9249 18.0429C44.0525 18.0864 44.1896 18.0991 44.391 18.0991L45.0468 18.1161C45.7082 18.1321 46.1498 18.2431 46.4191 18.5141C46.4682 18.5518 46.4977 18.594 46.5315 18.6365V17.2297Z" fill="white"/>
</svg>
