<svg width="19" height="24" viewBox="0 0 19 24" fill="none" xmlns="http://www.w3.org/2000/svg">
<path d="M18.9168 20.3319L17.57 5.16595C17.5411 4.82925 17.2573 4.57432 16.9255 4.57432H14.1549C14.1164 2.04426 12.0481 0 9.50841 0C6.96872 0 4.90042 2.04426 4.86194 4.57432H2.09137C1.75467 4.57432 1.47569 4.82925 1.44683 5.16595L0.100025 20.3319C0.100025 20.3512 0.0952148 20.3704 0.0952148 20.3896C0.0952148 22.1164 1.67771 23.521 3.62576 23.521H15.3911C17.3391 23.521 18.9216 22.1164 18.9216 20.3896C18.9216 20.3704 18.9216 20.3512 18.9168 20.3319ZM9.50841 1.2987C11.3314 1.2987 12.8177 2.76095 12.8562 4.57432H6.16064C6.19912 2.76095 7.68542 1.2987 9.50841 1.2987ZM15.3911 22.2223H3.62576C2.40402 22.2223 1.41316 21.4142 1.39392 20.4185L2.683 5.87784H4.85713V7.84994C4.85713 8.21069 5.14573 8.49929 5.50648 8.49929C5.86723 8.49929 6.15583 8.21069 6.15583 7.84994V5.87784H12.8562V7.84994C12.8562 8.21069 13.1448 8.49929 13.5055 8.49929C13.8663 8.49929 14.1549 8.21069 14.1549 7.84994V5.87784H16.329L17.6229 20.4185C17.6037 21.4142 16.608 22.2223 15.3911 22.2223Z" fill="white"/>
</svg>
