<svg width="14" height="14" viewBox="0 0 14 14" fill="#8CBD02" xmlns="http://www.w3.org/2000/svg">
<path d="M13.5989 6.83673C13.3761 6.83673 13.1978 7.01499 13.1978 7.23783V10.8864C13.1978 11.8787 12.3896 12.6839 11.4003 12.6839H2.59975C1.60739 12.6869 0.802207 11.8787 0.802207 10.8894V7.18138C0.802207 6.95854 0.623939 6.78027 0.401104 6.78027C0.178268 6.78027 0 6.95854 0 7.18138V10.8894C0 12.3244 1.16766 13.4891 2.59975 13.4891H11.4003C12.8353 13.4891 14 12.3214 14 10.8894V7.2408C14 7.02094 13.8217 6.83673 13.5989 6.83673Z" fill="inherit" stroke="inherit" stroke-miterlimit="10"/>
<path d="M6.71767 10.3041C6.79492 10.3813 6.89891 10.4229 6.99993 10.4229C7.10095 10.4229 7.20494 10.3843 7.28219 10.3041L9.83143 7.75482C9.9889 7.59735 9.9889 7.3448 9.83143 7.18733C9.67396 7.02986 9.42141 7.02986 9.26394 7.18733L7.40104 9.05321V0.915264C7.40104 0.692428 7.22277 0.51416 6.99993 0.51416C6.7771 0.51416 6.59883 0.692428 6.59883 0.915264V9.05321L4.73295 7.18733C4.57548 7.02986 4.32294 7.02986 4.16547 7.18733C4.008 7.3448 4.008 7.59735 4.16547 7.75482L6.71767 10.3041Z" fill="inherit" stroke="inherit" stroke-miterlimit="10"/>
</svg>
