<svg width="230" height="50" viewBox="0 0 230 50" fill="none" xmlns="http://www.w3.org/2000/svg">
<rect x="0.5" y="0.5" width="229" height="49" rx="24.5" stroke="#8CBD02"/>
<path d="M46.8652 30.0508C46.543 30.1914 46.25 30.3232 45.9863 30.4463C45.7285 30.5693 45.3887 30.6982 44.9668 30.833C44.6094 30.9443 44.2197 31.0381 43.7979 31.1143C43.3818 31.1963 42.9219 31.2373 42.418 31.2373C41.4688 31.2373 40.6045 31.1055 39.8252 30.8418C39.0518 30.5723 38.3779 30.1533 37.8037 29.585C37.2412 29.0283 36.8018 28.3223 36.4854 27.4668C36.1689 26.6055 36.0107 25.6064 36.0107 24.4697C36.0107 23.3916 36.1631 22.4277 36.4678 21.5781C36.7725 20.7285 37.2119 20.0107 37.7861 19.4248C38.3428 18.8564 39.0137 18.4229 39.7988 18.124C40.5898 17.8252 41.4658 17.6758 42.4268 17.6758C43.1299 17.6758 43.8301 17.7607 44.5273 17.9307C45.2305 18.1006 46.0098 18.3994 46.8652 18.8271V20.8926H46.7334C46.0127 20.2891 45.2979 19.8496 44.5889 19.5742C43.8799 19.2988 43.1211 19.1611 42.3125 19.1611C41.6504 19.1611 41.0527 19.2695 40.5195 19.4863C39.9922 19.6973 39.5205 20.0283 39.1045 20.4795C38.7002 20.9189 38.3838 21.4756 38.1553 22.1494C37.9326 22.8174 37.8213 23.5908 37.8213 24.4697C37.8213 25.3896 37.9443 26.1807 38.1904 26.8428C38.4424 27.5049 38.7646 28.0439 39.1572 28.46C39.5674 28.8936 40.0449 29.2158 40.5898 29.4268C41.1406 29.6318 41.7207 29.7344 42.3301 29.7344C43.168 29.7344 43.9531 29.5908 44.6855 29.3037C45.418 29.0166 46.1035 28.5859 46.7422 28.0117H46.8652V30.0508ZM57.7232 31H56.0797V29.9541C55.9332 30.0537 55.734 30.1943 55.482 30.376C55.2359 30.5518 54.9957 30.6924 54.7613 30.7979C54.4859 30.9326 54.1695 31.0439 53.8121 31.1318C53.4547 31.2256 53.0357 31.2725 52.5553 31.2725C51.6705 31.2725 50.9205 30.9795 50.3053 30.3936C49.69 29.8076 49.3824 29.0605 49.3824 28.1523C49.3824 27.4082 49.5406 26.8076 49.857 26.3506C50.1793 25.8877 50.6363 25.5244 51.2281 25.2607C51.8258 24.9971 52.5436 24.8184 53.3814 24.7246C54.2193 24.6309 55.1187 24.5605 56.0797 24.5137V24.2588C56.0797 23.8838 56.0123 23.5732 55.8775 23.3271C55.7486 23.0811 55.5611 22.8877 55.315 22.7471C55.0807 22.6123 54.7994 22.5215 54.4713 22.4746C54.1432 22.4277 53.8004 22.4043 53.443 22.4043C53.0094 22.4043 52.526 22.4629 51.9928 22.5801C51.4596 22.6914 50.9088 22.8555 50.3404 23.0723H50.2525V21.3936C50.5748 21.3057 51.0406 21.209 51.65 21.1035C52.2594 20.998 52.86 20.9453 53.4518 20.9453C54.1432 20.9453 54.7437 21.0039 55.2535 21.1211C55.7691 21.2324 56.2145 21.4258 56.5895 21.7012C56.9586 21.9707 57.2398 22.3193 57.4332 22.7471C57.6266 23.1748 57.7232 23.7051 57.7232 24.3379V31ZM56.0797 28.583V25.8496C55.5758 25.8789 54.9811 25.9229 54.2955 25.9814C53.6158 26.04 53.0768 26.125 52.6783 26.2363C52.2037 26.3711 51.8199 26.582 51.527 26.8691C51.234 27.1504 51.0875 27.54 51.0875 28.0381C51.0875 28.6006 51.2574 29.0254 51.5973 29.3125C51.9371 29.5938 52.4557 29.7344 53.1529 29.7344C53.733 29.7344 54.2633 29.623 54.7437 29.4004C55.2242 29.1719 55.6695 28.8994 56.0797 28.583ZM63.4748 31H61.8225V17.3242H63.4748V31ZM74.9041 30.3848C74.3533 30.6484 73.8289 30.8535 73.3309 31C72.8387 31.1465 72.3143 31.2197 71.7576 31.2197C71.0486 31.2197 70.3982 31.1172 69.8064 30.9121C69.2146 30.7012 68.7078 30.3848 68.2859 29.9629C67.8582 29.541 67.5271 29.0078 67.2928 28.3633C67.0584 27.7188 66.9412 26.9658 66.9412 26.1045C66.9412 24.499 67.3807 23.2393 68.2596 22.3252C69.1443 21.4111 70.3104 20.9541 71.7576 20.9541C72.3201 20.9541 72.8709 21.0332 73.41 21.1914C73.9549 21.3496 74.4529 21.543 74.9041 21.7715V23.6084H74.8162C74.3123 23.2158 73.7908 22.9141 73.2518 22.7031C72.7186 22.4922 72.1971 22.3867 71.6873 22.3867C70.7498 22.3867 70.0086 22.7031 69.4637 23.3359C68.9246 23.9629 68.6551 24.8857 68.6551 26.1045C68.6551 27.2881 68.9188 28.1992 69.4461 28.8379C69.9793 29.4707 70.7264 29.7871 71.6873 29.7871C72.0213 29.7871 72.3611 29.7432 72.7068 29.6553C73.0525 29.5674 73.3631 29.4531 73.6385 29.3125C73.8787 29.1895 74.1043 29.0605 74.3152 28.9258C74.5262 28.7852 74.6932 28.665 74.8162 28.5654H74.9041V30.3848ZM86.0697 31H84.4174V29.9102C83.8607 30.3496 83.3275 30.6865 82.8178 30.9209C82.308 31.1553 81.7455 31.2725 81.1303 31.2725C80.099 31.2725 79.2963 30.959 78.7221 30.332C78.1479 29.6992 77.8607 28.7734 77.8607 27.5547V21.1826H79.5131V26.7725C79.5131 27.2705 79.5365 27.6982 79.5834 28.0557C79.6303 28.4072 79.7299 28.709 79.8822 28.9609C80.0404 29.2188 80.2455 29.4062 80.4975 29.5234C80.7494 29.6406 81.1156 29.6992 81.5961 29.6992C82.0238 29.6992 82.4896 29.5879 82.9936 29.3652C83.5033 29.1426 83.9779 28.8584 84.4174 28.5127V21.1826H86.0697V31ZM91.8916 31H90.2393V17.3242H91.8916V31ZM103.69 31H102.046V29.9541C101.9 30.0537 101.701 30.1943 101.449 30.376C101.203 30.5518 100.963 30.6924 100.728 30.7979C100.453 30.9326 100.136 31.0439 99.7789 31.1318C99.4215 31.2256 99.0025 31.2725 98.5221 31.2725C97.6373 31.2725 96.8873 30.9795 96.2721 30.3936C95.6568 29.8076 95.3492 29.0605 95.3492 28.1523C95.3492 27.4082 95.5074 26.8076 95.8238 26.3506C96.1461 25.8877 96.6031 25.5244 97.1949 25.2607C97.7926 24.9971 98.5104 24.8184 99.3482 24.7246C100.186 24.6309 101.086 24.5605 102.046 24.5137V24.2588C102.046 23.8838 101.979 23.5732 101.844 23.3271C101.715 23.0811 101.528 22.8877 101.282 22.7471C101.047 22.6123 100.766 22.5215 100.438 22.4746C100.11 22.4277 99.7672 22.4043 99.4098 22.4043C98.9762 22.4043 98.4928 22.4629 97.9596 22.5801C97.4264 22.6914 96.8756 22.8555 96.3072 23.0723H96.2193V21.3936C96.5416 21.3057 97.0074 21.209 97.6168 21.1035C98.2262 20.998 98.8268 20.9453 99.4186 20.9453C100.11 20.9453 100.711 21.0039 101.22 21.1211C101.736 21.2324 102.181 21.4258 102.556 21.7012C102.925 21.9707 103.207 22.3193 103.4 22.7471C103.593 23.1748 103.69 23.7051 103.69 24.3379V31ZM102.046 28.583V25.8496C101.543 25.8789 100.948 25.9229 100.262 25.9814C99.5826 26.04 99.0436 26.125 98.6451 26.2363C98.1705 26.3711 97.7867 26.582 97.4938 26.8691C97.2008 27.1504 97.0543 27.54 97.0543 28.0381C97.0543 28.6006 97.2242 29.0254 97.5641 29.3125C97.9039 29.5938 98.4225 29.7344 99.1197 29.7344C99.6998 29.7344 100.23 29.623 100.711 29.4004C101.191 29.1719 101.636 28.8994 102.046 28.583ZM112.869 30.9121C112.559 30.9941 112.219 31.0615 111.85 31.1143C111.487 31.167 111.161 31.1934 110.874 31.1934C109.872 31.1934 109.111 30.9238 108.589 30.3848C108.068 29.8457 107.807 28.9814 107.807 27.792V22.5713H106.691V21.1826H107.807V18.3613H109.459V21.1826H112.869V22.5713H109.459V27.0449C109.459 27.5605 109.471 27.9648 109.494 28.2578C109.518 28.5449 109.6 28.8145 109.74 29.0664C109.869 29.3008 110.045 29.4736 110.268 29.585C110.496 29.6904 110.842 29.7432 111.305 29.7432C111.574 29.7432 111.856 29.7051 112.149 29.6289C112.442 29.5469 112.653 29.4795 112.781 29.4268H112.869V30.9121ZM123.991 26.2627H116.758C116.758 26.8662 116.848 27.3936 117.03 27.8447C117.212 28.29 117.461 28.6562 117.777 28.9434C118.082 29.2246 118.442 29.4355 118.858 29.5762C119.28 29.7168 119.743 29.7871 120.247 29.7871C120.915 29.7871 121.586 29.6553 122.26 29.3916C122.939 29.1221 123.423 28.8584 123.71 28.6006H123.798V30.4023C123.241 30.6367 122.673 30.833 122.093 30.9912C121.512 31.1494 120.903 31.2285 120.264 31.2285C118.636 31.2285 117.364 30.7891 116.45 29.9102C115.536 29.0254 115.079 27.7715 115.079 26.1484C115.079 24.543 115.515 23.2686 116.388 22.3252C117.267 21.3818 118.422 20.9102 119.851 20.9102C121.176 20.9102 122.195 21.2969 122.91 22.0703C123.631 22.8438 123.991 23.9424 123.991 25.3662V26.2627ZM122.383 24.9971C122.377 24.1299 122.157 23.459 121.723 22.9844C121.296 22.5098 120.642 22.2725 119.763 22.2725C118.879 22.2725 118.173 22.5332 117.645 23.0547C117.124 23.5762 116.828 24.2236 116.758 24.9971H122.383ZM145.672 30.0332C144.957 30.3613 144.175 30.6484 143.325 30.8945C142.481 31.1348 141.664 31.2549 140.873 31.2549C139.854 31.2549 138.919 31.1143 138.069 30.833C137.22 30.5518 136.496 30.1299 135.898 29.5674C135.295 28.999 134.829 28.29 134.501 27.4404C134.173 26.585 134.009 25.5859 134.009 24.4434C134.009 22.3516 134.618 20.7021 135.837 19.4951C137.062 18.2822 138.74 17.6758 140.873 17.6758C141.617 17.6758 142.376 17.7666 143.149 17.9482C143.929 18.124 144.767 18.4258 145.663 18.8535V20.9189H145.505C145.323 20.7783 145.06 20.5938 144.714 20.3652C144.368 20.1367 144.028 19.9463 143.694 19.7939C143.29 19.6123 142.83 19.4629 142.314 19.3457C141.805 19.2227 141.225 19.1611 140.574 19.1611C139.109 19.1611 137.949 19.6328 137.094 20.5762C136.244 21.5137 135.819 22.7852 135.819 24.3906C135.819 26.084 136.265 27.4023 137.155 28.3457C138.046 29.2832 139.259 29.752 140.794 29.752C141.356 29.752 141.916 29.6963 142.473 29.585C143.035 29.4736 143.527 29.3301 143.949 29.1543V25.9463H140.442V24.417H145.672V30.0332ZM155.607 22.9844H155.519C155.273 22.9258 155.033 22.8848 154.798 22.8613C154.57 22.832 154.297 22.8174 153.981 22.8174C153.471 22.8174 152.979 22.9316 152.504 23.1602C152.03 23.3828 151.573 23.6729 151.133 24.0303V31H149.481V21.1826H151.133V22.6328C151.79 22.1055 152.367 21.7334 152.865 21.5166C153.369 21.2939 153.881 21.1826 154.403 21.1826C154.69 21.1826 154.898 21.1914 155.027 21.209C155.156 21.2207 155.349 21.2471 155.607 21.2881V22.9844ZM166.43 26.0957C166.43 27.6953 166.02 28.958 165.199 29.8838C164.379 30.8096 163.28 31.2725 161.904 31.2725C160.515 31.2725 159.41 30.8096 158.59 29.8838C157.776 28.958 157.368 27.6953 157.368 26.0957C157.368 24.4961 157.776 23.2334 158.59 22.3076C159.41 21.376 160.515 20.9102 161.904 20.9102C163.28 20.9102 164.379 21.376 165.199 22.3076C166.02 23.2334 166.43 24.4961 166.43 26.0957ZM164.725 26.0957C164.725 24.8242 164.476 23.8809 163.978 23.2656C163.48 22.6445 162.788 22.334 161.904 22.334C161.007 22.334 160.31 22.6445 159.812 23.2656C159.32 23.8809 159.073 24.8242 159.073 26.0957C159.073 27.3262 159.322 28.2607 159.821 28.8994C160.319 29.5322 161.013 29.8486 161.904 29.8486C162.782 29.8486 163.471 29.5352 163.969 28.9082C164.473 28.2754 164.725 27.3379 164.725 26.0957ZM182.245 21.1826L179.687 31H178.158L175.636 23.4326L173.131 31H171.61L169.026 21.1826H170.749L172.551 28.7852L175.003 21.1826H176.365L178.879 28.7852L180.584 21.1826H182.245ZM190.624 30.9121C190.314 30.9941 189.974 31.0615 189.605 31.1143C189.242 31.167 188.916 31.1934 188.629 31.1934C187.627 31.1934 186.866 30.9238 186.344 30.3848C185.823 29.8457 185.562 28.9814 185.562 27.792V22.5713H184.446V21.1826H185.562V18.3613H187.214V21.1826H190.624V22.5713H187.214V27.0449C187.214 27.5605 187.226 27.9648 187.249 28.2578C187.273 28.5449 187.355 28.8145 187.496 29.0664C187.624 29.3008 187.8 29.4736 188.023 29.585C188.251 29.6904 188.597 29.7432 189.06 29.7432C189.329 29.7432 189.611 29.7051 189.904 29.6289C190.197 29.5469 190.408 29.4795 190.537 29.4268H190.624V30.9121ZM201.737 31H200.085V25.4102C200.085 24.959 200.059 24.5371 200.006 24.1445C199.953 23.7461 199.856 23.4355 199.716 23.2129C199.569 22.9668 199.358 22.7852 199.083 22.668C198.808 22.5449 198.45 22.4834 198.011 22.4834C197.56 22.4834 197.088 22.5947 196.596 22.8174C196.104 23.04 195.632 23.3242 195.181 23.6699V31H193.528V17.3242H195.181V22.2725C195.696 21.8447 196.229 21.5107 196.78 21.2705C197.331 21.0303 197.896 20.9102 198.477 20.9102C199.537 20.9102 200.346 21.2295 200.902 21.8682C201.459 22.5068 201.737 23.4268 201.737 24.6279V31Z" fill="#8CBD02"/>
</svg>
