<svg width="105" height="105" viewBox="0 0 105 105" fill="none" xmlns="http://www.w3.org/2000/svg">
<path d="M43.75 59.5H25.305C29.1841 55.1893 28.8343 48.5505 24.5236 44.6714C20.2129 40.7923 13.5741 41.1421 9.695 45.4527C6.10159 49.4458 6.10159 55.5069 9.695 59.5H8.75C3.91759 59.5 0 63.4176 0 68.25V80.5C0 81.4664 0.783562 82.25 1.75 82.25H7V103.25C7 104.216 7.78356 105 8.75 105H26.25C27.2164 105 28 104.216 28 103.25V70H43.75C44.7164 70 45.5 69.2164 45.5 68.25V61.25C45.5 60.2836 44.7164 59.5 43.75 59.5ZM17.5 45.5C21.366 45.5 24.5 48.634 24.5 52.5C24.5 56.366 21.366 59.5 17.5 59.5C13.634 59.5 10.5 56.366 10.5 52.5C10.5 48.634 13.634 45.5 17.5 45.5ZM42 66.5H26.25C25.2836 66.5 24.5 67.2836 24.5 68.25V101.5H19.25V82.25H15.75V101.5H10.5V68.25H7V78.75H3.5V68.25C3.5 65.3505 5.85047 63 8.75 63H42V66.5Z" fill="black"/>
<path d="M96.25 59.5H95.305C99.1841 55.1893 98.8343 48.5505 94.5236 44.6714C90.2129 40.7923 83.5741 41.1421 79.695 45.4527C76.1016 49.4458 76.1016 55.5069 79.695 59.5H78.75C73.9176 59.5 70 63.4176 70 68.25V80.5C70 81.4664 70.7836 82.25 71.75 82.25H77V103.25C77 104.216 77.7836 105 78.75 105H96.25C97.2164 105 98 104.216 98 103.25V82.25H103.25C104.216 82.25 105 81.4664 105 80.5V68.25C105 63.4176 101.082 59.5 96.25 59.5ZM87.5 45.5C91.366 45.5 94.5 48.634 94.5 52.5C94.5 56.366 91.366 59.5 87.5 59.5C83.634 59.5 80.5 56.366 80.5 52.5C80.5 48.634 83.634 45.5 87.5 45.5ZM101.5 78.75H98V68.25H94.5V101.5H89.25V82.25H85.75V101.5H80.5V68.25H77V78.75H73.5V68.25C73.5 65.3505 75.8505 63 78.75 63H96.25C99.1495 63 101.5 65.3505 101.5 68.25V78.75Z" fill="black"/>
<path d="M94.5 0H10.5C9.53356 0 8.75 0.783562 8.75 1.75V33.25C8.75 34.2164 9.53356 35 10.5 35H29.75V43.75C29.7535 44.4566 30.1816 45.0916 30.835 45.36C31.0426 45.458 31.2705 45.5059 31.5 45.5C31.9651 45.5026 32.4122 45.32 32.7425 44.9925L42.7175 35H62.2825L72.2575 44.9925C72.5878 45.32 73.0349 45.5026 73.5 45.5C73.7295 45.5059 73.9574 45.458 74.165 45.36C74.8184 45.0916 75.2465 44.4566 75.25 43.75V35H94.5C95.4664 35 96.25 34.2164 96.25 33.25V1.75C96.25 0.783562 95.4664 0 94.5 0ZM53.8125 21C53.1733 20.2751 52.0673 20.2057 51.3424 20.8451C50.9663 21.1768 50.7507 21.6536 50.75 22.155V31.5H42C41.5349 31.4974 41.0878 31.68 40.7575 32.0075L33.25 39.5325V33.25C33.25 32.2836 32.4664 31.5 31.5 31.5H12.25V3.5H50.75V12.915C50.7513 13.8814 51.536 14.6639 52.5024 14.6626C53.0038 14.6619 53.4809 14.446 53.8125 14.0702C54.8013 12.9244 56.2365 12.2609 57.75 12.2502C60.6495 12.2502 63 14.6007 63 17.5002C63 20.3997 60.6495 22.7502 57.75 22.7502C56.2476 22.757 54.8142 22.1198 53.8125 21ZM92.75 31.5H73.5C72.5336 31.5 71.75 32.2836 71.75 33.25V39.5325L64.2425 32.0075C63.9122 31.68 63.4651 31.4974 63 31.5H54.25V25.4975C55.3512 25.9903 56.5436 26.2467 57.75 26.25C62.5824 26.25 66.5 22.3324 66.5 17.5C66.5 12.6676 62.5824 8.75 57.75 8.75C56.5436 8.75328 55.3512 9.00966 54.25 9.5025V3.5H92.75V31.5Z" fill="black"/>
<path d="M45.5 8.75H17.5V12.25H45.5V8.75Z" fill="black"/>
<path d="M45.5 15.75H17.5V19.25H45.5V15.75Z" fill="black"/>
<path d="M45.5 22.75H17.5V26.25H45.5V22.75Z" fill="black"/>
<path d="M87.5 8.75H71.75V12.25H87.5V8.75Z" fill="black"/>
<path d="M87.5 15.75H71.75V19.25H87.5V15.75Z" fill="black"/>
<path d="M87.5 22.75H71.75V26.25H87.5V22.75Z" fill="black"/>
</svg>
