<svg width="23" height="28" viewBox="0 0 23 28" fill="none" xmlns="http://www.w3.org/2000/svg">
<g clip-path="url(#clip0)">
<path d="M12.7 27.3002H11.9H11.8V27.2002L11.9 24.6002C11.9 24.4002 11.9 24.3002 11.9 24.1002V23.6002C11.9 23.5002 11.9 23.5002 11.9 23.4002V23.3002C11.9 23.3002 11.9 23.3002 11.9 23.2002V23.1002V23.0002C11.9 22.9002 11.9 22.9002 11.9 22.8002V22.2002C11.9 22.1002 11.9 21.9002 11.9 21.8002C11.9 21.8002 11.8 21.8002 11.8 21.7002C11.7 21.7002 11.6 21.6002 11.6 21.6002H11.5C11.3 21.5002 11.1 21.5002 10.8 21.4002C10.6 21.4002 10.4 21.4002 10.2 21.4002C10.1 21.4002 10 21.4002 9.8 21.4002C9.3 21.4002 8.9 21.6002 8.4 21.8002C7.9 22.0002 7.4 22.3002 7 22.6002C6.6 22.9002 6.3 23.1002 6 23.5002C5.9 23.6002 5.9 23.6002 5.8 23.7002L5.6 23.9002C5.6 23.9002 5.6 23.9002 5.5 23.9002C5.4 23.9002 5.3 23.9002 5.3 23.8002C5.3 23.7002 5.3 23.7002 5.3 23.7002C5.3 23.5002 5.4 23.2002 5.4 23.0002C5.4 22.5002 5.2 22.0002 4.9 21.6002C4.8 21.4002 4.6 21.2002 4.4 21.1002C4.4 21.1002 4.4 21.0002 4.3 21.0002C4.3 20.9002 4.3 20.9002 4.3 20.8002C4.3 20.7002 4.4 20.6002 4.4 20.5002C4.4 20.4002 4.4 20.3002 4.4 20.2002C4.4 20.0002 4.4 19.9002 4.3 19.7002C4.3 19.6002 4.2 19.5002 4.1 19.4002C4.1 19.3002 4 19.3002 3.9 19.3002C3.8 19.3002 3.8 19.2002 3.8 19.2002C3.8 19.2002 3.8 19.2002 3.7 19.3002C3.6 19.4002 3.5 19.3002 3.5 19.3002C3.4 19.3002 3.4 19.2002 3.5 19.1002C3.6 19.0002 3.6 18.8002 3.7 18.7002C3.7 18.6002 3.7 18.5002 3.7 18.4002C3.7 18.2002 3.6 18.0002 3.5 17.8002C3.3 17.5002 3.1 17.2002 2.7 17.0002L2.6 16.9002L2.3 16.7002C2.3 16.8002 2.2 16.8002 2.2 16.8002C2.1 16.8002 2.1 16.8002 2 16.7002V16.6002C2 16.5002 2 16.5002 2 16.5002V16.4002C2 16.3002 2 16.1002 2 16.0002C2 15.8002 2.1 15.6002 2.1 15.4002C2.2 15.1002 2.3 14.8002 2.5 14.6002C2.6 14.4002 2.8 14.3002 2.9 14.1002C3 14.0002 3.2 13.9002 3.4 13.8002C3.5 13.8002 3.6 13.7002 3.7 13.7002C3.8 13.7002 3.8 13.7002 3.8 13.7002C3.9 13.8002 3.9 13.8002 3.9 13.9002V14.0002C3.6 14.3002 3.3 14.6002 3.1 14.9002C2.9 15.1002 2.8 15.4002 2.7 15.7002C2.7 15.7002 2.8 15.7002 2.8 15.6002C2.9 15.5002 3.1 15.4002 3.2 15.2002C3.3 15.1002 3.3 15.0002 3.4 15.0002L3.6 14.8002C3.7 14.7002 3.8 14.6002 3.8 14.5002C3.8 14.2002 4 14.1002 4.1 14.0002C4.2 14.0002 4.2 13.9002 4.3 13.9002C4.5 13.8002 4.7 13.7002 4.9 13.6002H5C5.1 13.6002 5.2 13.6002 5.2 13.5002C5.3 13.5002 5.3 13.5002 5.3 13.4002C5.4 13.3002 5.5 13.3002 5.5 13.2002C5.5 13.1002 5.6 13.0002 5.6 12.9002C5.6 12.7002 5.6 12.6002 5.6 12.4002C5.6 12.3002 5.5 12.2002 5.5 12.0002V11.9002C5.5 11.8002 5.6 11.8002 5.7 11.7002H5.8C6 11.9002 6.2 12.0002 6.4 12.1002C6.5 12.1002 6.5 12.1002 6.6 12.2002C6.6 12.2002 6.6 12.1002 6.7 12.1002C6.8 12.0002 6.9 11.9002 7 11.8002C7 11.8002 7.1 11.8002 7.1 11.7002C7.1 11.7002 7.1 11.7002 7.2 11.7002C7.2 11.7002 7.3 11.6002 7.2 11.5002V11.4002C7.2 11.4002 7.2 11.4002 7.2 11.3002L7.1 11.2002C7 11.1002 7.1 11.0002 7.1 10.9002H7.2H7.3C7.4 10.9002 7.5 10.9002 7.6 10.9002C7.7 10.9002 7.8 10.9002 7.9 10.9002C8 10.9002 8.1 10.9002 8.3 10.9002C8.5 10.9002 8.7 11.0002 8.9 11.1002C9 11.2002 9.2 11.3002 9.3 11.5002C9.3 11.5002 9.3 11.5002 9.3 11.6002C9.3 11.6002 9.4 11.6002 9.4 11.5002C9.5 11.4002 9.7 11.4002 9.9 11.4002C10 11.4002 10 11.4002 10.1 11.4002C10.2 11.4002 10.2 11.4002 10.3 11.4002C10.1 11.3002 10 11.1002 9.9 11.0002C9.6 10.7002 9.3 10.4002 9 10.1002C8.6 10.1002 8.6 10.0002 8.5 9.9002C8.5 9.9002 8.4 9.8002 8.3 9.8002C8.2 9.8002 8.2 9.7002 8.1 9.7002C8 9.7002 7.9 9.7002 7.8 9.7002C7.7 9.8002 7.6 9.9002 7.6 10.0002C7.6 10.1002 7.5 10.1002 7.5 10.2002L7.3 10.5002C7.3 10.6002 7.2 10.6002 7.2 10.7002C7.1 10.8002 7.1 10.8002 7 10.9002H6.9H6.8C6.7 10.9002 6.7 10.8002 6.7 10.7002C6.7 10.7002 6.7 10.6002 6.8 10.6002C6.9 10.5002 7 10.4002 7 10.3002C7 10.2002 7.1 10.2002 7.1 10.1002C7.1 10.1002 7.1 10.0002 7.2 10.0002L7.3 9.8002C7.3 9.7002 7.4 9.7002 7.4 9.6002C7.4 9.5002 7.5 9.5002 7.5 9.4002V9.3002C7.5 9.3002 7.5 9.3002 7.5 9.2002L7.6 9.1002C7.6 9.1002 7.6 9.1002 7.7 9.1002C7.7 9.1002 7.7 9.1002 7.8 9.1002C7.8 9.1002 7.9 9.0002 8 9.0002C8.1 9.0002 8.3 8.9002 8.4 8.9002C8.4 8.9002 8.4 8.9002 8.5 8.9002L8.6 8.8002L8.5 8.9002C8.5 8.9002 8.5 8.9002 8.4 8.8002H8.3H8.2C8.1 8.8002 8.1 8.8002 8 8.8002C7.9 8.8002 7.9 8.8002 7.8 8.7002C7.6 8.6002 7.5 8.5002 7.6 8.3002C7.6 8.2002 7.6 8.2002 7.7 8.1002C7.7 8.1002 7.7 8.1002 7.7 8.0002L7.8 7.8002C7.8 7.8002 7.8 7.8002 7.8 7.7002C7.8 7.7002 7.8 7.70019 7.8 7.60019H7.6C7.5 7.60019 7.5 7.5002 7.5 7.5002C7.5 7.5002 7.5 7.4002 7.4 7.4002C7.2 7.4002 7.1 7.4002 7 7.3002C7 7.4002 6.9 7.4002 6.8 7.5002C6.8 7.6002 6.7 7.60019 6.6 7.60019C6.5 7.60019 6.5 7.6002 6.4 7.7002C6.3 7.7002 6.3 7.7002 6.2 7.7002C6 7.8002 5.9 7.9002 5.8 8.0002C5.7 8.1002 5.7 8.2002 5.7 8.3002C5.7 8.4002 5.6 8.5002 5.6 8.6002C5.6 8.6002 5.6 8.6002 5.6 8.7002H5.5H5.6C5.6 8.7002 5.6 8.8002 5.5 8.8002H5.4C5.4 8.8002 5.4 8.8002 5.3 8.8002C5.3 8.8002 5.3 8.8002 5.2 8.8002C5.2 8.8002 5.1 8.7002 5.1 8.6002C5.1 8.5002 5 8.4002 5.1 8.3002C5.1 8.2002 5.1 8.1002 5.2 8.0002C5.2 7.9002 5.2 7.9002 5.3 7.8002C5.4 7.6002 5.5 7.5002 5.7 7.3002C5.7 7.2002 5.9 7.1002 6.1 7.0002C5.8 6.6002 5.4 6.4002 5 6.2002H4.9H4.8C4.8 6.2002 4.8 6.2002 4.7 6.2002H4.6C4.5 6.2002 4.4 6.1002 4.4 6.0002C4.4 6.0002 4.4 5.9002 4.3 5.9002V5.8002L4.4 5.6002C4.4 5.6002 4.5 5.6002 4.5 5.5002C4.5 5.5002 4.5 5.5002 4.6 5.5002C4.6 5.4002 4.6 5.4002 4.7 5.3002C4.7 5.2002 4.7 5.1002 4.7 5.0002C4.7 4.9002 4.7 4.8002 4.7 4.6002C4.7 4.5002 4.7 4.4002 4.8 4.2002C4.8 4.1002 4.9 4.1002 4.9 4.0002C5 3.9002 5.2 3.8002 5.4 3.8002C5.5 3.8002 5.5 3.8002 5.6 3.8002C5.7 3.8002 5.8 3.8002 5.9 3.8002H6.1C6.2 3.8002 6.2 3.8002 6.3 3.8002C6.4 3.8002 6.6 3.8002 6.7 3.8002C6.9 3.8002 7.1 3.8002 7.3 3.8002C7.5 3.8002 7.6 3.8002 7.8 3.8002H8.1C8.2 3.8002 8.3 3.8002 8.4 3.8002C8.6 3.8002 8.7 3.8002 8.9 3.7002C9.5 3.6002 9.9 3.5002 10.4 3.3002C10.6 3.2002 10.8 3.1002 11 3.0002C11.1 3.0002 11.2 2.9002 11.2 2.9002C11.3 2.9002 11.4 2.8002 11.5 2.8002C11.6 2.8002 11.7 2.7002 11.8 2.7002C11.9 2.7002 12 2.7002 12.2 2.7002C12.4 2.7002 12.5 2.8002 12.6 3.0002C12.7 3.1002 12.7 3.2002 12.8 3.4002C12.8 3.5002 12.8 3.6002 12.8 3.7002H12.9C13.1 3.7002 13.4 3.7002 13.6 3.7002C13.7 3.7002 13.7 3.8002 13.8 3.8002C13.9 3.8002 13.9 3.9002 14 3.9002C14 3.9002 14 3.9002 14.1 4.0002C14 4.0002 14 4.0002 14 4.0002L14.1 4.1002C14.2 4.2002 14.4 4.2002 14.5 4.2002C14.6 4.2002 14.7 4.2002 14.7 4.2002H14.8C15 4.2002 15.3 4.2002 15.5 4.3002C15.6 4.3002 15.6 4.4002 15.7 4.4002H16L16.1 4.5002C16.2 4.5002 16.3 4.6002 16.3 4.6002C16.5 4.6002 16.6 4.6002 16.8 4.6002C17 4.6002 17.1 4.7002 17.3 4.7002C17.4 4.7002 17.5 4.8002 17.6 4.9002C17.7 5.0002 17.8 5.0002 17.9 5.1002C18 5.2002 18.1 5.3002 18.2 5.4002V5.5002C18.2 5.6002 18.2 5.6002 18.1 5.6002C18 5.6002 17.9 5.6002 17.9 5.6002C17.9 5.6002 17.9 5.6002 17.8 5.6002C17.6 5.5002 17.5 5.4002 17.2 5.3002C17 5.2002 16.8 5.2002 16.6 5.1002C16.4 5.0002 16.2 5.0002 15.9 4.9002L15.6 4.8002C15.5 4.8002 15.4 4.7002 15.3 4.7002C15.2 4.7002 15.1 4.7002 15 4.7002C14.9 4.7002 14.8 4.7002 14.7 4.7002L14.8 4.8002C15.1 4.9002 15.2 5.0002 15.3 5.0002H15.5C15.7 5.0002 15.8 5.1002 15.9 5.2002L16 5.3002C16.1 5.4002 16.2 5.4002 16.3 5.5002C16.4 5.5002 16.5 5.6002 16.7 5.6002H16.8C16.9 5.6002 17.1 5.7002 17.2 5.7002C17.3 5.7002 17.3 5.8002 17.4 5.8002C17.7 6.0002 18 6.2002 18.2 6.5002C18.4 6.7002 18.5 7.0002 18.5 7.3002V7.4002V7.5002V7.60019C18.5 7.70019 18.4 7.7002 18.4 7.7002C18.3 7.7002 18.3 7.70019 18.3 7.60019L18.2 7.5002C18.2 7.4002 18.1 7.3002 18.1 7.2002C18 6.9002 17.8 6.7002 17.5 6.5002C17.4 6.4002 17.3 6.4002 17.2 6.3002C17.1 6.3002 17 6.2002 16.9 6.2002L16.7 6.1002L17.8 7.4002C17.9 7.5002 17.9 7.5002 17.8 7.60019C17.8 7.70019 17.7 7.7002 17.7 7.7002C17.7 7.7002 17.7 7.7002 17.6 7.7002H17.5C17.5 7.7002 17.4 7.70019 17.4 7.60019C17.1 7.4002 16.8 7.1002 16.6 6.8002C16.4 6.6002 16.3 6.4002 16.1 6.1002C16 6.2002 16 6.1002 15.9 6.0002C15.9 5.9002 15.8 5.9002 15.8 5.8002L15.7 5.7002C15.6 5.6002 15.5 5.6002 15.4 5.6002H15.2H15.1C15 5.6002 14.9 5.5002 14.8 5.5002C14.8 5.5002 14.8 5.6002 14.7 5.6002H14.6C14.4 5.6002 14.2 5.6002 14 5.6002C14.1 5.7002 14.2 5.7002 14.2 5.8002V5.9002C14.2 6.0002 14.2 6.0002 14.2 6.0002C14.2 6.0002 14.1 6.1002 14 6.1002C14 6.1002 14 6.0002 13.9 6.0002C13.8 5.9002 13.7 5.8002 13.6 5.8002C13.5 5.7002 13.4 5.7002 13.3 5.7002C13.2 5.7002 13.1 5.7002 12.9 5.8002C12.8 5.8002 12.8 5.9002 12.8 5.9002C12.8 6.0002 12.8 6.1002 12.8 6.2002C12.8 6.30019 12.8 6.5002 12.8 6.7002C12.8 6.8002 12.8 6.9002 12.8 7.10019V7.2002V7.3002L12.9 7.4002C13 7.5002 13 7.6002 13.1 7.7002C13.2 7.8002 13.2 7.8002 13.3 7.9002L13.6 8.1002C13.7 8.1002 13.8 8.2002 13.8 8.3002C13.8 7.9002 13.9 8.0002 14 8.1002L14.1 8.2002C14.2 8.2002 14.2 8.2002 14.2 8.2002H14.4C14.5 8.2002 14.5 8.2002 14.6 8.3002C14.7 8.3002 14.8 8.4002 14.9 8.5002V8.6002C14.9 8.7002 14.9 8.7002 14.9 8.8002C14.9 8.9002 14.7 8.9002 14.6 8.8002C14.6 8.8002 14.5 8.7002 14.4 8.7002C14.4 8.8002 14.4 8.9002 14.4 9.0002C14.4 9.1002 14.4 9.1002 14.4 9.2002V9.3002C14.4 9.4002 14.3 9.4002 14.2 9.4002C14.2 9.4002 14.2 9.4002 14.1 9.4002C14 9.4002 14 9.3002 14 9.2002V9.1002C14 8.9002 14 8.7002 13.8 8.5002C13.7 8.4002 13.6 8.3002 13.5 8.2002C13.4 8.1002 13.3 8.1002 13.3 8.1002C13.3 8.1002 13.2 8.1002 13.2 8.0002H13.1C13 8.0002 12.9 7.9002 12.8 7.9002C12.7 7.8002 12.6 7.8002 12.5 7.7002L12.4 8.2002V8.3002C12.4 8.3002 12.5 8.4002 12.5 8.5002C12.5 8.5002 12.5 8.5002 12.6 8.6002L12.7 8.7002L12.8 8.8002C12.8 8.8002 12.9 8.8002 12.9 8.9002C13.2 9.10019 13.4 9.4002 13.4 9.8002C13.4 9.9002 13.4 10.1002 13.4 10.3002C13.9 9.9002 14.5 9.5002 15.1 9.1002C15.2 9.0002 15.2 8.9002 15.3 8.9002C15.4 8.8002 15.5 8.8002 15.6 8.7002C15.7 8.7002 15.8 8.7002 15.9 8.7002C16 8.7002 16.1 8.8002 16.2 8.9002C16.2 8.9002 16.3 9.0002 16.3 9.1002C16.3 9.1002 16.3 9.2002 16.4 9.3002L16.5 9.5002C16.5 9.6002 16.6 9.7002 16.6 9.9002C16.6 10.0002 16.6 10.0002 16.6 10.1002C16.7 10.0002 16.8 9.8002 16.9 9.6002C16.9 9.5002 17 9.4002 17 9.3002C17 9.2002 17.1 9.1002 17.1 9.0002C17.1 8.9002 17.2 8.8002 17.2 8.7002C17.3 8.5002 17.5 8.3002 17.8 8.2002C18.1 8.1002 18.4 8.1002 18.6 8.3002V8.2002C18.6 8.1002 18.5 7.9002 18.5 7.8002C18.5 7.7002 18.5 7.60019 18.5 7.60019C18.5 7.5002 18.5 7.5002 18.4 7.4002L18.3 7.3002L18.2 7.2002C18.1 7.1002 18.1 7.1002 18.1 7.0002C18 6.9002 18 6.8002 18 6.8002C18 6.7002 18 6.6002 18.1 6.5002L18.2 6.4002H18.3C18.4 6.4002 18.5 6.5002 18.5 6.5002V6.6002C18.5 6.6002 18.5 6.6002 18.6 6.7002C18.6 6.7002 18.7 6.7002 18.7 6.8002H18.8C18.9 6.8002 18.9 6.9002 18.9 6.9002C19.1 7.0002 19.1 7.1002 19.1 7.3002C19.1 7.4002 19.1 7.4002 19.1 7.4002C19.1 7.5002 19.1 7.7002 19.1 7.8002C19.1 7.9002 19.1 8.0002 19.2 8.2002C19.2 8.4002 19.3 8.60019 19.4 8.9002C19.4 8.9002 19.4 8.9002 19.4 9.0002H19.3H19.4C19.4 9.0002 19.4 9.0002 19.4 9.1002V9.2002C19.3 9.3002 19.3 9.3002 19.2 9.3002C19.2 9.3002 19.1 9.3002 19.1 9.2002C19 9.2002 19 9.2002 18.9 9.2002L18.8 9.1002L18.7 9.0002C18.6 9.0002 18.6 8.9002 18.5 8.9002C18.4 8.9002 18.3 8.9002 18.2 8.9002C18.1 8.9002 18 8.9002 17.9 9.0002L17.8 9.1002C17.8 9.2002 17.7 9.3002 17.7 9.3002C17.7 9.4002 17.7 9.4002 17.7 9.5002V9.6002C17.7 9.7002 17.7 9.8002 17.6 9.9002C17.5 10.1002 17.5 10.3002 17.3 10.4002C17.2 10.5002 17.2 10.5002 17.1 10.6002L17 10.7002C17.2 10.6002 17.3 10.6002 17.5 10.5002C17.7 10.5002 17.8 10.5002 18 10.4002H18.5C18.6 10.4002 18.7 10.4002 18.9 10.4002C19 10.4002 19.1 10.4002 19.3 10.4002C19.4 10.4002 19.5 10.3002 19.6 10.3002H19.7H19.8L19.9 10.4002V10.5002C19.9 10.5002 19.9 10.5002 19.9 10.6002L19.8 10.8002C19.8 10.9002 19.7 10.9002 19.7 11.0002C19.7 11.1002 19.6 11.2002 19.7 11.3002C19.7 11.4002 19.8 11.5002 19.8 11.5002L19.9 11.6002C19.9 11.6002 20 11.6002 20 11.7002L20.2 11.8002C20.3 11.9002 20.5 12.0002 20.6 12.1002C20.7 12.2002 20.8 12.3002 20.8 12.4002C20.9 12.5002 20.9 12.6002 21 12.7002C21 12.8002 21.1 12.8002 21.1 12.9002L21.2 13.0002C21.3 13.1002 21.3 13.2002 21.4 13.3002L21.5 13.4002C21.6 13.5002 21.6 13.5002 21.7 13.6002C21.7 13.6002 21.8 13.7002 21.9 13.7002C21.9 13.7002 22 13.8002 22 13.9002C22 14.0002 22 14.0002 22 14.1002L21.9 14.2002C21.9 14.2002 21.9 14.2002 21.8 14.2002H21.7L21.4 14.3002H21.3C21 14.4002 20.8 14.6002 20.7 14.8002C20.6 14.9002 20.5 15.1002 20.5 15.2002C20.5 15.3002 20.5 15.5002 20.5 15.6002C20.5 15.6002 20.5 15.7002 20.5 15.8002L20.4 15.9002C20.4 15.9002 20.3 15.9002 20.2 15.9002H20.1C20 15.9002 19.9 16.0002 19.8 16.1002C19.7 16.2002 19.7 16.3002 19.7 16.4002C19.7 16.5002 19.7 16.6002 19.7 16.7002C19.7 16.7002 19.7 16.7002 19.7 16.8002C19.7 16.9002 19.7 17.0002 19.6 17.0002C19.4 17.1002 19.2 17.3002 19 17.5002C18.8 17.7002 18.7 18.0002 18.7 18.2002C18.7 18.3002 18.7 18.4002 18.7 18.5002C18.7 18.5002 18.7 18.5002 18.7 18.6002C18.7 18.7002 18.6 18.8002 18.6 18.8002C18.6 18.8002 18.6 18.8002 18.5 18.8002H18.4C18.4 18.8002 18.4 18.8002 18.3 18.7002L18.1 18.0002C17.9 17.7002 17.6 17.4002 17.4 17.1002C17.1 16.8002 16.8 16.5002 16.4 16.3002C16.2 16.2002 15.9 16.0002 15.7 16.0002C15.5 15.9002 15.3 15.9002 15.1 15.9002C14.9 15.9002 14.7 15.9002 14.6 15.9002C14.4 15.9002 14.1 16.0002 13.9 16.1002C13.9 16.1002 13.8 16.1002 13.8 16.2002H13.9C14 16.2002 14 16.3002 14 16.4002V16.5002C13.9 16.6002 13.9 16.6002 13.8 16.7002C13.7 16.8002 13.7 16.9002 13.7 17.0002C13.7 17.1002 13.7 17.2002 13.7 17.4002C13.7 17.5002 13.7 17.7002 13.7 17.8002C13.7 17.9002 13.7 18.0002 13.8 18.1002V18.2002V18.3002C13.8 18.3002 13.8 18.4002 13.7 18.4002C13.6 18.6002 13.5 18.7002 13.4 18.9002C13.2 19.3002 13 19.6002 12.9 20.1002C12.9 20.3002 12.8 20.5002 12.8 20.7002C12.8 20.8002 12.8 20.9002 12.8 21.1002C12.8 21.3002 12.8 21.5002 12.8 21.7002C12.8 21.7002 12.8 21.8002 12.8 21.9002C12.8 21.9002 12.8 22.0002 12.8 22.1002L12.9 23.1002V23.2002C12.9 23.3002 12.9 23.4002 12.9 23.5002L13.1 27.3002C12.8 27.2002 12.8 27.3002 12.7 27.3002C12.8 27.3002 12.7 27.3002 12.7 27.3002ZM12 27.1002H12.5L12.3 23.2002V23.1002L12.2 22.1002V22.0002C12.2 22.0002 12.2 21.9002 12.2 21.8002V21.7002H12.1C12.1 21.7002 12 21.7002 11.9 21.6002C11.9 21.8002 11.9 21.9002 11.9 22.1002H11.8H11.9V22.7002C11.9 22.8002 11.9 22.8002 11.9 22.9002V23.0002V23.1002V23.2002V23.3002C11.9 23.4002 11.9 23.5002 11.9 23.6002V24.1002C11.9 24.3002 11.9 24.4002 11.9 24.6002L12 27.1002ZM5.5 23.3002H5.6C5.5 23.2002 5.5 23.3002 5.5 23.3002ZM9.5 21.1002C9.3 21.1002 9.2 21.1002 9 21.1002C8.8 21.1002 8.6 21.2002 8.4 21.2002C8 21.3002 7.6 21.5002 7.2 21.7002C6.8 21.9002 6.5 22.2002 6.1 22.5002C6 22.6002 5.9 22.7002 5.8 22.8002C5.7 22.9002 5.6 23.0002 5.6 23.1002C5.9 22.8002 6.3 22.5002 6.7 22.2002C7.2 21.9002 7.7 21.6002 8.2 21.4002C8.6 21.3002 9.1 21.2002 9.5 21.1002ZM4 18.8002C4.1 18.8002 4.1 18.9002 4.2 18.9002C4.3 19.0002 4.4 19.0002 4.4 19.1002C4.6 19.3002 4.7 19.6002 4.7 19.8002C4.7 19.9002 4.7 20.0002 4.7 20.2002C4.7 20.3002 4.7 20.4002 4.7 20.5002C4.7 20.6002 4.7 20.7002 4.8 20.8002C4.8 20.9002 4.9 21.0002 4.9 21.0002L5.1 21.3002C5.2 21.4002 5.3 21.6002 5.3 21.7002C5.4 21.9002 5.4 22.0002 5.4 22.2002C5.4 22.3002 5.4 22.4002 5.4 22.6002C5.5 22.5002 5.6 22.4002 5.7 22.3002C6.1 22.0002 6.5 21.7002 6.8 21.5002C7.2 21.3002 7.7 21.1002 8.1 21.0002C8.6 21.0002 8.8 21.0002 9 20.9002C9.3 20.9002 9.6 20.8002 9.9 20.8002C10 20.8002 10.1 20.8002 10.3 20.8002C10.5 20.8002 10.8 20.9002 11 20.9002C11.2 21.0002 11.4 21.0002 11.7 21.1002H11.8C11.9 21.1002 12 21.2002 12.1 21.2002C12.1 21.0002 12.1 20.9002 12.1 20.7002C12.1 20.1002 12.2 19.5002 12.5 19.0002C12.6 18.7002 12.8 18.5002 13 18.2002C13.1 18.1002 13.2 18.0002 13.3 17.9002C13.3 17.9002 13.3 17.8002 13.2 17.8002C13.1 17.6002 13 17.4002 13 17.3002C13 17.2002 13 17.1002 13 17.0002C13 16.8002 13 16.6002 13.1 16.4002C13 16.4002 13 16.4002 12.9 16.4002C12.8 16.4002 12.7 16.3002 12.7 16.3002C12.6 16.3002 12.6 16.2002 12.5 16.2002C12.4 16.1002 12.3 16.1002 12.2 16.0002H11.9C11.8 15.9002 11.8 15.9002 11.7 15.9002C11.5 15.8002 11.3 15.7002 11.1 15.6002C11 15.6002 11 15.6002 10.9 15.6002C10.8 15.6002 10.6 15.6002 10.5 15.6002C10.5 15.6002 10.5 15.6002 10.6 15.6002C10.9 15.6002 11.1 15.7002 11.4 15.9002C11.5 16.0002 11.7 16.1002 11.9 16.2002C12.1 16.3002 12.3 16.5002 12.5 16.7002C12.5 16.8002 12.6 16.8002 12.5 16.9002C12.5 17.0002 12.4 17.0002 12.4 17.0002C12.4 17.0002 12.4 17.0002 12.3 17.0002C12.2 17.0002 12.1 17.0002 12 16.9002C11.9 16.9002 11.8 16.8002 11.7 16.8002C11.6 16.8002 11.5 16.7002 11.5 16.7002L11.4 16.6002L11.3 16.5002C11.2 16.5002 11.2 16.4002 11.1 16.4002C10.9 16.3002 10.8 16.2002 10.6 16.2002C10.5 16.2002 10.5 16.2002 10.4 16.2002C10.3 16.2002 10.3 16.2002 10.2 16.2002C10.2 16.3002 10.3 16.3002 10.3 16.4002L10.4 16.6002C10.5 16.7002 10.6 16.8002 10.6 16.9002C10.7 16.9002 10.7 17.0002 10.8 17.0002L11.1 17.1002C11.2 17.1002 11.3 17.2002 11.4 17.2002C11.5 17.3002 11.6 17.3002 11.7 17.4002C11.9 17.5002 12 17.6002 12.1 17.8002C12.2 18.0002 12.3 18.1002 12.3 18.3002V18.4002C12.3 18.5002 12.2 18.5002 12.1 18.5002C12.1 18.5002 12.1 18.5002 12 18.5002C11.9 18.5002 11.9 18.4002 11.9 18.4002C11.8 18.3002 11.7 18.1002 11.6 18.0002C11.5 17.9002 11.4 17.9002 11.4 17.8002L11.1 17.6002C11.1 17.6002 11 17.6002 11 17.5002C11 17.6002 11 17.6002 11 17.7002C11 17.9002 11.1 18.0002 11.1 18.2002L11 18.3002H11.1C11.1 18.5002 11.2 18.7002 11.2 18.8002C11.3 19.3002 11.5 19.8002 11.8 20.2002L11.9 20.3002L12 20.4002V20.5002C12 20.5002 12 20.5002 12 20.6002C11.9 20.6002 11.8 20.7002 11.8 20.6002C11.6 20.4002 11.4 20.2002 11.3 20.0002C11.2 19.8002 11 19.5002 11 19.3002C11 19.2002 10.9 19.1002 10.9 19.0002C10.9 19.1002 10.9 19.1002 10.9 19.2002C10.9 19.3002 10.8 19.5002 10.8 19.6002C10.8 19.7002 10.8 19.9002 10.8 20.0002C10.8 20.1002 10.8 20.3002 10.9 20.4002V20.5002C10.9 20.6002 10.9 20.6002 10.8 20.6002C10.8 20.6002 10.7 20.6002 10.6 20.6002C10.6 20.6002 10.6 20.6002 10.5 20.6002C10.5 20.5002 10.4 20.5002 10.4 20.4002C10 20.3002 9.9 20.2002 9.9 20.0002C9.9 19.8002 9.9 19.7002 9.9 19.5002C9.9 19.4002 9.9 19.2002 9.9 19.1002C9.9 18.9002 10 18.7002 10.1 18.5002C10.1 18.3002 10.2 18.2002 10.2 18.0002C10.2 17.8002 10.3 17.7002 10.3 17.5002C10.3 17.5002 10.3 17.5002 10.3 17.4002C10.2 17.2002 10.2 17.1002 10.1 17.0002C10.1 16.9002 10 16.9002 10 16.8002C9.9 16.7002 9.9 16.6002 9.8 16.5002C9.8 16.4002 9.7 16.4002 9.7 16.3002C9.7 16.3002 9.7 16.3002 9.7 16.2002C9.6 16.3002 9.6 16.4002 9.4 16.5002C9.3 16.6002 9.2 16.7002 9.1 16.8002L8.9 17.0002L8.8 17.1002C8.8 17.2002 8.7 17.3002 8.7 17.4002C8.7 17.6002 8.7 17.7002 8.7 17.8002C8.7 17.9002 8.7 18.0002 8.7 18.1002V18.2002C8.7 18.4002 8.7 18.5002 8.8 18.7002C8.8 18.9002 8.8 19.2002 8.8 19.4002C8.8 19.6002 8.7 19.9002 8.6 20.1002V20.2002C8.6 20.3002 8.5 20.3002 8.5 20.3002C8.4 20.3002 8.4 20.3002 8.3 20.3002C8.3 20.3002 8.2 20.2002 8.3 20.1002V19.9002C8.3 19.8002 8.3 19.7002 8.3 19.6002C8.3 19.4002 8.3 19.3002 8.3 19.2002C8.3 19.1002 8.3 18.9002 8.2 18.7002C8.2 18.6002 8.2 18.4002 8.1 18.3002C8.1 18.2002 8.1 18.0002 8.1 17.8002C7.9 18.1002 7.7 18.3002 7.6 18.6002V18.7002C7.6 18.7002 7.6 18.7002 7.6 18.8002C7.6 19.0002 7.6 19.1002 7.6 19.3002C7.6 19.4002 7.6 19.6002 7.6 19.7002C7.6 19.9002 7.6 20.1002 7.6 20.3002C7.6 20.5002 7.5 20.7002 7.5 20.8002C7.5 20.9002 7.4 21.0002 7.3 21.1002C7.3 21.1002 7.3 21.1002 7.2 21.2002C7.2 21.2002 7.2 21.2002 7.1 21.2002C7 21.2002 7 21.2002 6.9 21.1002C6.9 21.0002 6.9 21.0002 6.9 20.9002C7 21.0002 7 20.9002 7 20.7002C7 20.6002 7 20.5002 7 20.3002V19.8002V19.9002C6.8 20.3002 6.6 20.8002 6.4 21.3002C6.3 21.5002 6.3 21.6002 6.2 21.8002L6 22.2002C6 22.2002 6 22.2002 6 22.3002C6 22.4002 5.9 22.4002 5.8 22.4002C5.7 22.4002 5.7 22.3002 5.7 22.3002V22.2002L6 21.2002C6.1 20.7002 6.3 20.2002 6.6 19.8002C6.8 19.4002 7 19.0002 7.3 18.6002C7.4 18.5002 7.4 18.4002 7.5 18.3002H7.4C7.1 18.3002 6.9 18.4002 6.6 18.5002C6.3 18.6002 6.1 18.8002 5.9 19.0002C5.7 19.2002 5.5 19.4002 5.3 19.7002C5.3 19.7002 5.3 19.8002 5.2 19.8002C5.2 19.8002 5.2 19.8002 5.1 19.9002C5 20.0002 4.9 20.0002 4.9 19.9002C4.9 19.9002 4.9 19.8002 4.9 19.7002C5 19.3002 5.3 19.0002 5.6 18.7002C5.8 18.2002 6 18.0002 6.3 17.9002C6.5 17.8002 6.7 17.7002 6.9 17.6002C7 17.5002 7.2 17.5002 7.3 17.4002L7.5 17.3002C7.7 17.2002 7.9 17.1002 8.1 17.1002C8.1 17.1002 8.1 17.1002 8.2 17.0002L8.3 16.9002C8.3 16.8002 8.4 16.8002 8.4 16.8002L9 16.1002L9.1 16.0002C9 15.9002 8.8 15.9002 8.7 15.9002C8.6 15.9002 8.4 15.9002 8.3 15.9002C8.1 15.9002 7.9 15.9002 7.7 16.0002H7.5C7.5 16.0002 7.5 16.0002 7.4 16.0002C7.3 16.1002 7.2 16.2002 7 16.3002C6.9 16.4002 6.8 16.5002 6.6 16.7002L6.5 16.8002C6.4 16.9002 6.4 16.9002 6.3 17.0002C6.2 17.0002 6.1 17.1002 6 17.2002C5.9 17.3002 5.7 17.4002 5.6 17.5002C5.5 17.6002 5.4 17.7002 5.3 17.7002H5.2L5.1 17.6002V17.5002C5.1 17.5002 5.1 17.5002 5.2 17.5002C5.3 17.4002 5.4 17.3002 5.5 17.2002C5.6 17.1002 5.7 16.9002 5.8 16.8002L6.1 16.4002C6.1 16.3002 6.2 16.3002 6.2 16.2002C6 16.2002 5.9 16.2002 5.7 16.3002C5.5 16.3002 5.3 16.3002 5.1 16.3002C5 16.3002 4.8 16.3002 4.6 16.3002H4.4C4.3 16.3002 4.1 16.3002 4 16.3002C3.8 16.3002 3.7 16.3002 3.5 16.3002H3.4C3.3 16.3002 3.3 16.3002 3.2 16.3002H3.1C3.2 16.4002 3.3 16.4002 3.3 16.5002C3.7 16.8002 3.9 17.1002 4.1 17.5002C4.2 17.7002 4.2 17.9002 4.2 18.1002C4.2 18.3002 4.2 18.5002 4.1 18.7002C4.1 18.7002 4.1 18.8002 4 18.8002ZM12.8 19.0002C12.7 19.1002 12.7 19.2002 12.6 19.4002C12.4 19.9002 12.2 20.4002 12.2 21.0002C12.2 21.1002 12.2 21.1002 12.2 21.2002V21.1002C12.2 21.0002 12.2 20.8002 12.2 20.7002C12.2 20.5002 12.3 20.3002 12.3 20.1002C12.5 19.6002 12.7 19.3002 12.8 19.0002ZM4.5 20.8002C4.6 20.9002 4.7 21.0002 4.8 21.1002C4.8 21.1002 4.8 21.0002 4.7 21.0002C4.6 20.9002 4.6 20.7002 4.6 20.6002C4.6 20.5002 4.6 20.4002 4.6 20.3002C4.6 20.2002 4.6 20.2002 4.6 20.2002C4.6 20.3002 4.6 20.4002 4.6 20.5002C4.6 20.5002 4.5 20.7002 4.5 20.8002ZM7.7 17.8002C7.7 17.8002 7.8 17.8002 7.8 17.9002V18.0002C7.7 18.2002 7.6 18.3002 7.4 18.5002C7.1 18.9002 6.9 19.3002 6.7 19.7002C6.5 20.1002 6.3 20.5002 6.2 21.0002C6.4 20.6002 6.6 20.2002 6.8 19.8002C6.9 19.6002 7 19.4002 7.1 19.3002L7.2 19.2002C7.2 19.2002 7.2 19.2002 7.3 19.2002C7.3 19.1002 7.3 19.0002 7.3 18.9002C7.3 18.9002 7.3 18.8002 7.4 18.7002C7.4 18.7002 7.4 18.7002 7.4 18.6002C7.6 18.2002 7.9 17.9002 8.2 17.5002C8.2 17.5002 8.3 17.4002 8.3 17.5002L8.4 17.6002C8.4 17.7002 8.4 17.7002 8.4 17.8002C8.4 18.0002 8.4 18.2002 8.4 18.4002C8.4 18.5002 8.4 18.6002 8.5 18.8002C8.5 19.0002 8.5 19.1002 8.6 19.3002C8.6 19.4002 8.6 19.5002 8.6 19.6002V19.5002C8.6 19.3002 8.6 19.1002 8.6 18.9002C8.6 18.8002 8.6 18.6002 8.6 18.4002V18.3002C8.6 18.2002 8.6 18.1002 8.6 18.0002C8.6 17.9002 8.6 17.7002 8.6 17.5002C8.6 17.4002 8.6 17.3002 8.7 17.1002C8.7 17.1002 8.7 17.0002 8.8 17.0002L8.9 16.9002L9.1 16.7002C9.2 16.6002 9.3 16.5002 9.4 16.4002C9.5 16.3002 9.5 16.2002 9.7 16.1002L9.8 16.0002H9.9C9.9 16.0002 10 16.0002 10 16.1002C10 16.2002 10 16.2002 10.1 16.3002L10.2 16.4002C10.3 16.5002 10.3 16.6002 10.4 16.7002C10.5 16.8002 10.5 16.8002 10.5 16.9002C10.6 17.0002 10.6 17.2002 10.7 17.3002V17.4002C10.7 17.6002 10.7 17.8002 10.6 18.0002C10.6 18.2002 10.5 18.3002 10.5 18.5002C10.4 18.7002 10.4 18.9002 10.3 19.1002C10.3 19.2002 10.3 19.3002 10.3 19.5002C10.3 19.6002 10.3 19.8002 10.3 19.9002V20.0002C10.3 19.9002 10.3 19.7002 10.3 19.6002C10.3 19.4002 10.4 19.3002 10.4 19.1002C10.4 19.0002 10.5 18.8002 10.5 18.7002C10.5 18.6002 10.5 18.5002 10.6 18.4002C10.6 18.3002 10.7 18.3002 10.7 18.3002C10.8 18.3002 10.8 18.3002 10.8 18.4002C10.8 18.5002 10.8 18.6002 10.9 18.7002C10.9 18.9002 11 19.1002 11 19.3002C11.1 19.5002 11.1 19.6002 11.2 19.8002C11.1 19.5002 11 19.3002 10.9 19.0002C10.9 18.8002 10.8 18.6002 10.8 18.5002V18.4002C10.8 18.3002 10.8 18.1002 10.7 17.9002C10.7 17.7002 10.6 17.6002 10.6 17.4002V17.3002H10.7C10.8 17.3002 10.8 17.4002 10.9 17.4002C10.9 17.4002 11 17.4002 11 17.5002L11.3 17.7002C11.4 17.7002 11.5 17.8002 11.6 17.9002C11.7 17.9002 11.7 18.0002 11.8 18.1002C11.7 18.0002 11.6 17.9002 11.5 17.8002C11.4 17.7002 11.3 17.7002 11.2 17.6002C11.1 17.6002 11 17.5002 11 17.5002L10.7 17.4002C10.6 17.4002 10.5 17.3002 10.4 17.3002C10.4 17.3002 10.3 17.3002 10.3 17.2002C10.2 17.1002 10.2 17.0002 10.1 16.9002L10 16.5002C9.9 16.4002 9.9 16.3002 9.9 16.3002C9.9 16.3002 9.9 16.2002 9.8 16.2002V16.1002C9.8 16.1002 9.8 16.0002 9.9 16.0002C9.9 16.0002 9.9 16.0002 10 16.0002C10 16.0002 10 16.0002 9.9 15.9002V15.8002C9.9 15.8002 9.9 15.8002 10 15.8002L10.3 15.7002C10.4 15.7002 10.4 15.6002 10.5 15.6002C10.7 15.5002 10.8 15.5002 11 15.5002C11.1 15.5002 11.2 15.5002 11.2 15.5002C11.5 15.5002 11.7 15.6002 11.9 15.8002C12 15.9002 12 15.9002 12.1 16.0002L12.3 16.2002C12.4 16.3002 12.4 16.3002 12.5 16.4002C12.6 16.4002 12.6 16.5002 12.7 16.5002C12.8 16.5002 12.8 16.6002 12.9 16.6002C12.9 16.6002 12.9 16.6002 13 16.6002H13.1H13.2H13.3V16.7002C13.2 16.9002 13.2 17.1002 13.2 17.4002C13.2 17.5002 13.2 17.6002 13.2 17.7002C13.2 17.8002 13.3 18.0002 13.3 18.1002V18.0002C13.3 17.8002 13.3 17.7002 13.3 17.5002C13.3 17.3002 13.3 17.2002 13.3 17.1002C13.3 17.0002 13.4 16.8002 13.4 16.7002C13.4 16.6002 13.5 16.6002 13.5 16.5002C13.4 16.5002 13.4 16.5002 13.3 16.5002C13.2 16.5002 13.1 16.5002 13 16.4002C12.9 16.4002 12.7 16.3002 12.6 16.2002C12.4 16.1002 12.3 16.0002 12.2 15.9002V15.8002V15.6002V15.5002C12.3 15.4002 12.4 15.3002 12.4 15.1002C12.5 15.0002 12.5 14.9002 12.6 14.8002C12.6 14.7002 12.7 14.7002 12.7 14.6002L12.8 14.5002L13.1 14.2002C13.2 14.1002 13.2 14.0002 13.3 14.0002H13.4C13.4 14.0002 13.5 14.0002 13.5 14.1002C13.6 14.3002 13.6 14.6002 13.6 14.8002C13.6 15.0002 13.6 15.2002 13.6 15.4002C13.6 15.5002 13.6 15.5002 13.6 15.6002C13.7 15.4002 13.7 15.2002 13.7 15.1002C13.7 14.9002 13.7 14.7002 13.6 14.5002C13.5 14.2002 13.4 14.0002 13.3 13.8002C13.1 14.0002 12.9 14.1002 12.8 14.3002C12.7 14.4002 12.6 14.5002 12.5 14.7002L12.4 14.8002L12.3 14.7002C12.3 14.6002 12.3 14.5002 12.3 14.4002V14.0002C12.3 13.9002 12.3 13.9002 12.3 13.8002V13.7002C12.3 13.6002 12.3 13.6002 12.3 13.5002V13.3002C12.3 13.2002 12.3 13.1002 12.3 13.0002C12.3 12.9002 12.3 12.7002 12.4 12.6002C12.4 12.4002 12.5 12.2002 12.6 12.0002C12.7 11.8002 12.8 11.6002 12.9 11.4002C12.9 11.3002 13 11.3002 13 11.3002L15.9 9.1002C15.9 9.1002 16 9.1002 16.1 9.1002C16.1 9.1002 16.2 9.2002 16.2 9.3002C16.3 9.5002 16.3 9.6002 16.4 9.7002C16.5 9.9002 16.5 10.1002 16.4 10.3002V10.4002C16.4 10.5002 16.4 10.6002 16.4 10.7002C16.4 10.8002 16.4 10.9002 16.4 11.0002V11.1002C16.5 11.0002 16.5 10.9002 16.6 10.8002C16.7 10.7002 16.7 10.7002 16.7 10.7002C16.8 10.7002 16.8 10.6002 16.9 10.6002L17 10.5002L17.1 10.4002C17.2 10.3002 17.2 10.3002 17.3 10.2002C17.4 10.1002 17.5 9.9002 17.5 9.8002C17.5 9.7002 17.5 9.6002 17.6 9.5002V9.4002C17.6 9.3002 17.6 9.3002 17.6 9.2002C17.6 9.1002 17.7 9.0002 17.7 8.9002C17.7 8.8002 17.8 8.8002 17.8 8.7002C17.9 8.1002 18.1 8.0002 18.2 8.0002H18.3C18.4 8.0002 18.5 8.0002 18.6 8.1002C18.7 8.1002 18.8 8.2002 18.8 8.2002C18.8 8.2002 18.9 8.2002 18.9 8.3002C18.8 8.2002 18.7 8.1002 18.6 8.0002C18.5 8.0002 18.4 7.9002 18.3 7.9002H18.2H18.1C18 7.9002 18 7.9002 18 7.9002H17.9C17.7 8.0002 17.5 8.1002 17.4 8.3002C17.4 8.4002 17.3 8.5002 17.3 8.6002C17.3 8.7002 17.2 8.8002 17.2 8.9002C17.2 9.0002 17.1 9.2002 17.1 9.3002C17 9.6002 16.8 9.8002 16.5 10.0002C16.5 10.0002 16.5 10.0002 16.4 10.0002C16.4 10.1002 16.3 10.1002 16.3 10.1002C16.2 10.1002 16.2 10.0002 16.2 10.0002C16.2 9.9002 16.3 9.9002 16.3 9.9002C16.3 9.8002 16.3 9.7002 16.3 9.7002V9.6002C16.3 9.5002 16.2 9.4002 16.2 9.2002L16.1 9.0002C16.1 8.9002 16.1 8.9002 16 8.9002C16 8.9002 16 8.8002 15.9 8.8002C15.9 8.8002 15.8 8.8002 15.8 8.7002H15.7C15.6 8.7002 15.6 8.7002 15.5 8.6002C15.4 8.6002 15.3 8.7002 15.3 8.7002C15.2 8.8002 15.2 8.8002 15.1 8.9002L15 9.0002C14.2 9.5002 13.3 10.2002 12.6 10.8002C12.5 10.9002 12.5 10.9002 12.4 11.0002C12.3 11.0002 12.3 11.1002 12.2 11.1002C12.1 11.1002 12.1 11.2002 12 11.2002C11.9 11.2002 11.7 11.2002 11.6 11.2002C11.5 11.2002 11.5 11.2002 11.5 11.1002L11.4 11.0002C11.3 11.0002 11.3 10.9002 11.2 10.9002C10.9 10.6002 10.5 10.3002 10.2 9.9002C10.1 9.8002 10 9.6002 9.9 9.5002L10 9.6002C10 9.6002 10 9.7002 10.1 9.7002C10.1 9.7002 10.1 9.7002 10.1 9.8002C10.4 10.2002 10.6 10.4002 10.8 10.6002L10.9 10.7002C10.9 10.7002 10.9 10.7002 10.9 10.8002V10.9002C11 11.1002 11.1 11.3002 11.2 11.5002C11.2 11.6002 11.2 11.6002 11.2 11.6002H11.1C11 11.5002 11 11.5002 10.9 11.4002C10.8 11.3002 10.7 11.3002 10.6 11.2002L10.3 11.0002C10.1 10.9002 9.9 10.7002 9.7 10.5002C9.6 10.4002 9.6 10.3002 9.5 10.3002C9.4 10.2002 9.4 10.2002 9.3 10.1002L9.1 9.9002C9.1 10.0002 8.9 9.9002 8.8 9.8002C8.7 9.7002 8.6 9.6002 8.5 9.5002C8.4 9.5002 8.3 9.4002 8.2 9.4002C8.1 9.4002 8.1 9.3002 8.1 9.3002C8.1 9.3002 8.1 9.2002 8.2 9.2002C8.2 9.2002 8.2 9.2002 8.1 9.2002C8 9.2002 7.9 9.3002 7.9 9.3002L7.8 9.4002V9.5002L7.9 9.4002C7.9 9.4002 7.9 9.4002 8 9.4002C8 9.4002 8 9.4002 8.1 9.4002C8.2 9.4002 8.3 9.4002 8.4 9.5002C8.5 9.5002 8.5 9.6002 8.6 9.6002C8.7 9.7002 8.7 9.7002 8.8 9.8002C8.7 9.8002 8.8 9.9002 8.9 10.0002C9.2 10.3002 9.5 10.6002 9.8 10.9002C10.1 11.1002 10.4 11.4002 10.7 11.6002C10.7 11.6002 10.8 11.7002 10.7 11.7002H10.8C11 11.9002 11.3 12.0002 11.5 12.2002L11.6 12.3002V12.4002C11.7 12.6002 11.7 12.9002 11.8 13.1002C11.8 13.2002 11.8 13.3002 11.8 13.4002H11.7H11.8C11.8 13.4002 11.8 13.5002 11.7 13.5002H11.6C11.5 13.4002 11.5 13.4002 11.4 13.4002C11.2 13.3002 11.1 13.1002 11 12.9002C10.9 12.8002 10.9 12.7002 10.8 12.6002V12.5002V12.4002C10.8 12.4002 10.7 12.3002 10.7 12.2002H10.6C10.4 12.1002 10.2 12.0002 9.9 11.9002H9.8C9.9 11.9002 9.9 11.9002 9.9 11.9002H10C10.1 11.9002 10.2 11.9002 10.2 11.9002H10.3C10.3 11.9002 10.3 11.9002 10.4 11.9002L10.5 12.0002C10.6 12.1002 10.7 12.2002 10.8 12.3002C10.8 12.3002 10.8 12.4002 10.9 12.4002V12.5002C10.9 12.5002 10.9 12.5002 10.9 12.6002H11C11.1 12.8002 11.2 12.9002 11.4 13.1002C11.5 13.2002 11.6 13.3002 11.6 13.4002V13.5002L11.5 13.6002C11.5 13.6002 11.5 13.6002 11.4 13.6002C11.4 13.7002 11.3 13.6002 11.2 13.7002V13.6002C11.1 13.6002 11.1 13.6002 11 13.6002L10.9 13.5002V13.6002H10.8C10.8 13.6002 10.8 13.7002 10.7 13.7002C10.7 13.7002 10.6 13.7002 10.6 13.8002C10.6 13.9002 10.5 13.9002 10.5 13.9002V14.0002C10.4 14.1002 10.3 14.2002 10.2 14.3002C10.1 14.4002 10 14.5002 9.9 14.7002C9.9 14.7002 9.8 14.8002 9.8 14.7002L9.7 14.6002C9.7 14.4002 9.7 14.3002 9.6 14.1002V14.0002C9.6 14.0002 9.5 14.0002 9.5 13.9002V13.8002V13.7002C9.4 13.5002 9.3 13.3002 9.1 13.1002C9.1 13.1002 9.1 13.0002 9 13.0002L8.9 12.8002C8.9 12.7002 8.8 12.6002 8.8 12.5002L8.7 12.6002H8.6C8.4 12.5002 8.3 12.5002 8.1 12.4002C8.1 12.4002 8 12.4002 8 12.3002V12.2002L8.1 12.1002C8.1 12.1002 8 12.1002 8 12.2002H7.9C7.9 12.2002 7.9 12.2002 7.8 12.2002C7.7 12.2002 7.7 12.2002 7.6 12.1002H7.5H7.4H7.3H7.2H7.1C7.1 12.2002 7 12.2002 7 12.1002H6.9C6.9 12.1002 6.8 12.1002 6.8 12.0002V11.9002C6.8 11.8002 6.9 11.8002 7 11.7002L7.1 12.0002L7.2 11.9002C7.3 11.8002 7.3 11.8002 7.3 11.7002C7.3 11.6002 7.3 11.5002 7.3 11.5002C7.3 11.7002 7.3 11.8002 7.2 11.9002C7.2 11.9002 7.2 11.9002 7.1 12.0002C7.1 12.0002 7.1 12.0002 7 12.1002C7 12.0002 6.9 12.1002 6.9 12.2002C6.9 12.2002 6.8 12.3002 6.8 12.4002L6.7 12.5002C6.6 12.5002 6.5 12.4002 6.4 12.4002C6.2 12.3002 6 12.2002 5.9 12.1002C5.9 12.2002 6 12.3002 6 12.4002C6.1 12.6002 6.1 12.8002 6.1 13.0002C6.1 13.1002 6.1 13.2002 6 13.3002C5.9 13.4002 5.8 13.5002 5.7 13.6002C5.6 13.6002 5.6 13.7002 5.5 13.7002C5.4 13.7002 5.3 13.8002 5.3 13.8002L5.1 13.9002C4.9 14.0002 4.8 14.0002 4.6 14.1002C4.5 14.1002 4.5 14.2002 4.4 14.2002C4.3 14.3002 4.2 14.4002 4.1 14.5002C4 14.6002 3.9 14.7002 3.9 14.8002L3.5 15.0002C3.4 15.1002 3.4 15.2002 3.3 15.2002C3.2 15.4002 3 15.5002 2.8 15.6002C2.7 15.7002 2.7 15.7002 2.6 15.7002C2.5 15.7002 2.5 15.8002 2.4 15.8002H2.3C2.3 15.8002 2.3 15.8002 2.3 15.7002C2.3 15.8002 2.3 15.9002 2.3 15.9002H2.4L2.5 16.0002L2.4 15.9002C2.4 15.8002 2.4 15.8002 2.5 15.8002C2.6 15.8002 2.6 15.8002 2.7 15.7002C2.8 15.7002 2.9 15.6002 3 15.5002C3.1 15.4002 3.3 15.3002 3.4 15.2002C3.5 15.1002 3.6 15.0002 3.7 14.9002C3.9 15.0002 4 14.9002 4.1 14.8002C4.3 14.6002 4.6 14.5002 4.8 14.4002L5.2 14.2002C5.4 14.1002 5.5 14.0002 5.6 14.0002C5.7 13.9002 5.8 13.8002 5.9 13.8002C6.1 13.6002 6.2 13.5002 6.2 13.3002C6.2 13.2002 6.2 13.1002 6.2 13.0002V12.9002V12.8002H6.3C6.4 12.9002 6.6 13.0002 6.8 13.0002C6.9 13.0002 7.1 13.1002 7.3 13.1002H7.5L7.8 13.2002C8 13.2002 8.1 13.3002 8.2 13.3002C8.5 13.4002 8.8 13.6002 9 13.8002C9.1 13.9002 9.2 14.0002 9.2 14.1002C9.4 14.4002 9.6 14.8002 9.6 15.2002V15.3002C9.6 15.4002 9.6 15.4002 9.5 15.5002L9.4 15.6002C9.4 15.6002 9.4 15.6002 9.4 15.7002C9.4 15.8002 9.4 15.9002 9.4 15.9002L9.3 16.0002H9.2L9.3 16.1002V16.2002C9.3 16.3002 9.2 16.3002 9.2 16.4002L8.6 17.1002C8.6 17.1002 8.6 17.1002 8.5 17.2002H8.4L8.6 17.0002C8.6 17.1002 8.5 17.1002 8.5 17.2002C8.5 17.2002 8.5 17.2002 8.4 17.3002L8.3 17.4002C8.1 17.5002 7.9 17.6002 7.7 17.7002L7.5 17.8002C7.4 17.9002 7.2 17.9002 7.1 18.0002C6.9 18.1002 6.7 18.2002 6.6 18.3002C6.4 18.4002 6.2 18.5002 6.1 18.7002C6.3 18.6002 6.5 18.5002 6.7 18.4002C6.7 18.0002 7 17.9002 7.3 17.9002C7.4 17.9002 7.6 17.8002 7.7 17.8002ZM7.3 19.9002V20.4002V20.5002C7.3 20.2002 7.3 20.0002 7.3 19.9002ZM2.5 16.2002L2.7 16.3002L2.8 16.4002C3.2 16.6002 3.5 16.9002 3.6 17.3002C3.7 17.5002 3.8 17.8002 3.8 18.0002C3.8 18.1002 3.8 18.3002 3.8 18.4002V18.5002C3.9 18.4002 4 18.2002 4 18.0002C4 17.8002 4 17.7002 3.9 17.5002C3.8 17.2002 3.5 16.9002 3.2 16.6002C3 16.5002 2.9 16.4002 2.7 16.3002C2.6 16.3002 2.6 16.2002 2.5 16.2002ZM15.7 15.7002H15.8C16.1 15.8002 16.3 15.9002 16.6 16.1002C17 16.3002 17.3 16.6002 17.6 16.9002C17.9 17.2002 18.1 17.4002 18.3 17.8002C18.3 17.7002 18.3 17.7002 18.3 17.6002C18.2 17.6002 18.2 17.6002 18.2 17.5002C18.2 17.5002 18.2 17.4002 18.1 17.4002C18 17.3002 18 17.2002 17.9 17.1002C17.8 17.0002 17.7 16.9002 17.7 16.8002C17.4 16.5002 17.2 16.3002 16.8 16.1002C16.4 16.0002 16.1 15.8002 15.7 15.7002ZM18.1 17.0002C18.1 17.0002 18.2 17.1002 18.2 17.2002C18.2 17.1002 18.3 16.9002 18.4 16.8002C18.5 16.7002 18.5 16.6002 18.6 16.5002L18.7 16.4002L18.8 16.3002L18.9 16.2002C19 16.1002 19 16.0002 19.1 15.9002L19.2 15.7002V15.6002C19.3 15.4002 19.4 15.2002 19.6 15.1002C19.7 15.0002 19.8 15.0002 19.9 15.0002V14.9002C19.8 14.6002 19.9 14.2002 20.2 13.9002C20.4 13.7002 20.6 13.6002 20.8 13.4002C20.7 13.4002 20.6 13.4002 20.5 13.4002C20.3 13.4002 20 13.3002 19.8 13.3002C19.5 13.2002 19.2 13.2002 18.9 13.1002C18.9 13.1002 18.9 13.2002 19 13.2002L19.2 13.5002C19.3 13.6002 19.4 13.8002 19.5 13.9002L19.6 14.0002C19.6 14.1002 19.6 14.1002 19.6 14.2002L19.5 14.3002C19.4 14.3002 19.4 14.3002 19.4 14.2002C19.4 14.2002 19.4 14.2002 19.3 14.1002C19.2 14.0002 19.1 14.0002 19 13.8002C18.9 13.7002 18.8 13.6002 18.8 13.5002C18.8 13.4002 18.7 13.4002 18.7 13.3002L18.6 13.2002C18.5 13.1002 18.4 13.0002 18.3 12.9002C18.2 12.8002 18.1 12.7002 18.1 12.7002C17.9 12.6002 17.7 12.5002 17.5 12.5002C17.4 12.5002 17.2 12.4002 17.1 12.4002C17 12.4002 17 12.4002 16.9 12.4002V12.5002C17 12.7002 17.1 12.8002 17.2 13.0002C17.3 13.1002 17.3 13.1002 17.3 13.2002V13.3002C17.3 13.3002 17.4 13.3002 17.4 13.4002C17.5 13.5002 17.6 13.6002 17.8 13.6002C17.9 13.6002 17.9 13.7002 18 13.7002L18.2 13.8002C18.3 13.9002 18.5 14.0002 18.6 14.0002C18.8 14.1002 18.9 14.3002 19.1 14.4002C19.3 14.6002 19.4 14.8002 19.5 15.0002V15.1002V15.2002C19.5 15.3002 19.5 15.3002 19.4 15.3002H19.3H19.2C19.2 15.3002 19.1 15.3002 19.1 15.2002V15.1002C19 14.9002 18.9 14.6002 18.7 14.5002C18.5 14.3002 18.4 14.2002 18.2 14.1002C18.1 14.1002 18 14.0002 17.9 14.0002C18 14.2002 18.1 14.4002 18.2 14.6002C18.3 14.9002 18.4 15.2002 18.4 15.4002C18.4 15.5002 18.4 15.7002 18.5 15.8002C18.5 16.0002 18.5 16.1002 18.6 16.4002V16.7002V16.8002C18.6 16.9002 18.5 16.9002 18.5 16.9002C18.2 17.0002 18.2 17.0002 18.1 17.0002ZM6.6 15.9002C6.6 15.9002 6.7 15.9002 6.7 16.0002V16.1002C6.6 16.1002 6.6 16.2002 6.5 16.3002C6.4 16.4002 6.3 16.5002 6.3 16.5002L6 16.9002C6 16.9002 6 16.9002 5.9 17.0002C6 16.9002 6 16.8002 6.1 16.8002C6.2 16.7002 6.2 16.7002 6.3 16.6002L6.4 16.5002C6.5 16.4002 6.7 16.2002 6.8 16.1002C7 16.0002 7.1 15.9002 7.2 15.8002H7.3C7.2 15.8002 7.2 15.8002 7.1 15.8002C7.1 15.9002 7 15.9002 7 15.9002H6.9L6.5 16.0002H6.4H6.3C6.2 15.9002 6.1 15.9002 6 15.8002L5.9 15.7002H5.8C5.7 15.6002 5.6 15.6002 5.6 15.5002C5.4 15.4002 5.2 15.3002 5 15.3002C5.1 15.3002 5.1 15.3002 5.2 15.4002C5.5 15.5002 5.8 15.7002 6 15.9002C6 15.9002 6.1 16.0002 6 16.0002L5.9 16.1002H5.7C5.6 16.1002 5.5 16.1002 5.4 16.1002L4.6 16.0002C4.7 16.0002 4.9 16.0002 5 16.0002C5.2 16.0002 5.4 16.0002 5.6 16.0002C5.8 16.0002 6 16.0002 6.2 16.0002C6.3 15.9002 6.5 15.9002 6.6 15.9002ZM17.4 16.3002C17.5 16.4002 17.7 16.5002 17.8 16.7002C17.8 16.8002 17.9 16.8002 17.9 16.9002L17.8 16.4002C17.7 16.0002 17.6 15.7002 17.6 15.4002V15.6002C17.6 15.7002 17.6 15.8002 17.6 15.9002C17.6 16.0002 17.6 16.1002 17.6 16.1002V16.2002C17.6 16.2002 17.6 16.3002 17.5 16.3002C17.5 16.3002 17.5 16.3002 17.4 16.3002ZM11.5 16.3002L11.6 16.4002L11.7 16.5002C11.8 16.6002 11.8 16.6002 11.9 16.6002C12 16.6002 12 16.7002 12.1 16.7002C12.1 16.7002 12.1 16.7002 12.2 16.7002C12.1 16.6002 11.9 16.5002 11.7 16.4002C11.5 16.3002 11.4 16.2002 11.3 16.2002C11 16.1002 10.8 16.0002 10.5 16.0002H10.4C10.5 16.0002 10.5 16.0002 10.6 16.0002C10.8 16.0002 11 16.1002 11.2 16.2002C11.3 16.2002 11.4 16.2002 11.5 16.3002L11.4 16.4002L11.5 16.3002ZM19.4 15.6002L19.3 15.9002C19.3 16.0002 19.2 16.2002 19.1 16.3002C19.2 16.2002 19.3 16.2002 19.4 16.1002C19.4 16.0002 19.4 15.9002 19.4 15.7002V15.6002ZM14.8 15.4002C15.6 15.4002 16.3 15.6002 16.9 16.0002C17 16.1002 17.1 16.1002 17.2 16.2002C17.1 16.1002 17.1 16.0002 17.1 15.8002C17.1 15.6002 17.1 15.5002 17.1 15.3002C17.1 15.2002 17.2 15.0002 17.2 14.9002C17.2 14.8002 17.3 14.7002 17.3 14.5002V14.4002C17.2 14.2002 17.1 14.0002 17.1 13.8002C17.1 13.9002 17 14.0002 17 14.1002V14.2002C17 14.3002 16.9 14.4002 16.9 14.5002C16.9 14.7002 16.8 14.8002 16.8 15.0002C16.8 15.1002 16.7 15.2002 16.7 15.2002C16.7 15.2002 16.7 15.2002 16.6 15.2002C16.5 15.2002 16.4 15.1002 16.4 15.0002C16.4 14.9002 16.4 14.9002 16.4 14.8002C16.4 14.6002 16.4 14.5002 16.4 14.3002C16.4 14.1002 16.5 14.0002 16.5 13.8002L16.6 13.5002C16.6 13.4002 16.7 13.3002 16.7 13.2002C16.7 13.1002 16.7 13.0002 16.7 12.9002C16.6 12.7002 16.5 12.6002 16.4 12.5002C16.4 12.4002 16.3 12.4002 16.3 12.3002C16.2 12.4002 16.2 12.5002 16.1 12.5002L16 12.4002L16.1 12.5002L16 12.6002C15.9 12.7002 15.9 12.8002 15.8 12.9002C15.8 13.0002 15.8 13.1002 15.8 13.3002C15.8 13.4002 15.8 13.5002 15.8 13.7002V13.8002C15.8 14.0002 15.8 14.1002 15.8 14.2002C15.8 14.4002 15.7 14.5002 15.7 14.7002C15.6 14.8002 15.6 14.9002 15.5 15.0002C15.5 15.0002 15.5 15.0002 15.4 15.1002H15.3C15.3 15.1002 15.2 15.1002 15.2 15.0002C15.2 15.0002 15.2 14.9002 15.2 14.8002V14.7002C15.2 14.6002 15.3 14.5002 15.3 14.5002C15.3 14.4002 15.3 14.3002 15.3 14.2002C15.3 14.1002 15.3 14.0002 15.3 14.0002C15.3 14.0002 15.3 14.0002 15.3 14.1002C15.2 14.3002 15.1 14.5002 14.9 14.6002C14.8 14.7002 14.7 14.8002 14.6 14.8002L14.5 14.9002C14.5 14.9002 14.5 14.9002 14.4 14.9002H14.3C14.2 14.9002 14.2 14.8002 14.2 14.7002C14.2 14.6002 14.3 14.6002 14.3 14.6002C14.6 14.4002 14.8 14.1002 14.9 13.7002C15 13.6002 15 13.4002 15.1 13.3002C15.1 13.2002 15.2 13.1002 15.2 12.9002C15.2 12.9002 15.2 12.9002 15.1 12.9002C15 12.9002 14.9 12.9002 14.8 13.0002C14.7 13.0002 14.7 13.0002 14.6 13.1002C14.5 13.1002 14.4 13.2002 14.4 13.3002L14.3 13.4002C14.2 13.4002 14.1 13.4002 14.1 13.3002C14.1 13.2002 14.2 13.1002 14.3 13.0002C14.4 12.9002 14.5 12.8002 14.6 12.8002C14.7 12.8002 14.8 12.7002 14.9 12.7002C15 12.7002 15 12.7002 15.1 12.7002H15.2C15.3 12.7002 15.3 12.7002 15.4 12.6002C15.4 12.5002 15.5 12.5002 15.6 12.4002L15.7 12.3002H15.6H15.5C15.3 12.3002 15.2 12.3002 15.1 12.4002C15 12.4002 15 12.4002 14.9 12.5002L14.7 12.6002C14.6 12.6002 14.5 12.7002 14.4 12.7002C14.3 12.7002 14.2 12.7002 14.1 12.7002C14 12.7002 14 12.7002 14 12.6002C13.9 12.5002 13.9 12.5002 14 12.4002C14 12.4002 14 12.4002 14 12.3002C13.9 12.3002 13.9 12.3002 13.8 12.3002C13.8 12.4002 13.8 12.4002 13.8 12.5002C13.8 12.7002 13.7 12.8002 13.7 13.0002C13.7 13.1002 13.6 13.2002 13.5 13.3002C13.6 13.4002 13.6 13.4002 13.7 13.5002C13.8 13.7002 14 14.0002 14 14.3002C14.1 14.5002 14.1 14.8002 14.1 15.0002C14.1 15.2002 14.1 15.4002 14 15.6002C14.1 15.6002 14.1 15.6002 14.2 15.6002C14.4 15.4002 14.6 15.4002 14.8 15.4002ZM12.5 15.6002C12.6 15.7002 12.7 15.8002 12.8 15.9002C12.9 16.0002 13 16.0002 13.2 16.1002C13.3 16.1002 13.3 16.1002 13.4 16.2002C13.4 16.2002 13.4 16.1002 13.4 16.0002V15.9002C13.4 15.8002 13.5 15.7002 13.5 15.7002C13.5 15.6002 13.6 15.4002 13.6 15.3002C13.6 15.1002 13.6 14.9002 13.6 14.7002C13.6 14.6002 13.6 14.4002 13.5 14.3002C13.5 14.3002 13.5 14.3002 13.4 14.4002L13.1 14.7002L13 14.8002C13 14.9002 12.9 14.9002 12.9 15.0002C12.8 15.1002 12.8 15.2002 12.7 15.3002C12.7 15.2002 12.6 15.4002 12.5 15.6002ZM6.4 13.0002C6.4 13.1002 6.4 13.2002 6.4 13.3002C6.4 13.5002 6.2 13.8002 6 14.0002C5.9 14.1002 5.8 14.2002 5.7 14.3002C5.6 14.4002 5.5 14.4002 5.4 14.5002L5 14.7002C4.8 14.8002 4.6 14.9002 4.3 15.1002C4.1 15.0002 4 15.2002 3.9 15.3002C3.8 15.4002 3.7 15.5002 3.6 15.6002C3.5 15.7002 3.4 15.8002 3.3 15.8002H3.7C3.9 15.8002 4 15.8002 4.2 15.8002C4.3 15.8002 4.4 15.8002 4.6 15.8002L5.6 15.7002C5.7 15.7002 5.7 15.7002 5.8 15.7002C5.6 15.6002 5.5 15.5002 5.3 15.4002C5.1 15.3002 5 15.3002 4.8 15.2002C4.7 15.2002 4.7 15.1002 4.7 15.0002C4.7 14.9002 4.8 14.8002 4.9 14.8002C5 14.8002 5.1 14.8002 5.2 14.8002C5.5 14.8002 5.8 14.9002 6.1 15.1002C6.2 15.1002 6.3 15.2002 6.4 15.3002H6.5L6.6 15.4002C6.7 15.5002 6.8 15.5002 6.9 15.6002L7.4 15.5002H7.5C7.7 15.5002 8 15.4002 8.2 15.4002C8.3 15.4002 8.5 15.3002 8.7 15.3002C8.9 15.3002 9.1 15.3002 9.2 15.3002C9.4 15.3002 9.6 15.4002 9.7 15.5002C9.6 15.5002 9.6 15.4002 9.5 15.4002L9.4 15.3002C9.3 15.2002 9.3 15.2002 9.2 15.2002C9.1 15.2002 9.1 15.1002 9 15.1002H8.8C8.5 15.0002 8.2 14.8002 8 14.6002C7.3 14.3002 7.1 14.0002 7 13.7002C7 13.6002 7 13.6002 7 13.5002C7 13.5002 7 13.5002 7 13.4002C7 13.4002 7 13.4002 7.1 13.3002C7.1 13.3002 7.2 13.3002 7.3 13.3002C7.3 13.3002 7.3 13.3002 7.3 13.4002C7.6 13.8002 8 14.1002 8.5 14.4002C8.6 14.4002 8.7 14.5002 8.8 14.5002C8.9 14.5002 8.9 14.6002 9 14.6002C9.1 14.6002 9.2 14.7002 9.3 14.7002C9.4 14.7002 9.4 14.8002 9.5 14.8002C9.4 14.5002 9.3 14.2002 9.1 13.9002C9 14.0002 9 13.9002 8.9 13.8002C8.7 13.6002 8.5 13.5002 8.2 13.4002C8.1 13.4002 7.9 13.3002 7.8 13.3002L7.3 13.2002C7.1 13.2002 6.9 13.1002 6.8 13.1002C6.6 13.0002 6.5 13.0002 6.4 13.0002ZM8.6 15.6002H8.7C8.9 15.6002 9 15.7002 9.2 15.7002C9.1 15.6002 9 15.6002 8.8 15.5002C8.7 15.6002 8.7 15.6002 8.6 15.6002ZM3.4 13.8002C3.3 13.9002 3.2 14.0002 3 14.1002C2.9 14.2002 2.7 14.4002 2.6 14.5002C2.5 14.7002 2.3 15.0002 2.3 15.2002C2.3 15.3002 2.2 15.5002 2.2 15.7002C2.3 15.3002 2.5 15.0002 2.7 14.6002C3 14.3002 3.2 14.1002 3.4 13.8002ZM17.6 14.7002C17.7 14.7002 17.7 14.7002 17.7 14.8002C17.8 15.1002 17.9 15.3002 18 15.7002C18 15.6002 18 15.6002 18 15.5002C17.9 15.2002 17.9 15.0002 17.8 14.7002C17.7 14.4002 17.6 14.1002 17.4 13.8002V13.7002C17.4 13.7002 17.5 13.6002 17.5 13.7002C17.7 13.8002 17.9 13.8002 18.1 13.9002C18.1 13.9002 18.2 13.9002 18.2 14.0002C18.1 13.9002 18 13.9002 18 13.8002L17.8 13.7002C17.7 13.7002 17.7 13.6002 17.6 13.6002C17.5 13.5002 17.4 13.4002 17.2 13.4002C17.2 13.4002 17.1 13.4002 17.1 13.3002C17.1 13.2002 17 13.2002 17 13.2002C17 13.3002 17 13.3002 17 13.4002C17 13.5002 17 13.6002 17 13.7002C17 13.8002 16.9 14.0002 16.9 14.1002L16.8 14.4002C16.8 14.5002 16.7 14.7002 16.7 14.8002C16.7 14.7002 16.8 14.6002 16.8 14.5002V14.4002C16.8 14.3002 16.9 14.2002 16.9 14.1002C16.9 14.0002 17 13.9002 17 13.8002C17 13.7002 17 13.7002 17.1 13.7002C17.2 13.7002 17.2 13.7002 17.2 13.8002C17.3 14.1002 17.5 14.4002 17.6 14.7002V14.8002C17.6 14.6002 17.6 14.7002 17.6 14.7002ZM8.2 15.6002C8.1 15.6002 8 15.6002 7.9 15.7002C8 15.6002 8.1 15.6002 8.2 15.6002ZM7.5 14.0002C7.6 14.1002 7.7 14.2002 7.8 14.3002C8 14.5002 8.3 14.7002 8.6 14.8002H8.8C8.9 14.8002 9 14.9002 9.1 14.9002C9 15.0002 9.1 15.0002 9.2 15.1002L9.3 15.2002L9.4 15.3002C9.4 15.2002 9.4 15.2002 9.3 15.1002L9.2 15.0002C9.1 15.0002 9 15.0002 8.9 14.9002C8.8 14.9002 8.8 14.8002 8.7 14.8002C8.6 14.8002 8.5 14.7002 8.4 14.7002C8.1 14.6002 7.7 14.3002 7.5 14.0002ZM15.3 13.7002C15.4 13.7002 15.4 13.8002 15.4 13.8002C15.4 13.8002 15.4 13.8002 15.4 13.9002C15.4 14.0002 15.4 14.1002 15.4 14.2002C15.4 14.3002 15.4 14.4002 15.4 14.5002C15.4 14.6002 15.4 14.6002 15.4 14.7002C15.4 14.6002 15.4 14.5002 15.5 14.4002C15.5 14.3002 15.5 14.1002 15.5 14.0002V13.9002C15.5 13.8002 15.5 13.6002 15.5 13.5002C15.5 13.3002 15.5 13.2002 15.5 13.1002V13.0002C15.6 12.9002 15.6 12.8002 15.7 12.7002L15.8 12.6002C15.9 12.5002 16 12.4002 16.1 12.3002L16.2 12.2002C16.3 12.2002 16.3 12.3002 16.4 12.3002C16.4 12.4002 16.5 12.4002 16.5 12.5002L16.6 12.6002C16.6 12.5002 16.5 12.4002 16.5 12.4002L16.4 12.2002C16.4 12.1002 16.4 12.1002 16.4 12.1002C16.3 12.1002 16.3 12.0002 16.3 11.9002H16.2V11.8002C16.2 11.7002 16.2 11.6002 16.3 11.5002C16.2 11.5002 16.2 11.5002 16.2 11.4002C16.2 11.3002 16.1 11.3002 16 11.2002C16 11.2002 15.9 11.2002 15.8 11.2002H15.7C15.7 11.2002 15.7 11.2002 15.6 11.3002L15.5 11.4002C15.5 11.4002 15.5 11.4002 15.4 11.4002C15.4 11.4002 15.4 11.4002 15.3 11.4002L15.2 11.5002C15.2 11.5002 15.2 11.5002 15.1 11.5002H15C14.9 11.5002 14.9 11.5002 14.8 11.6002C14.7 11.6002 14.6 11.7002 14.5 11.7002H14.4C14.4 11.7002 14.3 11.7002 14.3 11.8002C14.2 11.8002 14.1 11.9002 14.1 11.9002C14 12.0002 13.8 12.0002 13.7 12.0002C13.6 12.0002 13.5 12.0002 13.4 12.0002C13.4 12.1002 13.5 12.2002 13.5 12.3002C13.5 12.5002 13.5 12.6002 13.4 12.8002V12.9002C13.5 12.8002 13.5 12.6002 13.5 12.5002C13.5 12.4002 13.5 12.3002 13.5 12.2002V12.1002C13.5 12.1002 13.5 12.1002 13.6 12.1002C13.6 12.1002 13.7 12.0002 13.7 12.1002H13.8H13.9C14 12.1002 14 12.1002 14.1 12.0002C14.1 12.0002 14.2 12.0002 14.2 11.9002L14.4 11.8002C14.4 11.8002 14.5 11.8002 14.5 11.7002C14.6 11.7002 14.7 11.6002 14.8 11.6002C15 11.6002 15.1 11.5002 15.3 11.6002C15.5 11.6002 15.6 11.7002 15.7 11.7002C15.8 11.7002 15.8 11.8002 15.9 11.8002H16L16.1 11.9002V12.0002V12.1002C16.1 12.2002 16 12.2002 16 12.2002C16 12.2002 16 12.3002 15.9 12.3002L15.8 12.4002C15.7 12.5002 15.7 12.5002 15.6 12.6002C15.6 12.6002 15.5 12.6002 15.5 12.7002C15.4 12.7002 15.4 12.7002 15.3 12.8002H15.4V12.9002C15.4 12.9002 15.4 13.0002 15.3 13.0002C15.2 13.1002 15.2 13.2002 15.2 13.4002C15.3 13.6002 15.3 13.6002 15.3 13.7002ZM20.7 13.6002C20.6 13.7002 20.4 13.8002 20.3 13.9002C20.2 14.1002 20.1 14.3002 20.1 14.5002C20.1 14.3002 20.2 14.1002 20.3 14.0002C20.4 13.8002 20.5 13.7002 20.7 13.6002ZM9.9 14.3002V14.4002L10 14.3002C10 14.3002 10 14.2002 10.1 14.2002C10 14.3002 9.9 14.3002 9.9 14.3002ZM15.9 9.0002L13.1 11.2002C13.1 11.2002 13 11.2002 13 11.3002C12.9 11.5002 12.8 11.7002 12.7 11.9002C12.6 12.1002 12.6 12.3002 12.5 12.5002C12.5 12.6002 12.5 12.8002 12.4 12.9002C12.4 13.0002 12.4 13.1002 12.4 13.2002V13.4002C12.4 13.5002 12.4 13.5002 12.4 13.6002V13.7002C12.4 13.8002 12.4 13.8002 12.4 13.9002V14.3002L12.5 14.2002C12.7 14.0002 12.8 13.9002 13 13.7002V13.6002V13.5002V13.4002V13.3002C13 13.2002 13.1 13.1002 13.1 13.0002C13.1 12.8002 13.2 12.7002 13.2 12.6002C13.2 12.5002 13.2 12.4002 13.1 12.4002C13.1 12.4002 13.1 12.3002 13 12.3002V12.2002C13 12.1002 13 12.1002 13.1 12.1002H13.2C13.2 12.1002 13.2 12.1002 13.3 12.1002C13.4 12.1002 13.5 12.1002 13.6 12.1002C13.7 12.1002 13.8 12.1002 13.9 12.0002C14 12.0002 14.1 11.9002 14.1 11.9002C14.1 11.9002 14.2 11.9002 14.2 11.8002H14.3C14.4 11.7002 14.5 11.7002 14.6 11.7002C14.7 11.7002 14.8 11.6002 15 11.6002C15.1 11.6002 15.2 11.6002 15.4 11.6002C15.5 11.5002 15.8 11.4002 16 11.5002C16.1 11.5002 16.1 11.5002 16.2 11.6002C16.2 11.5002 16.3 11.5002 16.3 11.4002C16.2 11.4002 16.1 11.4002 16.1 11.4002C16.1 11.4002 16.1 11.4002 16 11.3002C15.9 11.2002 15.9 11.1002 15.9 11.0002C15.9 10.9002 15.9 10.8002 15.9 10.7002C15.9 10.6002 15.9 10.5002 15.9 10.4002V10.3002C15.9 10.1002 15.9 10.0002 15.9 9.8002C16 9.2002 15.9 9.1002 15.9 9.0002ZM10.4 13.9002V13.8002V13.9002ZM10.4 13.9002V13.8002V13.9002ZM9.1 12.6002L9 12.7002V12.8002C9 12.9002 9 12.9002 9.1 13.0002L9.2 13.2002C9.4 13.4002 9.5 13.6002 9.6 13.8002C9.6 13.8002 9.6 13.8002 9.6 13.9002H9.7C9.6 13.8002 9.6 13.8002 9.5 13.7002C9.5 13.6002 9.4 13.5002 9.4 13.4002C9.4 13.3002 9.4 13.2002 9.4 13.1002C9.4 13.0002 9.4 13.0002 9.4 12.9002V12.8002C9.3 12.7002 9.3 12.7002 9.3 12.7002C9.3 12.7002 9.3 12.7002 9.2 12.7002H9.1V12.6002ZM10.1 13.5002C10.1 13.5002 10.1 13.6002 10.2 13.6002V13.7002C10.3 13.7002 10.4 13.7002 10.5 13.7002H10.4C10.4 13.7002 10.4 13.7002 10.3 13.7002C10.2 13.6002 10.1 13.6002 10.1 13.5002ZM10.6 13.7002C10.6 13.7002 10.5 13.7002 10.6 13.7002C10.5 13.7002 10.5 13.8002 10.5 13.8002C10.5 13.8002 10.5 13.8002 10.6 13.7002ZM11 13.3002C11 13.4002 11 13.4002 11 13.5002V13.6002C11.1 13.6002 11.1 13.6002 11.2 13.6002C11.1 13.4002 11 13.3002 11 13.3002ZM10.5 13.4002C10.5 13.2002 10.5 12.9002 10.6 12.7002V12.8002H10.5H10.4C10.4 12.8002 10.3 12.7002 10.2 12.7002L10.3 12.9002C10.3 12.9002 10.3 13.0002 10.4 13.0002C10.2 13.1002 10.3 13.3002 10.5 13.4002ZM11.1 12.5002C11.2 12.6002 11.2 12.7002 11.3 12.8002C11.4 12.9002 11.5 13.1002 11.6 13.2002C11.6 13.0002 11.5 12.7002 11.4 12.5002C11.2 12.4002 11.1 12.3002 10.9 12.2002C10.9 12.3002 10.9 12.3002 11 12.3002L11.1 12.4002C11 12.4002 11 12.4002 11.1 12.5002C11.1 12.4002 11.1 12.5002 11.1 12.5002ZM21.4 13.1002C21.5 13.1002 21.5 13.1002 21.4 13.1002C21.5 13.2002 21.5 13.1002 21.4 13.1002C21.5 13.1002 21.4 13.1002 21.4 13.1002C21.3 13.0002 21.2 12.9002 21.1 12.8002L21 12.7002C20.9 12.6002 20.9 12.5002 20.8 12.4002L20.7 12.3002C20.7 12.2002 20.6 12.2002 20.6 12.1002C20.5 12.0002 20.5 11.9002 20.4 11.8002C20.3 11.7002 20.3 11.6002 20.2 11.6002C20.1 11.5002 20 11.4002 19.9 11.4002L19.7 11.3002C19.7 11.3002 19.6 11.3002 19.6 11.2002C19.5 11.2002 19.5 11.1002 19.4 11.1002C19.3 11.0002 19.2 10.9002 19.2 10.7002C19.2 10.6002 19.2 10.4002 19.3 10.3002C19.3 10.2002 19.4 10.1002 19.4 10.1002C19.3 10.1002 19.3 10.2002 19.2 10.2002C19.1 10.2002 18.9 10.3002 18.8 10.3002C18.7 10.3002 18.6 10.3002 18.5 10.3002L18.4 10.4002H18.2H18.1C18.1 10.4002 18.1 10.4002 18 10.4002H17.9C17.9 10.4002 17.8 10.4002 17.8 10.3002C17.7 10.3002 17.5 10.3002 17.4 10.3002C17.1 10.4002 16.9 10.5002 16.7 10.6002C16.6 10.7002 16.5 10.8002 16.4 10.9002C16.3 11.0002 16.3 11.1002 16.2 11.3002C16.3 11.1002 16.5 10.9002 16.6 10.8002C16.8 10.7002 17 10.6002 17.2 10.5002C17.3 10.5002 17.5 10.5002 17.6 10.5002H17.9L18 10.4002H18.1C18.2 10.4002 18.3 10.4002 18.3 10.4002H18.4C18.5 10.4002 18.5 10.4002 18.6 10.4002H18.7C18.7 10.4002 18.7 10.4002 18.8 10.4002C18.8 10.4002 18.8 10.4002 18.8 10.3002C18.8 10.3002 18.9 10.2002 18.9 10.3002L19 10.4002C19 10.4002 19 10.5002 18.9 10.5002H18.8C18.8 10.5002 18.8 10.5002 18.8 10.6002C18.8 10.7002 18.8 10.8002 18.8 10.9002C18.8 11.0002 18.9 11.1002 19 11.2002C19.1 11.3002 19.1 11.4002 19.2 11.4002C19.3 11.4002 19.3 11.5002 19.4 11.5002L19.6 11.6002C19.7 11.7002 19.9 11.8002 20 11.9002C20.1 12.0002 20.1 12.1002 20.2 12.2002L20.4 12.4002C20.5 12.5002 20.6 12.6002 20.7 12.7002C20.8 12.8002 20.9 12.8002 20.9 12.9002C21.3 13.0002 21.4 13.1002 21.4 13.1002ZM18.1 12.4002C18.2 12.5002 18.2 12.5002 18.3 12.6002C18.4 12.7002 18.5 12.8002 18.6 12.9002L18.7 13.0002C18.7 13.0002 18.7 13.0002 18.7 13.1002C18.7 13.0002 18.6 13.0002 18.6 12.9002C18.6 12.8002 18.5 12.8002 18.5 12.7002V12.6002C18.5 12.6002 18.6 12.5002 18.6 12.6002H18.5H18.4C18.3 12.4002 18.2 12.4002 18.1 12.4002C18.2 12.4002 18.2 12.4002 18.1 12.4002ZM15.3 12.9002C15.1 12.9002 15.1 12.9002 15 13.0002C14.9 13.0002 14.8 13.1002 14.7 13.1002C14.7 13.1002 14.6 13.1002 14.6 13.2002H14.7C14.8 13.2002 14.9 13.1002 15 13.1002C15.1 13.0002 15.2 12.9002 15.3 12.9002ZM9.7 12.7002C9.7 12.8002 9.7 12.8002 9.7 12.7002C9.7 12.8002 9.7 12.9002 9.7 13.0002C9.7 13.0002 9.7 13.0002 9.8 13.0002L9.7 12.9002C9.8 12.8002 9.8 12.8002 9.7 12.7002ZM19.4 12.5002C19.8 12.6002 20.2 12.7002 20.6 12.8002H20.8C20.8 12.7002 20.7 12.7002 20.6 12.6002L20.4 12.4002C20.3 12.3002 20.3 12.2002 20.2 12.2002C20.2 12.3002 20.2 12.3002 20.2 12.3002L20.1 12.4002H20C19.8 12.4002 19.6 12.5002 19.4 12.5002ZM8.3 12.6002C8.4 12.6002 8.5 12.7002 8.6 12.7002C8.6 12.7002 8.6 12.7002 8.6 12.6002C8.6 12.6002 8.6 12.6002 8.6 12.5002L8.7 12.3002C8.6 12.3002 8.6 12.3002 8.5 12.4002C8.4 12.4002 8.4 12.5002 8.3 12.5002C8.3 12.5002 8.3 12.5002 8.3 12.6002ZM18.6 12.6002C18.7 12.6002 18.8 12.7002 19 12.7002L18.9 12.6002C18.9 12.6002 18.9 12.5002 19 12.5002C19.2 12.4002 19.3 12.4002 19.5 12.3002C19.4 12.3002 19.3 12.4002 19.2 12.4002L19 12.5002C18.9 12.5002 18.9 12.6002 18.8 12.6002C18.7 12.5002 18.7 12.6002 18.6 12.6002ZM9.6 12.5002C9.7 12.5002 9.7 12.6002 9.6 12.5002C9.7 12.5002 9.7 12.5002 9.6 12.5002C9.7 12.5002 9.7 12.5002 9.6 12.5002ZM9.7 12.2002H9.9H10C10.1 12.2002 10.2 12.2002 10.2 12.3002H10.1C10 12.3002 9.9 12.3002 9.8 12.2002C9.8 12.2002 9.8 12.2002 9.7 12.2002C9.6 12.2002 9.6 12.2002 9.7 12.2002ZM7.3 12.2002C7.4 12.2002 7.5 12.2002 7.6 12.2002H7.7C7.8 12.2002 7.8 12.2002 7.8 12.2002C7.9 12.2002 7.9 12.2002 7.9 12.1002C8 12.1002 8 12.0002 8.1 12.0002L8.3 11.9002H8.2C8 11.9002 7.8 11.8002 7.7 11.6002V11.5002V11.4002C7.7 11.4002 7.7 11.4002 7.6 11.4002C7.6 11.5002 7.6 11.5002 7.6 11.6002C7.6 11.7002 7.5 11.8002 7.5 11.9002C7.4 12.1002 7.4 12.2002 7.3 12.2002ZM18.2 12.2002C18.3 12.2002 18.3 12.2002 18.3 12.2002H18.4H18.5H18.6C18.7 12.2002 18.7 12.2002 18.8 12.1002L19 12.0002C19.1 11.9002 19.3 11.9002 19.4 11.9002C19.6 11.9002 19.7 11.9002 19.8 11.9002H19.9C19.8 11.9002 19.8 11.8002 19.7 11.8002L19.5 11.7002C19.4 11.7002 19.4 11.6002 19.3 11.6002C19.2 11.5002 19.1 11.4002 19 11.3002C18.9 11.2002 18.8 11.0002 18.8 10.9002C18.8 10.8002 18.8 10.7002 18.8 10.6002C18.7 10.6002 18.6 10.6002 18.6 10.6002C18.5 10.6002 18.4 10.6002 18.3 10.6002H17.8C17.7 10.6002 17.6 10.6002 17.5 10.6002C17.3 10.6002 17.2 10.7002 17 10.8002C16.8 10.9002 16.7 11.1002 16.6 11.3002C16.7 11.3002 16.8 11.3002 16.9 11.2002C17 11.2002 17.1 11.2002 17.2 11.1002C17.5 11.0002 17.8 10.9002 18.1 10.7002L18.2 10.6002C18.2 10.6002 18.3 10.6002 18.4 10.6002L18.5 10.7002V10.8002C18.3 11.1002 18.1 11.3002 17.8 11.4002C17.7 11.5002 17.5 11.5002 17.3 11.5002C17.2 11.5002 17.1 11.5002 17 11.5002H16.9C17 11.5002 17.1 11.5002 17.3 11.6002C17.4 11.6002 17.5 11.7002 17.6 11.7002L18.2 12.2002ZM14.4 12.3002C14.5 12.3002 14.5 12.3002 14.4 12.3002C14.5 12.3002 14.6 12.3002 14.7 12.2002L14.9 12.1002C15 12.1002 15 12.1002 15.1 12.0002H15.2C15.1 12.0002 15 12.0002 14.9 12.1002C14.8 12.2002 14.6 12.2002 14.4 12.3002ZM9 12.1002C9.1 12.1002 9.1 12.2002 9 12.1002C9.1 12.2002 9.1 12.2002 9 12.1002H9.1C9.1 12.1002 9.1 12.1002 9.2 12.1002V12.0002L9.3 11.9002C9.2 11.9002 9.2 11.9002 9.2 11.8002L9.1 11.9002C9.1 11.9002 9.1 11.9002 9 11.9002C9 11.9002 9 11.9002 9 12.0002C9.1 12.0002 9.1 12.0002 9 12.1002C9.1 12.1002 9.1 12.1002 9 12.1002ZM15.2 11.8002C15.1 11.8002 15 11.8002 14.9 11.8002C14.8 11.8002 14.7 11.9002 14.7 11.9002C14.7 11.9002 14.6 11.9002 14.6 12.0002C14.7 12.0002 14.8 11.9002 14.8 11.9002C15 11.8002 15.2 11.8002 15.2 11.8002C15.3 11.8002 15.3 11.8002 15.2 11.8002ZM10.6 11.8002C10.6 11.9002 10.6 11.9002 10.6 11.8002C10.6 11.9002 10.6 11.8002 10.6 11.8002ZM9.8 11.7002C9.9 11.7002 10 11.7002 10 11.8002H10.1H10.2H10.3H10.2C10.1 11.8002 10.1 11.8002 10 11.7002V11.6002V11.7002C10 11.7002 9.9 11.7002 9.8 11.7002ZM9.6 11.7002C9.5 11.7002 9.5 11.7002 9.4 11.8002C9.4 11.8002 9.4 11.8002 9.3 11.8002H9.4C9.5 11.7002 9.5 11.7002 9.6 11.7002ZM16.8 11.6002C16.8 11.6002 16.7 11.6002 16.7 11.7002C16.6 11.7002 16.7 11.7002 16.8 11.6002C16.7 11.7002 16.8 11.6002 16.8 11.6002ZM8.1 11.5002C8.3 11.6002 8.5 11.7002 8.7 11.7002L8.6 11.6002C8.4 11.5002 8.2 11.5002 8.1 11.5002ZM17.9 11.3002C17.8 11.4002 17.6 11.4002 17.4 11.5002C17.5 11.5002 17.6 11.5002 17.6 11.4002C17.7 11.4002 17.8 11.3002 17.9 11.3002ZM8.2 11.2002C8.3 11.2002 8.5 11.2002 8.6 11.3002H8.7C8.7 11.3002 8.7 11.3002 8.6 11.2002C8.5 11.2002 8.4 11.2002 8.2 11.2002C8.3 11.2002 8.2 11.2002 8.2 11.2002C8.1 11.2002 8.1 11.2002 8 11.2002V11.1002C7.9 11.1002 7.9 11.1002 7.8 11.1002C7.7 11.1002 7.6 11.1002 7.5 11.1002H7.4H7.5C7.5 11.1002 7.5 11.1002 7.6 11.1002H7.7C7.8 11.1002 7.8 11.1002 7.9 11.1002C8.1 11.2002 8.1 11.2002 8.2 11.2002ZM10.5 11.0002L10.8 11.2002C10.9 11.2002 10.9 11.3002 11 11.3002C11 11.2002 10.9 11.1002 10.9 11.1002V11.0002V10.9002C10.9 10.9002 10.9 10.9002 10.9 10.8002C10.7 10.6002 10.5 10.3002 10.2 10.0002V9.9002L10.1 9.8002L10 9.7002C10 9.6002 9.9 9.6002 9.9 9.5002C9.7 9.4002 9.6 9.3002 9.6 9.3002C9.4 9.1002 9.2 8.8002 9.1 8.6002C9 8.6002 9 8.5002 9 8.5002C9 8.6002 9.1 8.8002 9 8.9002C9 9.0002 8.9 9.1002 8.7 9.2002C8.7 9.2002 8.7 9.3002 8.6 9.3002C8.6 9.3002 8.6 9.3002 8.5 9.3002C8.7 9.4002 8.9 9.5002 9 9.6002C9.1 9.7002 9.2 9.8002 9.4 10.0002L9.6 10.2002C9.7 10.3002 9.7 10.3002 9.8 10.4002C9.9 10.5002 9.9 10.6002 10 10.6002C10.1 10.8002 10.3 10.9002 10.5 11.0002ZM7.2 11.2002C7.2 11.2002 7.2 11.3002 7.2 11.2002C7.3 11.3002 7.3 11.3002 7.2 11.2002C7.3 11.3002 7.3 11.2002 7.2 11.2002C7.3 11.2002 7.2 11.2002 7.2 11.2002ZM11.6 10.8002C11.7 10.8002 11.7 10.8002 11.6 10.8002C11.7 10.9002 11.7 10.9002 11.8 10.9002H11.9C12 10.9002 12.1 10.9002 12.2 10.9002C12.2 10.9002 12.3 10.9002 12.3 10.8002C12.4 10.8002 12.4 10.7002 12.5 10.7002C12.6 10.6002 12.6 10.6002 12.7 10.5002H12.6C12.6 10.5002 12.6 10.5002 12.5 10.5002C12.4 10.5002 12.4 10.4002 12.4 10.4002C12.4 10.4002 12.4 10.3002 12.3 10.3002C12.3 10.3002 12.3 10.3002 12.2 10.2002C12.2 10.3002 12.2 10.4002 12.3 10.5002V10.6002C12.3 10.7002 12.3 10.7002 12.2 10.7002H12.1H12C11.9 10.7002 11.9 10.6002 11.9 10.6002C11.9 10.5002 11.8 10.4002 11.8 10.3002C11.8 10.3002 11.8 10.3002 11.8 10.4002C11.8 10.5002 11.7 10.5002 11.7 10.6002C11.7 10.7002 11.7 10.8002 11.6 10.8002ZM12.3 8.8002C12.3 8.8002 12.2 8.9002 12.3 8.8002C12.3 9.0002 12.3 9.1002 12.2 9.2002C12.2 9.3002 12.2 9.5002 12.2 9.6002C12.2 9.7002 12.3 9.7002 12.3 9.7002L12.5 9.9002L12.6 10.0002C12.7 10.1002 12.7 10.1002 12.7 10.2002C12.7 10.2002 12.8 10.3002 12.8 10.4002C12.8 10.4002 12.8 10.5002 12.8 10.6002C12.8 10.6002 12.8 10.6002 12.8 10.7002C13 10.5002 13.2 10.4002 13.3 10.2002C13.2 10.2002 13.2 10.2002 13.1 10.1002C13.1 10.1002 13.1 10.1002 13.1 10.0002C13.1 10.0002 13.1 10.0002 13.1 9.9002V9.8002C13.1 9.5002 12.9 9.3002 12.8 9.2002L12.7 9.1002L12.6 9.0002C12.3 8.9002 12.3 8.8002 12.3 8.8002ZM11 10.2002C11.1 10.3002 11.2 10.4002 11.3 10.5002C11.3 10.4002 11.3 10.3002 11.4 10.2002C11.4 10.1002 11.5 10.1002 11.5 10.0002L11.6 9.8002C11.6 9.7002 11.7 9.7002 11.7 9.6002C11.7 9.6002 11.7 9.6002 11.7 9.5002C11.7 9.4002 11.7 9.3002 11.7 9.2002C11.6 9.3002 11.5 9.4002 11.4 9.5002C11.3 9.6002 11.3 9.7002 11.2 9.9002C11.2 9.9002 11.2 9.9002 11.2 10.0002C11.2 10.1002 11.2 10.2002 11 10.2002ZM11.9 9.0002L12 9.1002V9.2002V9.3002C12 9.4002 12 9.5002 12 9.6002C12 9.7002 12 9.7002 12 9.8002C12 9.9002 11.9 9.9002 11.9 10.0002L11.8 10.1002C11.8 10.0002 11.9 10.0002 12 10.1002C12 10.1002 12 10.0002 12.1 10.0002C12.1 10.0002 12.1 10.0002 12.2 10.0002C12.2 10.0002 12.1 9.9002 12.1 9.8002V9.7002C12.1 9.5002 12.1 9.4002 12.1 9.3002C12.1 9.2002 12.1 9.10019 12.1 8.9002C12.1 8.8002 12.1 8.7002 12.1 8.7002V8.6002C12.1 8.6002 12.1 8.5002 12.2 8.5002H12.3C12.4 8.6002 12.4 8.7002 12.5 8.7002C12.6 8.7002 12.6 8.8002 12.7 8.8002C12.8 8.8002 12.8 8.9002 12.9 8.9002L13 9.0002C12.9 8.9002 12.8 8.8002 12.7 8.7002C12.7 8.7002 12.7 8.7002 12.6 8.6002L12.5 8.5002C12.4 8.5002 12.4 8.4002 12.3 8.4002L12.2 8.3002L12.1 8.2002V8.1002C12.1 8.0002 12.1 8.0002 12.1 7.9002L12.2 7.2002C12.2 7.2002 12.2 7.10019 12.3 7.10019C12.4 7.10019 12.4 7.1002 12.4 7.2002C12.4 7.3002 12.5 7.3002 12.6 7.4002C12.7 7.5002 12.7 7.5002 12.8 7.60019L12.7 7.5002C12.6 7.4002 12.5 7.3002 12.4 7.2002C12.4 7.1002 12.3 7.1002 12.3 7.0002V6.9002H12.4H12.3C12.3 6.9002 12.3 6.9002 12.3 6.8002C12.3 6.9002 12.3 7.0002 12.2 7.10019C12.2 7.10019 12.2 7.2002 12.1 7.2002C12 7.3002 12 7.3002 11.9 7.3002C11.8 7.4002 11.7 7.4002 11.6 7.5002C11.5 7.5002 11.4 7.60019 11.4 7.60019H11.3C11.2 7.60019 11.1 7.7002 11.1 7.7002C11 7.8002 10.8 7.8002 10.7 7.9002C10.6 8.0002 10.5 8.1002 10.4 8.2002C10.3 8.3002 10.3 8.5002 10.2 8.6002C10.3 8.5002 10.3 8.3002 10.5 8.2002C10.7 7.9002 11.1 7.70019 11.4 7.60019H11.5H11.6C11.7 7.60019 11.7 7.5002 11.8 7.5002H11.9C11.9 7.5002 12 7.60019 11.9 7.60019L11.8 8.0002C11.8 8.2002 11.7 8.5002 11.7 8.7002V8.8002V8.9002C12 8.8002 12 8.9002 11.9 9.0002C11.9 8.9002 11.9 8.9002 11.9 9.0002ZM7.2 6.3002C7.3 6.3002 7.5 6.3002 7.7 6.4002C7.8 6.4002 8 6.5002 8.1 6.6002C8.2 6.7002 8.3 6.8002 8.4 7.0002C8.5 7.1002 8.6 7.2002 8.6 7.4002C8.6 7.5002 8.7 7.6002 8.7 7.7002C8.8 7.8002 8.8 7.8002 8.9 7.9002L9 8.0002C9.2 8.2002 9.4 8.4002 9.5 8.6002C9.7 8.9002 10.1 9.3002 10.4 9.7002C10.5 9.8002 10.6 10.0002 10.7 10.1002V10.0002C10.7 9.8002 10.7 9.60019 10.8 9.4002C10.9 9.3002 11 9.2002 11.1 9.1002L11.2 9.0002H11.3C11.3 9.0002 11.3 9.0002 11.4 9.0002C11.5 9.0002 11.5 8.9002 11.6 8.9002V8.8002V8.7002C11.6 8.5002 11.7 8.2002 11.7 8.0002V7.8002H11.6H11.5C11.2 7.9002 10.9 8.10019 10.7 8.4002C10.5 8.60019 10.4 8.8002 10.4 9.1002V9.2002C10.4 9.2002 10.4 9.2002 10.3 9.3002C10.2 9.4002 10 9.3002 10 9.2002C10 9.1002 10 9.0002 10 8.8002C10 8.6002 10.1 8.4002 10.3 8.1002C10.4 8.0002 10.5 7.8002 10.6 7.7002C10.7 7.6002 10.9 7.5002 11 7.4002C11.1 7.4002 11.2 7.3002 11.2 7.3002H11.3C11.4 7.3002 11.5 7.2002 11.5 7.2002C11.6 7.2002 11.7 7.10019 11.7 7.10019L11.8 7.0002C11.8 6.8002 11.9 6.6002 11.9 6.5002C11.9 6.3002 12 6.1002 12 5.8002V5.7002V5.6002C12 5.5002 12 5.5002 12 5.4002V5.3002C11.9 5.1002 11.7 5.0002 11.5 4.9002C11.4 4.9002 11.4 4.9002 11.3 4.8002C11.2 4.8002 11.2 4.7002 11.2 4.6002C11.2 4.5002 11.2 4.5002 11.3 4.4002C11.3 4.4002 11.3 4.4002 11.4 4.4002C11.5 4.4002 11.5 4.4002 11.6 4.4002H11.7C11.7 4.4002 11.6 4.4002 11.6 4.3002H11.5C11.5 4.3002 11.4 4.3002 11.3 4.3002C11.2 4.3002 11.2 4.3002 11.2 4.2002H11.1C11 4.2002 10.9 4.2002 10.7 4.2002C10.6 4.2002 10.5 4.2002 10.5 4.2002C10.3 4.2002 10 4.3002 9.8 4.4002C9.7 4.4002 9.5 4.5002 9.3 4.6002C9.3 4.6002 9.3 4.6002 9.2 4.6002H9.1C8.9 4.8002 8.8 4.9002 8.7 5.1002C8.6 5.2002 8.5 5.3002 8.4 5.4002C8.3 5.5002 8.3 5.7002 8.2 5.9002L8.1 6.1002L8 6.2002C7.9 6.2002 7.9 6.2002 7.8 6.1002V6.0002V5.9002C7.8 5.7002 7.9 5.6002 7.9 5.5002C7.5 5.7002 7.2 6.0002 7 6.3002C7.1 6.3002 7.1 6.3002 7.2 6.3002ZM11.4 9.3002C11.3 9.4002 11.2 9.5002 11.1 9.5002C11.1 9.6002 11 9.7002 11 9.8002C11 9.7002 11.1 9.6002 11.2 9.5002C11.3 9.4002 11.4 9.3002 11.4 9.3002ZM14.3 9.2002C14.3 9.1002 14.3 9.1002 14.3 9.2002C14.2 9.2002 14.2 9.2002 14.2 9.2002H14.3H14.2H14.3ZM11.5 9.1002C11.6 9.1002 11.6 9.1002 11.5 9.1002V9.1002ZM8.3 8.6002H8.4C8.5 8.6002 8.6 8.7002 8.7 8.7002C8.7 8.7002 8.8 8.8002 8.8 8.9002C8.8 8.9002 8.8 8.9002 8.8 8.8002C8.8 8.7002 8.8 8.6002 8.8 8.6002C8.8 8.5002 8.7 8.5002 8.6 8.4002H8.4H8.3C8.1 8.4002 8.1 8.3002 8 8.2002C8 8.1002 8 8.0002 8 8.0002C8 8.0002 8 8.0002 8 7.9002C8 7.9002 8 7.9002 8.1 7.9002C8.1 7.9002 8.1 7.9002 8.2 7.8002V7.7002C8.2 7.6002 8.2 7.6002 8.1 7.5002C8.1 7.5002 8.1 7.5002 8 7.4002V7.3002L7.9 7.2002C7.9 7.1002 7.8 7.1002 7.9 7.0002C7.9 7.0002 7.9 6.9002 8 6.9002H8.1C8 6.9002 8 6.9002 7.9 6.8002C7.8 6.7002 7.7 6.6002 7.6 6.6002C7.5 6.6002 7.4 6.6002 7.4 6.5002C7.5 6.5002 7.6 6.5002 7.7 6.6002C7.8 6.6002 7.8 6.7002 7.9 6.7002L8 6.8002C7.9 6.9002 7.8 7.0002 7.8 7.0002H7.6H7.3C7.2 7.0002 7 7.0002 6.9 7.0002C6.9 7.0002 6.8 7.0002 6.7 7.0002H6.6C6.6 7.0002 6.6 7.0002 6.6 6.9002C6.5 7.0002 6.5 7.0002 6.4 7.0002C6.4 7.0002 6.4 7.0002 6.3 7.0002V7.10019C6.3 7.10019 6.3 7.2002 6.2 7.2002C6.1 7.2002 6.1 7.2002 6.1 7.3002C6 7.3002 5.9 7.4002 5.8 7.5002C5.7 7.6002 5.5 7.8002 5.4 7.9002C5.4 7.9002 5.4 8.0002 5.3 8.0002C5.3 8.1002 5.2 8.2002 5.2 8.2002C5.2 8.3002 5.2 8.3002 5.2 8.4002C5.2 8.3002 5.2 8.2002 5.3 8.1002C5.3 8.0002 5.4 7.8002 5.5 7.7002C5.6 7.5002 5.8 7.4002 6 7.3002C6.1 7.3002 6.1 7.3002 6.2 7.3002C6.3 7.3002 6.3 7.3002 6.4 7.2002C6.5 7.2002 6.5 7.10019 6.6 7.10019C6.7 7.10019 6.7 7.0002 6.7 6.9002C6.7 6.9002 6.7 6.8002 6.8 6.8002H6.9L7 6.9002H7.1C7.2 6.9002 7.2 6.9002 7.3 7.0002H7.4V7.10019V7.2002C7.4 7.2002 7.4 7.2002 7.5 7.3002H7.6C7.6 7.3002 7.7 7.3002 7.7 7.4002C8 7.60019 8.1 7.7002 8 7.8002V7.9002L7.9 8.1002V8.2002V8.3002C7.9 8.4002 7.9 8.5002 8 8.5002H8.1C8.1 8.5002 8.1 8.5002 8.2 8.5002C8.2 8.5002 8.2 8.5002 8.3 8.6002ZM8.2 8.0002C8.3 8.1002 8.3 8.1002 8.2 8.1002C8.2 8.1002 8.2 8.2002 8.3 8.2002C8.3 8.2002 8.3 8.2002 8.4 8.2002H8.6C8.7 8.2002 8.8 8.2002 8.9 8.3002L8.8 8.2002L8.7 8.1002C8.6 8.1002 8.5 8.0002 8.5 8.0002V7.9002C8.4 8.0002 8.3 8.0002 8.3 8.0002H8.2ZM18.4 6.2002C18.4 6.30019 18.4 6.3002 18.5 6.3002L18.6 6.4002L18.7 6.5002L18.8 6.6002C18.9 6.7002 18.9 6.8002 18.9 6.9002C18.9 7.0002 18.9 7.1002 18.9 7.2002C18.9 7.3002 18.9 7.5002 19 7.60019C19 7.70019 19 7.7002 19.1 7.8002C19.1 7.8002 19.1 7.8002 19.1 7.7002C19 7.6002 19 7.5002 19 7.3002C19 7.2002 19 7.0002 19 6.9002V6.8002C19 6.7002 18.9 6.6002 18.9 6.6002C18.9 6.6002 18.8 6.6002 18.8 6.5002L18.7 6.4002C18.7 6.4002 18.6 6.4002 18.6 6.3002C18.4 6.3002 18.4 6.30019 18.4 6.2002ZM15 5.2002C15.1 5.2002 15.1 5.3002 15.2 5.3002L15.5 5.4002C15.6 5.4002 15.7 5.5002 15.8 5.6002C15.9 5.7002 15.9 5.7002 16 5.8002C16.1 5.9002 16.1 5.9002 16.1 6.0002C16.1 6.1002 16.2 6.1002 16.2 6.2002C16.3 6.4002 16.5 6.6002 16.7 6.8002C16.8 7.0002 17 7.1002 17.2 7.3002L16.2 6.0002V5.9002C16.2 5.9002 16.2 5.9002 16.3 5.9002C16.2 5.8002 16.1 5.80019 16 5.7002C15.9 5.7002 15.9 5.6002 15.9 5.6002C15.8 5.5002 15.7 5.5002 15.5 5.4002H15.3C15.1 5.2002 15.1 5.2002 15 5.2002ZM5.8 6.4002C6 6.5002 6.1 6.6002 6.2 6.7002C6.2 6.7002 6.2 6.7002 6.2 6.6002C6.1 6.6002 5.9 6.5002 5.8 6.4002ZM7.1 6.5002C6.9 6.5002 6.8 6.6002 6.7 6.6002H6.8C6.9 6.6002 7 6.6002 7.1 6.5002ZM5.1 5.8002C5.7 6.0002 6.1 6.2002 6.4 6.6002C6.4 6.4002 6.5 6.2002 6.6 6.0002C6.8 5.7002 7 5.5002 7.3 5.3002C7.4 5.1002 7.6 5.0002 7.8 4.9002L6.6 5.1002C6.5 5.1002 6.4 5.1002 6.3 5.2002C6.2 5.2002 5.9 5.2002 5.8 5.2002C5.7 5.2002 5.6 5.1002 5.6 5.1002C5.6 5.1002 5.5 5.0002 5.5 4.9002C5.5 4.8002 5.6 4.7002 5.7 4.7002H6C6.1 4.7002 6.3 4.7002 6.4 4.7002C6.7 4.7002 7 4.6002 7.3 4.6002L8.7 4.4002H8.8H8.9C9 4.4002 9 4.4002 9.1 4.3002H9.2C9.2 4.3002 9.3 4.3002 9.3 4.2002C9.4 4.2002 9.4 4.1002 9.5 4.1002H9.4C9.3 4.1002 9.2 4.1002 9.2 4.1002C9.1 4.1002 9.1 4.1002 9 4.1002C9.1 4.1002 9 4.1002 8.9 4.2002C8.8 4.2002 8.8 4.3002 8.7 4.3002C8.5 4.4002 8.3 4.4002 8.1 4.4002C7.9 4.4002 7.8 4.4002 7.7 4.4002H7.6C7.5 4.4002 7.4 4.4002 7.3 4.4002H7.2V4.3002V4.4002H5.9H5.8C5.8 4.4002 5.7 4.4002 5.6 4.4002C5.5 4.4002 5.4 4.5002 5.4 4.5002C5.4 4.6002 5.3 4.6002 5.3 4.7002C5.3 4.80019 5.3 4.8002 5.3 4.9002V5.1002C5.3 5.2002 5.3 5.3002 5.3 5.3002C5.3 5.4002 5.3 5.5002 5.3 5.5002C5.1 5.7002 5.1 5.7002 5.1 5.8002ZM17.1 6.0002C17.3 6.1002 17.4 6.1002 17.6 6.2002C17.7 6.30019 17.8 6.3002 17.8 6.4002C17.7 6.2002 17.5 6.1002 17.3 6.0002C17.2 6.1002 17.1 6.0002 17.1 6.0002ZM7.8 5.2002C7.7 5.30019 7.6 5.3002 7.5 5.4002C7.3 5.6002 7.1 5.7002 7 5.9002C7.2 5.6002 7.5 5.4002 7.8 5.2002ZM4.7 5.8002C4.7 5.9002 4.7 5.9002 4.7 5.8002C4.7 5.9002 4.7 5.9002 4.7 5.8002C4.7 5.9002 4.7 5.8002 4.7 5.8002ZM8.2 4.9002C8.2 4.9002 8.3 4.9002 8.2 4.9002C8.3 5.0002 8.3 5.1002 8.3 5.1002C8.2 5.3002 8.1 5.4002 8 5.6002C8.1 5.5002 8.1 5.4002 8.2 5.3002C8.3 5.1002 8.4 5.0002 8.5 4.9002C8.6 4.8002 8.7 4.6002 8.9 4.6002H8.6C8.6 4.7002 8.6 4.7002 8.5 4.7002C8.5 4.7002 8.5 4.7002 8.4 4.7002C8.4 4.7002 8.4 4.7002 8.3 4.7002C8.3 4.9002 8.3 4.9002 8.2 4.9002ZM12.5 5.5002C12.5 5.6002 12.5 5.6002 12.5 5.6002C12.5 5.5002 12.6 5.5002 12.7 5.5002C12.7 5.5002 12.7 5.5002 12.6 5.5002H12.5ZM13.4 5.4002H13.5C13.5 5.3002 13.4 5.3002 13.4 5.4002ZM12.4 5.3002C12.5 5.2002 12.5 5.2002 12.4 5.3002C12.5 5.2002 12.5 5.2002 12.4 5.3002C12.4 5.2002 12.4 5.2002 12.3 5.2002C12.4 5.2002 12.4 5.2002 12.4 5.3002ZM15.1 4.6002C15.3 4.6002 15.4 4.6002 15.5 4.7002C15.6 4.7002 15.7 4.8002 15.8 4.8002L16.1 4.9002C16.3 5.0002 16.5 5.0002 16.8 5.1002C17 5.2002 17.2 5.2002 17.4 5.3002C17.5 5.3002 17.6 5.4002 17.7 5.4002C17.6 5.3002 17.6 5.30019 17.5 5.2002C17.4 5.0002 17.3 5.0002 17.2 4.9002C17.1 4.8002 16.9 4.8002 16.8 4.8002C16.7 4.8002 16.5 4.8002 16.3 4.8002C16.2 4.8002 16.1 4.7002 16 4.7002C15.9 4.7002 15.9 4.6002 15.8 4.6002L15.7 4.5002L15.6 4.4002C15.5 4.4002 15.5 4.4002 15.4 4.3002C15.4 4.3002 15.3 4.4002 15.2 4.4002V4.3002C15.1 4.3002 15.1 4.3002 15 4.3002H14.9C14.8 4.3002 14.7 4.3002 14.7 4.3002C14.5 4.3002 14.3 4.3002 14.1 4.2002C14 4.2002 14 4.1002 13.9 4.1002C13.9 4.1002 13.8 4.1002 13.8 4.0002C13.8 4.0002 13.7 4.0002 13.7 3.9002C13.7 4.0002 13.6 4.0002 13.5 4.0002C13.5 4.0002 13.4 3.9002 13.3 3.9002C13.2 3.9002 13.2 3.9002 13.1 3.9002C13.1 3.9002 13.1 3.9002 13 4.0002C13.1 4.0002 13.2 4.1002 13.3 4.1002C13.4 4.1002 13.5 4.2002 13.5 4.2002L13.6 4.3002C13.7 4.4002 13.8 4.4002 13.9 4.5002L14 4.6002C14.1 4.6002 14.2 4.6002 14.3 4.7002C14.3 4.6002 14.4 4.6002 14.4 4.6002H14.5H14.6C14.6 4.6002 14.7 4.6002 14.7 4.7002C15 4.6002 15 4.6002 15.1 4.6002ZM6.1 5.0002V5.1002V5.0002ZM13 5.1002C13.1 5.1002 13.1 5.1002 13.2 5.1002H13.3C13.4 5.1002 13.5 5.1002 13.6 5.1002H13.7C13.8 5.0002 14 5.0002 14.2 5.0002C14.3 5.0002 14.4 5.0002 14.5 5.0002L14.4 4.9002C14.4 4.9002 14.3 4.9002 14.3 4.8002C14.2 4.7002 14.1 4.7002 14 4.7002C13.9 4.7002 13.8 4.6002 13.8 4.5002L13.7 4.4002C13.7 4.4002 13.7 4.4002 13.7 4.5002H13.6H13.5C13.4 4.5002 13.3 4.5002 13.2 4.4002C13.1 4.4002 13 4.4002 12.9 4.4002C12.8 4.4002 12.8 4.4002 12.8 4.5002C12.7 4.5002 12.7 4.6002 12.7 4.6002V4.7002C12.9 4.6002 13 4.5002 13.2 4.5002C13.3 4.5002 13.3 4.5002 13.4 4.5002C13.5 4.5002 13.6 4.6002 13.6 4.7002C13.6 4.80019 13.5 4.8002 13.4 4.9002C13.4 4.9002 13.4 4.9002 13.3 4.9002C13.2 4.9002 13.1 5.0002 13 5.0002C12.9 5.1002 13 5.1002 13 5.1002ZM12.1 4.8002C12.2 4.8002 12.2 4.9002 12.3 5.0002C12.3 5.0002 12.3 5.0002 12.4 5.0002C12.3 4.9002 12.2 4.9002 12.1 4.8002C12.1 4.9002 12.1 4.8002 12.1 4.8002ZM5.4 4.0002C5.2 4.0002 5.1 4.1002 5.1 4.2002L5 4.3002C5 4.5002 5 4.6002 5 4.7002C5 4.6002 5 4.5002 5.1 4.4002C5.2 4.3002 5.3 4.2002 5.4 4.1002C5.5 4.1002 5.6 4.1002 5.6 4.1002H5.8C5.8 4.1002 5.8 4.1002 5.9 4.1002H7.2H7.3H7.5L7.6 4.0002H7.8C7.8 4.0002 7.9 4.0002 7.9 4.1002C8 4.1002 8 4.1002 8.1 4.1002C8.3 4.1002 8.5 4.0002 8.6 4.0002C8.7 4.0002 8.7 4.0002 8.8 4.0002C8.9 4.0002 8.9 3.9002 9 3.9002C9.1 3.9002 9.2 3.9002 9.2 3.9002C9.3 3.9002 9.4 3.9002 9.5 3.9002C9.6 3.9002 9.7 3.9002 9.7 3.9002C9.8 3.9002 9.8 3.9002 9.9 3.9002C9.9 3.9002 10 3.8002 10 3.9002H10.1C10.2 3.9002 10.2 4.0002 10.2 4.0002V4.1002C10.2 4.1002 10.2 4.1002 10.3 4.1002C10.3 4.1002 10.2 4.1002 10.2 4.0002C10.2 3.9002 10.2 3.9002 10.3 3.9002C10.4 3.9002 10.4 3.9002 10.5 3.8002C10.6 3.8002 10.6 3.7002 10.7 3.7002L10.9 3.5002L11 3.4002C11.1 3.3002 11.1 3.3002 11.2 3.3002C11.3 3.2002 11.4 3.2002 11.4 3.2002C11.5 3.2002 11.6 3.2002 11.6 3.2002C11.7 3.2002 11.7 3.2002 11.8 3.3002C11.9 3.3002 11.9 3.4002 12 3.4002C12.1 3.5002 12.1 3.6002 12.2 3.7002C12.2 3.9002 12.2 4.0002 12.2 4.1002C12.2 4.1002 12.2 4.2002 12.1 4.2002C12.1 4.2002 12.1 4.2002 12 4.2002C11.9 4.2002 11.9 4.2002 11.8 4.2002C11.9 4.2002 11.9 4.3002 12 4.4002C12.1 4.5002 12.1 4.5002 12.1 4.6002C12.1 4.5002 12.2 4.5002 12.2 4.4002C12.2 4.4002 12.2 4.4002 12.1 4.4002C12.1 4.4002 12 4.4002 12 4.3002C12 4.3002 11.9 4.2002 12 4.2002C12 4.2002 12 4.2002 12 4.1002C12 4.0002 12.1 3.9002 12.1 3.9002C12.1 3.9002 12.1 3.9002 12.1 3.8002C12.1 3.8002 12.1 3.8002 12.1 3.7002C12.1 3.6002 12.1 3.4002 12.1 3.3002C12.1 3.2002 12 3.1002 12 3.0002C12.2 3.1002 12.1 3.0002 12 3.0002C12 3.0002 12 3.0002 11.9 3.0002H11.8C11.8 3.0002 11.8 3.0002 11.7 3.0002H11.6C11.5 3.0002 11.5 3.0002 11.4 3.0002C11.3 3.0002 11.2 3.1002 11.2 3.1002C11.1 3.1002 11 3.2002 11 3.2002C10.8 3.3002 10.6 3.4002 10.4 3.5002C9.9 3.6002 9.5 3.8002 8.9 3.9002C8.7 3.9002 8.6 3.9002 8.4 4.0002C8.3 4.0002 8.2 4.0002 8.1 4.0002H7.8C7.6 4.0002 7.5 4.0002 7.3 4.0002C7.1 4.0002 6.9 4.0002 6.7 4.0002C6.5 4.0002 6.4 4.0002 6.3 4.0002C6.2 4.0002 6.1 4.0002 6 4.0002H5.9C5.9 4.0002 5.8 4.1002 5.8 4.0002C5.7 4.0002 5.6 4.0002 5.5 4.0002C5.5 4.1002 5.5 4.1002 5.4 4.0002C5.5 4.1002 5.4 4.0002 5.4 4.0002ZM12.5 4.1002C12.5 4.2002 12.5 4.2002 12.5 4.1002C12.6 4.2002 12.6 4.2002 12.5 4.1002C12.6 4.1002 12.7 4.1002 12.7 4.1002C12.7 4.1002 12.6 4.2002 12.5 4.1002ZM11.4 3.9002C11.5 3.9002 11.5 3.9002 11.4 3.9002C11.6 3.9002 11.6 3.9002 11.7 4.0002H11.8C12 4.0002 12 4.0002 12 4.0002C12 3.9002 12 3.8002 12 3.7002C12 3.6002 11.9 3.5002 11.9 3.5002L11.8 3.4002H11.7H11.6C11.6 3.4002 11.5 3.4002 11.4 3.5002C11.3 3.5002 11.3 3.6002 11.3 3.6002L11.2 3.7002L11 3.9002C11.1 3.9002 11.2 3.9002 11.3 3.9002C11.3 3.9002 11.3 3.9002 11.4 3.9002C11.3 3.9002 11.3 3.9002 11.4 3.9002ZM12.7 3.9002C12.8 3.9002 12.8 3.9002 12.8 3.9002H12.9H12.8H12.7ZM11.8 15.3002C11.7 15.2002 11.6 15.2002 11.5 15.2002C11.4 15.1002 11.2 15.1002 11.1 15.1002C11.1 15.1002 11 15.1002 11 15.2002H10.9H10.8C10.7 15.2002 10.6 15.2002 10.4 15.3002H10.3V15.2002C10.3 15.1002 10.4 15.0002 10.5 14.9002C10.6 14.8002 10.6 14.7002 10.7 14.6002C10.8 14.5002 10.9 14.4002 11 14.4002C11.1 14.3002 11.2 14.3002 11.4 14.3002C11.4 14.3002 11.4 14.3002 11.5 14.3002C11.6 14.3002 11.7 14.3002 11.8 14.4002C11.9 14.4002 11.9 14.5002 12 14.5002C12.1 14.6002 12.1 14.6002 12.1 14.7002V14.8002V15.0002C12.1 15.0002 12.1 15.0002 12.1 15.1002V15.4002C11.9 15.2002 11.9 15.3002 11.8 15.3002C11.9 15.3002 11.8 15.3002 11.8 15.3002ZM11 14.8002C11.2 14.8002 11.5 14.9002 11.7 15.0002V14.9002V14.7002C11.7 14.6002 11.6 14.6002 11.6 14.5002L11.5 14.4002C11.4 14.4002 11.3 14.3002 11.2 14.3002C11.1 14.3002 11 14.3002 10.9 14.4002C10.8 14.4002 10.8 14.5002 10.7 14.6002C10.6 14.7002 10.6 14.7002 10.5 14.8002C10.5 14.8002 10.5 14.8002 10.5 14.9002C10.6 14.9002 10.7 14.9002 10.8 14.9002C10.9 14.8002 10.9 14.8002 11 14.8002ZM11.8 12.2002C11.8 12.2002 11.7 12.2002 11.8 12.2002C11.7 12.2002 11.7 12.1002 11.7 12.1002C11.7 12.0002 11.7 12.0002 11.8 12.0002C11.9 12.0002 11.9 12.0002 11.9 12.0002C11.9 12.0002 11.9 12.1002 11.8 12.2002C11.9 12.2002 11.8 12.2002 11.8 12.2002ZM12.1 12.0002C12 12.0002 12 12.0002 12 11.9002C12 11.8002 12 11.8002 11.9 11.8002V11.7002C11.9 11.7002 11.9 11.7002 12 11.7002H12.1H12.2H12.3C12.3 11.7002 12.4 11.8002 12.3 11.9002C12.3 12.0002 12.2 12.0002 12.2 12.1002C12.2 11.9002 12.1 12.0002 12.1 12.0002ZM11.6 11.8002C11.6 11.8002 11.5 11.8002 11.5 11.7002L11.3 11.3002C11.3 11.3002 11.3 11.2002 11.3 11.1002C11.3 11.1002 11.4 11.1002 11.5 11.1002L11.6 11.2002L11.7 11.3002L11.8 11.6002C11.8 11.7002 11.8 11.8002 11.6 11.8002C11.7 11.8002 11.7 11.8002 11.6 11.8002ZM16 11.7002C16 11.7002 15.9 11.7002 15.9 11.6002C15.9 11.6002 15.9 11.6002 15.9 11.5002V11.4002H16C16.1 11.4002 16.1 11.5002 16.1 11.5002C16.1 11.5002 16.1 11.5002 16.1 11.6002C16.1 11.6002 16 11.6002 16 11.7002C16 11.6002 16 11.7002 16 11.7002Z" fill="white"/>
<path d="M21.2996 1H1.59961C1.59961 1.2 1.59961 1.3 1.59961 1.5H21.1996C21.1996 1.3 21.2996 1.2 21.2996 1Z" fill="white"/>
<path d="M0 1.2L2.4 2.5L1.8 1.2L2.4 0L0 1.2Z" fill="white"/>
<path d="M22.4 1.2L20 2.5L20.5 1.2L20 0L22.4 1.2Z" fill="white"/>
</g>
<defs>
<clipPath id="clip0">
<rect width="22.4" height="27.3" fill="white"/>
</clipPath>
</defs>
</svg>
