<svg width="52" height="52" viewBox="0 0 52 52" fill="none" xmlns="http://www.w3.org/2000/svg">
<path d="M49.5625 3.25H1.625C1.40951 3.25 1.20285 3.33561 1.05048 3.48798C0.898105 3.64035 0.812502 3.84701 0.8125 4.0625V41.4375C0.812502 41.653 0.898105 41.8596 1.05048 42.012C1.20285 42.1644 1.40951 42.25 1.625 42.25H17.8051L16.4014 44.2152C16.3146 44.3367 16.263 44.4798 16.2521 44.6287C16.2413 44.7775 16.2717 44.9265 16.3401 45.0593C16.4084 45.192 16.5119 45.3034 16.6394 45.3811C16.7668 45.4589 16.9132 45.5 17.0625 45.5H19.6781L20.3368 48.1346C20.3744 48.2851 20.4544 48.4218 20.5672 48.5283C20.68 48.6348 20.821 48.7068 20.9734 48.7358C21.1259 48.7647 21.2835 48.7494 21.4275 48.6916C21.5715 48.6339 21.696 48.536 21.7861 48.4098L25.6145 43.0501C25.7421 43.0576 25.8705 43.0625 26 43.0625C26.1295 43.0625 26.2579 43.0576 26.3855 43.0501L30.2139 48.4098C30.304 48.536 30.4285 48.6338 30.5725 48.6916C30.7165 48.7494 30.8741 48.7647 31.0265 48.7357C31.179 48.7068 31.32 48.6348 31.4328 48.5283C31.5456 48.4217 31.6256 48.2851 31.6632 48.1346L32.3219 45.5H34.9375C35.0868 45.5 35.2332 45.4589 35.3606 45.3811C35.4881 45.3034 35.5916 45.192 35.6599 45.0593C35.7282 44.9265 35.7587 44.7775 35.7479 44.6287C35.737 44.4798 35.6854 44.3367 35.5986 44.2152L34.1949 42.25H49.5625C49.778 42.25 49.9846 42.1644 50.137 42.012C50.2894 41.8596 50.375 41.653 50.375 41.4375V4.0625C50.375 3.84701 50.2894 3.64035 50.137 3.48798C49.9846 3.33561 49.778 3.25 49.5625 3.25ZM48.75 10.2259L43.3991 4.875H48.75V10.2259ZM7.78842 4.875L2.4375 10.2259V4.875H7.78842ZM2.4375 35.2741L7.78842 40.625H2.4375V35.2741ZM21.4865 46.0335L21.1007 44.4904C21.0568 44.3146 20.9553 44.1586 20.8125 44.0471C20.6697 43.9356 20.4937 43.875 20.3125 43.875H18.6414L20.9478 40.646C21.7108 41.5891 22.7216 42.3008 23.8668 42.7011L21.4865 46.0335ZM21.125 36.5625C21.125 35.5983 21.4109 34.6558 21.9466 33.8541C22.4823 33.0524 23.2436 32.4276 24.1344 32.0586C25.0252 31.6896 26.0054 31.5931 26.9511 31.7812C27.8967 31.9693 28.7654 32.4336 29.4471 33.1154C30.1289 33.7971 30.5932 34.6658 30.7813 35.6114C30.9694 36.5571 30.8729 37.5373 30.5039 38.4281C30.1349 39.3189 29.5101 40.0802 28.7084 40.6159C27.9067 41.1516 26.9642 41.4375 26 41.4375C24.7075 41.436 23.4684 40.922 22.5545 40.008C21.6405 39.0941 21.1265 37.855 21.125 36.5625ZM31.6875 43.875C31.5063 43.875 31.3303 43.9356 31.1875 44.0471C31.0447 44.1586 30.9432 44.3146 30.8993 44.4904L30.5135 46.0335L28.1332 42.7011C29.2784 42.3008 30.2892 41.5891 31.0522 40.646L33.3586 43.875H31.6875ZM31.9688 39.1335C32.3952 38.1446 32.5692 37.0653 32.4752 35.9926C32.3812 34.9198 32.0222 33.8873 31.4304 32.9876C30.8386 32.0879 30.0326 31.3494 29.0847 30.8384C28.1368 30.3273 27.0769 30.0598 26 30.0598C24.9231 30.0598 23.8632 30.3273 22.9153 30.8384C21.9674 31.3494 21.1614 32.0879 20.5696 32.9876C19.9778 33.8873 19.6188 34.9198 19.5248 35.9926C19.4308 37.0653 19.6048 38.1446 20.0312 39.1335L18.9658 40.625H10.0866L2.4375 32.9759V12.5241L10.0866 4.875H41.1009L48.75 12.5241V32.9759L41.1009 40.625H33.0342L31.9688 39.1335ZM43.3991 40.625L48.75 35.2741V40.625H43.3991Z" fill="#8CBD02"/>
<path d="M12.1875 34.9375H17.0625V36.5625H12.1875V34.9375Z" fill="#8CBD02"/>
<path d="M8.9375 34.9375H10.5625V36.5625H8.9375V34.9375Z" fill="#8CBD02"/>
<path d="M34.9375 34.9375H39.8125V36.5625H34.9375V34.9375Z" fill="#8CBD02"/>
<path d="M41.4375 34.9375H43.0625V36.5625H41.4375V34.9375Z" fill="#8CBD02"/>
<path d="M15.589 12.2076C15.9142 12.045 16.2472 11.8882 16.5789 11.7414L15.9213 10.2554C15.5665 10.4124 15.2102 10.5802 14.8622 10.7542L13.4492 11.4607L14.176 12.9141L15.589 12.2076Z" fill="#8CBD02"/>
<path d="M25.9996 9.75C28.6757 9.74871 31.3318 10.2101 33.8506 11.1138L34.3987 9.58397C28.9683 7.63868 23.031 7.63868 17.6006 9.58397L18.1487 11.1138C20.6675 10.2101 23.3236 9.74871 25.9996 9.75Z" fill="#8CBD02"/>
<path d="M37.8238 12.9141L38.5506 11.4607L37.1376 10.7542C36.7896 10.5802 36.4334 10.4124 36.0785 10.2554L35.4209 11.7414C35.7526 11.8882 36.0856 12.045 36.4108 12.2076L37.8238 12.9141Z" fill="#8CBD02"/>
<path d="M23.5625 13H28.4375V14.625H23.5625V13Z" fill="#8CBD02"/>
<path d="M15.4375 17.0625H21.125V18.6875H15.4375V17.0625Z" fill="#8CBD02"/>
<path d="M30.875 17.0625H36.5625V18.6875H30.875V17.0625Z" fill="#8CBD02"/>
<path d="M22.75 17.0625H29.25V18.6875H22.75V17.0625Z" fill="#8CBD02"/>
<path d="M9.75 21.125H12.1875V22.75H9.75V21.125Z" fill="#8CBD02"/>
<path d="M13.8125 21.125H25.1875V22.75H13.8125V21.125Z" fill="#8CBD02"/>
<path d="M39.8125 21.125H42.25V22.75H39.8125V21.125Z" fill="#8CBD02"/>
<path d="M26.8125 21.125H38.1875V22.75H26.8125V21.125Z" fill="#8CBD02"/>
<path d="M19.5 25.1875H32.5V26.8125H19.5V25.1875Z" fill="#8CBD02"/>
<path d="M22.75 36.5625H24.375C24.3755 36.1317 24.5469 35.7186 24.8515 35.414C25.1561 35.1094 25.5692 34.938 26 34.9375V33.3125C25.1383 33.3135 24.3123 33.6562 23.703 34.2655C23.0937 34.8748 22.751 35.7008 22.75 36.5625Z" fill="#8CBD02"/>
</svg>
