<svg width="295" height="61" viewBox="0 0 295 61" fill="none" xmlns="http://www.w3.org/2000/svg">
<g filter="url(#filter0_d)">
<rect x="4" y="0.0996094" width="287" height="52" rx="26" fill="url(#paint0_linear)"/>
</g>
<path d="M63.3875 34.2C62.5875 34.2 61.8742 34.02 61.2475 33.66C60.6209 33.3 60.1275 32.8067 59.7675 32.18V34H57.4275V19.4H60.1075V25.36C60.4809 24.72 60.9675 24.2267 61.5675 23.88C62.1809 23.52 62.8942 23.34 63.7075 23.34C64.3875 23.34 65.0075 23.4867 65.5675 23.78C66.1275 24.0733 66.6075 24.4667 67.0075 24.96C67.4209 25.4533 67.7342 26.0333 67.9475 26.7C68.1742 27.3667 68.2875 28.0667 68.2875 28.8C68.2875 29.56 68.1609 30.2667 67.9075 30.92C67.6675 31.5733 67.3275 32.1467 66.8875 32.64C66.4475 33.12 65.9275 33.5 65.3275 33.78C64.7275 34.06 64.0809 34.2 63.3875 34.2ZM62.6475 31.92C63.0742 31.92 63.4675 31.84 63.8275 31.68C64.1875 31.5067 64.4942 31.28 64.7475 31C65.0009 30.72 65.1942 30.3933 65.3275 30.02C65.4742 29.6467 65.5475 29.2467 65.5475 28.82C65.5475 28.3933 65.4809 27.9867 65.3475 27.6C65.2142 27.2133 65.0209 26.8733 64.7675 26.58C64.5275 26.2867 64.2409 26.0533 63.9075 25.88C63.5742 25.7067 63.2075 25.62 62.8075 25.62C62.2075 25.62 61.6675 25.82 61.1875 26.22C60.7209 26.6067 60.3609 27.0867 60.1075 27.66V30.16C60.2009 30.4267 60.3342 30.6667 60.5075 30.88C60.6942 31.0933 60.9009 31.28 61.1275 31.44C61.3542 31.5867 61.6009 31.7067 61.8675 31.8C62.1342 31.88 62.3942 31.92 62.6475 31.92ZM74.9433 34.2C74.09 34.2 73.3233 34.0533 72.6433 33.76C71.9633 33.4667 71.3833 33.0733 70.9033 32.58C70.4366 32.0733 70.0766 31.4933 69.8233 30.84C69.57 30.1867 69.4433 29.5 69.4433 28.78C69.4433 28.0467 69.57 27.3533 69.8233 26.7C70.0766 26.0467 70.4366 25.4733 70.9033 24.98C71.3833 24.4733 71.9633 24.0733 72.6433 23.78C73.3233 23.4867 74.09 23.34 74.9433 23.34C75.7966 23.34 76.5566 23.4867 77.2233 23.78C77.9033 24.0733 78.4766 24.4733 78.9433 24.98C79.4233 25.4733 79.79 26.0467 80.0433 26.7C80.2966 27.3533 80.4233 28.0467 80.4233 28.78C80.4233 29.5 80.2966 30.1867 80.0433 30.84C79.79 31.4933 79.43 32.0733 78.9633 32.58C78.4966 33.0733 77.9233 33.4667 77.2433 33.76C76.5633 34.0533 75.7966 34.2 74.9433 34.2ZM72.2033 28.78C72.2033 29.2467 72.27 29.6733 72.4033 30.06C72.55 30.4333 72.7433 30.76 72.9833 31.04C73.2366 31.32 73.53 31.54 73.8633 31.7C74.1966 31.8467 74.5566 31.92 74.9433 31.92C75.33 31.92 75.69 31.8467 76.0233 31.7C76.3566 31.54 76.6433 31.32 76.8833 31.04C77.1366 30.76 77.33 30.4267 77.4633 30.04C77.61 29.6533 77.6833 29.2267 77.6833 28.76C77.6833 28.3067 77.61 27.8867 77.4633 27.5C77.33 27.1133 77.1366 26.78 76.8833 26.5C76.6433 26.22 76.3566 26.0067 76.0233 25.86C75.69 25.7 75.33 25.62 74.9433 25.62C74.5566 25.62 74.1966 25.7 73.8633 25.86C73.53 26.02 73.2366 26.24 72.9833 26.52C72.7433 26.8 72.55 27.1333 72.4033 27.52C72.27 27.9067 72.2033 28.3267 72.2033 28.78ZM87.0722 34.2C86.2189 34.2 85.4522 34.0533 84.7722 33.76C84.0922 33.4667 83.5122 33.0733 83.0322 32.58C82.5655 32.0733 82.2055 31.4933 81.9522 30.84C81.6989 30.1867 81.5722 29.5 81.5722 28.78C81.5722 28.0467 81.6989 27.3533 81.9522 26.7C82.2055 26.0467 82.5655 25.4733 83.0322 24.98C83.5122 24.4733 84.0922 24.0733 84.7722 23.78C85.4522 23.4867 86.2189 23.34 87.0722 23.34C87.9255 23.34 88.6855 23.4867 89.3522 23.78C90.0322 24.0733 90.6055 24.4733 91.0722 24.98C91.5522 25.4733 91.9189 26.0467 92.1722 26.7C92.4255 27.3533 92.5522 28.0467 92.5522 28.78C92.5522 29.5 92.4255 30.1867 92.1722 30.84C91.9189 31.4933 91.5589 32.0733 91.0922 32.58C90.6255 33.0733 90.0522 33.4667 89.3722 33.76C88.6922 34.0533 87.9255 34.2 87.0722 34.2ZM84.3322 28.78C84.3322 29.2467 84.3989 29.6733 84.5322 30.06C84.6789 30.4333 84.8722 30.76 85.1122 31.04C85.3655 31.32 85.6589 31.54 85.9922 31.7C86.3255 31.8467 86.6855 31.92 87.0722 31.92C87.4589 31.92 87.8189 31.8467 88.1522 31.7C88.4855 31.54 88.7722 31.32 89.0122 31.04C89.2655 30.76 89.4589 30.4267 89.5922 30.04C89.7389 29.6533 89.8122 29.2267 89.8122 28.76C89.8122 28.3067 89.7389 27.8867 89.5922 27.5C89.4589 27.1133 89.2655 26.78 89.0122 26.5C88.7722 26.22 88.4855 26.0067 88.1522 25.86C87.8189 25.7 87.4589 25.62 87.0722 25.62C86.6855 25.62 86.3255 25.7 85.9922 25.86C85.6589 26.02 85.3655 26.24 85.1122 26.52C84.8722 26.8 84.6789 27.1333 84.5322 27.52C84.3989 27.9067 84.3322 28.3267 84.3322 28.78ZM101.521 34L98.4811 29.46L97.0411 30.88V34H94.3611V19.4H97.0411V28.26L101.241 23.54H104.101L100.201 27.98L104.381 34H101.521ZM105.493 19.4H108.173V30.64C108.173 31.0267 108.267 31.3267 108.453 31.54C108.64 31.7533 108.907 31.86 109.253 31.86C109.413 31.86 109.587 31.8333 109.773 31.78C109.973 31.7267 110.16 31.66 110.333 31.58L110.693 33.62C110.333 33.7933 109.913 33.9267 109.433 34.02C108.953 34.1133 108.52 34.16 108.133 34.16C107.293 34.16 106.64 33.94 106.173 33.5C105.72 33.0467 105.493 32.4067 105.493 31.58V19.4ZM116.721 34.2C115.881 34.2 115.121 34.06 114.441 33.78C113.761 33.4867 113.181 33.0933 112.701 32.6C112.221 32.1067 111.848 31.5333 111.581 30.88C111.328 30.2267 111.201 29.54 111.201 28.82C111.201 28.0733 111.328 27.3733 111.581 26.72C111.834 26.0533 112.201 25.4733 112.681 24.98C113.161 24.4733 113.741 24.0733 114.421 23.78C115.114 23.4867 115.888 23.34 116.741 23.34C117.594 23.34 118.354 23.4867 119.021 23.78C119.701 24.0733 120.274 24.4667 120.741 24.96C121.221 25.4533 121.581 26.0267 121.821 26.68C122.074 27.3333 122.201 28.0133 122.201 28.72C122.201 28.8933 122.194 29.06 122.181 29.22C122.181 29.38 122.168 29.5133 122.141 29.62H114.041C114.081 30.0333 114.181 30.4 114.341 30.72C114.501 31.04 114.708 31.3133 114.961 31.54C115.214 31.7667 115.501 31.94 115.821 32.06C116.141 32.18 116.474 32.24 116.821 32.24C117.354 32.24 117.854 32.1133 118.321 31.86C118.801 31.5933 119.128 31.2467 119.301 30.82L121.601 31.46C121.214 32.26 120.594 32.92 119.741 33.44C118.901 33.9467 117.894 34.2 116.721 34.2ZM119.441 27.88C119.374 27.0933 119.081 26.4667 118.561 26C118.054 25.52 117.434 25.28 116.701 25.28C116.341 25.28 116.001 25.3467 115.681 25.48C115.374 25.6 115.101 25.7733 114.861 26C114.621 26.2267 114.421 26.5 114.261 26.82C114.114 27.14 114.028 27.4933 114.001 27.88H119.441ZM130.036 33.46C129.676 33.62 129.236 33.78 128.716 33.94C128.196 34.1 127.649 34.18 127.076 34.18C126.702 34.18 126.349 34.1333 126.016 34.04C125.696 33.9467 125.409 33.8 125.156 33.6C124.916 33.3867 124.722 33.12 124.576 32.8C124.429 32.4667 124.356 32.0667 124.356 31.6V25.58H122.976V23.52H124.356V20.12H127.036V23.52H129.236V25.58H127.036V30.7C127.036 31.0733 127.129 31.34 127.316 31.5C127.516 31.6467 127.756 31.72 128.036 31.72C128.316 31.72 128.589 31.6733 128.856 31.58C129.122 31.4867 129.336 31.4067 129.496 31.34L130.036 33.46ZM141.076 34.2C140.223 34.2 139.456 34.0533 138.776 33.76C138.096 33.4667 137.516 33.0733 137.036 32.58C136.569 32.0733 136.209 31.4933 135.956 30.84C135.703 30.1867 135.576 29.5 135.576 28.78C135.576 28.0467 135.703 27.3533 135.956 26.7C136.209 26.0467 136.569 25.4733 137.036 24.98C137.516 24.4733 138.096 24.0733 138.776 23.78C139.456 23.4867 140.223 23.34 141.076 23.34C141.929 23.34 142.689 23.4867 143.356 23.78C144.036 24.0733 144.609 24.4733 145.076 24.98C145.556 25.4733 145.923 26.0467 146.176 26.7C146.429 27.3533 146.556 28.0467 146.556 28.78C146.556 29.5 146.429 30.1867 146.176 30.84C145.923 31.4933 145.563 32.0733 145.096 32.58C144.629 33.0733 144.056 33.4667 143.376 33.76C142.696 34.0533 141.929 34.2 141.076 34.2ZM138.336 28.78C138.336 29.2467 138.403 29.6733 138.536 30.06C138.683 30.4333 138.876 30.76 139.116 31.04C139.369 31.32 139.663 31.54 139.996 31.7C140.329 31.8467 140.689 31.92 141.076 31.92C141.463 31.92 141.823 31.8467 142.156 31.7C142.489 31.54 142.776 31.32 143.016 31.04C143.269 30.76 143.463 30.4267 143.596 30.04C143.743 29.6533 143.816 29.2267 143.816 28.76C143.816 28.3067 143.743 27.8867 143.596 27.5C143.463 27.1133 143.269 26.78 143.016 26.5C142.776 26.22 142.489 26.0067 142.156 25.86C141.823 25.7 141.463 25.62 141.076 25.62C140.689 25.62 140.329 25.7 139.996 25.86C139.663 26.02 139.369 26.24 139.116 26.52C138.876 26.8 138.683 27.1333 138.536 27.52C138.403 27.9067 138.336 28.3267 138.336 28.78ZM148.849 34V26.12H147.469V24.08H148.849V23.44C148.849 22.1333 149.162 21.1 149.789 20.34C150.415 19.58 151.269 19.2 152.349 19.2C153.202 19.2 154.062 19.4067 154.929 19.82L154.389 21.84C154.189 21.7333 153.949 21.6467 153.669 21.58C153.402 21.5 153.155 21.46 152.929 21.46C151.995 21.46 151.529 22.0867 151.529 23.34V24.08H154.089V26.12H151.529V34H148.849ZM160.246 34V19.8H166.266C166.919 19.8 167.519 19.94 168.066 20.22C168.626 20.4867 169.106 20.8467 169.506 21.3C169.906 21.74 170.219 22.2467 170.446 22.82C170.673 23.38 170.786 23.9467 170.786 24.52C170.786 25.12 170.679 25.7067 170.466 26.28C170.253 26.84 169.953 27.34 169.566 27.78C169.179 28.22 168.713 28.5733 168.166 28.84C167.619 29.1067 167.019 29.24 166.366 29.24H163.006V34H160.246ZM163.006 26.82H166.206C166.713 26.82 167.133 26.6133 167.466 26.2C167.813 25.7867 167.986 25.2267 167.986 24.52C167.986 24.16 167.933 23.84 167.826 23.56C167.719 23.2667 167.579 23.02 167.406 22.82C167.233 22.62 167.026 22.4733 166.786 22.38C166.559 22.2733 166.326 22.22 166.086 22.22H163.006V26.82ZM175.209 34.2C174.703 34.2 174.229 34.12 173.789 33.96C173.349 33.7867 172.969 33.5533 172.649 33.26C172.329 32.9533 172.076 32.6 171.889 32.2C171.716 31.8 171.629 31.36 171.629 30.88C171.629 30.3867 171.736 29.9333 171.949 29.52C172.176 29.0933 172.483 28.7333 172.869 28.44C173.269 28.1467 173.743 27.92 174.289 27.76C174.836 27.5867 175.436 27.5 176.089 27.5C176.556 27.5 177.009 27.54 177.449 27.62C177.903 27.7 178.303 27.8133 178.649 27.96V27.36C178.649 26.6667 178.449 26.1333 178.049 25.76C177.663 25.3867 177.083 25.2 176.309 25.2C175.749 25.2 175.203 25.3 174.669 25.5C174.136 25.7 173.589 25.9933 173.029 26.38L172.209 24.68C173.556 23.7867 175.009 23.34 176.569 23.34C178.076 23.34 179.243 23.7133 180.069 24.46C180.909 25.1933 181.329 26.26 181.329 27.66V30.92C181.329 31.2 181.376 31.4 181.469 31.52C181.576 31.64 181.743 31.7067 181.969 31.72V34C181.516 34.0933 181.123 34.14 180.789 34.14C180.283 34.14 179.889 34.0267 179.609 33.8C179.343 33.5733 179.176 33.2733 179.109 32.9L179.049 32.32C178.583 32.9333 178.016 33.4 177.349 33.72C176.683 34.04 175.969 34.2 175.209 34.2ZM175.969 32.24C176.423 32.24 176.849 32.16 177.249 32C177.663 31.84 177.983 31.6267 178.209 31.36C178.503 31.1333 178.649 30.88 178.649 30.6V29.4C178.329 29.28 177.983 29.1867 177.609 29.12C177.236 29.04 176.876 29 176.529 29C175.836 29 175.269 29.16 174.829 29.48C174.389 29.7867 174.169 30.18 174.169 30.66C174.169 31.1133 174.343 31.4933 174.689 31.8C175.036 32.0933 175.463 32.24 175.969 32.24ZM187.034 34.2C185.954 34.2 185.134 33.8533 184.574 33.16C184.014 32.4667 183.734 31.44 183.734 30.08V23.52H186.414V29.5C186.414 31.1133 186.994 31.92 188.154 31.92C188.674 31.92 189.174 31.7667 189.654 31.46C190.147 31.14 190.547 30.66 190.854 30.02V23.52H193.534V30.92C193.534 31.2 193.58 31.4 193.674 31.52C193.78 31.64 193.947 31.7067 194.174 31.72V34C193.907 34.0533 193.68 34.0867 193.494 34.1C193.32 34.1133 193.16 34.12 193.014 34.12C192.534 34.12 192.14 34.0133 191.834 33.8C191.54 33.5733 191.367 33.2667 191.314 32.88L191.254 32.04C190.787 32.76 190.187 33.3 189.454 33.66C188.72 34.02 187.914 34.2 187.034 34.2ZM196.177 19.4H198.857V30.64C198.857 31.0267 198.95 31.3267 199.137 31.54C199.324 31.7533 199.59 31.86 199.937 31.86C200.097 31.86 200.27 31.8333 200.457 31.78C200.657 31.7267 200.844 31.66 201.017 31.58L201.377 33.62C201.017 33.7933 200.597 33.9267 200.117 34.02C199.637 34.1133 199.204 34.16 198.817 34.16C197.977 34.16 197.324 33.94 196.857 33.5C196.404 33.0467 196.177 32.4067 196.177 31.58V19.4ZM207.385 34.2C206.531 34.2 205.765 34.0533 205.085 33.76C204.405 33.4667 203.825 33.0733 203.345 32.58C202.878 32.0733 202.518 31.4933 202.265 30.84C202.011 30.1867 201.885 29.5 201.885 28.78C201.885 28.0467 202.011 27.3533 202.265 26.7C202.518 26.0467 202.878 25.4733 203.345 24.98C203.825 24.4733 204.405 24.0733 205.085 23.78C205.765 23.4867 206.531 23.34 207.385 23.34C208.238 23.34 208.998 23.4867 209.665 23.78C210.345 24.0733 210.918 24.4733 211.385 24.98C211.865 25.4733 212.231 26.0467 212.485 26.7C212.738 27.3533 212.865 28.0467 212.865 28.78C212.865 29.5 212.738 30.1867 212.485 30.84C212.231 31.4933 211.871 32.0733 211.405 32.58C210.938 33.0733 210.365 33.4667 209.685 33.76C209.005 34.0533 208.238 34.2 207.385 34.2ZM204.645 28.78C204.645 29.2467 204.711 29.6733 204.845 30.06C204.991 30.4333 205.185 30.76 205.425 31.04C205.678 31.32 205.971 31.54 206.305 31.7C206.638 31.8467 206.998 31.92 207.385 31.92C207.771 31.92 208.131 31.8467 208.465 31.7C208.798 31.54 209.085 31.32 209.325 31.04C209.578 30.76 209.771 30.4267 209.905 30.04C210.051 29.6533 210.125 29.2267 210.125 28.76C210.125 28.3067 210.051 27.8867 209.905 27.5C209.771 27.1133 209.578 26.78 209.325 26.5C209.085 26.22 208.798 26.0067 208.465 25.86C208.131 25.7 207.771 25.62 207.385 25.62C206.998 25.62 206.638 25.7 206.305 25.86C205.971 26.02 205.678 26.24 205.425 26.52C205.185 26.8 204.991 27.1333 204.845 27.52C204.711 27.9067 204.645 28.3267 204.645 28.78ZM227.303 23.52H229.843L225.463 34H223.263L221.463 29.4L219.683 34H217.483L213.123 23.52H215.643L218.763 31.48L220.043 28.08L218.203 23.54H220.363L221.463 26.76L222.583 23.54H224.743L222.923 28.08L224.183 31.48L227.303 23.52ZM240.82 34H238.14V28.12C238.14 27.28 237.993 26.6667 237.7 26.28C237.407 25.8933 237 25.7 236.48 25.7C236.213 25.7 235.94 25.7533 235.66 25.86C235.38 25.9667 235.113 26.12 234.86 26.32C234.62 26.5067 234.4 26.7333 234.2 27C234 27.2667 233.853 27.56 233.76 27.88V34H231.08V23.52H233.5V25.46C233.887 24.7933 234.447 24.2733 235.18 23.9C235.913 23.5267 236.74 23.34 237.66 23.34C238.313 23.34 238.847 23.46 239.26 23.7C239.673 23.94 239.993 24.2533 240.22 24.64C240.447 25.0267 240.6 25.4667 240.68 25.96C240.773 26.4533 240.82 26.9533 240.82 27.46V34ZM243.15 34V23.52H245.83V34H243.15ZM243.15 22.06V19.4H245.83V22.06H243.15ZM251.108 34.2C250.601 34.2 250.128 34.12 249.688 33.96C249.248 33.7867 248.868 33.5533 248.548 33.26C248.228 32.9533 247.974 32.6 247.788 32.2C247.614 31.8 247.528 31.36 247.528 30.88C247.528 30.3867 247.634 29.9333 247.848 29.52C248.074 29.0933 248.381 28.7333 248.768 28.44C249.168 28.1467 249.641 27.92 250.188 27.76C250.734 27.5867 251.334 27.5 251.988 27.5C252.454 27.5 252.908 27.54 253.348 27.62C253.801 27.7 254.201 27.8133 254.548 27.96V27.36C254.548 26.6667 254.348 26.1333 253.948 25.76C253.561 25.3867 252.981 25.2 252.208 25.2C251.648 25.2 251.101 25.3 250.568 25.5C250.034 25.7 249.488 25.9933 248.928 26.38L248.108 24.68C249.454 23.7867 250.908 23.34 252.468 23.34C253.974 23.34 255.141 23.7133 255.968 24.46C256.808 25.1933 257.228 26.26 257.228 27.66V30.92C257.228 31.2 257.274 31.4 257.368 31.52C257.474 31.64 257.641 31.7067 257.868 31.72V34C257.414 34.0933 257.021 34.14 256.688 34.14C256.181 34.14 255.788 34.0267 255.508 33.8C255.241 33.5733 255.074 33.2733 255.008 32.9L254.948 32.32C254.481 32.9333 253.914 33.4 253.248 33.72C252.581 34.04 251.868 34.2 251.108 34.2ZM251.868 32.24C252.321 32.24 252.748 32.16 253.148 32C253.561 31.84 253.881 31.6267 254.108 31.36C254.401 31.1333 254.548 30.88 254.548 30.6V29.4C254.228 29.28 253.881 29.1867 253.508 29.12C253.134 29.04 252.774 29 252.428 29C251.734 29 251.168 29.16 250.728 29.48C250.288 29.7867 250.068 30.18 250.068 30.66C250.068 31.1133 250.241 31.4933 250.588 31.8C250.934 32.0933 251.361 32.24 251.868 32.24Z" fill="white"/>
<mask id="path-3-inside-1" fill="white">
<path d="M51.1377 27.9808C50.8657 27.9808 50.6481 28.1679 50.6481 28.4017V32.2303C50.6481 33.2716 49.6617 34.1165 48.454 34.1165H37.7123C36.501 34.1165 35.5182 33.2685 35.5182 32.2303V28.3393C35.5182 28.1055 35.3006 27.9185 35.0286 27.9185C34.7567 27.9185 34.5391 28.1055 34.5391 28.3393V32.2303C34.5391 33.7361 35.9643 34.9583 37.7123 34.9583H48.454C50.2056 34.9583 51.6272 33.733 51.6272 32.2303V28.4017C51.6272 28.171 51.4097 27.9808 51.1377 27.9808Z"/>
</mask>
<path d="M51.1377 26.9808C50.4606 26.9808 49.6481 27.4791 49.6481 28.4017H51.6481C51.6481 28.611 51.5475 28.7718 51.4428 28.8619C51.3409 28.9495 51.2289 28.9808 51.1377 28.9808V26.9808ZM49.6481 28.4017V32.2303H51.6481V28.4017H49.6481ZM49.6481 32.2303C49.6481 32.5818 49.2577 33.1165 48.454 33.1165V35.1165C50.0656 35.1165 51.6481 33.9613 51.6481 32.2303H49.6481ZM48.454 33.1165H37.7123V35.1165H48.454V33.1165ZM37.7123 33.1165C36.9072 33.1165 36.5182 32.5806 36.5182 32.2303H34.5182C34.5182 33.9563 36.0948 35.1165 37.7123 35.1165V33.1165ZM36.5182 32.2303V28.3393H34.5182V32.2303H36.5182ZM36.5182 28.3393C36.5182 27.4167 35.7057 26.9185 35.0286 26.9185V28.9185C34.9374 28.9185 34.8254 28.8871 34.7235 28.7995C34.6188 28.7095 34.5182 28.5486 34.5182 28.3393H36.5182ZM35.0286 26.9185C34.3516 26.9185 33.5391 27.4167 33.5391 28.3393H35.5391C35.5391 28.5486 35.4385 28.7095 35.3338 28.7995C35.2319 28.8871 35.1199 28.9185 35.0286 28.9185V26.9185ZM33.5391 28.3393V32.2303H35.5391V28.3393H33.5391ZM33.5391 32.2303C33.5391 34.4256 35.56 35.9583 37.7123 35.9583V33.9583C36.3686 33.9583 35.5391 33.0466 35.5391 32.2303H33.5391ZM37.7123 35.9583H48.454V33.9583H37.7123V35.9583ZM48.454 35.9583C50.6115 35.9583 52.6272 34.4211 52.6272 32.2303H50.6272C50.6272 33.0449 49.7998 33.9583 48.454 33.9583V35.9583ZM52.6272 32.2303V28.4017H50.6272V32.2303H52.6272ZM52.6272 28.4017C52.6272 27.4866 51.8198 26.9808 51.1377 26.9808V28.9808C51.0421 28.9808 50.9302 28.9474 50.8306 28.8614C50.7298 28.7742 50.6272 28.615 50.6272 28.4017H52.6272Z" fill="white" mask="url(#path-3-inside-1)"/>
<mask id="path-5-inside-2" fill="white">
<path d="M42.7384 31.6158C42.8327 31.6968 42.9596 31.7405 43.0829 31.7405C43.2062 31.7405 43.3331 31.7 43.4274 31.6158L46.539 28.941C46.7312 28.7758 46.7312 28.5108 46.539 28.3456C46.3468 28.1803 46.0386 28.1803 45.8464 28.3456L43.5725 30.3033V21.7646C43.5725 21.5308 43.3549 21.3438 43.0829 21.3438C42.8109 21.3438 42.5933 21.5308 42.5933 21.7646V30.3033L40.3158 28.3456C40.1236 28.1803 39.8154 28.1803 39.6232 28.3456C39.431 28.5108 39.431 28.7758 39.6232 28.941L42.7384 31.6158Z"/>
</mask>
<path d="M42.7384 31.6158L43.3903 30.8575L43.3898 30.8571L42.7384 31.6158ZM43.4274 31.6158L42.7756 30.8575L42.7685 30.8635L42.7615 30.8698L43.4274 31.6158ZM46.539 28.941L47.1909 29.6993L46.539 28.941ZM45.8464 28.3456L45.1945 27.5872L45.1939 27.5877L45.8464 28.3456ZM43.5725 30.3033H42.5725V32.4839L44.225 31.0611L43.5725 30.3033ZM42.5933 30.3033L41.9414 31.0617L43.5933 32.4816V30.3033H42.5933ZM40.3158 28.3456L39.664 29.1039L39.664 29.1039L40.3158 28.3456ZM39.6232 28.941L38.9713 29.6993L38.9717 29.6997L39.6232 28.941ZM42.0865 32.3741C42.375 32.6221 42.7378 32.7405 43.0829 32.7405V30.7405C43.1814 30.7405 43.2904 30.7716 43.3903 30.8575L42.0865 32.3741ZM43.0829 32.7405C43.4115 32.7405 43.7878 32.6345 44.0934 32.3618L42.7615 30.8698C42.8785 30.7654 43.0009 30.7405 43.0829 30.7405V32.7405ZM44.0793 32.3741L47.1909 29.6993L45.8872 28.1827L42.7756 30.8575L44.0793 32.3741ZM47.1909 29.6993C47.8473 29.1351 47.8473 28.1515 47.1909 27.5872L45.8872 29.1039C45.7763 29.0086 45.6832 28.8452 45.6832 28.6433C45.6832 28.4413 45.7763 28.2779 45.8872 28.1827L47.1909 29.6993ZM47.1909 27.5872C46.6238 27.0998 45.7615 27.0998 45.1945 27.5872L46.4982 29.1039C46.3941 29.1934 46.2806 29.2216 46.1927 29.2216C46.1047 29.2216 45.9913 29.1934 45.8872 29.1039L47.1909 27.5872ZM45.1939 27.5877L42.92 29.5455L44.225 31.0611L46.4988 29.1034L45.1939 27.5877ZM44.5725 30.3033V21.7646H42.5725V30.3033H44.5725ZM44.5725 21.7646C44.5725 20.8419 43.7599 20.3438 43.0829 20.3438V22.3438C42.9917 22.3438 42.8797 22.3124 42.7778 22.2248C42.6731 22.1348 42.5725 21.9739 42.5725 21.7646H44.5725ZM43.0829 20.3438C42.4059 20.3438 41.5933 20.8419 41.5933 21.7646H43.5933C43.5933 21.9739 43.4928 22.1348 43.388 22.2248C43.2861 22.3124 43.1741 22.3438 43.0829 22.3438V20.3438ZM41.5933 21.7646V30.3033H43.5933V21.7646H41.5933ZM43.2452 29.545L40.9677 27.5872L39.664 29.1039L41.9414 31.0617L43.2452 29.545ZM40.9677 27.5872C40.4006 27.0998 39.5383 27.0998 38.9713 27.5872L40.275 29.1039C40.1709 29.1934 40.0575 29.2216 39.9695 29.2216C39.8815 29.2216 39.7681 29.1934 39.664 29.1039L40.9677 27.5872ZM38.9713 27.5872C38.3149 28.1515 38.3149 29.1351 38.9713 29.6993L40.275 28.1827C40.3859 28.2779 40.479 28.4413 40.479 28.6433C40.479 28.8452 40.3859 29.0086 40.275 29.1039L38.9713 27.5872ZM38.9717 29.6997L42.0869 32.3745L43.3898 30.8571L40.2746 28.1823L38.9717 29.6997Z" fill="white" mask="url(#path-5-inside-2)"/>
<defs>
<filter id="filter0_d" x="0" y="0.0996094" width="295" height="60" filterUnits="userSpaceOnUse" color-interpolation-filters="sRGB">
<feFlood flood-opacity="0" result="BackgroundImageFix"/>
<feColorMatrix in="SourceAlpha" type="matrix" values="0 0 0 0 0 0 0 0 0 0 0 0 0 0 0 0 0 0 127 0"/>
<feOffset dy="4"/>
<feGaussianBlur stdDeviation="2"/>
<feColorMatrix type="matrix" values="0 0 0 0 0 0 0 0 0 0 0 0 0 0 0 0 0 0 0.25 0"/>
<feBlend mode="normal" in2="BackgroundImageFix" result="effect1_dropShadow"/>
<feBlend mode="normal" in="SourceGraphic" in2="effect1_dropShadow" result="shape"/>
</filter>
<linearGradient id="paint0_linear" x1="3.99999" y1="1.69299e-05" x2="234.331" y2="104.137" gradientUnits="userSpaceOnUse">
<stop stop-color="#8CBD02"/>
<stop offset="1" stop-color="#68A648"/>
</linearGradient>
</defs>
</svg>
