<svg width="17" height="14" viewBox="0 0 17 14" fill="none" xmlns="http://www.w3.org/2000/svg">
    <mask id="path-1-inside-1" fill="white">
        <path d="M15.7107 6.8812C15.4635 6.8812 15.2657 7.06826 15.2657 7.30209V11.1306C15.2657 12.172 14.369 13.0169 13.2712 13.0169H3.50662C2.40554 13.0169 1.51216 12.1688 1.51216 11.1306V7.23974C1.51216 7.00591 1.31436 6.81885 1.06711 6.81885C0.819868 6.81885 0.62207 7.00591 0.62207 7.23974V11.1306C0.62207 12.6365 1.91764 13.8586 3.50662 13.8586H13.2712C14.8635 13.8586 16.1558 12.6334 16.1558 11.1306V7.30209C16.1558 7.07138 15.958 6.8812 15.7107 6.8812Z"/>
    </mask>
    <path d="M15.7107 5.8812C14.9645 5.8812 14.2657 6.46414 14.2657 7.30209H16.2657C16.2657 7.67239 15.9624 7.8812 15.7107 7.8812V5.8812ZM14.2657 7.30209V11.1306H16.2657V7.30209H14.2657ZM14.2657 11.1306C14.2657 11.5668 13.8711 12.0169 13.2712 12.0169V14.0169C14.8669 14.0169 16.2657 12.7771 16.2657 11.1306H14.2657ZM13.2712 12.0169H3.50662V14.0169H13.2712V12.0169ZM3.50662 12.0169C2.90562 12.0169 2.51216 11.5658 2.51216 11.1306H0.512159C0.512159 12.7719 1.90546 14.0169 3.50662 14.0169V12.0169ZM2.51216 11.1306V7.23974H0.512159V11.1306H2.51216ZM2.51216 7.23974C2.51216 6.40178 1.81334 5.81885 1.06711 5.81885V7.81885C0.815384 7.81885 0.512159 7.61004 0.512159 7.23974H2.51216ZM1.06711 5.81885C0.32089 5.81885 -0.37793 6.40178 -0.37793 7.23974H1.62207C1.62207 7.61004 1.31885 7.81885 1.06711 7.81885V5.81885ZM-0.37793 7.23974V11.1306H1.62207V7.23974H-0.37793ZM-0.37793 11.1306C-0.37793 13.2413 1.41943 14.8586 3.50662 14.8586V12.8586C2.41586 12.8586 1.62207 12.0317 1.62207 11.1306H-0.37793ZM3.50662 14.8586H13.2712V12.8586H3.50662V14.8586ZM13.2712 14.8586C15.3632 14.8586 17.1558 13.2368 17.1558 11.1306H15.1558C15.1558 12.03 14.3637 12.8586 13.2712 12.8586V14.8586ZM17.1558 11.1306V7.30209H15.1558V11.1306H17.1558ZM17.1558 7.30209C17.1558 6.47194 16.4619 5.8812 15.7107 5.8812V7.8812C15.454 7.8812 15.1558 7.67082 15.1558 7.30209H17.1558Z" fill="#8CBD02" mask="url(#path-1-inside-1)"/>
    <mask id="path-3-inside-2" fill="white">
        <path d="M8.07518 10.5162C8.1609 10.5972 8.27628 10.6409 8.38837 10.6409C8.50045 10.6409 8.61584 10.6003 8.70155 10.5162L11.5301 7.84139C11.7048 7.67617 11.7048 7.41118 11.5301 7.24596C11.3554 7.08073 11.0752 7.08073 10.9004 7.24596L8.83342 9.20372V0.664998C8.83342 0.431188 8.63562 0.244141 8.38837 0.244141C8.14112 0.244141 7.94332 0.431188 7.94332 0.664998V9.20372L5.87301 7.24596C5.69829 7.08073 5.41807 7.08073 5.24335 7.24596C5.06862 7.41118 5.06862 7.67617 5.24335 7.84139L8.07518 10.5162Z"/>
    </mask>
    <path d="M8.07518 10.5162L8.76227 9.78959L8.76184 9.78919L8.07518 10.5162ZM8.70155 10.5162L8.01447 9.78959L8.00762 9.79607L8.00089 9.80268L8.70155 10.5162ZM11.5301 7.84139L12.2172 8.56797L11.5301 7.84139ZM10.9004 7.24596L10.2133 6.51938L10.2128 6.51992L10.9004 7.24596ZM8.83342 9.20372H7.83342V11.5282L9.52108 9.92975L8.83342 9.20372ZM7.94332 9.20372L7.25623 9.9303L8.94332 11.5257V9.20372H7.94332ZM5.87301 7.24596L5.18593 7.97254H5.18593L5.87301 7.24596ZM5.24335 7.84139L4.55626 8.56797L4.55669 8.56837L5.24335 7.84139ZM7.3881 11.2428C7.6641 11.5037 8.02714 11.6409 8.38837 11.6409V9.64087C8.52542 9.64087 8.65769 9.6907 8.76227 9.78959L7.3881 11.2428ZM8.38837 11.6409C8.73273 11.6409 9.10927 11.5173 9.40221 11.2297L8.00089 9.80268C8.1224 9.68335 8.26818 9.64087 8.38837 9.64087V11.6409ZM9.38863 11.2428L12.2172 8.56797L10.843 7.11481L8.01447 9.78959L9.38863 11.2428ZM12.2172 8.56797C12.8091 8.0082 12.8091 7.07914 12.2172 6.51938L10.843 7.97254C10.6005 7.74322 10.6005 7.34413 10.843 7.11481L12.2172 8.56797ZM12.2172 6.51938C11.6569 5.98959 10.7736 5.98959 10.2133 6.51938L11.5875 7.97254C11.3767 8.17187 11.0538 8.17187 10.843 7.97254L12.2172 6.51938ZM10.2128 6.51992L8.14576 8.47769L9.52108 9.92975L11.5881 7.97199L10.2128 6.51992ZM9.83342 9.20372V0.664998H7.83342V9.20372H9.83342ZM9.83342 0.664998C9.83342 -0.173023 9.1345 -0.755859 8.38837 -0.755859V1.24414C8.13673 1.24414 7.83342 1.0354 7.83342 0.664998H9.83342ZM8.38837 -0.755859C7.64223 -0.755859 6.94332 -0.173023 6.94332 0.664998H8.94332C8.94332 1.0354 8.64 1.24414 8.38837 1.24414V-0.755859ZM6.94332 0.664998V9.20372H8.94332V0.664998H6.94332ZM8.6304 8.47714L6.56009 6.51938L5.18593 7.97254L7.25623 9.9303L8.6304 8.47714ZM6.56009 6.51938C5.99985 5.98959 5.11651 5.98959 4.55626 6.51938L5.93043 7.97254C5.71964 8.17187 5.39672 8.17187 5.18593 7.97254L6.56009 6.51938ZM4.55626 6.51938C3.96432 7.07914 3.96432 8.0082 4.55626 8.56797L5.93043 7.11481C6.17293 7.34413 6.17293 7.74322 5.93043 7.97254L4.55626 6.51938ZM4.55669 8.56837L7.38852 11.2431L8.76184 9.78919L5.93001 7.11441L4.55669 8.56837Z" fill="#8CBD02" mask="url(#path-3-inside-2)"/>
</svg>