<svg width="244" height="52" viewBox="0 0 244 52" fill="none" xmlns="http://www.w3.org/2000/svg">
    <rect x="0.5" y="0.5" width="243" height="51" rx="25.5" stroke="#8CBD02"/>
    <path d="M67.7959 19.6914V23.3828C68.1331 23.0456 68.4977 22.7926 68.8896 22.624C69.2816 22.4554 69.7008 22.3711 70.1475 22.3711C71.1182 22.3711 71.943 22.738 72.6221 23.4717C73.3011 24.2054 73.6406 25.1465 73.6406 26.2949C73.6406 27.4023 73.2897 28.3298 72.5879 29.0771C71.8861 29.82 71.0544 30.1914 70.0928 30.1914C69.6644 30.1914 69.2656 30.1162 68.8965 29.9658C68.5273 29.8109 68.1605 29.5602 67.7959 29.2139V30H65.9434V19.6914H67.7959ZM69.7578 24.0938C69.1699 24.0938 68.6823 24.2943 68.2949 24.6953C67.9076 25.0964 67.7139 25.6204 67.7139 26.2676C67.7139 26.9284 67.9076 27.4639 68.2949 27.874C68.6823 28.2796 69.1699 28.4824 69.7578 28.4824C70.3275 28.4824 70.806 28.2751 71.1934 27.8604C71.5853 27.4456 71.7812 26.917 71.7812 26.2744C71.7812 25.6364 71.5898 25.1146 71.207 24.709C70.8242 24.2988 70.3411 24.0938 69.7578 24.0938ZM78.6787 22.3711C79.3805 22.3711 80.0391 22.5465 80.6543 22.8975C81.2741 23.2484 81.7572 23.7246 82.1035 24.3262C82.4499 24.9277 82.623 25.5771 82.623 26.2744C82.623 26.9762 82.4476 27.6325 82.0967 28.2432C81.7503 28.8538 81.2764 29.3324 80.6748 29.6787C80.0732 30.0205 79.4102 30.1914 78.6855 30.1914C77.6191 30.1914 76.7077 29.8132 75.9512 29.0566C75.1992 28.2956 74.8232 27.3727 74.8232 26.2881C74.8232 25.126 75.2493 24.1576 76.1016 23.3828C76.849 22.7083 77.708 22.3711 78.6787 22.3711ZM78.7061 24.1279C78.1273 24.1279 77.6442 24.3307 77.2568 24.7363C76.874 25.1374 76.6826 25.6523 76.6826 26.2812C76.6826 26.9284 76.8717 27.4525 77.25 27.8535C77.6328 28.2546 78.1159 28.4551 78.6992 28.4551C79.2826 28.4551 79.7679 28.2523 80.1553 27.8467C80.5426 27.4411 80.7363 26.9193 80.7363 26.2812C80.7363 25.6432 80.5449 25.126 80.1621 24.7295C79.7839 24.3285 79.2985 24.1279 78.7061 24.1279ZM87.6475 22.3711C88.3493 22.3711 89.0078 22.5465 89.623 22.8975C90.2428 23.2484 90.7259 23.7246 91.0723 24.3262C91.4186 24.9277 91.5918 25.5771 91.5918 26.2744C91.5918 26.9762 91.4163 27.6325 91.0654 28.2432C90.7191 28.8538 90.2451 29.3324 89.6436 29.6787C89.042 30.0205 88.3789 30.1914 87.6543 30.1914C86.5879 30.1914 85.6764 29.8132 84.9199 29.0566C84.168 28.2956 83.792 27.3727 83.792 26.2881C83.792 25.126 84.2181 24.1576 85.0703 23.3828C85.8177 22.7083 86.6768 22.3711 87.6475 22.3711ZM87.6748 24.1279C87.096 24.1279 86.613 24.3307 86.2256 24.7363C85.8428 25.1374 85.6514 25.6523 85.6514 26.2812C85.6514 26.9284 85.8405 27.4525 86.2188 27.8535C86.6016 28.2546 87.0846 28.4551 87.668 28.4551C88.2513 28.4551 88.7367 28.2523 89.124 27.8467C89.5114 27.4411 89.7051 26.9193 89.7051 26.2812C89.7051 25.6432 89.5137 25.126 89.1309 24.7295C88.7526 24.3285 88.2673 24.1279 87.6748 24.1279ZM93.1367 19.6914H95.0029V25.6318L97.751 22.5625H100.089L96.8896 26.1309L100.479 30H98.1611L95.0029 26.5752V30H93.1367V19.6914ZM101.046 19.6914H102.912V30H101.046V19.6914ZM112.059 26.8213H106.063C106.15 27.3499 106.38 27.7715 106.754 28.0859C107.132 28.3958 107.613 28.5508 108.196 28.5508C108.894 28.5508 109.493 28.307 109.994 27.8193L111.566 28.5576C111.174 29.1136 110.705 29.526 110.158 29.7949C109.611 30.0592 108.962 30.1914 108.21 30.1914C107.043 30.1914 106.093 29.8245 105.359 29.0908C104.626 28.3525 104.259 27.4297 104.259 26.3223C104.259 25.1875 104.623 24.2464 105.353 23.499C106.086 22.7471 107.005 22.3711 108.107 22.3711C109.279 22.3711 110.231 22.7471 110.965 23.499C111.699 24.2464 112.065 25.2354 112.065 26.4658L112.059 26.8213ZM110.186 25.3516C110.062 24.9368 109.819 24.5996 109.454 24.3398C109.094 24.0801 108.675 23.9502 108.196 23.9502C107.677 23.9502 107.221 24.096 106.829 24.3877C106.583 24.57 106.355 24.8913 106.146 25.3516H110.186ZM113.802 19.8213H115.661V22.5625H116.769V24.1689H115.661V30H113.802V24.1689H112.845V22.5625H113.802V19.8213ZM125.19 22.3711C125.892 22.3711 126.551 22.5465 127.166 22.8975C127.786 23.2484 128.269 23.7246 128.615 24.3262C128.962 24.9277 129.135 25.5771 129.135 26.2744C129.135 26.9762 128.959 27.6325 128.608 28.2432C128.262 28.8538 127.788 29.3324 127.187 29.6787C126.585 30.0205 125.922 30.1914 125.197 30.1914C124.131 30.1914 123.219 29.8132 122.463 29.0566C121.711 28.2956 121.335 27.3727 121.335 26.2881C121.335 25.126 121.761 24.1576 122.613 23.3828C123.361 22.7083 124.22 22.3711 125.19 22.3711ZM125.218 24.1279C124.639 24.1279 124.156 24.3307 123.769 24.7363C123.386 25.1374 123.194 25.6523 123.194 26.2812C123.194 26.9284 123.383 27.4525 123.762 27.8535C124.145 28.2546 124.628 28.4551 125.211 28.4551C125.794 28.4551 126.28 28.2523 126.667 27.8467C127.054 27.4411 127.248 26.9193 127.248 26.2812C127.248 25.6432 127.057 25.126 126.674 24.7295C126.296 24.3285 125.81 24.1279 125.218 24.1279ZM129.777 22.5625H130.44C130.445 21.5872 130.461 21.0107 130.488 20.833C130.538 20.4229 130.709 20.0993 131.001 19.8623C131.297 19.6208 131.714 19.5 132.252 19.5C132.639 19.5 133.077 19.5889 133.564 19.7666V21.1885C133.296 21.111 133.075 21.0723 132.901 21.0723C132.683 21.0723 132.523 21.1178 132.423 21.209C132.35 21.2773 132.313 21.4186 132.313 21.6328L132.307 22.5625H133.489V24.1484H132.307V30H130.44V24.1484H129.777V22.5625ZM138.712 19.9443H140.742C141.84 19.9443 142.631 20.0469 143.114 20.252C143.602 20.4525 143.985 20.7806 144.263 21.2363C144.545 21.6875 144.687 22.2298 144.687 22.8633C144.687 23.5651 144.502 24.1484 144.133 24.6133C143.768 25.0781 143.271 25.4017 142.643 25.584C142.273 25.6888 141.601 25.7412 140.626 25.7412V30H138.712V19.9443ZM140.626 23.875H141.234C141.713 23.875 142.046 23.8408 142.232 23.7725C142.419 23.7041 142.565 23.5924 142.67 23.4375C142.779 23.278 142.834 23.0866 142.834 22.8633C142.834 22.4759 142.684 22.1934 142.383 22.0156C142.164 21.8835 141.758 21.8174 141.166 21.8174H140.626V23.875ZM151.857 22.5625H153.717V30H151.857V29.2139C151.493 29.5602 151.126 29.8109 150.757 29.9658C150.392 30.1162 149.996 30.1914 149.567 30.1914C148.606 30.1914 147.774 29.82 147.072 29.0771C146.37 28.3298 146.02 27.4023 146.02 26.2949C146.02 25.1465 146.359 24.2054 147.038 23.4717C147.717 22.738 148.542 22.3711 149.513 22.3711C149.959 22.3711 150.379 22.4554 150.771 22.624C151.162 22.7926 151.525 23.0456 151.857 23.3828V22.5625ZM149.896 24.0938C149.317 24.0938 148.836 24.2988 148.453 24.709C148.07 25.1146 147.879 25.6364 147.879 26.2744C147.879 26.917 148.073 27.4456 148.46 27.8604C148.852 28.2751 149.333 28.4824 149.902 28.4824C150.49 28.4824 150.978 28.2796 151.365 27.874C151.753 27.4639 151.946 26.9284 151.946 26.2676C151.946 25.6204 151.753 25.0964 151.365 24.6953C150.978 24.2943 150.488 24.0938 149.896 24.0938ZM155.597 22.5625H157.483V26.1445C157.483 26.8418 157.531 27.3271 157.627 27.6006C157.723 27.8695 157.875 28.0791 158.085 28.2295C158.299 28.3799 158.561 28.4551 158.871 28.4551C159.181 28.4551 159.443 28.3822 159.657 28.2363C159.876 28.0859 160.038 27.8672 160.143 27.5801C160.22 27.3659 160.259 26.9079 160.259 26.2061V22.5625H162.132V25.7139C162.132 27.0127 162.029 27.9014 161.824 28.3799C161.574 28.9632 161.204 29.4121 160.717 29.7266C160.229 30.0365 159.609 30.1914 158.857 30.1914C158.042 30.1914 157.381 30.0091 156.875 29.6445C156.374 29.2799 156.021 28.7718 155.815 28.1201C155.67 27.6689 155.597 26.8486 155.597 25.6592V22.5625ZM163.813 19.6914H165.68V30H163.813V19.6914ZM170.868 22.3711C171.57 22.3711 172.229 22.5465 172.844 22.8975C173.464 23.2484 173.947 23.7246 174.293 24.3262C174.639 24.9277 174.812 25.5771 174.812 26.2744C174.812 26.9762 174.637 27.6325 174.286 28.2432C173.94 28.8538 173.466 29.3324 172.864 29.6787C172.263 30.0205 171.6 30.1914 170.875 30.1914C169.809 30.1914 168.897 29.8132 168.141 29.0566C167.389 28.2956 167.013 27.3727 167.013 26.2881C167.013 25.126 167.439 24.1576 168.291 23.3828C169.038 22.7083 169.897 22.3711 170.868 22.3711ZM170.896 24.1279C170.317 24.1279 169.834 24.3307 169.446 24.7363C169.063 25.1374 168.872 25.6523 168.872 26.2812C168.872 26.9284 169.061 27.4525 169.439 27.8535C169.822 28.2546 170.305 28.4551 170.889 28.4551C171.472 28.4551 171.957 28.2523 172.345 27.8467C172.732 27.4411 172.926 26.9193 172.926 26.2812C172.926 25.6432 172.734 25.126 172.352 24.7295C171.973 24.3285 171.488 24.1279 170.896 24.1279ZM175.517 22.5625H177.342L178.839 26.7939L180.452 22.5625H181.566L183.146 26.7461L184.643 22.5625H186.481L183.768 30H182.585L180.999 25.7617L179.365 30H178.196L175.517 22.5625ZM187.541 22.5625H189.4V23.3213C189.824 22.9658 190.207 22.7197 190.549 22.583C190.895 22.4417 191.248 22.3711 191.608 22.3711C192.347 22.3711 192.973 22.6286 193.488 23.1436C193.921 23.5811 194.138 24.2282 194.138 25.085V30H192.292V26.7393C192.292 25.8506 192.251 25.2604 192.169 24.9688C192.091 24.6771 191.952 24.4561 191.752 24.3057C191.556 24.1507 191.312 24.0732 191.021 24.0732C190.642 24.0732 190.316 24.2008 190.043 24.4561C189.774 24.7067 189.587 25.0553 189.482 25.502C189.428 25.7344 189.4 26.238 189.4 27.0127V30H187.541V22.5625ZM196.681 19.5C197.009 19.5 197.289 19.6185 197.521 19.8555C197.758 20.0924 197.877 20.3796 197.877 20.7168C197.877 21.0495 197.761 21.3343 197.528 21.5713C197.296 21.8037 197.018 21.9199 196.694 21.9199C196.362 21.9199 196.077 21.8014 195.84 21.5645C195.607 21.3229 195.491 21.0312 195.491 20.6895C195.491 20.3613 195.607 20.0811 195.84 19.8486C196.072 19.6162 196.353 19.5 196.681 19.5ZM195.744 22.5625H197.617V30H195.744V22.5625ZM204.809 22.5625H206.668V30H204.809V29.2139C204.444 29.5602 204.077 29.8109 203.708 29.9658C203.343 30.1162 202.947 30.1914 202.519 30.1914C201.557 30.1914 200.725 29.82 200.023 29.0771C199.322 28.3298 198.971 27.4023 198.971 26.2949C198.971 25.1465 199.31 24.2054 199.989 23.4717C200.668 22.738 201.493 22.3711 202.464 22.3711C202.91 22.3711 203.33 22.4554 203.722 22.624C204.114 22.7926 204.476 23.0456 204.809 23.3828V22.5625ZM202.847 24.0938C202.268 24.0938 201.787 24.2988 201.404 24.709C201.021 25.1146 200.83 25.6364 200.83 26.2744C200.83 26.917 201.024 27.4456 201.411 27.8604C201.803 28.2751 202.284 28.4824 202.854 28.4824C203.441 28.4824 203.929 28.2796 204.316 27.874C204.704 27.4639 204.897 26.9284 204.897 26.2676C204.897 25.6204 204.704 25.0964 204.316 24.6953C203.929 24.2943 203.439 24.0938 202.847 24.0938Z" fill="#8CBD02"/>
    <mask id="path-3-inside-1" fill="white">
        <path d="M48.7107 25.8812C48.4635 25.8812 48.2657 26.0683 48.2657 26.3021V30.1306C48.2657 31.172 47.369 32.0169 46.2712 32.0169H36.5066C35.4055 32.0169 34.5122 31.1688 34.5122 30.1306V26.2397C34.5122 26.0059 34.3144 25.8188 34.0671 25.8188C33.8199 25.8188 33.6221 26.0059 33.6221 26.2397V30.1306C33.6221 31.6365 34.9176 32.8586 36.5066 32.8586H46.2712C47.8635 32.8586 49.1558 31.6334 49.1558 30.1306V26.3021C49.1558 26.0714 48.958 25.8812 48.7107 25.8812Z"/>
    </mask>
    <path d="M48.7107 24.8812C47.9645 24.8812 47.2657 25.4641 47.2657 26.3021H49.2657C49.2657 26.6724 48.9624 26.8812 48.7107 26.8812V24.8812ZM47.2657 26.3021V30.1306H49.2657V26.3021H47.2657ZM47.2657 30.1306C47.2657 30.5668 46.8711 31.0169 46.2712 31.0169V33.0169C47.8669 33.0169 49.2657 31.7771 49.2657 30.1306H47.2657ZM46.2712 31.0169H36.5066V33.0169H46.2712V31.0169ZM36.5066 31.0169C35.9056 31.0169 35.5122 30.5658 35.5122 30.1306H33.5122C33.5122 31.7719 34.9055 33.0169 36.5066 33.0169V31.0169ZM35.5122 30.1306V26.2397H33.5122V30.1306H35.5122ZM35.5122 26.2397C35.5122 25.4018 34.8133 24.8188 34.0671 24.8188V26.8188C33.8154 26.8188 33.5122 26.61 33.5122 26.2397H35.5122ZM34.0671 24.8188C33.3209 24.8188 32.6221 25.4018 32.6221 26.2397H34.6221C34.6221 26.61 34.3188 26.8188 34.0671 26.8188V24.8188ZM32.6221 26.2397V30.1306H34.6221V26.2397H32.6221ZM32.6221 30.1306C32.6221 32.2413 34.4194 33.8586 36.5066 33.8586V31.8586C35.4159 31.8586 34.6221 31.0317 34.6221 30.1306H32.6221ZM36.5066 33.8586H46.2712V31.8586H36.5066V33.8586ZM46.2712 33.8586C48.3632 33.8586 50.1558 32.2368 50.1558 30.1306H48.1558C48.1558 31.03 47.3637 31.8586 46.2712 31.8586V33.8586ZM50.1558 30.1306V26.3021H48.1558V30.1306H50.1558ZM50.1558 26.3021C50.1558 25.4719 49.4619 24.8812 48.7107 24.8812V26.8812C48.454 26.8812 48.1558 26.6708 48.1558 26.3021H50.1558Z" fill="#8CBD02" mask="url(#path-3-inside-1)"/>
    <mask id="path-5-inside-2" fill="white">
        <path d="M41.0752 29.5162C41.1609 29.5972 41.2763 29.6409 41.3884 29.6409C41.5005 29.6409 41.6158 29.6003 41.7016 29.5162L44.5301 26.8414C44.7048 26.6762 44.7048 26.4112 44.5301 26.246C44.3554 26.0807 44.0752 26.0807 43.9004 26.246L41.8334 28.2037V19.665C41.8334 19.4312 41.6356 19.2441 41.3884 19.2441C41.1411 19.2441 40.9433 19.4312 40.9433 19.665V28.2037L38.873 26.246C38.6983 26.0807 38.4181 26.0807 38.2433 26.246C38.0686 26.4112 38.0686 26.6762 38.2433 26.8414L41.0752 29.5162Z"/>
    </mask>
    <path d="M41.0752 29.5162L41.7623 28.7896L41.7618 28.7892L41.0752 29.5162ZM41.7016 29.5162L41.0145 28.7896L41.0076 28.7961L41.0009 28.8027L41.7016 29.5162ZM44.5301 26.8414L45.2172 27.568L44.5301 26.8414ZM43.9004 26.246L43.2133 25.5194L43.2128 25.5199L43.9004 26.246ZM41.8334 28.2037H40.8334V30.5282L42.5211 28.9298L41.8334 28.2037ZM40.9433 28.2037L40.2562 28.9303L41.9433 30.5257V28.2037H40.9433ZM38.873 26.246L38.1859 26.9725H38.1859L38.873 26.246ZM38.2433 26.8414L37.5563 27.568L37.5567 27.5684L38.2433 26.8414ZM40.3881 30.2428C40.6641 30.5037 41.0271 30.6409 41.3884 30.6409V28.6409C41.5254 28.6409 41.6577 28.6907 41.7623 28.7896L40.3881 30.2428ZM41.3884 30.6409C41.7327 30.6409 42.1093 30.5173 42.4022 30.2297L41.0009 28.8027C41.1224 28.6833 41.2682 28.6409 41.3884 28.6409V30.6409ZM42.3886 30.2428L45.2172 27.568L43.843 26.1148L41.0145 28.7896L42.3886 30.2428ZM45.2172 27.568C45.8091 27.0082 45.8091 26.0791 45.2172 25.5194L43.843 26.9725C43.6005 26.7432 43.6005 26.3441 43.843 26.1148L45.2172 27.568ZM45.2172 25.5194C44.6569 24.9896 43.7736 24.9896 43.2133 25.5194L44.5875 26.9725C44.3767 27.1719 44.0538 27.1719 43.843 26.9725L45.2172 25.5194ZM43.2128 25.5199L41.1458 27.4777L42.5211 28.9298L44.5881 26.972L43.2128 25.5199ZM42.8334 28.2037V19.665H40.8334V28.2037H42.8334ZM42.8334 19.665C42.8334 18.827 42.1345 18.2441 41.3884 18.2441V20.2441C41.1367 20.2441 40.8334 20.0354 40.8334 19.665H42.8334ZM41.3884 18.2441C40.6422 18.2441 39.9433 18.827 39.9433 19.665H41.9433C41.9433 20.0354 41.64 20.2441 41.3884 20.2441V18.2441ZM39.9433 19.665V28.2037H41.9433V19.665H39.9433ZM41.6304 27.4771L39.5601 25.5194L38.1859 26.9725L40.2562 28.9303L41.6304 27.4771ZM39.5601 25.5194C38.9999 24.9896 38.1165 24.9896 37.5563 25.5194L38.9304 26.9725C38.7196 27.1719 38.3967 27.1719 38.1859 26.9725L39.5601 25.5194ZM37.5563 25.5194C36.9643 26.0791 36.9643 27.0082 37.5563 27.568L38.9304 26.1148C39.1729 26.3441 39.1729 26.7432 38.9304 26.9725L37.5563 25.5194ZM37.5567 27.5684L40.3885 30.2431L41.7618 28.7892L38.93 26.1144L37.5567 27.5684Z" fill="#8CBD02" mask="url(#path-5-inside-2)"/>
</svg>