<svg width="14" height="14" viewBox="0 0 14 14" fill="none" xmlns="http://www.w3.org/2000/svg">
    <path d="M7.62645 12.1064L7 12.7329L6.37355 12.1064L6.36274 12.0956L6.35129 12.0855C4.52289 10.4681 3.05096 9.14813 2.03127 7.90752C1.01729 6.67384 0.5 5.57639 0.5 4.41C0.5 2.51614 1.95614 1.06 3.85 1.06C4.89055 1.06 5.94177 1.55342 6.61831 2.35297L7 2.80406L7.38169 2.35297C8.05823 1.55342 9.10945 1.06 10.15 1.06C12.0439 1.06 13.5 2.51614 13.5 4.41C13.5 5.57639 12.9827 6.67384 11.9687 7.90752C10.949 9.14813 9.47711 10.4681 7.64871 12.0855L7.63726 12.0956L7.62645 12.1064Z" stroke="black"/>
</svg>