<svg width="8" height="15" viewBox="0 0 8 15" fill="none" xmlns="http://www.w3.org/2000/svg">
    <path d="M2.2201 5.7945H2.7201V5.2945V3.62372C2.7201 2.62895 3.03149 1.85653 3.53948 1.33531C4.04613 0.815445 4.79235 0.500084 5.75122 0.5C5.75135 0.5 5.75147 0.5 5.7516 0.5L7.46082 0.502743V2.35144L6.37445 2.35183C6.37439 2.35183 6.37433 2.35183 6.37427 2.35183C5.8917 2.35185 5.44096 2.44083 5.14258 2.77879C4.85731 3.10191 4.82544 3.53243 4.82544 3.87816V5.2945V5.7945H5.32544H7.37129L7.37052 7.8159H5.32544H4.82544V8.3159V14.2245H2.7201V8.3159V7.8159H2.2201H0.5V5.7945H2.2201ZM7.66074 2.35137H7.66056H7.66074Z" stroke="white"/>
</svg>