<svg width="20" height="20" viewBox="0 0 20 20" fill="none" xmlns="http://www.w3.org/2000/svg">
<path d="M15 10.5179V14H13.071V10.7511C13.071 9.93495 12.792 9.37796 12.0938 9.37796C11.5608 9.37796 11.2436 9.75333 11.104 10.1164C11.0531 10.2463 11.04 10.4269 11.04 10.6086V14H9.11039C9.11039 14 9.13638 8.49744 9.11039 7.92733H11.0398V8.78811C11.0359 8.79454 11.0308 8.80149 11.0272 8.80773H11.0398V8.78811C11.2962 8.37492 11.754 7.78467 12.7787 7.78467C14.0483 7.78464 15 8.6526 15 10.5179ZM7.09191 5C6.43178 5 6 5.45313 6 6.04901C6 6.6319 6.41929 7.09879 7.06629 7.09879H7.07918C7.7521 7.09879 8.17059 6.63199 8.17059 6.04901C8.15791 5.45313 7.7521 5 7.09191 5ZM6.1146 14H8.04351V7.92733H6.1146V14Z" fill="white"/>
<path d="M13.75 0H6.25C2.79875 0 0 2.79875 0 6.25V13.75C0 17.2013 2.79875 20 6.25 20H13.75C17.2013 20 20 17.2013 20 13.75V6.25C20 2.79875 17.2013 0 13.75 0ZM18.125 13.75C18.125 16.1625 16.1625 18.125 13.75 18.125H6.25C3.8375 18.125 1.875 16.1625 1.875 13.75V6.25C1.875 3.8375 3.8375 1.875 6.25 1.875H13.75C16.1625 1.875 18.125 3.8375 18.125 6.25V13.75Z" fill="white"/>
</svg>
