<svg width="20" height="20" viewBox="0 0 20 20" fill="none" xmlns="http://www.w3.org/2000/svg">
<path d="M11.8117 5.00208L10.6124 5C9.2651 5 8.39439 5.96595 8.39439 7.46101V8.59571H7.18857C7.08438 8.59571 7 8.68705 7 8.79971V10.4438C7 10.5564 7.08447 10.6477 7.18857 10.6477H8.39439V14.7961C8.39439 14.9088 8.47877 15 8.58296 15H10.1562C10.2604 15 10.3448 14.9087 10.3448 14.7961V10.6477H11.7547C11.8589 10.6477 11.9432 10.5564 11.9432 10.4438L11.9438 8.79971C11.9438 8.74562 11.9239 8.69381 11.8886 8.65552C11.8533 8.61724 11.8052 8.59571 11.7551 8.59571H10.3448V7.63381C10.3448 7.17149 10.4467 6.93679 11.0036 6.93679L11.8115 6.93648C11.9156 6.93648 12 6.84514 12 6.73257V5.20599C12 5.09353 11.9157 5.00229 11.8117 5.00208Z" fill="white"/>
<path d="M13.75 0H6.25C2.79875 0 0 2.79875 0 6.25V13.75C0 17.2013 2.79875 20 6.25 20H13.75C17.2013 20 20 17.2013 20 13.75V6.25C20 2.79875 17.2013 0 13.75 0ZM18.125 13.75C18.125 16.1625 16.1625 18.125 13.75 18.125H6.25C3.8375 18.125 1.875 16.1625 1.875 13.75V6.25C1.875 3.8375 3.8375 1.875 6.25 1.875H13.75C16.1625 1.875 18.125 3.8375 18.125 6.25V13.75Z" fill="white"/>
</svg>
