<svg width="320" height="931" viewBox="0 0 320 931" fill="none" xmlns="http://www.w3.org/2000/svg">
<path d="M316 0.0136566C315.963 78.4983 316 71.6409 316 150.126C137.055 149.425 173.945 150.826 -5 150.125C-5 107.179 -4.96272 64.1328 -4.96272 21.1864C18.2628 40.9077 42.1966 54.1219 66.8015 61.3297C79.3649 65.0337 91.9656 67.2361 104.641 68.037C121.417 69.1381 138.193 67.9369 154.894 65.0337C168.763 62.531 182.631 59.3276 196.35 54.4223C212.343 48.7161 271.119 20.2173 287 13.3099C312.127 2.39815 289.387 12.1265 316 0.0136566C312.887 1.66548 312.887 1.66548 316 0.0136566C316 0.229095 316 0.229095 316 0.0136566Z" fill="#5B9600"/>
<path d="M318 35.4743C120.015 103.846 121.975 96.5599 318 35.4743C123.935 105.02 121.485 105.898 318 35.4743C318 88.9922 322 880.495 322 934.013C145.269 933.326 177.657 934.701 1 934.014C1 904.751 -2 79.7616 -2 50.4986C20.9334 63.9517 44.5662 72.986 68.8616 77.9941C81.267 80.5472 93.7092 82.0201 106.225 82.6093C122.79 83.3949 139.318 82.6093 155.847 80.6454C169.54 78.976 183.234 76.8156 196.781 73.4769C212.536 69.549 228.291 65.4246 244.009 60.8093C268.82 53.4445 293.41 44.4103 318 35.4743C304.597 41.0251 208.523 73.2806 318 35.4743C306.238 39.7485 176.857 86.0543 318 35.4743C307.588 38.6174 142.556 92.2923 318 35.4743C298.873 45.9397 116.585 100.703 318 35.4743Z" fill="#74BD00"/>
</svg>
