<svg width="1440" height="447" viewBox="0 0 1440 447" fill="none" xmlns="http://www.w3.org/2000/svg">
<path d="M1434.3 1.78455L1438.34 1.48802C1438.24 79.8459 1438.34 159.142 1438.34 237.5C949.111 236.8 489.373 235.854 0.144043 235.154C0.144043 192.277 0.245966 149.3 0.245966 106.423C63.7439 126.113 129.178 139.306 196.447 146.502C230.795 150.2 265.245 152.399 299.899 153.198C345.764 154.298 391.629 153.098 437.291 150.2C475.206 147.701 513.121 144.503 550.629 139.605C594.354 133.908 637.977 127.812 681.396 120.915C750.092 110.021 818.176 96.8284 886.261 83.6355C987.062 64.046 1087.66 43.7569 1189.48 28.1653C1224.03 22.8681 1258.79 18.0707 1293.54 13.773C1319.84 10.4748 1346.34 7.97614 1372.74 5.77731C1397.81 3.67844 1423.09 2.4791 1448.16 0.979904C1454.48 0.480179 1428.19 2.08438 1434.3 1.78455Z" fill="#5B9600"/>
<path d="M1446.77 59.38C1446.67 59.1801 1447.18 59.4799 1446.77 59.38C1446.98 59.7798 1441.7 59.1775 1441.7 59.5773C1441.7 114.054 1446.77 392.523 1446.77 447C954.749 446.3 489.819 447.699 -2 447C-2 417.213 -2 161.461 -2 131.674C61.8473 145.368 127.642 154.564 195.281 159.662C229.818 162.261 264.457 163.76 299.302 164.36C345.419 165.16 391.435 164.36 437.45 162.361C475.574 160.661 513.698 158.462 551.411 155.064C595.274 151.066 639.138 146.867 682.898 142.169C751.972 134.673 820.431 125.477 888.89 116.381C990.246 102.787 1091.4 88.7925 1193.68 77.8972C1228.42 74.1989 1263.36 70.9003 1298.31 67.9016C1324.75 65.6026 1351.3 63.9033 1377.94 62.404C1403.15 61.0046 1428.47 60.105 1453.78 59.1054C1459.93 58.7056 1440.52 59.5799 1446.77 59.38Z" fill="#74BD00"/>
</svg>
