<svg width="17" height="18" viewBox="0 0 17 18" fill="none" xmlns="http://www.w3.org/2000/svg">
<g clip-path="url(#clip0)">
<path d="M3.9 8C3.6 8.3 3.2 8.4 2.7 8.4H1.7C1.2 8.4 0.8 8.3 0.5 8C0.2 7.6 0 7.1 0 6.7V1.7C0 1.6 0 0.9 0.5 0.4C0.7 0.2 0.9 0.1 1.2 0C1.3 0 1.5 0 1.7 0H2.6C3 0 3.4 0.2 3.7 0.4C4.2 0.9 4.2 1.6 4.2 1.7C4.2 1.8 4.1 1.9 4 1.9C3.9 1.9 3.8 1.8 3.8 1.7C3.8 1.6 3.8 1.1 3.4 0.7C3.3 0.5 2.9 0.4 2.6 0.4H1.7C1.5 0.4 1.4 0.4 1.3 0.5C1 0.5 0.9 0.6 0.8 0.7C0.5 1 0.4 1.4 0.4 1.7C0.4 6.6 0.4 6.6 0.4 6.6C0.4 6.7 0.4 7.2 0.8 7.6C1 7.9 1.3 8 1.7 8H2.7C3.1 8 3.4 7.9 3.6 7.7C3.9 7.4 4 7.1 4 6.7V5.5H2.4C2.3 5.5 2.2 5.4 2.2 5.3C2.2 5.2 2.3 5.1 2.4 5.1H4.1C4.2 5.1 4.2 5.1 4.2 5.1V5.2C4.2 6.6 4.2 6.6 4.2 6.6C4.4 6.8 4.3 7.5 3.9 8Z" fill="white"/>
<path d="M10.9 0.2V8.2C10.9 8.3 10.8 8.4 10.7 8.4C10.6 8.4 10.5 8.3 10.5 8.2V1.7L10.6 1.1L10.5 1.7L8.4 8.3C8.4 8.4 8.3 8.4 8.2 8.4C8.1 8.4 8 8.3 8 8.3L6 1.7L5.8 1.1L5.9 1.7V8.3C5.9 8.4 5.8 8.5 5.7 8.5C5.6 8.5 5.5 8.4 5.5 8.3V0.3C5.5 0.1 5.6 0 5.7 0C5.8 0 5.8 0.1 5.9 0.1C6.7 2.5 6.7 2.5 6.7 2.5L8.3 7.5C9.9 2 9.9 2 9.9 2L10.5 0.2C10.5 0.1 10.6 0.1 10.7 0.1C10.8 0 10.9 0.1 10.9 0.2Z" fill="white"/>
<path d="M16.4 6.7C16.4 6.8 16.4 7.5 15.9 8C15.6 8.3 15.2 8.5 14.7 8.5H13.7C13.2 8.5 12.8 8.3 12.5 8C12.2 7.7 12 7.2 12 6.7C12 1.8 12 1.8 12 1.8C12 1.7 12 1 12.5 0.5C12.9 0.2 13.2 0 13.7 0H14.7C15.2 0 15.6 0.2 15.9 0.5C16.2 0.8 16.4 1.3 16.4 1.8V6.7ZM16 6.7C16 1.8 16 1.8 16 1.8C16 1.7 16 1.2 15.6 0.8C15.4 0.6 15.1 0.5 14.7 0.5H13.7C13.3 0.5 13 0.6 12.8 0.8C12.5 1.1 12.4 1.5 12.4 1.8V6.7C12.4 6.8 12.4 7.4 12.8 7.7C13.1 7.9 13.4 8 13.7 8H14.7C15.1 8 15.4 7.9 15.6 7.7C15.9 7.4 16 7.1 16 6.7Z" fill="white"/>
<path d="M3.70039 11.0999C3.70039 11.1999 3.60039 11.1999 3.50039 11.1999H1.70039C1.40039 11.1999 1.20039 11.2999 1.00039 11.4999C0.800391 11.6999 0.700391 11.9999 0.700391 12.2999V13.6999H2.40039C2.50039 13.6999 2.50039 13.7999 2.50039 13.7999C2.50039 13.8999 2.40039 13.9999 2.40039 13.9999H0.700391V17.4999C0.700391 17.5999 0.600391 17.6999 0.600391 17.6999C0.500391 17.6999 0.400391 17.5999 0.400391 17.4999C0.400391 12.2999 0.400391 12.2999 0.400391 12.2999C0.400391 12.1999 0.400391 11.6999 0.800391 11.2999C1.00039 11.0999 1.30039 10.8999 1.70039 10.8999H3.60039C3.60039 10.8999 3.70039 10.9999 3.70039 11.0999Z" fill="white"/>
<path d="M4.30059 10.9998C4.30059 10.8998 4.30059 10.8998 4.30059 10.9998H6.20059C6.60059 10.9998 6.90059 11.0998 7.10059 11.3998C7.40059 11.6998 7.50059 12.1998 7.50059 12.3998V13.1998C7.50059 13.1998 7.50059 13.1998 7.50059 13.4998C7.50059 13.6998 7.50059 14.1998 7.10059 14.4998C7.00059 14.5998 7.00059 14.5998 6.90059 14.6998C7.00059 14.7998 7.00059 14.7998 7.10059 14.8998C7.40059 15.1998 7.50059 15.6998 7.50059 15.8998V17.4998C7.50059 17.5998 7.40059 17.5998 7.40059 17.5998C7.30059 17.5998 7.20059 17.4998 7.20059 17.4998V15.8998C7.20059 15.5998 7.10059 15.2998 6.90059 15.0998C6.70059 14.8998 6.50059 14.7998 6.20059 14.7998H5.60059C5.60059 14.7998 5.60059 14.7998 4.40059 14.7998V17.4998C4.40059 17.5998 4.30059 17.5998 4.30059 17.5998C4.20059 17.5998 4.10059 17.4998 4.10059 17.4998V11.0998C4.10059 10.9998 4.20059 10.8998 4.30059 10.9998C4.30059 10.8998 4.30059 10.8998 4.30059 10.9998ZM5.60059 14.5998H6.30059C6.60059 14.5998 6.80059 14.4998 7.00059 14.2998C7.30059 13.9998 7.30059 13.4998 7.30059 13.4998C7.30059 13.4998 7.30059 13.4998 7.30059 13.0998V12.2998C7.30059 11.9998 7.20059 11.6998 7.00059 11.4998C6.80059 11.2998 6.60059 11.1998 6.30059 11.1998H6.10059C6.10059 11.1998 6.10059 11.1998 4.40059 11.1998V14.4998H5.60059V14.5998Z" fill="white"/>
<path d="M11.8004 17.4999C11.8004 17.5999 11.7004 17.5999 11.7004 17.5999C10.5004 17.5999 10.5004 17.5999 10.5004 17.5999H8.60039C8.50039 17.5999 8.40039 17.4999 8.40039 17.4999C8.40039 12.2999 8.40039 12.2999 8.40039 12.2999C8.40039 12.1999 8.40039 11.6999 8.80039 11.2999C9.00039 11.0999 9.30039 10.8999 9.70039 10.8999C9.80039 10.8999 9.80039 10.8999 9.80039 10.8999H11.5004C11.6004 10.8999 11.7004 10.9999 11.7004 11.0999C11.7004 11.1999 11.6004 11.1999 11.5004 11.1999C10.2004 11.1999 10.2004 11.1999 10.2004 11.1999H9.70039C9.40039 11.1999 9.20039 11.2999 9.00039 11.4999C8.80039 11.6999 8.70039 11.9999 8.70039 12.2999V13.6999H10.4004C10.5004 13.6999 10.5004 13.7999 10.5004 13.7999C10.5004 13.8999 10.4004 13.9999 10.4004 13.9999H8.70039V17.2999H11.6004C11.8004 17.3999 11.8004 17.4999 11.8004 17.4999Z" fill="white"/>
<path d="M16.0002 17.4999C16.0002 17.5999 15.9002 17.5999 15.9002 17.5999C14.7002 17.5999 14.7002 17.5999 14.7002 17.5999H12.9002C12.8002 17.5999 12.7002 17.4999 12.7002 17.4999C12.7002 12.2999 12.7002 12.2999 12.7002 12.2999C12.7002 12.1999 12.7002 11.6999 13.1002 11.2999C13.3002 11.0999 13.6002 10.8999 14.0002 10.8999C14.1002 10.8999 14.1002 10.8999 14.1002 10.8999H15.8002C15.9002 10.8999 16.0002 10.9999 16.0002 11.0999C16.0002 11.1999 15.9002 11.1999 15.8002 11.1999C14.5002 11.1999 14.5002 11.1999 14.5002 11.1999H14.0002C13.7002 11.1999 13.5002 11.2999 13.3002 11.4999C13.1002 11.6999 13.0002 11.9999 13.0002 12.2999V13.6999H14.7002C14.8002 13.6999 14.8002 13.7999 14.8002 13.7999C14.8002 13.8999 14.7002 13.9999 14.7002 13.9999H13.0002V17.2999H15.9002C15.9002 17.3999 16.0002 17.4999 16.0002 17.4999Z" fill="white"/>
</g>
<defs>
<clipPath id="clip0">
<rect width="16.4" height="17.7" fill="white"/>
</clipPath>
</defs>
</svg>
