<svg width="1440" height="235" viewBox="0 0 1440 235" fill="none" xmlns="http://www.w3.org/2000/svg">
<path d="M1440 239.4C1440.4 239.2 1441 239.1 1441.1 238.9C1441.3 238.4 1441.2 237.8 1441.2 237.2C1441.1 158.8 1441.2 57.4 1441.2 -21C961.2 -20.3 481.1 -21.7 1.09961 -21C1.09961 21.9 1.09971 90 1.09971 132.9C63.3997 113.2 127.6 100 193.6 92.8C227.3 89.1 261.1 86.9 295.1 86.1C340.1 85 385.1 86.2 429.9 89.1C467.1 91.6 504.3 94.8 541.1 99.7C584 105.4 626.8 111.5 669.4 118.4C736.8 129.3 803.6 142.5 870.4 155.7C969.3 175.3 1068 195.6 1167.9 211.2C1201.8 216.5 1235.9 221.3 1270 225.6C1295.8 228.9 1321.8 231.4 1347.7 233.6C1372.3 235.7 1397.1 236.9 1421.7 238.4C1427.9 238.9 1434 239.1 1440 239.4Z" fill="#5B9600"/>
<path d="M1438.8 187.4C1439.2 187.3 1439.8 187.2 1439.9 187C1440.1 186.6 1440 186.2 1440 185.8C1440 131.3 1439.9 76.9 1439.9 22.4C959.8 23.1 479.9 23.8 0 24.5C0 54.3 0.1 84.2 0.1 114C62.4 100.3 126.6 91.1 192.6 86C226.3 83.4 260.1 81.9 294.1 81.3C339.1 80.5 384 81.3 428.9 83.3C466.1 85 503.3 87.2 540.1 90.6C582.9 94.6 625.7 98.8 668.4 103.5C735.8 111 802.6 120.2 869.4 129.3C968.3 142.9 1067 156.9 1166.8 167.8C1200.7 171.5 1234.8 174.8 1268.9 177.8C1294.7 180.1 1320.6 181.8 1346.6 183.3C1371.2 184.7 1395.9 185.6 1420.6 186.6C1426.6 187 1432.7 187.2 1438.8 187.4Z" fill="#74BD00"/>
</svg>
