<svg width="320" height="116" viewBox="0 0 320 116" fill="none" xmlns="http://www.w3.org/2000/svg">
<path d="M319.728 116C319.817 115.931 319.95 115.896 319.972 115.827C320.016 115.655 319.994 115.447 319.994 115.24C319.972 88.1645 319.728 25.0758 319.728 -1.99998C213.404 -1.75823 107.324 -2.24172 0.9999 -1.99998C0.9999 12.8157 0.999878 64.4041 0.999878 79.2198C14.7999 72.4163 29.0207 67.8576 43.6403 65.3711C51.1051 64.0933 58.5921 63.3335 66.1234 63.0572C76.0913 62.6773 86.0591 63.0918 95.9827 64.0933C104.223 64.9567 112.463 66.0618 120.614 67.754C130.117 69.7226 139.598 71.8292 149.034 74.2122C163.964 77.9765 178.76 82.5352 193.557 87.0939C215.464 93.8628 237.327 100.873 259.456 106.261C266.965 108.091 274.519 109.749 282.072 111.234C287.787 112.374 293.546 113.237 299.283 113.997C304.732 114.722 310.226 115.137 315.675 115.655C317.048 115.827 318.399 115.896 319.728 116Z" fill="#5B9600"/>
<path d="M318.728 104C318.817 103.96 318.95 103.92 318.972 103.84C319.016 103.68 318.994 103.52 318.994 103.36C318.994 81.56 318.994 55.8 318.994 34C212.641 34.28 106.331 33.72 0.0221524 34C0.0221524 45.92 0.0219727 62.72 0.0219727 74.64C13.8229 69.16 28.0448 65.48 42.6653 63.44C50.1307 62.4 57.6182 61.8 65.15 61.56C75.1186 61.24 85.065 61.56 95.0114 62.36C103.252 63.04 111.493 63.92 119.645 65.28C129.126 66.88 138.607 68.56 148.066 70.44C162.997 73.44 177.795 77.12 192.593 80.76C214.501 86.2 236.366 91.8 258.474 96.16C265.984 97.64 273.538 98.96 281.092 100.16C286.807 101.08 292.544 101.76 298.304 102.36C303.753 102.92 309.225 103.28 314.697 103.68C316.026 103.84 317.377 103.92 318.728 104Z" fill="#74BD00"/>
</svg>
