<svg width="24" height="22" viewBox="0 0 24 22" fill="none" xmlns="http://www.w3.org/2000/svg">
<path d="M21.926 2.74412C20.6932 1.51129 19.061 0.837483 17.3191 0.837483C15.5772 0.837483 13.9401 1.51628 12.7073 2.74911L12.0634 3.39297L11.4096 2.73913C10.1767 1.5063 8.53464 0.82251 6.79271 0.82251C5.05578 0.82251 3.41867 1.50131 2.19084 2.72914C0.958017 3.96197 0.279216 5.59907 0.284207 7.341C0.284207 9.08292 0.967999 10.715 2.20082 11.9479L11.5743 21.3213C11.704 21.4511 11.8787 21.521 12.0484 21.521C12.2181 21.521 12.3928 21.4561 12.5226 21.3263L21.916 11.9678C23.1488 10.735 23.8276 9.0979 23.8276 7.35597C23.8326 5.61405 23.1588 3.97694 21.926 2.74412ZM20.9677 11.0145L12.0484 19.8988L3.14915 10.9995C2.17088 10.0213 1.63183 8.72356 1.63183 7.341C1.63183 5.95844 2.16588 4.66073 3.14416 3.68745C4.11744 2.71417 5.41515 2.17512 6.79271 2.17512C8.17527 2.17512 9.47797 2.71417 10.4562 3.69244L11.5843 4.82045C11.8488 5.08498 12.273 5.08498 12.5376 4.82045L13.6556 3.70242C14.6339 2.72415 15.9366 2.1851 17.3141 2.1851C18.6917 2.1851 19.9894 2.72415 20.9677 3.69743C21.946 4.67571 22.48 5.97341 22.48 7.35597C22.485 8.73853 21.946 10.0362 20.9677 11.0145Z" fill="white"/>
</svg>
