<svg width="26" height="22" viewBox="0 0 26 22" fill="none" xmlns="http://www.w3.org/2000/svg">
<path d="M23.7489 2.04244C22.4379 0.732095 20.7023 0.0159152 18.8499 0.0159152C16.9974 0.0159152 15.2565 0.7374 13.9455 2.04775L13.2608 2.7321L12.5654 2.03714C11.2544 0.72679 9.50817 0 7.65575 0C5.80864 0 4.06769 0.721485 2.76198 2.02653C1.45095 3.33687 0.729096 5.07692 0.734404 6.92838C0.734404 8.77984 1.46157 10.5146 2.77259 11.8249L12.7406 21.7878C12.8786 21.9257 13.0644 22 13.2448 22C13.4253 22 13.6111 21.931 13.7491 21.7931L23.7383 11.8462C25.0494 10.5358 25.7712 8.79576 25.7712 6.9443C25.7765 5.09284 25.06 3.35279 23.7489 2.04244ZM22.7299 10.8329L13.2448 20.2759L3.78107 10.817C2.74075 9.77719 2.16751 8.39788 2.16751 6.92838C2.16751 5.45889 2.73544 4.07958 3.77576 3.04509C4.81078 2.01061 6.1908 1.43767 7.65575 1.43767C9.12601 1.43767 10.5113 2.01061 11.5517 3.0504L12.7512 4.24934C13.0325 4.5305 13.4837 4.5305 13.765 4.24934L14.954 3.06101C15.9943 2.02122 17.3796 1.44828 18.8446 1.44828C20.3095 1.44828 21.6895 2.02122 22.7299 3.0557C23.7702 4.09549 24.3381 5.4748 24.3381 6.9443C24.3434 8.41379 23.7702 9.7931 22.7299 10.8329Z" fill="white"/>
</svg>
