<svg width="16" height="16" viewBox="0 0 16 16" fill="none" xmlns="http://www.w3.org/2000/svg">
<path d="M15.968 6.84922C15.9125 6.7311 15.794 6.65552 15.663 6.65552H14.6666C14.0331 3.21764 11.0142 0.604248 7.39593 0.604248C3.31806 0.604248 0 3.9223 0 8.00018C0 12.078 3.31772 15.3958 7.39593 15.3958C10.0277 15.3958 12.4821 13.9793 13.8012 11.6998C13.9871 11.3781 13.8775 10.9673 13.5555 10.7811C13.2341 10.5948 12.8229 10.7045 12.6373 11.0262C11.5575 12.892 9.54907 14.0515 7.39593 14.0515C4.05949 14.0515 1.34465 11.337 1.34465 8.00086C1.34465 4.66408 4.05949 1.94958 7.39593 1.94958C10.2697 1.94958 12.6775 3.9652 13.291 6.65586H12.3024C12.1713 6.65586 12.0532 6.73144 11.9974 6.84956C11.9419 6.96769 11.9599 7.10692 12.0437 7.20734L13.7246 9.22432C13.7886 9.30091 13.8829 9.34517 13.983 9.34517C14.0828 9.34517 14.1774 9.30057 14.2411 9.22432L15.922 7.20734C16.0058 7.10658 16.0235 6.96735 15.968 6.84922Z" fill="white"/>
<path d="M7.39572 2.28516C7.02433 2.28516 6.7234 2.58609 6.7234 2.95748V7.03706C6.4194 7.25016 6.21924 7.60147 6.21924 8.00044C6.21924 8.64928 6.74723 9.17726 7.39606 9.17726C7.57376 9.17726 7.74125 9.13471 7.89239 9.06356L10.2311 10.4133C10.3373 10.4749 10.4523 10.5039 10.5667 10.5039C10.7989 10.5039 11.0249 10.3834 11.1495 10.1675C11.335 9.84653 11.2251 9.43496 10.9031 9.24943L8.562 7.89763C8.53068 7.54224 8.34583 7.23177 8.06873 7.03774V2.95748C8.06805 2.58643 7.76678 2.28516 7.39572 2.28516ZM7.39572 8.50426C7.1176 8.50426 6.89156 8.27788 6.89156 8.00044C6.89156 7.72266 7.11794 7.49628 7.39572 7.49628C7.6735 7.49628 7.89988 7.72266 7.89988 8.00044C7.89988 8.27788 7.6735 8.50426 7.39572 8.50426Z" fill="white"/>
</svg>
