<svg width="11" height="11" viewBox="0 0 11 11" fill="none" xmlns="http://www.w3.org/2000/svg">
    <path d="M4.98681 9.90457C4.99139 9.80374 4.91118 9.71894 4.81035 9.71436C2.41785 9.62498 0.499727 7.70915 0.405768 5.31665H1.13223C1.23306 5.31665 1.31556 5.23415 1.31556 5.13332C1.31556 5.03249 1.23306 4.94999 1.13223 4.94999H0.405768C0.497435 2.56207 2.41098 0.648527 4.79889 0.556861V1.09999C4.79889 1.20082 4.88139 1.28332 4.98223 1.28332C5.08306 1.28332 5.16556 1.20082 5.16556 1.09999V0.556861C7.52139 0.648527 9.42118 2.51165 9.55639 4.86519L8.84139 4.15019C8.76806 4.07915 8.65348 4.08144 8.58243 4.15478C8.51368 4.22582 8.51368 4.33811 8.58243 4.40915L9.60681 5.43353C9.62514 5.45644 9.65035 5.47478 9.68014 5.48624C9.68702 5.48853 9.69389 5.49082 9.70306 5.49082C9.71452 5.4954 9.72827 5.49769 9.74202 5.49999C9.74431 5.49999 9.7466 5.49999 9.7466 5.49999H9.75118C9.76493 5.49999 9.77868 5.4954 9.79243 5.49082C9.79931 5.49082 9.80848 5.48853 9.81535 5.48624C9.84056 5.47707 9.86348 5.46332 9.88181 5.44499L10.9199 4.40915C10.991 4.33582 10.9887 4.22124 10.9153 4.15019C10.8443 4.08144 10.732 4.08144 10.661 4.15019L9.92764 4.88353C9.79243 2.25499 7.62681 0.190194 4.99598 0.185611C4.99139 0.185611 4.98681 0.183319 4.98223 0.183319C4.97764 0.183319 4.97306 0.185611 4.96848 0.185611C2.24598 0.190194 0.0391016 2.39707 0.0345182 5.11957C0.0345182 5.12415 0.0322266 5.12874 0.0322266 5.13332C0.0322266 5.1379 0.0345182 5.14249 0.0345182 5.14707C0.0391016 7.80311 2.14056 9.98248 4.7966 10.081H4.80348C4.90202 10.0787 4.98223 10.0008 4.98681 9.90457Z" fill="black"/>
    <path d="M7.4454 2.66977C7.37436 2.59873 7.25749 2.59873 7.18645 2.66977L5.21561 4.6406C5.06665 4.57414 4.89707 4.57414 4.74811 4.6406L3.8154 3.70789C3.74207 3.63685 3.62749 3.63914 3.55645 3.71248C3.4877 3.78352 3.4877 3.89581 3.55645 3.96685L4.48686 4.89727C4.35624 5.16998 4.47311 5.49769 4.74582 5.62831C4.95665 5.72915 5.20645 5.6856 5.37145 5.5206C5.53645 5.3556 5.57999 5.10581 5.47686 4.89498L7.4454 2.92643C7.51645 2.85768 7.51645 2.74081 7.4454 2.66977ZM5.11249 5.26394C5.03915 5.33269 4.92686 5.33269 4.85353 5.26394C4.78249 5.19289 4.78249 5.07602 4.85353 5.00498C4.92457 4.93394 5.04145 4.93394 5.11249 5.00498C5.18353 5.07602 5.18353 5.1906 5.11249 5.26394Z" fill="black"/>
    <path d="M5.97656 8.75186C5.97656 8.08728 6.41198 7.71832 6.82906 7.56936C6.41198 7.39519 6.17135 7.05832 6.17135 6.6229C6.17135 5.98582 6.60677 5.48853 7.46156 5.48853C8.24073 5.48853 8.6899 5.98582 8.6899 6.61603C8.6899 7.06519 8.43552 7.41582 8.03906 7.55561C8.5226 7.70228 8.87094 8.14686 8.87094 8.73811C8.87094 9.5379 8.26594 10.0673 7.40656 10.0673C6.57927 10.0673 5.97656 9.5379 5.97656 8.75186ZM8.50656 8.73811C8.50656 8.09415 8.1101 7.73665 7.4249 7.73665C6.66635 7.73665 6.33635 8.17894 6.33635 8.73811C6.33635 9.30186 6.71906 9.75103 7.41802 9.75103C8.06427 9.75103 8.50656 9.38894 8.50656 8.73811ZM6.53344 6.60228C6.53344 7.02623 6.78781 7.41582 7.4524 7.41582C8.07115 7.41582 8.32552 7.09269 8.32552 6.62978C8.32552 6.20582 8.06427 5.80478 7.43865 5.80478C6.77406 5.80478 6.53344 6.15311 6.53344 6.60228Z" fill="black"/>
</svg>