<svg width="16" height="16" viewBox="0 0 16 16" fill="none" xmlns="http://www.w3.org/2000/svg">
    <path d="M4.33105 0.5H11.6689C13.781 0.5 15.5 2.21901 15.5 4.33105V11.669C15.5 13.781 13.781 15.5 11.669 15.5H4.33105C2.219 15.5 0.5 13.781 0.5 11.669V4.33105C0.5 2.21901 2.21901 0.5 4.33105 0.5Z" stroke="white"/>
    <path d="M8.00036 10.9368C6.38148 10.9368 5.06348 9.61886 5.06348 7.99987C5.06348 6.381 6.38149 5.06299 8.00036 5.06299C9.61935 5.06299 10.9372 6.38099 10.9372 7.99987C10.9372 9.61887 9.61936 10.9368 8.00036 10.9368Z" stroke="white"/>
    <path d="M11.6865 3.36401C11.6865 2.92736 12.0425 2.57129 12.4792 2.57129C12.9161 2.57129 13.2721 2.92733 13.2721 3.36401C13.2721 3.80076 12.916 4.15685 12.4792 4.15685C12.0426 4.15685 11.6865 3.80082 11.6865 3.36401Z" stroke="white"/>
</svg>