<svg width="25" height="25" viewBox="0 0 25 25" fill="none" xmlns="http://www.w3.org/2000/svg">
<path d="M7.97282 0.0136719H17.0294C19.0219 0.0136719 20.8332 0.828766 22.1011 2.18726C23.369 3.45518 24.1841 5.2665 24.1841 7.25896V16.859C24.1841 18.8514 23.369 20.5722 22.1011 21.9307C20.8332 23.1986 19.0219 24.0137 17.0294 24.0137H7.97282C5.98037 24.0137 4.16905 23.1986 2.90112 21.9307C1.54263 20.5722 0.727539 18.8514 0.727539 16.859V7.25896C0.727539 5.2665 1.54263 3.45518 2.90112 2.18726C4.16905 0.828766 5.98037 0.0136719 7.97282 0.0136719Z" fill="#74BD00"/>
<path d="M12.5972 6.18506C14.318 6.18506 15.8576 6.81902 16.9444 7.99638C18.0312 9.08317 18.7557 10.6228 18.7557 12.3435C18.7557 14.0643 18.0312 15.5134 16.9444 16.6907C15.8576 17.7775 14.318 18.502 12.5972 18.502C10.8765 18.502 9.33683 17.7775 8.25004 16.6907C7.07268 15.5134 6.43872 14.0643 6.43872 12.3435C6.43872 10.6228 7.07268 9.08317 8.25004 7.99638C9.33683 6.81902 10.8765 6.18506 12.5972 6.18506ZM15.4953 9.35487C14.7708 8.63034 13.684 8.17751 12.5972 8.17751C11.4199 8.17751 10.4236 8.63034 9.60853 9.35487C8.884 10.17 8.43117 11.1662 8.43117 12.3435C8.43117 13.4303 8.884 14.5171 9.60853 15.2417C10.4236 15.9662 11.4199 16.419 12.5972 16.419C13.684 16.419 14.7708 15.9662 15.4953 15.2417C16.2199 14.5171 16.7632 13.4303 16.7632 12.3435C16.7632 11.1662 16.2199 10.17 15.4953 9.35487Z" fill="white"/>
<path d="M19.2098 7.2714C20.0101 7.2714 20.6589 6.62264 20.6589 5.82235C20.6589 5.02206 20.0101 4.37329 19.2098 4.37329C18.4095 4.37329 17.7607 5.02206 17.7607 5.82235C17.7607 6.62264 18.4095 7.2714 19.2098 7.2714Z" fill="white"/>
</svg>
