<svg width="15" height="15" viewBox="0 0 15 15" fill="none" xmlns="http://www.w3.org/2000/svg">
    <path d="M7.89974 6.21834V6.22151L7.48218 6.89767H8.3786H8.39974H8.89974V6.51781C9.0869 6.24535 9.32315 5.96051 9.65343 5.73153C10.0255 5.47359 10.5434 5.26835 11.2979 5.26835C12.2445 5.26833 13.026 5.5746 13.5748 6.16975C14.1273 6.76887 14.5 7.72203 14.5 9.12128V14.1669H12.285V9.49269C12.285 8.79734 12.1631 8.13365 11.8203 7.63036C11.4558 7.09517 10.8856 6.80583 10.1563 6.80583C8.9977 6.80583 8.324 7.59748 8.04342 8.29384C7.91882 8.59876 7.90005 8.97278 7.90005 9.2658V14.1669H5.68632C5.68735 13.9367 5.68865 13.6365 5.69007 13.2854C5.69346 12.4495 5.69752 11.3254 5.70023 10.1729C5.7045 8.35268 5.70554 6.44177 5.69456 5.49555H7.89974V6.21834ZM0.5 2.00415C0.5 1.66069 0.62785 1.37692 0.840192 1.17689C1.05354 0.975906 1.38073 0.833496 1.81984 0.833496C2.25753 0.833496 2.57154 0.974817 2.77588 1.1724C2.9801 1.36986 3.10848 1.65584 3.11763 2.00966C3.11628 2.34297 2.99227 2.62617 2.78249 2.82752C2.57191 3.02963 2.24624 3.17602 1.79864 3.17602H1.77716C0.963211 3.17602 0.5 2.64472 0.5 2.00415ZM2.90585 5.49555V14.1669H0.691006V5.49555H2.90585Z" stroke="white"/>
</svg>