<svg width="20" height="23" viewBox="0 0 20 23" fill="none" xmlns="http://www.w3.org/2000/svg">
<path d="M9.7036 12.393C9.72743 12.393 9.75125 12.393 9.77984 12.393C9.78937 12.393 9.79891 12.393 9.80844 12.393C9.82273 12.393 9.84179 12.393 9.85609 12.393C11.2523 12.3692 12.3817 11.8787 13.2157 10.9404C15.0503 8.87327 14.7453 5.32968 14.712 4.99151C14.5928 2.45289 13.392 1.23835 12.4008 0.671568C11.6622 0.24767 10.7996 0.0190516 9.83703 0H9.80367C9.79891 0 9.78937 0 9.78461 0H9.75602C9.22706 0 8.18822 0.0857321 7.19226 0.652516C6.19154 1.2193 4.97161 2.43384 4.85247 4.99151C4.81912 5.32968 4.51414 8.87327 6.34879 10.9404C7.17796 11.8787 8.30735 12.3692 9.7036 12.393ZM6.12482 5.11058C6.12482 5.09629 6.12959 5.08201 6.12959 5.07248C6.28684 1.65749 8.71241 1.29074 9.75125 1.29074H9.77031C9.77984 1.29074 9.79414 1.29074 9.80844 1.29074C11.0951 1.31932 13.2824 1.84324 13.4301 5.07248C13.4301 5.08677 13.4301 5.10106 13.4349 5.11058C13.4396 5.14392 13.7732 8.38269 12.2578 10.0878C11.6574 10.7641 10.8568 11.0975 9.80367 11.1071C9.79414 11.1071 9.78937 11.1071 9.77984 11.1071C9.77031 11.1071 9.76555 11.1071 9.75602 11.1071C8.70764 11.0975 7.9023 10.7641 7.30663 10.0878C5.79601 8.39221 6.12006 5.13916 6.12482 5.11058Z" fill="white"/>
<path d="M19.5728 18.2704C19.5728 18.2657 19.5728 18.2609 19.5728 18.2561C19.5728 18.218 19.568 18.1799 19.568 18.1371C19.5394 17.194 19.4775 14.9888 17.4093 14.2839C17.395 14.2791 17.3759 14.2744 17.3616 14.2696C15.2124 13.7219 13.4254 12.4835 13.4063 12.4692C13.1157 12.2644 12.7154 12.3359 12.5105 12.6264C12.3055 12.9169 12.377 13.317 12.6677 13.5218C12.7487 13.579 14.6453 14.8983 17.0185 15.508C18.1288 15.9033 18.2527 17.0892 18.2861 18.1752C18.2861 18.218 18.2861 18.2561 18.2909 18.2943C18.2956 18.7229 18.267 19.385 18.1908 19.766C17.4188 20.2042 14.3928 21.7188 9.78941 21.7188C5.20511 21.7188 2.16002 20.1994 1.38326 19.7612C1.30701 19.3802 1.27366 18.7182 1.28319 18.2895C1.28319 18.2514 1.28795 18.2133 1.28795 18.1704C1.32131 17.0845 1.44521 15.8985 2.55555 15.5032C4.92871 14.8935 6.82534 13.5695 6.90635 13.5171C7.19704 13.3123 7.26852 12.9122 7.06361 12.6216C6.8587 12.3311 6.4584 12.2597 6.16771 12.4645C6.14865 12.4788 4.37116 13.7171 2.21244 14.2648C2.19338 14.2696 2.17908 14.2744 2.16479 14.2791C0.0966049 14.9888 0.0346548 17.194 0.00606247 18.1323C0.00606247 18.1752 0.00606236 18.2133 0.00129697 18.2514C0.00129697 18.2562 0.00129697 18.2609 0.00129697 18.2657C-0.00346842 18.5133 -0.00823371 19.785 0.244332 20.4233C0.291986 20.5471 0.377763 20.6519 0.492133 20.7233C0.635094 20.8186 4.06141 23 9.79418 23C15.5269 23 18.9533 20.8138 19.0962 20.7233C19.2058 20.6519 19.2964 20.5471 19.344 20.4233C19.5823 19.7898 19.5775 18.5181 19.5728 18.2704Z" fill="white"/>
</svg>
