<svg width="47" height="30" viewBox="0 0 47 30" fill="none" xmlns="http://www.w3.org/2000/svg">
<path d="M2.38441 2.14014H44.1111C44.6275 2.14014 44.9956 2.54301 44.9956 2.97827V27.5287C44.9956 27.964 44.6275 28.3668 44.1111 28.3668H2.38441C1.86813 28.3668 1.5 27.964 1.5 27.5287V2.97827C1.5 2.54301 1.86816 2.14014 2.38441 2.14014Z" stroke="white" stroke-width="3"/>
<path d="M42.8581 15.2529C42.8581 21.8206 37.3976 27.1659 30.686 27.1659C27.8866 27.1659 25.306 26.234 23.2473 24.6756C21.1898 26.234 18.6091 27.1659 15.8099 27.1659C9.09863 27.1659 3.63843 21.8207 3.63843 15.2529C3.63843 8.68446 9.09875 3.34229 15.8099 3.34229C18.6093 3.34229 21.19 4.27064 23.2473 5.8313C25.3061 4.27064 27.8867 3.34229 30.686 3.34229C37.3972 3.34229 42.8581 8.68496 42.8581 15.2529ZM30.6686 4.39395C28.1996 4.39395 25.9202 5.18558 24.0785 6.5215C25.7486 8.04265 26.9838 10.018 27.5739 12.2442H26.4458C25.8679 10.2761 24.7382 8.53842 23.2295 7.2012C21.7226 8.53842 20.592 10.2761 20.0162 12.2442H18.8864C19.478 10.018 20.7131 8.04265 22.3833 6.5215C20.5408 5.18558 18.2623 4.39395 15.7919 4.39395C9.67198 4.39395 4.71065 9.24912 4.71065 15.2398C4.71065 21.2288 9.67198 26.0857 15.7919 26.0857C18.2622 26.0857 20.5407 25.294 22.3833 23.9582C20.8118 22.5259 19.6262 20.6906 18.9994 18.625H20.1402C20.7461 20.4338 21.8219 22.0303 23.2295 23.2783C24.6387 22.0303 25.7159 20.4338 26.3219 18.625H27.4623C26.8345 20.6908 25.6492 22.5259 24.0784 23.9582C25.9199 25.294 28.1993 26.0857 30.6685 26.0857C36.7885 26.0857 41.7498 21.2289 41.7498 15.2398C41.7499 9.24924 36.7886 4.39395 30.6685 4.39395H30.6686Z" fill="white" stroke="white"/>
<path d="M11.3099 12.6361H9.53545L8.42651 15.8714L8.38036 12.6361H6.73596L5.84326 17.8634H6.91337L7.60065 13.8698L7.69662 17.8634H8.47627L9.93736 13.8459L9.28269 17.8634H10.4255L11.3099 12.6361ZM14.255 17.8585H13.3077L13.3298 17.4174C13.0406 17.7656 12.6555 17.9323 12.1323 17.9323C11.5117 17.9323 11.089 17.458 11.089 16.7721C11.089 15.7355 11.8261 15.133 13.0941 15.133C13.2241 15.133 13.3904 15.1448 13.5604 15.1662C13.5958 15.0248 13.6043 14.9654 13.6043 14.8893C13.6043 14.6088 13.4062 14.503 12.8718 14.503C12.3132 14.4959 11.8517 14.6327 11.6623 14.6945C11.6744 14.6232 11.8215 13.7388 11.8215 13.7388C12.3899 13.5748 12.7662 13.513 13.1889 13.513C14.1702 13.513 14.6902 13.9432 14.6889 14.7587C14.6902 14.9774 14.6536 15.2471 14.5965 15.6027C14.497 16.217 14.2844 17.5363 14.2551 17.8584V17.8585H14.255ZM13.4521 15.9847C13.3319 15.9727 13.2795 15.968 13.197 15.968C12.5484 15.968 12.2216 16.1853 12.2216 16.6133C12.2216 16.8786 12.382 17.0472 12.6297 17.0472C13.0962 17.0472 13.4312 16.6133 13.4521 15.9847ZM29.2208 12.5193C27.7062 12.5193 26.6469 13.8243 26.6469 15.6929C26.6469 17.0811 27.4136 17.9488 28.6439 17.9488C28.9595 17.9488 29.2327 17.9084 29.653 17.7943L29.8534 16.6044C29.4757 16.7864 29.1649 16.8731 28.8828 16.8731C28.2185 16.8731 27.8176 16.3928 27.8176 15.5999C27.8176 14.4482 28.4142 13.6412 29.2679 13.6412C29.5849 13.6412 29.8813 13.7221 30.2893 13.9242L30.4763 12.7904C30.3089 12.7261 29.7197 12.5193 29.2208 12.5193ZM33.3315 17.8585H32.3855L32.4074 17.4174C32.1171 17.7656 31.7308 17.9323 31.2085 17.9323C30.5891 17.9323 30.164 17.458 30.164 16.7721C30.164 15.7355 30.9037 15.133 32.1704 15.133C32.3004 15.133 32.4669 15.1448 32.6371 15.1662C32.672 15.0248 32.6807 14.9654 32.6807 14.8893C32.6807 14.6088 32.4827 14.503 31.9494 14.503C31.3896 14.4959 30.9294 14.6327 30.7397 14.6945C30.7507 14.6232 30.8977 13.7388 30.8977 13.7388C31.4673 13.5748 31.8437 13.513 32.2639 13.513C33.2466 13.513 33.7666 13.9432 33.7653 14.7587C33.7676 14.9774 33.7301 15.2471 33.6729 15.6027C33.5746 16.217 33.3611 17.5363 33.3317 17.8584V17.8585H33.3315ZM32.5282 15.9847C32.4092 15.9727 32.3557 15.968 32.2719 15.968C31.6245 15.968 31.2965 16.1853 31.2965 16.6133C31.2965 16.8786 31.4569 17.0472 31.7072 17.0472C32.1725 17.0472 32.5088 16.6133 32.5282 15.9847ZM19.879 16.8733C19.8025 16.8996 19.7017 16.9137 19.5718 16.9137C19.2998 16.9137 19.1796 16.8188 19.1796 16.5987C19.1821 16.4634 19.3703 15.4578 19.5015 14.6506H20.0879L20.2435 13.6284H19.6592L19.7916 12.9869H18.6559C18.6559 12.9869 18.2261 15.4888 18.1618 15.8845C18.0888 16.3374 17.9966 16.8307 18.0037 17.0184C18.0037 17.6235 18.322 17.9528 18.9061 17.9528C19.1711 17.9528 19.4148 17.9099 19.7286 17.8149L19.879 16.8733ZM23.3704 17.761C22.9794 17.8776 22.6027 17.9323 22.2045 17.9323C20.9314 17.9296 20.2685 17.2797 20.2685 16.0352C20.2685 14.5827 21.1125 13.5129 22.2578 13.5129C23.1942 13.5129 23.7932 14.1108 23.7932 15.0521C23.7932 15.3635 23.7506 15.6666 23.6521 16.0982H21.3906C21.3141 16.7126 21.7175 16.9693 22.3782 16.9693C22.7849 16.9693 23.1506 16.8884 23.5587 16.7031L23.3704 17.761ZM22.7749 15.2675C22.7822 15.1796 22.895 14.5066 22.2465 14.5066C21.8844 14.5066 21.6247 14.779 21.5204 15.2675H22.7749ZM15.1598 14.9512C15.1598 15.4897 15.4245 15.8593 16.0294 16.1387C16.4921 16.3525 16.5638 16.4144 16.5638 16.6083C16.5638 16.8719 16.3597 16.9909 15.9067 16.9909C15.5666 16.9909 15.2484 16.9408 14.8827 16.8245C14.8827 16.8245 14.7323 17.7611 14.7249 17.8064C14.9861 17.8612 15.2168 17.9131 15.9152 17.9323C17.1211 17.9323 17.6775 17.4817 17.6775 16.5119C17.6775 15.926 17.4455 15.586 16.8721 15.3278C16.3937 15.1115 16.3378 15.0641 16.3378 14.8656C16.3378 14.635 16.5285 14.5185 16.8989 14.5185C17.1223 14.5185 17.4296 14.5424 17.7187 14.5828L17.8815 13.5962C17.5851 13.551 17.1371 13.513 16.8758 13.513C15.597 13.5129 15.1549 14.1655 15.1598 14.9512ZM39.7649 17.8634H38.6829L38.7375 17.4678C38.4229 17.7948 38.1012 17.9374 37.6834 17.9374C36.8525 17.9374 36.3036 17.2372 36.3036 16.1746C36.3036 14.7588 37.1548 13.568 38.1628 13.568C38.6051 13.568 38.9426 13.7439 39.255 14.1469L39.5075 12.6363H40.6347L39.7649 17.8634ZM38.0815 16.8892C38.6133 16.8892 38.9887 16.2983 38.9887 15.4567C38.9887 14.9159 38.7762 14.6235 38.3824 14.6235C37.8638 14.6235 37.4958 15.2143 37.4958 16.0499C37.4958 16.6074 37.6928 16.8892 38.0815 16.8892ZM34.5667 13.6174C34.4235 14.932 34.1695 16.2644 33.9716 17.5814L33.9193 17.8678H35.061C35.4703 15.2685 35.5698 14.7609 36.2099 14.825C36.3118 14.2913 36.5013 13.8268 36.6446 13.5914C36.1652 13.4937 35.8977 13.7601 35.5494 14.2629C35.5771 14.0442 35.627 13.8338 35.6161 13.6174H34.5667ZM24.5539 13.6174C24.4102 14.932 24.1553 16.2644 23.9573 17.5814L23.905 17.8678H25.0478C25.4572 15.2685 25.5555 14.7609 26.1955 14.825C26.2988 14.2913 26.4894 13.8268 26.6305 13.5914C26.153 13.4937 25.8837 13.7601 25.5348 14.2629C25.5628 14.0442 25.6124 13.8338 25.6028 13.6174H24.5539Z" fill="white"/>
</svg>
