<svg width="66" height="90" viewBox="0 0 66 90" fill="none" xmlns="http://www.w3.org/2000/svg">
<path d="M3.74704 40.8086C4.36227 43.0644 2.80368 46.5918 4.40329 49.3398C6.0029 52.1084 9.89938 52.6006 11.458 54.1387C12.4424 55.5127 13.2832 57.0098 13.9394 58.5684L6.14645 81.4141C5.77731 82.6035 6.20798 83.8955 7.19235 84.6543C8.17673 85.4131 9.55075 85.4541 10.5761 84.7773L15.4775 81.291L17.2002 87.0332C17.5693 88.2637 18.6972 89.125 19.9687 89.1455C21.2402 89.1865 22.4092 88.3662 22.8193 87.1562L30.4687 65.1514C31.7812 65.7051 33.2783 65.7051 34.6113 65.1514L42.1992 87.2178C42.6093 88.4277 43.7783 89.248 45.0498 89.207C46.3213 89.166 47.4492 88.3252 47.8183 87.0947L49.541 81.3525L54.4424 84.7773C55.4883 85.4541 56.8418 85.3926 57.8261 84.6543C58.8105 83.916 59.2207 82.6035 58.872 81.4141L51.0996 58.6094C51.7763 57.0508 52.5967 55.5742 53.581 54.1797C55.1806 52.5186 59.0976 52.0879 60.6562 49.3193C62.2148 46.5508 60.7178 42.9619 61.3125 40.7881C61.9072 38.6143 65.0039 36.3174 65.0039 33.0977C65.0039 29.8779 61.8457 27.458 61.3125 25.4072C60.7793 23.3564 62.2558 19.624 60.6562 16.876C59.0566 14.1279 55.1396 13.6152 53.6015 12.0566C52.0634 10.4775 51.5508 6.54004 48.7822 4.96094C45.9931 3.38184 42.4248 4.96094 40.2509 4.3252C38.0566 3.70996 35.7802 0.633789 32.54 0.633789C29.2793 0.633789 26.9209 3.77148 24.8496 4.3252C22.5527 4.94043 19.0869 3.36133 16.3183 4.96094C13.5498 6.56055 13.0371 10.4775 11.4785 12.0566C9.91989 13.6357 5.96188 14.1074 4.48532 16.876C3.00876 19.665 4.48532 23.2334 3.82907 25.4072C3.17282 27.5811 0.0556335 29.8574 0.0556335 33.0977C0.0556335 36.3379 3.19333 38.7168 3.74704 40.8086ZM20.0918 86.2539L18.3691 80.4707C18.082 79.5684 17.3642 78.8711 16.4619 78.5635C15.5595 78.2559 14.5752 78.4199 13.8164 78.9736L8.91501 82.3984C16.8105 59.3682 16.1543 61.1318 16.2978 61.1318C19.0049 62.7109 22.6552 61.1318 24.8291 61.7676C25.8955 62.2187 26.8799 62.8135 27.7822 63.5723L20.0918 86.2539ZM51.2431 78.8711C50.4638 78.3174 49.459 78.1738 48.5361 78.5019C47.6338 78.8301 46.9365 79.5684 46.6904 80.4912L44.9677 86.2539L37.1953 63.6748C38.0771 62.9365 39.082 62.3213 40.1484 61.8906C42.4658 61.2754 45.9111 62.834 48.6797 61.2344C48.8437 61.1523 48.167 59.4297 56.0625 82.4189L51.2431 78.8711ZM4.64938 29.7344C6.76169 26.7812 7.0488 25.8174 6.70016 21.9824C6.35153 18.1475 6.55661 17.9014 10.0019 16.3018C13.4472 14.7021 14.124 14.0459 15.6826 10.6211C17.2412 7.19629 17.7334 6.99121 21.3633 7.33984C24.9931 7.68848 26.1416 7.33984 29.1152 5.28906C32.0888 3.23828 32.7656 3.09473 35.8828 5.28906C39 7.4834 39.8818 7.66797 43.6347 7.33984C47.3877 7.01172 47.7363 7.19629 49.3154 10.6211C50.915 14.0459 51.5918 14.7432 54.9961 16.3018C58.3799 17.8809 58.6465 18.2705 58.2978 21.9824C57.9492 25.6738 58.2978 26.7607 60.3486 29.7344C62.3994 32.708 62.5429 33.3848 60.3486 36.5019C58.1543 39.6191 57.9492 40.4189 58.2978 44.2539C58.6465 48.0889 58.4414 48.335 54.9961 49.9346C51.5508 51.5342 50.8945 52.1904 49.3154 55.6152C47.7158 59.04 47.3466 59.2451 43.6347 58.917C39.9228 58.5889 38.8564 58.917 35.8828 60.9678C32.9091 63.0185 32.2324 63.1621 29.1152 60.9678C27.5771 59.5937 25.5879 58.8144 23.5166 58.7939C21.3838 58.7939 18.9843 59.4092 17.7334 58.6914C16.0312 57.707 15.58 54.1182 13.5293 52.1084C11.4785 50.0576 7.88962 49.5654 6.94626 47.9248C6.0029 46.2637 7.33591 42.9004 6.59762 40.1318C5.85934 37.3428 3.00876 35.1484 3.00876 33.1797C3.21384 31.8467 3.78805 30.6777 4.64938 29.7344Z" fill="black"/>
<path d="M32.5195 55.2461C44.7421 55.2461 54.6679 45.3408 54.6679 33.0977C54.6679 20.8545 44.7626 10.9492 32.5195 10.9492C20.2763 10.9492 10.371 20.8545 10.371 33.0977C10.371 45.3408 20.2968 55.2461 32.5195 55.2461ZM32.5195 13.9434C43.122 13.9434 51.6943 22.5361 51.6943 33.1182C51.6943 43.7002 43.122 52.3135 32.5195 52.3135C21.9169 52.3135 13.3447 43.7207 13.3447 33.1182C13.3447 28.0322 15.3749 23.1514 18.9638 19.5625C22.5527 15.9736 27.4335 13.9434 32.5195 13.9434Z" fill="black"/>
<path d="M38.0976 28.1758C38.0976 28.1348 38.1181 28.1143 38.1386 28.0938C38.0976 28.1143 38.0976 28.1553 38.0976 28.1758Z" fill="black"/>
<path d="M46.1982 33.918L46.1367 33.959C46.0751 34 46.0546 34.0205 45.9931 34.041L45.8085 34.1846L45.829 34.1231C45.624 34.2871 45.4189 34.4922 45.2343 34.6973C44.7831 35.1895 44.414 35.7432 44.0859 36.3584C43.5117 37.5274 43.2451 38.7373 43.2451 40.0293C43.2451 40.378 43.2861 40.7471 43.3476 41.1778C43.3681 41.3008 43.4091 41.4239 43.4296 41.5264C43.4706 41.6494 43.4911 41.793 43.5527 41.916L43.6347 42.2031C43.6347 42.2237 43.6347 42.2237 43.6552 42.2442L43.6962 42.2031L43.7372 42.3467C43.7577 42.4287 43.7577 42.5108 43.7577 42.5928V42.7569L43.6347 42.6543C43.6347 42.6338 43.6142 42.6338 43.5937 42.6133L43.5732 42.5928V42.5518C43.5732 42.5313 43.5527 42.4903 43.5527 42.4903C43.4296 42.2237 43.2861 41.9981 43.0605 41.8135C42.8964 41.6699 42.7118 41.5469 42.5068 41.4239C42.3222 41.3213 42.0966 41.2188 41.8505 41.1162C41.3788 40.9522 40.9072 40.7881 40.415 40.6651C39.8818 40.5215 39.3486 40.4395 38.8154 40.3985C38.5077 40.3574 38.2411 40.3369 37.9951 40.3369C37.3183 40.3164 36.6415 40.3574 36.0058 40.4395C35.5751 40.501 35.124 40.6035 34.6728 40.7061C33.7089 40.9727 32.7451 41.3418 31.8222 41.8545C31.0019 42.3262 30.1611 42.9004 29.3203 43.6387C29.0947 43.8233 28.8896 44.0283 28.664 44.2744C28.4589 44.5 28.2949 44.7666 28.1718 45.0127C28.1103 45.1358 28.0693 45.2383 28.0283 45.3614L27.9667 45.4844C27.9462 45.5049 27.9462 45.5459 27.9257 45.5459L27.8232 45.7715L27.7617 45.6074C27.7411 45.5664 27.7411 45.5459 27.7411 45.5459C27.7617 45.4844 27.7822 45.4229 27.8027 45.3819C27.9257 44.9512 27.9667 44.5 27.9667 43.9873C27.9667 43.7412 27.9462 43.4951 27.9052 43.249C27.8437 42.8799 27.7411 42.5313 27.6386 42.1826C27.5361 41.8955 27.372 41.6084 27.1874 41.3008C27.1259 41.1983 27.0644 41.0957 27.0029 41.0137C26.9413 40.9112 26.8798 40.8086 26.8183 40.7061C26.6747 40.4805 26.5722 40.2959 26.4902 40.0908C26.3466 39.8242 26.2646 39.5576 26.2236 39.291C26.1826 39.086 26.162 38.8604 26.162 38.6143C26.1415 38.3477 26.121 38.0401 26.08 37.753C25.998 37.2198 25.7519 36.7071 25.3828 36.2559C25.2392 36.0918 25.0956 35.9483 24.9111 35.8252C24.747 35.7022 24.5624 35.5996 24.3779 35.5381C24.3574 35.5381 24.3369 35.5176 24.3163 35.5176V35.5586L24.1523 35.4971L24.0497 35.374L24.1113 35.3125C24.2343 35.169 24.3163 35.0459 24.3574 34.9024C24.3574 34.8614 24.3779 34.8408 24.3779 34.8408V34.8203C24.3984 34.7588 24.4189 34.7383 24.4394 34.6768C24.6035 34.2871 24.6855 33.8565 24.6855 33.4053C24.6855 33.0156 24.624 32.6055 24.4394 32.1953C24.1318 31.416 23.5986 30.7188 22.8398 30.1651C22.4911 29.8985 22.1015 29.6524 21.6708 29.4268C21.5273 29.3653 21.3837 29.2627 21.2402 29.2012C21.1581 29.1602 21.0556 29.1397 20.9531 29.0987C20.8915 29.0781 20.8505 29.0781 20.789 29.0781C20.7685 29.0781 20.748 29.0987 20.7275 29.0987L20.666 29.1192L20.6249 29.0781C20.5839 29.0371 20.5634 29.0166 20.5224 28.9756L20.5839 28.9141V28.8321H20.707C20.789 28.8321 20.871 28.8115 20.9736 28.8115C21.1786 28.7705 21.4042 28.709 21.6503 28.586C21.8759 28.4834 22.1015 28.3604 22.3271 28.1963C22.6142 28.0117 22.9218 27.7862 23.1884 27.5606C23.455 27.335 23.7011 27.0889 23.9677 26.8428L24.0292 26.7813C24.2958 26.5147 24.5829 26.2891 24.8701 26.043C25.3622 25.6533 25.8954 25.3047 26.4697 25.0586C26.6132 24.9971 26.7363 24.9356 26.8798 24.8946L27.0234 24.833C27.1669 24.7715 27.29 24.71 27.413 24.669C27.6796 24.5459 27.9052 24.4229 28.1308 24.2793C28.3974 24.1153 28.623 23.9307 28.8281 23.7461C29.2177 23.3565 29.4433 22.9258 29.5458 22.4746C29.6074 22.208 29.6074 21.9824 29.5868 21.7774C29.5458 21.5723 29.5048 21.3877 29.4228 21.2237C29.4023 21.1826 29.3818 21.1416 29.4023 21.0801L29.4228 21.0186H29.4843C29.5458 20.9981 29.5869 21.0391 29.6279 21.0801C29.997 21.3672 30.4277 21.5723 30.9404 21.7569C31.33 21.8799 31.6786 21.9414 32.0068 22.0235C32.1708 22.0645 32.3349 22.085 32.499 22.1055C32.7451 22.167 32.9911 22.1875 33.2167 22.249C33.5654 22.3106 33.8935 22.4131 34.2216 22.5156C34.8984 22.7412 35.4931 23.1104 35.9853 23.6026C36.1699 23.8076 36.3749 24.0127 36.5185 24.2383C36.7646 24.5869 36.9492 24.9356 37.1132 25.3047C37.0107 25.1406 36.9081 24.9971 36.7851 24.8535C36.457 24.4844 36.0673 24.2178 35.5956 24.0332C35.3701 23.9512 35.124 23.8692 34.8984 23.8076C34.7343 23.7666 34.5702 23.7256 34.4062 23.6846C34.2831 23.6436 34.1806 23.6231 34.0576 23.6026C33.832 23.541 33.5654 23.4795 33.3193 23.377C32.9501 23.2334 32.663 23.0899 32.4169 22.8643C32.3964 22.8438 32.3554 22.8233 32.3349 22.8233H32.2939L32.2734 22.8643C32.2529 22.9053 32.2734 22.9258 32.2939 22.9668C32.3554 23.0899 32.3554 23.2129 32.3759 23.3565C32.3964 23.5 32.3759 23.6436 32.3144 23.8487C32.2324 24.1768 32.0478 24.4639 31.7812 24.71C31.6376 24.833 31.4736 24.9561 31.289 25.0586C31.1249 25.1406 30.9814 25.2227 30.7763 25.3047C30.6943 25.3457 30.5917 25.3662 30.5097 25.4072L30.4072 25.4483C30.3046 25.4893 30.2226 25.5098 30.1201 25.5508C29.7304 25.7149 29.3202 25.9199 28.9716 26.1865C28.7665 26.3506 28.5615 26.5147 28.3564 26.6787L28.2949 26.7403C28.1103 26.9043 27.9052 27.0479 27.7206 27.2119C27.5361 27.376 27.331 27.499 27.1054 27.6221C26.9413 27.7246 26.7773 27.7862 26.6132 27.8682C26.4492 27.9297 26.2851 27.9912 26.121 28.0117C26.0595 28.0117 25.9775 28.0323 25.9365 28.0117H25.8544V28.0733L25.8134 28.1143C25.8339 28.1348 25.8749 28.1758 25.8749 28.1758L25.916 28.2168L25.957 28.1963C25.957 28.1963 25.9775 28.1963 25.998 28.1758C26.039 28.1758 26.0595 28.1758 26.1005 28.1963C26.1826 28.2373 26.2441 28.2578 26.3056 28.2783C26.4081 28.3399 26.4902 28.3809 26.5927 28.4424C26.8798 28.6065 27.1464 28.8115 27.372 28.9961C27.8642 29.4063 28.2128 29.919 28.4179 30.4727C28.5204 30.7803 28.5615 31.0674 28.541 31.334C28.5204 31.6416 28.4589 31.9492 28.3359 32.2158C28.3154 32.2569 28.2949 32.2774 28.2744 32.2979V32.3184C28.2744 32.3389 28.2538 32.3594 28.2538 32.3799C28.2128 32.4619 28.1513 32.5645 28.0693 32.6465L28.0283 32.6875L28.0898 32.7696L28.1923 32.8106V32.7901C28.2128 32.7901 28.2333 32.7901 28.2333 32.8106C28.3769 32.8721 28.4999 32.9336 28.6025 33.0362C28.7255 33.1182 28.8281 33.2207 28.9101 33.3438C29.1562 33.6719 29.2997 34.0205 29.3408 34.3897C29.3613 34.5947 29.3613 34.7998 29.3613 35.0049C29.3613 35.169 29.3818 35.333 29.4023 35.4766C29.4228 35.6406 29.4638 35.8457 29.5663 36.0508C29.6279 36.1944 29.6894 36.3174 29.7714 36.4815C29.8124 36.543 29.8535 36.6455 29.8945 36.7071C29.9355 36.7686 29.9765 36.8506 30.0175 36.9326C30.1406 37.1582 30.2226 37.3633 30.2841 37.5684C30.3662 37.8145 30.4277 38.0606 30.4482 38.3272C30.4687 38.4912 30.4687 38.6758 30.4687 38.8399C30.4482 39.1885 30.4072 39.5166 30.3046 39.8037C30.2841 39.8448 30.2841 39.8858 30.2636 39.9268C30.2636 39.9473 30.2636 39.9678 30.2636 39.9883L30.3046 40.1319L30.3867 39.9678C30.3867 39.9473 30.4072 39.9268 30.4277 39.9063L30.4687 39.8242C30.5097 39.7422 30.5302 39.6602 30.5917 39.5781C30.6738 39.3936 30.7968 39.2295 30.9609 39.086C31.1249 38.9219 31.289 38.7783 31.4531 38.6553C32.0683 38.1631 32.663 37.794 33.2783 37.4864C33.9345 37.1582 34.6318 36.9121 35.329 36.7686C35.6367 36.7071 35.9443 36.666 36.2724 36.625C36.7236 36.584 37.1953 36.5635 37.6669 36.6045C37.831 36.625 38.0156 36.6455 38.2411 36.666C38.6103 36.7276 38.9794 36.8096 39.3486 36.9121C39.6972 37.0147 40.0253 37.1377 40.3329 37.2813C40.497 37.3428 40.6406 37.4453 40.7841 37.5274C40.9277 37.6094 41.0507 37.7119 41.1738 37.8145C41.3173 37.958 41.4199 38.1221 41.5019 38.3067C41.5019 38.3272 41.5224 38.3477 41.5224 38.3682V38.3887L41.5429 38.4092L41.5634 38.4297L41.6454 38.5117V38.3887C41.6454 38.3272 41.6454 38.2656 41.6249 38.2246L41.6044 38.1221L41.5839 38.1426V38.1221L41.5224 37.917C41.5019 37.835 41.4609 37.753 41.4609 37.6504C41.4404 37.5889 41.4199 37.4864 41.3994 37.4043C41.3583 37.1172 41.3583 36.8506 41.3583 36.6045C41.3994 35.7022 41.6249 34.8614 42.0761 34.0615C42.3017 33.6514 42.5888 33.2617 42.9169 32.9336C43.0605 32.7901 43.1835 32.667 43.3476 32.544L43.3271 32.6055L43.4706 32.503C43.5117 32.4824 43.5322 32.4414 43.5732 32.4414L43.6142 32.4209L43.5937 32.3594C43.5732 32.2979 43.5527 32.2774 43.5322 32.2158V32.1953C43.4706 32.1338 43.4501 32.0518 43.3886 31.9697C43.2656 31.7237 43.204 31.4776 43.1425 31.1905C43.122 31.0469 43.1015 30.9239 43.1015 30.8008C43.1015 30.4112 43.1835 30.0625 43.3476 29.7344C43.3681 29.6934 43.3886 29.6729 43.3886 29.6524L43.4091 29.6114L43.3886 29.5908C43.3886 29.5908 43.3681 29.5498 43.3271 29.5498C43.3066 29.5498 43.2656 29.5498 43.2451 29.5498C43.1015 29.5908 42.9579 29.5703 42.7734 29.5088C42.6708 29.4678 42.5683 29.4268 42.4658 29.3653C42.3632 29.3037 42.2812 29.2422 42.1787 29.1602C42.0556 29.0576 41.9326 28.9346 41.8095 28.8115L41.748 28.75C41.6865 28.6885 41.5839 28.586 41.5224 28.5244C41.4199 28.4219 41.3378 28.3399 41.2148 28.2578C40.8867 27.9912 40.5175 27.8272 40.0869 27.7246C39.9843 27.7041 39.8613 27.6836 39.7382 27.6631C39.4716 27.6221 39.1845 27.6631 38.9179 27.7451C38.7949 27.7862 38.6923 27.8272 38.5693 27.8682C38.4667 27.9092 38.3847 27.9502 38.2822 27.9912L38.1796 28.0528C38.1591 28.0733 38.1386 28.0733 38.1181 28.0938L38.0976 28.1143L38.1181 28.0938C38.1386 28.0733 38.1796 28.0528 38.2001 28.0322L38.3642 27.9707C38.5078 27.9092 38.6308 27.8477 38.7744 27.7862C38.9384 27.7246 39.082 27.6426 39.246 27.5811C39.6152 27.4375 39.9843 27.3965 40.3945 27.417C40.579 27.4375 40.7431 27.458 40.8867 27.4785C41.5019 27.5811 42.0556 27.8067 42.5068 28.1553C42.6708 28.2783 42.8144 28.4014 42.9579 28.5244C43.081 28.627 43.1835 28.7295 43.3066 28.8321L43.4091 28.9141C43.5732 29.0781 43.7577 29.2217 43.9423 29.3858C44.0859 29.4883 44.2089 29.5703 44.373 29.6524C44.537 29.7344 44.6806 29.7959 44.8242 29.8164C45.0908 29.878 45.2958 29.878 45.5009 29.8574C45.5624 29.8369 45.5829 29.8369 45.624 29.8369C45.6855 29.8369 45.706 29.8985 45.706 29.8985L45.7265 29.9395L45.706 30.001C45.6855 30.042 45.665 30.083 45.6445 30.1446C45.4394 30.6367 45.3574 31.1494 45.3779 31.7031C45.3779 31.8877 45.4189 32.0928 45.4394 32.2774C45.5009 32.667 45.6445 33.0362 45.829 33.3643C45.8906 33.5078 45.9726 33.5899 46.0341 33.6924L46.0546 33.7129C46.0956 33.7744 46.1161 33.836 46.1161 33.8975L46.1982 33.918Z" fill="black"/>
</svg>
