<svg width="48" height="30" viewBox="0 0 48 30" fill="none" xmlns="http://www.w3.org/2000/svg">
<path d="M2.73961 2.14014H44.5143C45.07 2.14014 45.5083 2.58662 45.5083 3.12223V27.3847C45.5083 27.9204 45.07 28.3668 44.5143 28.3668H2.73961C2.18382 28.3668 1.74561 27.9204 1.74561 27.3847V3.12223C1.74561 2.5866 2.18384 2.14014 2.73961 2.14014Z" stroke="white" stroke-width="3"/>
<path d="M10.1054 10.2498C9.58418 9.89149 8.90408 9.71191 8.06507 9.71191H4.81688C4.55967 9.71191 4.41757 9.84055 4.39058 10.0976L3.07104 18.3805C3.05732 18.4619 3.07768 18.5363 3.13191 18.6039C3.18583 18.6717 3.25366 18.7054 3.33488 18.7054H4.87775C5.14836 18.7054 5.2971 18.577 5.32441 18.3197L5.68977 16.0867C5.70311 15.9785 5.75071 15.8905 5.83193 15.8227C5.9131 15.7551 6.01461 15.7108 6.13642 15.6905C6.25823 15.6704 6.37309 15.6603 6.48156 15.6603C6.58972 15.6603 6.71823 15.6671 6.86734 15.6806C7.01608 15.6941 7.11089 15.7007 7.15154 15.7007C8.31539 15.7007 9.22893 15.3728 9.8922 14.7162C10.5552 14.0599 10.887 13.1498 10.887 11.9856C10.887 11.1872 10.6263 10.6086 10.1054 10.2498ZM8.43056 12.7368C8.36268 13.2106 8.18694 13.5217 7.90274 13.6707C7.61848 13.8198 7.21247 13.8939 6.68472 13.8939L6.01474 13.9142L6.35994 11.742C6.38687 11.5932 6.47479 11.5188 6.62378 11.5188H7.00962C7.55072 11.5188 7.94345 11.5968 8.18707 11.7521C8.43056 11.9079 8.51179 12.2362 8.43056 12.7368ZM44.384 9.71191H42.8819C42.7326 9.71191 42.6447 9.78638 42.6179 9.9353L41.2983 18.3806L41.2779 18.4212C41.2779 18.4892 41.305 18.5531 41.3593 18.6141C41.4131 18.6749 41.4811 18.7054 41.5622 18.7054H42.9021C43.159 18.7054 43.3011 18.577 43.3285 18.3197L44.6481 10.0163V9.99611C44.648 9.80667 44.5598 9.71191 44.384 9.71191ZM26.2347 12.9803C26.2347 12.9128 26.2074 12.8484 26.1537 12.7875C26.0994 12.7267 26.0384 12.6961 25.971 12.6961H24.4077C24.2585 12.6961 24.1368 12.7641 24.0423 12.899L21.8903 16.0662L20.9971 13.021C20.9291 12.8046 20.7804 12.6961 20.5505 12.6961H19.0277C18.9599 12.6961 18.899 12.7266 18.8452 12.7875C18.7909 12.8484 18.764 12.9128 18.764 12.9803C18.764 13.0076 18.8959 13.4066 19.1598 14.1781C19.4236 14.9497 19.7078 15.7821 20.0124 16.6754C20.3169 17.5685 20.4759 18.0424 20.4894 18.0962C19.3796 19.6122 18.8248 20.4243 18.8248 20.5324C18.8248 20.7085 18.9127 20.7963 19.0887 20.7963H20.652C20.8008 20.7963 20.9225 20.7288 21.0174 20.5934L26.1942 13.1224C26.2212 13.0955 26.2347 13.0483 26.2347 12.9803ZM40.7908 12.6961H39.2477C39.0581 12.6961 38.9434 12.9195 38.9029 13.3661C38.5505 12.825 37.9081 12.554 36.974 12.554C35.9996 12.554 35.1704 12.9195 34.4872 13.6503C33.8036 14.3812 33.4621 15.2408 33.4621 16.2287C33.4621 17.0273 33.6954 17.6634 34.1623 18.1369C34.6292 18.6109 35.2552 18.8475 36.0403 18.8475C36.4327 18.8475 36.832 18.7661 37.238 18.6038C37.644 18.4414 37.9618 18.225 38.1923 17.9542C38.1923 17.9678 38.1785 18.0286 38.1516 18.1368C38.1244 18.2453 38.111 18.3266 38.111 18.3804C38.111 18.5973 38.1988 18.7052 38.375 18.7052H39.7759C40.0326 18.7052 40.1818 18.5769 40.2222 18.3196L41.0547 13.0209C41.0681 12.9397 41.0477 12.8654 40.9938 12.7976C40.9394 12.73 40.872 12.6961 40.7908 12.6961ZM38.1414 16.6955C37.7964 17.0339 37.3802 17.203 36.893 17.203C36.5003 17.203 36.1826 17.0949 35.9388 16.8782C35.6951 16.662 35.5733 16.3642 35.5733 15.985C35.5733 15.4845 35.7425 15.0613 36.0808 14.7162C36.4188 14.3711 36.8388 14.1985 37.3396 14.1985C37.7182 14.1985 38.033 14.3102 38.2836 14.5334C38.5337 14.7568 38.6592 15.0647 38.6592 15.4573C38.6591 15.9445 38.4866 16.3574 38.1414 16.6955ZM17.7286 12.6961H16.1857C15.9959 12.6961 15.8811 12.9195 15.8405 13.3661C15.4751 12.825 14.8321 12.554 13.9118 12.554C12.9374 12.554 12.1083 12.9195 11.4249 13.6503C10.7413 14.3812 10.3997 15.2408 10.3997 16.2287C10.3997 17.0273 10.6332 17.6634 11.1002 18.1369C11.5671 18.6109 12.1929 18.8475 12.978 18.8475C13.3568 18.8475 13.7495 18.7661 14.1555 18.6038C14.5615 18.4414 14.8863 18.225 15.1299 17.9542C15.0756 18.1166 15.0487 18.2588 15.0487 18.3804C15.0487 18.5973 15.1366 18.7052 15.3126 18.7052H16.7134C16.9703 18.7052 17.1194 18.5769 17.16 18.3196L17.9923 13.0209C18.0057 12.9397 17.9854 12.8654 17.9315 12.7976C17.8773 12.73 17.8097 12.6961 17.7286 12.6961ZM15.0792 16.7056C14.734 17.0376 14.3109 17.203 13.8104 17.203C13.4177 17.203 13.103 17.0949 12.8664 16.8782C12.6294 16.662 12.5111 16.3642 12.5111 15.985C12.5111 15.4845 12.6802 15.0613 13.0187 14.7162C13.3568 14.3711 13.7764 14.1985 14.2773 14.1985C14.6561 14.1985 14.9708 14.3102 15.2214 14.5334C15.4716 14.7568 15.5969 15.0647 15.5969 15.4573C15.5969 15.958 15.4244 16.3744 15.0792 16.7056ZM33.1676 10.2498C32.6464 9.89149 31.9665 9.71191 31.1273 9.71191H27.8996C27.6287 9.71191 27.4797 9.84055 27.4528 10.0976L26.1334 18.3805C26.1196 18.4619 26.1399 18.5363 26.1942 18.6039C26.248 18.6717 26.316 18.7054 26.3971 18.7054H28.0618C28.2241 18.7054 28.3324 18.6175 28.3865 18.4415L28.7521 16.0867C28.7654 15.9785 28.8129 15.8905 28.8941 15.8227C28.9754 15.7551 29.0767 15.7108 29.1987 15.6905C29.3205 15.6704 29.4353 15.6603 29.5439 15.6603C29.652 15.6603 29.7805 15.6671 29.9294 15.6806C30.0783 15.6941 30.1733 15.7007 30.2136 15.7007C31.3777 15.7007 32.2911 15.3728 32.9543 14.7162C33.6175 14.0599 33.949 13.1498 33.949 11.9856C33.9491 11.1872 33.6884 10.6086 33.1676 10.2498ZM31.0867 13.5894C30.789 13.7924 30.3422 13.8939 29.7469 13.8939L29.0972 13.9142L29.4424 11.7419C29.4692 11.5932 29.5571 11.5187 29.7063 11.5187H30.0716C30.3692 11.5187 30.606 11.5322 30.7823 11.5592C30.958 11.5865 31.1273 11.6708 31.2897 11.8129C31.4522 11.955 31.5333 12.1616 31.5333 12.4322C31.5333 13.0007 31.3843 13.3863 31.0867 13.5894Z" fill="white"/>
</svg>
