<svg width="56" height="56" viewBox="0 0 56 56" fill="none" xmlns="http://www.w3.org/2000/svg">
<path d="M39.3092 40.1399C38.7959 40.0773 38.3329 40.4451 38.2732 40.9575C38.2135 41.4699 38.5793 41.9337 39.0908 41.9935C48.9057 43.1489 54.1333 46.2625 54.1333 48.0667C54.1333 50.5997 44.1915 54.1333 28 54.1333C11.8085 54.1333 1.86667 50.5997 1.86667 48.0667C1.86667 46.2625 7.09427 43.1489 16.9092 41.9935C17.4207 41.9337 17.7865 41.4689 17.7268 40.9575C17.6661 40.4451 17.2032 40.0755 16.6908 40.1399C6.86373 41.2972 0 44.5564 0 48.0667C0 52.0091 9.618 56 28 56C46.382 56 56 52.0091 56 48.0667C56 44.5564 49.1363 41.2972 39.3092 40.1399Z" fill="#8CBD02"/>
<path d="M27.8314 51.1065L42.1497 30.4267C47.5201 23.2671 46.7436 11.4987 40.4874 5.24347C37.1069 1.862 32.612 0 27.8314 0C23.0509 0 18.556 1.862 15.1754 5.24253C8.9193 11.4977 8.14276 23.2661 13.4917 30.3977L27.8314 51.1065ZM27.9966 11.2C31.5993 11.2 34.53 14.1316 34.53 17.7333C34.53 21.3351 31.5993 24.2667 27.9966 24.2667C24.394 24.2667 21.4633 21.3351 21.4633 17.7333C21.4633 14.1316 24.394 11.2 27.9966 11.2Z" fill="#8CBD02"/>
</svg>
