<svg width="25" height="22" viewBox="0 0 25 22" fill="none" xmlns="http://www.w3.org/2000/svg">
<g clip-path="url(#clip0)">
<path d="M8.7998 18.5C4.3998 20.4 1.9998 19.7 0.599805 16C-0.100195 14.3 -0.200195 12.5 0.699805 10.8C1.5998 8.89998 3.3998 8.79998 5.1998 8.39998C5.0998 7.89998 4.8998 7.39998 4.7998 6.89998C3.8998 3.69998 5.9998 -0.10002 10.0998 -2.04586e-05C12.6998 0.0999795 15.2998 -2.04586e-05 17.8998 -2.04586e-05C20.5998 -2.04586e-05 22.3998 1.99998 21.9998 4.69998C21.8998 5.69998 21.3998 6.49998 20.3998 6.99998C18.6998 7.89998 16.9998 8.79998 15.3998 9.99998C15.6998 9.89998 16.0998 9.89998 16.3998 9.79998C17.9998 9.19998 19.5998 8.59998 21.1998 7.89998C21.8998 7.59998 22.3998 7.69998 22.8998 8.09998C24.7998 9.59998 24.9998 12.3 23.3998 14C21.3998 16.1 19.3998 18.2 17.2998 20.2C15.1998 22.3 11.8998 22 9.6998 19.7C9.3998 19.3 9.0998 18.9 8.7998 18.5ZM5.6998 5.59998C5.6998 7.99998 7.4998 10.2 9.7998 10.2C11.9998 10.2 13.6998 8.49998 13.6998 6.09998C13.7998 3.59998 11.8998 1.49998 9.5998 1.39998C7.39981 1.39998 5.6998 3.19998 5.6998 5.59998ZM17.3998 16.4C17.3998 13.9 15.2998 11.8 12.8998 11.7C10.7998 11.7 9.19981 13.3 9.0998 15.5C9.0998 18 11.0998 20.2 13.4998 20.2C15.7998 20.3 17.3998 18.6 17.3998 16.4ZM5.0998 18.6C6.0998 18.6 6.8998 18 7.3998 16.9C8.4998 14.7 7.2998 11.5 5.0998 10.5C4.0998 9.99998 3.0998 10.1 2.1998 10.8C0.999805 11.7 0.599805 13.6 1.2998 15.4C1.8998 17.2 3.2998 18.5 5.0998 18.6ZM21.7998 12.8C20.4998 12.8 19.1998 13.8 19.0998 15C20.3998 14.9 21.4998 14 21.7998 12.8ZM16.1998 2.19998C16.1998 2.29998 16.1998 2.39998 16.2998 2.49998C17.5998 2.99998 19.0998 2.79998 19.6998 1.59998C18.4998 1.89998 17.3998 1.99998 16.1998 2.19998Z" fill="white"/>
<path d="M10.1993 2.70004C12.2993 2.90004 13.2993 4.50004 13.2993 6.20004C13.2993 8.00004 11.4993 9.60004 9.99933 9.50004C8.59933 9.40004 6.89933 7.40004 6.99933 6.00004C7.09933 4.10004 8.49933 2.60004 10.1993 2.70004ZM9.99933 3.10004C8.69933 3.00004 7.39933 4.50004 7.39933 6.10004C7.39933 7.30004 8.89933 9.00004 10.0993 9.10004C11.3993 9.10004 12.9993 7.50004 12.9993 6.00004C12.9993 4.60004 11.4993 3.10004 9.99933 3.10004Z" fill="white"/>
<path d="M10.3994 16C10.3994 14.3 11.4994 13 12.9994 13C14.6994 13 16.3994 14.5 16.3994 16C16.3994 17.8 15.0994 19.2 13.5994 19.2C11.9994 19.2 10.3994 17.5 10.3994 16ZM13.0994 13.4C11.6994 13.4 10.6994 14.5 10.6994 16.1C10.6994 17.2 12.1994 18.8 13.3994 18.9C14.5994 18.9 15.8994 17.6 15.8994 16.2C15.9994 14.8 14.5994 13.4 13.0994 13.4Z" fill="white"/>
<path d="M2.7998 16.0002C2.7998 16.0002 2.8998 16.0002 2.8998 16.1002C4.0998 17.3002 4.7998 17.5002 5.4998 16.8002C6.4998 16.0002 6.6998 14.5002 6.0998 13.4002C5.9998 13.2002 5.9998 12.9002 5.8998 12.7002C6.9998 14.0002 7.1998 15.0002 6.2998 16.3002C5.8998 16.8002 5.1998 17.4002 4.5998 17.4002C3.6998 17.5002 2.9998 17.0002 2.7998 16.0002Z" fill="white"/>
<path d="M5.90024 12.8002C5.20024 12.2002 4.40024 11.5002 3.40024 11.9002C2.20024 12.4002 2.20024 13.6002 2.20024 14.7002C1.60024 13.6002 2.20024 12.0002 3.30024 11.5002C4.20024 11.1002 5.60024 11.8002 5.90024 12.8002Z" fill="white"/>
<path d="M4.09982 16.6001C3.19982 16.5001 2.89982 15.9001 2.99982 15.2001C3.19982 14.6001 3.69982 14.1001 4.09982 13.6001C4.59982 14.1001 5.29982 14.6001 5.39982 15.2001C5.49982 15.7001 4.79982 16.3001 4.49982 16.9001C4.39982 16.8001 4.29982 16.7001 4.09982 16.6001C4.99982 16.4001 5.39982 15.8001 5.09982 15.0001C4.99982 14.6001 4.39982 14.3001 3.99982 14.0001C3.79982 14.5001 3.39982 15.1001 3.29982 15.6001C3.39982 15.9001 3.89982 16.3001 4.09982 16.6001Z" fill="white"/>
<path d="M11.4998 6.6002C11.1998 6.9002 10.5998 7.5002 9.99984 7.7002C9.29984 7.9002 8.39984 6.8002 8.49984 6.0002C8.59984 5.1002 9.39984 4.2002 10.1998 4.2002C10.9998 4.3002 11.5998 5.1002 11.4998 6.6002ZM11.5998 6.1002C10.9998 5.5002 10.3998 4.8002 10.1998 4.9002C9.69984 5.0002 9.09984 5.6002 8.89984 6.1002C8.79984 6.4002 9.59984 7.2002 9.99984 7.3002C10.3998 7.3002 10.8998 6.6002 11.5998 6.1002Z" fill="white"/>
<path d="M11.7002 16.0998C11.7002 15.2998 12.5002 14.3998 13.3002 14.4998C14.0002 14.4998 14.8002 15.4998 14.6002 16.2998C14.5002 17.0998 14.0002 17.6998 13.2002 17.5998C12.5002 17.4998 11.8002 17.0998 11.7002 16.0998ZM13.4002 14.6998C13.2002 14.6998 13.1002 14.6998 12.9002 14.6998C12.6002 15.1998 12.1002 15.7998 12.2002 16.1998C12.3002 16.5998 13.0002 16.8998 13.4002 17.1998C13.7002 16.7998 14.3002 16.3998 14.2002 15.9998C14.2002 15.5998 13.7002 15.0998 13.4002 14.6998Z" fill="white"/>
</g>
<defs>
<clipPath id="clip0">
<rect width="24.5" height="21.6" fill="white"/>
</clipPath>
</defs>
</svg>
