<svg width="9" height="9" viewBox="0 0 9 9" fill="none" xmlns="http://www.w3.org/2000/svg">
<path d="M4.92763 4.46949L8.91125 8.45311C9.02193 8.56378 9.02193 8.74308 8.91125 8.85375C8.85599 8.90916 8.78343 8.93672 8.711 8.93672C8.63844 8.93672 8.56602 8.90916 8.51075 8.85375L4.49718 4.84018L0.483599 8.85375C0.428192 8.90916 0.355771 8.93672 0.283349 8.93672C0.210927 8.93672 0.138365 8.90916 0.0830984 8.85375C-0.0275726 8.74308 -0.0275726 8.56378 0.0830984 8.45311L4.06658 4.46949L0.0804272 0.483051C-0.0302448 0.372379 -0.0302448 0.193082 0.0804272 0.0824102C0.191098 -0.0281211 0.370396 -0.0281211 0.480927 0.0824102L4.49704 4.0988L8.51357 0.0825508C8.62424 -0.0279805 8.80339 -0.0279805 8.91407 0.0825508C9.02474 0.193223 9.02474 0.37252 8.91407 0.483191L4.92763 4.46949Z" fill="#8CBD02"/>
</svg>
