<svg width="21" height="22" viewBox="0 0 21 22" fill="none" xmlns="http://www.w3.org/2000/svg">
<path d="M20.5149 20.4654L15.4848 15.4353C16.8341 13.8841 17.6511 11.8602 17.6511 9.64803C17.6511 4.77862 13.6904 0.82251 8.82553 0.82251C3.95611 0.82251 0 4.78321 0 9.64803C0 14.5129 3.9607 18.4736 8.82553 18.4736C11.0376 18.4736 13.0616 17.6566 14.6128 16.3073L19.6429 21.3374C19.7622 21.4567 19.9228 21.521 20.0789 21.521C20.2349 21.521 20.3955 21.4613 20.5149 21.3374C20.7535 21.0987 20.7535 20.704 20.5149 20.4654ZM1.23456 9.64803C1.23456 5.46245 4.63994 2.06166 8.82094 2.06166C13.0065 2.06166 16.4073 5.46704 16.4073 9.64803C16.4073 13.829 13.0065 17.239 8.82094 17.239C4.63994 17.239 1.23456 13.8336 1.23456 9.64803Z" fill="#FEFEFE"/>
</svg>
