<svg width="13" height="13" viewBox="0 0 13 13" fill="none" xmlns="http://www.w3.org/2000/svg">
    <mask id="path-1-inside-1" fill="white">
        <path d="M12.0484 1.18183H2.36363V1.26661L2.24245 0.851159C2.09645 0.349975 1.62991 0 1.10796 0H0.295464C0.132151 0 0 0.132151 0 0.295464C0 0.458777 0.132151 0.590928 0.295464 0.590928H1.10796C1.36907 0.590928 1.60221 0.765791 1.6752 1.01652L3.5143 7.32176L2.57195 8.49954C2.4375 8.66776 2.36363 8.87868 2.36363 9.0939C2.36363 9.61874 2.79036 10.0455 3.3152 10.0455H11.5227C11.686 10.0455 11.8182 9.91332 11.8182 9.75001C11.8182 9.58669 11.686 9.45454 11.5227 9.45454H3.3152C3.1164 9.45454 2.95453 9.29267 2.95453 9.09388C2.95453 9.01222 2.9825 8.932 3.03358 8.86854L3.98307 7.68181H9.77826C10.2339 7.68181 10.6537 7.41549 10.8479 7.00319L12.9097 2.62187C12.9688 2.49578 13 2.35585 13 2.21705V2.13337C13 1.60856 12.5733 1.18183 12.0484 1.18183ZM12.4091 2.21707C12.4091 2.26987 12.3973 2.32297 12.3748 2.37058L10.3132 6.7516C10.216 6.95763 10.0062 7.09091 9.77826 7.09091H4.06251L2.51126 1.77273H12.0484C12.2472 1.77273 12.4091 1.9346 12.4091 2.1334V2.21707Z"/>
    </mask>
    <path d="M12.0484 1.18183H2.36363V1.26661L2.24245 0.851159C2.09645 0.349975 1.62991 0 1.10796 0H0.295464C0.132151 0 0 0.132151 0 0.295464C0 0.458777 0.132151 0.590928 0.295464 0.590928H1.10796C1.36907 0.590928 1.60221 0.765791 1.6752 1.01652L3.5143 7.32176L2.57195 8.49954C2.4375 8.66776 2.36363 8.87868 2.36363 9.0939C2.36363 9.61874 2.79036 10.0455 3.3152 10.0455H11.5227C11.686 10.0455 11.8182 9.91332 11.8182 9.75001C11.8182 9.58669 11.686 9.45454 11.5227 9.45454H3.3152C3.1164 9.45454 2.95453 9.29267 2.95453 9.09388C2.95453 9.01222 2.9825 8.932 3.03358 8.86854L3.98307 7.68181H9.77826C10.2339 7.68181 10.6537 7.41549 10.8479 7.00319L12.9097 2.62187C12.9688 2.49578 13 2.35585 13 2.21705V2.13337C13 1.60856 12.5733 1.18183 12.0484 1.18183ZM12.4091 2.21707C12.4091 2.26987 12.3973 2.32297 12.3748 2.37058L10.3132 6.7516C10.216 6.95763 10.0062 7.09091 9.77826 7.09091H4.06251L2.51126 1.77273H12.0484C12.2472 1.77273 12.4091 1.9346 12.4091 2.1334V2.21707Z" fill="black"/>
    <path d="M2.36363 1.18183V-0.818172H0.363629V1.18183H2.36363ZM2.36363 1.26661L0.443639 1.82665L4.36363 1.26661H2.36363ZM2.24245 0.851159L0.322263 1.41053L0.322456 1.41119L2.24245 0.851159ZM1.6752 1.01652L-0.245094 1.57551L-0.244794 1.57654L1.6752 1.01652ZM3.5143 7.32176L5.07596 8.57124L5.72535 7.75961L5.43429 6.76174L3.5143 7.32176ZM2.57195 8.49954L1.01029 7.25006L1.00966 7.25084L2.57195 8.49954ZM3.03358 8.86854L4.5916 10.1226L4.59525 10.118L3.03358 8.86854ZM3.98307 7.68181V5.68181H3.02189L2.4214 6.43234L3.98307 7.68181ZM10.8479 7.00319L12.6572 7.85541L12.6575 7.8548L10.8479 7.00319ZM12.9097 2.62187L14.7193 3.47348L14.7204 3.47114L12.9097 2.62187ZM13 2.13337H11H13ZM12.3748 2.37058L10.5668 1.51549L10.5651 1.51903L12.3748 2.37058ZM10.3132 6.7516L12.1219 7.60514L12.1229 7.60316L10.3132 6.7516ZM4.06251 7.09091L2.14252 7.65095L2.56254 9.09091H4.06251V7.09091ZM2.51126 1.77273V-0.227272H-0.155456L0.591275 2.33277L2.51126 1.77273ZM12.0484 -0.818172H2.36363V3.18183H12.0484V-0.818172ZM0.363629 1.18183V1.26661H4.36363V1.18183H0.363629ZM4.28362 0.70658L4.16244 0.291125L0.322456 1.41119L0.443639 1.82665L4.28362 0.70658ZM4.16263 0.291787C3.76794 -1.0631 2.51899 -2 1.10796 -2V2C0.740838 2 0.424956 1.76305 0.322263 1.41053L4.16263 0.291787ZM1.10796 -2H0.295464V2H1.10796V-2ZM0.295464 -2C-0.972418 -2 -2 -0.972418 -2 0.295464H2C2 1.23672 1.23672 2 0.295464 2V-2ZM-2 0.295464C-2 1.56335 -0.972418 2.59093 0.295464 2.59093V-1.40907C1.23672 -1.40907 2 -0.645793 2 0.295464H-2ZM0.295464 2.59093H1.10796V-1.40907H0.295464V2.59093ZM1.10796 2.59093C0.480228 2.59093 -0.0694102 2.17904 -0.245094 1.57551L3.59549 0.457532C3.27384 -0.647454 2.25792 -1.40907 1.10796 -1.40907V2.59093ZM-0.244794 1.57654L1.5943 7.88178L5.43429 6.76174L3.5952 0.456502L-0.244794 1.57654ZM1.95263 6.07227L1.01029 7.25006L4.13361 9.74903L5.07596 8.57124L1.95263 6.07227ZM1.00966 7.25084C0.591693 7.77378 0.363629 8.42511 0.363629 9.0939H4.36363C4.36363 9.33226 4.28331 9.56174 4.13424 9.74824L1.00966 7.25084ZM0.363629 9.0939C0.363629 10.7233 1.68579 12.0455 3.3152 12.0455V8.04547C3.89493 8.04547 4.36363 8.51417 4.36363 9.0939H0.363629ZM3.3152 12.0455H11.5227V8.04547H3.3152V12.0455ZM11.5227 12.0455C12.7906 12.0455 13.8182 11.0179 13.8182 9.75001H9.8182C9.8182 8.80875 10.5815 8.04547 11.5227 8.04547V12.0455ZM13.8182 9.75001C13.8182 8.48212 12.7906 7.45454 11.5227 7.45454V11.4545C10.5815 11.4545 9.8182 10.6913 9.8182 9.75001H13.8182ZM11.5227 7.45454H3.3152V11.4545H11.5227V7.45454ZM3.3152 7.45454C4.22097 7.45454 4.95453 8.1881 4.95453 9.09388H0.954529C0.954529 10.3972 2.01183 11.4545 3.3152 11.4545V7.45454ZM4.95453 9.09388C4.95453 9.46293 4.82996 9.82642 4.5916 10.1226L1.47557 7.61452C1.13504 8.03758 0.954529 8.56151 0.954529 9.09388H4.95453ZM4.59525 10.118L5.54474 8.93129L2.4214 6.43234L1.47191 7.61907L4.59525 10.118ZM3.98307 9.68181H9.77826V5.68181H3.98307V9.68181ZM9.77826 9.68181C11.0085 9.68181 12.1331 8.96818 12.6572 7.85541L9.03851 6.15097C9.17424 5.8628 9.45918 5.68181 9.77826 5.68181V9.68181ZM12.6575 7.8548L14.7193 3.47348L11.1001 1.77025L9.03822 6.15158L12.6575 7.8548ZM14.7204 3.47114C14.9041 3.07952 15 2.64965 15 2.21705H11C11 2.06204 11.0336 1.91204 11.099 1.77259L14.7204 3.47114ZM15 2.21705V2.13337H11V2.21705H15ZM15 2.13337C15 0.503949 13.6778 -0.818172 12.0484 -0.818172V3.18183C11.4687 3.18183 11 2.71317 11 2.13337H15ZM10.4091 2.21707C10.4091 1.97693 10.4617 1.73771 10.5668 1.51549L14.1827 3.22567C14.3329 2.90823 14.4091 2.56281 14.4091 2.21707H10.4091ZM10.5651 1.51903L8.50355 5.90005L12.1229 7.60316L14.1844 3.22214L10.5651 1.51903ZM8.50449 5.89807C8.73684 5.40569 9.23058 5.09091 9.77826 5.09091V9.09091C10.7819 9.09091 11.6951 8.50956 12.1219 7.60514L8.50449 5.89807ZM9.77826 5.09091H4.06251V9.09091H9.77826V5.09091ZM5.9825 6.53088L4.43125 1.21269L0.591275 2.33277L2.14252 7.65095L5.9825 6.53088ZM2.51126 3.77273H12.0484V-0.227272H2.51126V3.77273ZM12.0484 3.77273C11.1427 3.77273 10.4091 3.03917 10.4091 2.1334H14.4091C14.4091 0.830033 13.3518 -0.227272 12.0484 -0.227272V3.77273ZM10.4091 2.1334V2.21707H14.4091V2.1334H10.4091Z" fill="black" mask="url(#path-1-inside-1)"/>
    <mask id="path-3-inside-2" fill="white">
        <path d="M3.54511 10.6364C2.89333 10.6364 2.36328 11.1664 2.36328 11.8182C2.36328 12.47 2.8933 13 3.54511 13C4.19692 13 4.72694 12.47 4.72694 11.8182C4.72694 11.1664 4.19689 10.6364 3.54511 10.6364ZM3.54511 12.4091C3.21937 12.4091 2.95421 12.1439 2.95421 11.8182C2.95421 11.4925 3.21937 11.2273 3.54511 11.2273C3.87085 11.2273 4.13601 11.4925 4.13601 11.8182C4.13601 12.1439 3.87085 12.4091 3.54511 12.4091Z"/>
    </mask>
    <path d="M3.54511 10.6364C2.89333 10.6364 2.36328 11.1664 2.36328 11.8182C2.36328 12.47 2.8933 13 3.54511 13C4.19692 13 4.72694 12.47 4.72694 11.8182C4.72694 11.1664 4.19689 10.6364 3.54511 10.6364ZM3.54511 12.4091C3.21937 12.4091 2.95421 12.1439 2.95421 11.8182C2.95421 11.4925 3.21937 11.2273 3.54511 11.2273C3.87085 11.2273 4.13601 11.4925 4.13601 11.8182C4.13601 12.1439 3.87085 12.4091 3.54511 12.4091Z" fill="black"/>
    <path d="M3.54511 8.63638C1.78879 8.63638 0.363281 10.0618 0.363281 11.8182H4.36328C4.36328 12.271 3.99787 12.6364 3.54511 12.6364V8.63638ZM0.363281 11.8182C0.363281 13.5746 1.78873 15 3.54511 15V11C3.99787 11 4.36328 11.3655 4.36328 11.8182H0.363281ZM3.54511 15C5.30149 15 6.72694 13.5746 6.72694 11.8182H2.72694C2.72694 11.3655 3.09235 11 3.54511 11V15ZM6.72694 11.8182C6.72694 10.0618 5.30143 8.63638 3.54511 8.63638V12.6364C3.09235 12.6364 2.72694 12.271 2.72694 11.8182H6.72694ZM3.54511 10.4091C4.32394 10.4091 4.95421 11.0394 4.95421 11.8182H0.954209C0.954209 13.2485 2.1148 14.4091 3.54511 14.4091V10.4091ZM4.95421 11.8182C4.95421 12.597 4.32394 13.2273 3.54511 13.2273V9.22731C2.1148 9.22731 0.954209 10.3879 0.954209 11.8182H4.95421ZM3.54511 13.2273C2.76628 13.2273 2.13601 12.597 2.13601 11.8182H6.13601C6.13601 10.3879 4.97542 9.22731 3.54511 9.22731V13.2273ZM2.13601 11.8182C2.13601 11.0394 2.76628 10.4091 3.54511 10.4091V14.4091C4.97542 14.4091 6.13601 13.2485 6.13601 11.8182H2.13601Z" fill="black" mask="url(#path-3-inside-2)"/>
    <mask id="path-5-inside-3" fill="white">
        <path d="M10.6359 10.6364C9.98415 10.6364 9.4541 11.1664 9.4541 11.8182C9.4541 12.47 9.98412 13 10.6359 13C11.2877 13 11.8178 12.47 11.8178 11.8182C11.8178 11.1664 11.2877 10.6364 10.6359 10.6364ZM10.6359 12.4091C10.3102 12.4091 10.045 12.1439 10.045 11.8182C10.045 11.4925 10.3102 11.2273 10.6359 11.2273C10.9617 11.2273 11.2268 11.4925 11.2268 11.8182C11.2268 12.1439 10.9617 12.4091 10.6359 12.4091Z"/>
    </mask>
    <path d="M10.6359 10.6364C9.98415 10.6364 9.4541 11.1664 9.4541 11.8182C9.4541 12.47 9.98412 13 10.6359 13C11.2877 13 11.8178 12.47 11.8178 11.8182C11.8178 11.1664 11.2877 10.6364 10.6359 10.6364ZM10.6359 12.4091C10.3102 12.4091 10.045 12.1439 10.045 11.8182C10.045 11.4925 10.3102 11.2273 10.6359 11.2273C10.9617 11.2273 11.2268 11.4925 11.2268 11.8182C11.2268 12.1439 10.9617 12.4091 10.6359 12.4091Z" fill="black"/>
    <path d="M11.2268 11.8182H9.22683H11.2268ZM10.6359 8.63638C8.87961 8.63638 7.4541 10.0618 7.4541 11.8182H11.4541C11.4541 12.271 11.0887 12.6364 10.6359 12.6364V8.63638ZM7.4541 11.8182C7.4541 13.5746 8.87955 15 10.6359 15V11C11.0887 11 11.4541 11.3655 11.4541 11.8182H7.4541ZM10.6359 15C12.3923 15 13.8178 13.5746 13.8178 11.8182H9.81776C9.81776 11.3655 10.1832 11 10.6359 11V15ZM13.8178 11.8182C13.8178 10.0618 12.3923 8.63638 10.6359 8.63638V12.6364C10.1832 12.6364 9.81776 12.271 9.81776 11.8182H13.8178ZM10.6359 10.4091C11.4148 10.4091 12.045 11.0394 12.045 11.8182H8.04503C8.04503 13.2485 9.20562 14.4091 10.6359 14.4091V10.4091ZM12.045 11.8182C12.045 12.597 11.4148 13.2273 10.6359 13.2273V9.22731C9.20562 9.22731 8.04503 10.3879 8.04503 11.8182H12.045ZM10.6359 13.2273C9.8571 13.2273 9.22683 12.597 9.22683 11.8182H13.2268C13.2268 10.3879 12.0662 9.22731 10.6359 9.22731V13.2273ZM9.22683 11.8182C9.22683 11.0394 9.8571 10.4091 10.6359 10.4091V14.4091C12.0662 14.4091 13.2268 13.2485 13.2268 11.8182H9.22683Z" fill="black" mask="url(#path-5-inside-3)"/>
</svg>