<svg width="16" height="18" viewBox="0 0 16 18" fill="none" xmlns="http://www.w3.org/2000/svg">
<path d="M7.19315 0.607902C5.90915 0.624101 3.14865 0.844623 1.60465 2.32504C0.456145 3.51439 0.0551452 5.27282 0.00814518 7.4472C-0.0308548 9.61375 -0.0778549 13.6824 3.67465 14.7903V16.4776C3.67465 16.4776 3.65115 17.1528 4.07815 17.2912C4.60415 17.4652 4.90365 16.9458 5.40365 16.3877L6.33615 15.2856C8.90365 15.5088 10.8701 14.9946 11.0966 14.9183C11.6176 14.7443 14.5521 14.3523 15.0316 10.2831C15.5236 6.0807 14.7921 3.43288 13.4716 2.23516H13.4636C13.0651 1.8516 11.4636 0.63194 7.88565 0.618353C7.88565 0.618353 7.62015 0.599541 7.19315 0.607379V0.607902ZM7.23715 1.78942C7.60165 1.7868 7.82315 1.803 7.82315 1.803C10.8516 1.81136 12.2971 2.76399 12.6381 3.08485C13.7501 4.08085 14.3231 6.46792 13.9036 9.9764C13.5051 13.3783 11.1251 13.5936 10.6846 13.7404C10.4971 13.8031 8.76515 14.2494 6.58315 14.1026C6.58315 14.1026 4.95815 16.152 4.45015 16.6798C4.36965 16.7723 4.27565 16.7995 4.21565 16.7859C4.12965 16.764 4.10365 16.6527 4.10865 16.5001L4.12415 13.6997C0.941646 12.78 1.12915 9.30961 1.16315 7.49684C1.20215 5.68407 1.52765 4.20104 2.49665 3.19668C3.80115 1.96395 6.14515 1.79778 7.23615 1.78942H7.23715ZM7.47715 3.60166C7.45095 3.60139 7.42497 3.60653 7.40068 3.6168C7.3764 3.62707 7.35431 3.64226 7.33567 3.6615C7.31703 3.68073 7.30222 3.70364 7.29209 3.72888C7.28196 3.75413 7.27671 3.78122 7.27665 3.8086C7.27665 3.92565 7.36765 4.01815 7.47715 4.01815C7.9729 4.00829 8.46561 4.10111 8.92687 4.29125C9.38813 4.48139 9.80881 4.76509 10.1646 5.12598C10.8911 5.86331 11.2451 6.85409 11.2586 8.14953C11.2586 8.26397 11.3471 8.35907 11.4591 8.35907V8.35071C11.5119 8.35085 11.5626 8.32918 11.6002 8.29041C11.6377 8.25165 11.6591 8.19894 11.6596 8.14378C11.6839 7.53402 11.5893 6.92548 11.3816 6.35513C11.1738 5.78478 10.8573 5.26454 10.4511 4.82603C9.65965 4.01762 8.65665 3.60114 7.47715 3.60114V3.60166ZM4.84165 4.08085C4.70012 4.05924 4.55578 4.08893 4.43265 4.16499H4.42215C4.13628 4.34012 3.87875 4.56146 3.65915 4.8208C3.47665 5.04132 3.37765 5.26446 3.35165 5.47923C3.33615 5.60726 3.34665 5.73529 3.38315 5.85757L3.39615 5.86593C3.60165 6.49718 3.87015 7.1044 4.19815 7.67608C4.62066 8.47924 5.14062 9.22202 5.74515 9.886L5.76315 9.91317L5.79165 9.93512L5.80965 9.95707L5.83065 9.97588C6.46826 10.6095 7.18069 11.1555 7.95065 11.6005C8.83065 12.1011 9.36465 12.3379 9.68515 12.4361V12.4413C9.77915 12.4711 9.86465 12.4847 9.95065 12.4847C10.2238 12.4638 10.4824 12.3479 10.6851 12.1555C10.9322 11.9259 11.1416 11.6557 11.3051 11.3554V11.3502C11.4586 11.0482 11.4066 10.7623 11.1851 10.569C10.7416 10.1637 10.2619 9.8038 9.75265 9.49408C9.41165 9.30073 9.06515 9.41778 8.92465 9.61375L8.62515 10.0083C8.47165 10.2042 8.19265 10.1771 8.19265 10.1771L8.18465 10.1823C6.10415 9.62681 5.54915 7.42525 5.54915 7.42525C5.54915 7.42525 5.52315 7.12582 5.71565 6.97324L6.09065 6.65761C6.27015 6.50502 6.39515 6.14341 6.20265 5.7865C5.90835 5.25356 5.5647 4.75211 5.17665 4.28936C5.09181 4.18026 4.9728 4.10603 4.84065 4.07981L4.84165 4.08085ZM7.82315 4.70166C7.55765 4.70166 7.55765 5.12075 7.82565 5.12075C8.15579 5.12635 8.48164 5.19989 8.78457 5.33716C9.0875 5.47444 9.36158 5.67276 9.59115 5.9208C9.80056 6.16222 9.96148 6.44512 10.0644 6.75274C10.1673 7.06035 10.21 7.38642 10.1901 7.71162C10.1911 7.76665 10.2126 7.81913 10.25 7.8578C10.2875 7.89648 10.338 7.91829 10.3906 7.91855L10.3986 7.92953C10.4517 7.92912 10.5025 7.90691 10.54 7.8677C10.5775 7.82849 10.5988 7.77543 10.5991 7.71998C10.6171 6.88963 10.3701 6.19305 9.88565 5.63495C9.39865 5.07686 8.71915 4.76384 7.85165 4.70166H7.82315ZM8.15165 5.8283C7.87815 5.81994 7.86765 6.2474 8.13865 6.25576C8.79765 6.29129 9.11765 6.63932 9.15965 7.35523C9.16056 7.40957 9.18179 7.46138 9.2188 7.49957C9.2558 7.53776 9.30564 7.55929 9.35765 7.55955H9.36565C9.39238 7.55835 9.41862 7.5516 9.44283 7.53969C9.46705 7.52778 9.48875 7.51095 9.50667 7.49017C9.52459 7.4694 9.53837 7.44511 9.54721 7.41871C9.55605 7.39231 9.55976 7.36433 9.55815 7.33642C9.51115 6.40312 9.02415 5.87742 8.15965 5.82882H8.15165V5.8283Z" fill="white"/>
</svg>
