<svg width="16" height="15" viewBox="0 0 16 15" fill="none" xmlns="http://www.w3.org/2000/svg">
<path d="M5.22929 0.0763855H10.9261C12.1794 0.0763855 13.3187 0.571086 14.1163 1.39559C14.9138 2.16512 15.4265 3.26446 15.4265 4.47373V10.3002C15.4265 11.5095 14.9138 12.5538 14.1163 13.3783C13.3187 14.1479 12.1794 14.6426 10.9261 14.6426H5.22929C3.976 14.6426 2.83665 14.1479 2.0391 13.3783C1.18458 12.5538 0.671875 11.5095 0.671875 10.3002V4.47373C0.671875 3.26446 1.18458 2.16512 2.0391 1.39559C2.83665 0.571086 3.976 0.0763855 5.22929 0.0763855Z" fill="#74BD00"/>
<path d="M8.13849 3.82193C9.22089 3.82193 10.1893 4.2067 10.873 4.92126C11.5566 5.58086 12.0123 6.5153 12.0123 7.55966C12.0123 8.60403 11.5566 9.48349 10.873 10.1981C10.1893 10.8577 9.22089 11.2974 8.13849 11.2974C7.05609 11.2974 6.08763 10.8577 5.40401 10.1981C4.66343 9.48349 4.26465 8.60403 4.26465 7.55966C4.26465 6.5153 4.66343 5.58086 5.40401 4.92126C6.08763 4.2067 7.05609 3.82193 8.13849 3.82193ZM9.96147 5.74576C9.50573 5.30603 8.82211 5.0312 8.13849 5.0312C7.3979 5.0312 6.77125 5.30603 6.25854 5.74576C5.80279 6.24046 5.51795 6.8451 5.51795 7.55966C5.51795 8.21926 5.80279 8.87886 6.25854 9.31859C6.77125 9.75833 7.3979 10.0332 8.13849 10.0332C8.82211 10.0332 9.50573 9.75833 9.96147 9.31859C10.4172 8.87886 10.759 8.21926 10.759 7.55966C10.759 6.8451 10.4172 6.24046 9.96147 5.74576Z" fill="rgba(255, 255, 255, 0.7)"/>
<path d="M12.2982 4.48132C12.8016 4.48132 13.2097 4.08757 13.2097 3.60185C13.2097 3.11613 12.8016 2.72238 12.2982 2.72238C11.7948 2.72238 11.3867 3.11613 11.3867 3.60185C11.3867 4.08757 11.7948 4.48132 12.2982 4.48132Z" fill="white"/>
</svg>
