<svg width="15" height="11" viewBox="0 0 15 11" fill="none" xmlns="http://www.w3.org/2000/svg">
<path fill-rule="evenodd" clip-rule="evenodd" d="M9.90974 5.53565L6.16809 7.4357V4.51022V3.62052L7.85644 4.48383L9.90974 5.53565ZM14.3853 2.95701C14.3853 2.95701 14.2529 2.02206 13.8359 1.61114C13.3105 1.06827 12.721 1.0645 12.4483 1.03434C10.5113 0.898621 7.60379 0.898621 7.60379 0.898621H7.59577C7.59577 0.898621 4.68828 0.898621 2.74728 1.03434C2.47858 1.0645 1.88906 1.06827 1.3597 1.61114C0.946635 2.02206 0.810284 2.95701 0.810284 2.95701C0.810284 2.95701 0.669922 4.05783 0.669922 5.15488V5.2906V6.18785C0.669922 7.2849 0.810284 8.38572 0.810284 8.38572C0.810284 8.38572 0.946635 9.32066 1.3597 9.73159C1.88906 10.2745 2.57884 10.2556 2.88764 10.3122C3.9985 10.4177 7.59978 10.4479 7.59978 10.4479C7.59978 10.4479 10.5113 10.4441 12.4483 10.3084C12.721 10.2745 13.3105 10.2745 13.8359 9.73159C14.2529 9.32066 14.3853 8.38572 14.3853 8.38572C14.3853 8.38572 14.5256 7.2849 14.5256 6.18785V5.34715V5.15488C14.5256 4.05783 14.3853 2.95701 14.3853 2.95701Z" fill="#74BD00"/>
</svg>
