<svg width="16" height="17" viewBox="0 0 16 17" fill="none" xmlns="http://www.w3.org/2000/svg">
<path d="M14.0348 2.01169C13.8743 2.02337 13.7168 2.06103 13.5683 2.12319H13.5663C13.4238 2.17969 12.7463 2.46469 11.7163 2.89669L8.02531 4.45119C5.37681 5.56619 2.77332 6.66419 2.77332 6.66419L2.80432 6.65219C2.80432 6.65219 2.62482 6.71119 2.43732 6.83969C2.32148 6.9134 2.2218 7.00985 2.14432 7.12319C2.05232 7.25819 1.97832 7.46469 2.00582 7.67819C2.05082 8.03919 2.28482 8.25569 2.45282 8.37519C2.62282 8.49619 2.78482 8.55269 2.78482 8.55269H2.78882L5.23032 9.37519C5.33982 9.72669 5.97431 11.8127 6.12681 12.2932C6.21681 12.5802 6.30432 12.7597 6.41382 12.8967C6.46681 12.9667 6.52881 13.0252 6.60331 13.0722C6.64205 13.0947 6.68334 13.1125 6.72632 13.1252L6.70131 13.1192C6.70882 13.1212 6.71482 13.1272 6.72031 13.1292C6.74031 13.1347 6.75382 13.1367 6.77931 13.1407C7.16581 13.2577 7.47632 13.0177 7.47632 13.0177L7.49381 13.0037L8.93532 11.6912L11.3513 13.5447L11.4063 13.5682C11.9098 13.7892 12.4198 13.6662 12.6893 13.4492C12.9608 13.2307 13.0663 12.9512 13.0663 12.9512L13.0838 12.9062L14.9508 3.34169C15.0038 3.10569 15.0173 2.88469 14.9588 2.67019C14.8985 2.45311 14.7592 2.2664 14.5683 2.14669C14.408 2.04925 14.2222 2.00222 14.0348 2.01169ZM13.9843 3.03669C13.9823 3.06819 13.9883 3.06469 13.9743 3.12519V3.13069L12.1248 12.5957C12.1168 12.6092 12.1033 12.6387 12.0663 12.6682C12.0273 12.6992 11.9963 12.7187 11.8338 12.6542L8.87882 10.3887L7.09381 12.0157L7.46881 9.62069L12.2968 5.12069C12.4958 4.93569 12.4293 4.89669 12.4293 4.89669C12.4433 4.66969 12.1288 4.83019 12.1288 4.83019L6.04081 8.60169L6.03882 8.59169L3.12082 7.60919V7.60719L3.11332 7.60569C3.11843 7.60399 3.12344 7.60199 3.12832 7.59969L3.14432 7.59169L3.15982 7.58619C3.15982 7.58619 5.76532 6.48819 8.41382 5.37319C9.73981 4.81469 11.0758 4.25219 12.1033 3.81819C13.1308 3.38669 13.8903 3.07019 13.9333 3.05319C13.9743 3.03719 13.9548 3.03669 13.9843 3.03669Z" fill="white"/>
</svg>
