<svg width="17" height="29" viewBox="0 0 17 29" fill="none" xmlns="http://www.w3.org/2000/svg">
<g clip-path="url(#clip0)">
<path d="M16.3004 4.8H11.6004V3.6H16.3004V4.8ZM14.3004 6.3H11.6004V7.5H14.3004V6.3ZM11.6004 10.1H16.3004V8.9H11.6004V10.1ZM14.3004 11.6H11.6004V12.8H14.3004V11.6ZM11.6004 15.4H16.3004V14.2H11.6004V15.4ZM12.3004 22.4C12.3004 25.8 9.50039 28.6 6.10039 28.6C2.70039 28.6 -0.0996094 25.8 -0.0996094 22.4C-0.0996094 20.2 1.10039 18.2 2.90039 17.1V3.1C3.00039 1.4 4.40039 0 6.20039 0C7.90039 0 9.30039 1.4 9.30039 3.1V17.1C11.2004 18.2 12.3004 20.2 12.3004 22.4ZM11.1004 22.4C11.1004 20.5 10.1004 18.8 8.40039 18L8.10039 17.8V3.1C8.10039 2.1 7.20039 1.2 6.20039 1.2C5.20039 1.2 4.30039 2.1 4.30039 3.1V17.8L3.90039 18C2.20039 18.8 1.20039 20.5 1.20039 22.4C1.20039 25.1 3.40039 27.3 6.10039 27.3C8.90039 27.3 11.1004 25.1 11.1004 22.4ZM10.1004 22.4C10.1004 24.6 8.30039 26.3 6.20039 26.3C4.00039 26.3 2.30039 24.5 2.30039 22.4C2.30039 20.6 3.50039 19.1 5.20039 18.6L5.40039 18.5V11H7.00039V18.5L7.20039 18.6C8.90039 19 10.1004 20.6 10.1004 22.4ZM6.30039 19.8C6.20039 19.4 5.80039 19.1 5.40039 19.2C3.90039 19.5 2.90039 20.8 2.90039 22.4C2.90039 22.8 3.30039 23.2 3.70039 23.2C4.10039 23.2 4.50039 22.8 4.50039 22.4C4.50039 21.6 5.00039 20.9 5.80039 20.8C6.20039 20.6 6.40039 20.2 6.30039 19.8Z" fill="white"/>
</g>
<defs>
<clipPath id="clip0">
<rect width="16.3" height="28.5" fill="white"/>
</clipPath>
</defs>
</svg>
