<svg width="105" height="105" viewBox="0 0 105 105" fill="none" xmlns="http://www.w3.org/2000/svg">
<g clip-path="url(#clip0)">
<path d="M104.872 32.6165C104.847 32.5605 104.817 32.506 104.785 32.4537C104.72 32.3244 104.639 32.2037 104.543 32.095C104.402 31.9429 104.235 31.8158 104.052 31.7187C103.988 31.6824 103.922 31.6502 103.854 31.6225C103.821 31.6102 103.794 31.5857 103.759 31.5752L83.6728 25.4625L75.7978 22.8375C75.5139 22.7513 75.2129 22.7386 74.9228 22.8007L63.4971 19.3235C63.1648 19.2237 62.8106 19.2237 62.4786 19.3235L22.2286 31.5735C22.1936 31.584 22.1673 31.6085 22.1341 31.6207C22.0663 31.6485 22.0002 31.6807 21.9363 31.717C21.7526 31.8141 21.5863 31.9412 21.4446 32.0932C21.3492 32.2019 21.268 32.3227 21.2031 32.452C21.1705 32.5042 21.1412 32.5587 21.1156 32.6147C21.0414 32.8063 21.0025 33.0096 21.0001 33.215C21.0001 33.215 21.0001 33.229 21.0001 33.236V33.25V45.5H14.0001V49H31.5001V45.5H24.5001V35.7105L35.0001 39.3627V54.25C34.9994 54.9657 35.4347 55.6095 36.0991 55.8757L44.8491 59.3757C45.7462 59.7353 46.7649 59.2994 47.1245 58.4023C47.2076 58.1949 47.2503 57.9733 47.2501 57.75V43.624L61.2501 48.4942V88.5394L24.5001 75.7644V75.25C24.5001 74.2835 23.7165 73.4999 22.7501 73.4999C21.7836 73.4999 21.0001 74.2835 21.0001 75.25V77C21.0003 77.7444 21.4715 78.4069 22.1743 78.6519L62.4243 92.6519H62.4558C62.6186 92.7055 62.7885 92.7348 62.9598 92.7394C62.9738 92.7394 62.9861 92.7394 63.0001 92.7394C63.2018 92.7368 63.4013 92.699 63.5898 92.6274C63.6058 92.6255 63.6215 92.6224 63.6371 92.6187L103.887 76.8687C104.554 76.6079 104.995 75.9666 105 75.25V33.25V33.236C105 33.236 105 33.222 105 33.215C104.994 33.0093 104.95 32.8068 104.872 32.6165ZM28.3991 33.3602L63.0001 22.8287L69.3823 24.7712L37.2751 36.449L28.3991 33.3602ZM43.7501 55.1652L38.5001 53.0652V41.0847L43.7501 43.1847V55.1652ZM46.7023 39.725L42.5023 38.2655L74.9543 26.4652L80.2201 28.0717L46.7023 39.725ZM63.0001 45.3967L52.0293 41.5817L85.9023 29.799L97.6046 33.3602L63.0001 45.3967ZM101.5 74.0547L64.7501 88.4362V48.4942L101.5 35.7192V74.0547Z" fill="black"/>
<path d="M7 57.75H0V61.25H7V57.75Z" fill="black"/>
<path d="M10.5 68.25H5.25V71.75H10.5V68.25Z" fill="black"/>
<path d="M24.5001 68.25V64.75C24.5001 63.7836 23.7165 63 22.7501 63C21.7836 63 21.0001 63.7836 21.0001 64.75V68.25H14.0001V71.75H43.7501V68.25H24.5001Z" fill="black"/>
<path d="M10.5 45.5H5.25V49H10.5V45.5Z" fill="black"/>
<path d="M24.5 57.75V52.5C24.5 51.5336 23.7164 50.75 22.75 50.75C21.7836 50.75 21 51.5336 21 52.5V57.75H10.5V61.25H35V57.75H24.5Z" fill="black"/>
<path d="M85.7499 8.75H59.4999V12.25H85.7499V8.75Z" fill="black"/>
<path d="M56.0001 8.75H50.7501V12.25H56.0001V8.75Z" fill="black"/>
<path d="M45.5001 92.75H19.2501V96.25H45.5001V92.75Z" fill="black"/>
<path d="M15.75 92.75H10.5V96.25H15.75V92.75Z" fill="black"/>
<path d="M74.2826 47.4337C73.4931 47.0393 72.5337 47.2944 72.0443 48.0287L67.5731 54.7347L70.4851 56.6772L71.7503 54.775V59.5H75.2503V51.8315L77.7826 53.0985L79.3488 49.9677L74.2826 47.4337Z" fill="black"/>
<path d="M86.5325 42.1837C85.743 41.7893 84.7836 42.0444 84.2942 42.7787L79.823 49.4847L82.735 51.4272L84.0002 49.525V54.25H87.5002V46.5815L90.0325 47.8485L91.5987 44.7177L86.5325 42.1837Z" fill="black"/>
</g>
<defs>
<clipPath id="clip0">
<rect width="105" height="105" fill="white"/>
</clipPath>
</defs>
</svg>
