<svg width="65" height="65" viewBox="0 0 65 65" fill="none" xmlns="http://www.w3.org/2000/svg">
<path d="M62.6712 34.8288L50.0632 22.2209C49.781 21.9368 49.4451 21.7116 49.0752 21.5584C48.7052 21.4051 48.3085 21.3269 47.908 21.3281H30.4688V23.3594H35.5469V38.5938H37.5781V23.3594H47.908C48.0416 23.3593 48.1738 23.3855 48.2972 23.4366C48.4206 23.4876 48.5327 23.5625 48.6271 23.657L50.3608 25.3906H45.7031C45.1644 25.3906 44.6477 25.6046 44.2668 25.9856C43.8859 26.3665 43.6719 26.8832 43.6719 27.4219V36.5625C43.6719 37.1012 43.8859 37.6179 44.2668 37.9988C44.6477 38.3798 45.1644 38.5938 45.7031 38.5938H60.9375V46.7188C60.9375 46.9881 60.8305 47.2465 60.64 47.4369C60.4496 47.6274 60.1912 47.7344 59.9219 47.7344H57.8094C57.5665 46.0435 56.7222 44.4969 55.4313 43.3781C54.1404 42.2594 52.4895 41.6435 50.7812 41.6435C49.073 41.6435 47.4221 42.2594 46.1312 43.3781C44.8403 44.4969 43.996 46.0435 43.7531 47.7344H29.3719C29.129 46.0435 28.2847 44.4969 26.9938 43.3781C25.7029 42.2594 24.052 41.6435 22.3438 41.6435C20.6355 41.6435 18.9846 42.2594 17.6937 43.3781C16.4028 44.4969 15.5585 46.0435 15.3156 47.7344H13.2031C12.9338 47.7344 12.6754 47.6274 12.485 47.4369C12.2945 47.2465 12.1875 46.9881 12.1875 46.7188V37.5781H10.1562V46.7188C10.1562 47.5268 10.4773 48.3018 11.0487 48.8732C11.6201 49.4446 12.395 49.7656 13.2031 49.7656H15.3156C15.5373 51.3099 16.2624 52.7379 17.3784 53.8281H2.03125V55.8594H50.7812C52.489 55.8561 54.1387 55.2387 55.429 54.12C56.7193 53.0012 57.5642 51.4557 57.8094 49.7656H59.9219C60.73 49.7656 61.5049 49.4446 62.0763 48.8732C62.6477 48.3018 62.9688 47.5268 62.9688 46.7188V35.5469C62.9687 35.2776 62.8617 35.0193 62.6712 34.8288ZM17.2656 48.75C17.2656 47.7457 17.5635 46.7639 18.1214 45.9288C18.6794 45.0937 19.4725 44.4428 20.4004 44.0584C21.3283 43.6741 22.3494 43.5735 23.3344 43.7695C24.3195 43.9654 25.2243 44.449 25.9345 45.1592C26.6447 45.8694 27.1284 46.7743 27.3243 47.7593C27.5202 48.7444 27.4197 49.7654 27.0353 50.6933C26.651 51.6212 26.0001 52.4143 25.165 52.9723C24.3299 53.5303 23.3481 53.8281 22.3438 53.8281C20.9974 53.8265 19.7067 53.291 18.7548 52.339C17.8028 51.387 17.2672 50.0963 17.2656 48.75ZM27.3091 53.8281C28.4251 52.7379 29.1502 51.3099 29.3719 49.7656H43.7531C43.9748 51.3099 44.6999 52.7379 45.8159 53.8281H27.3091ZM50.7812 53.8281C49.7769 53.8281 48.7951 53.5303 47.96 52.9723C47.1249 52.4143 46.474 51.6212 46.0897 50.6933C45.7053 49.7654 45.6048 48.7444 45.8007 47.7593C45.9966 46.7743 46.4803 45.8694 47.1905 45.1592C47.9007 44.449 48.8055 43.9654 49.7906 43.7695C50.7756 43.5735 51.7967 43.6741 52.7246 44.0584C53.6525 44.4428 54.4456 45.0937 55.0036 45.9288C55.5616 46.7639 55.8594 47.7457 55.8594 48.75C55.8578 50.0963 55.3222 51.387 54.3702 52.339C53.4183 53.291 52.1276 53.8265 50.7812 53.8281ZM45.7031 36.5625V27.4219H52.392L60.9375 35.9674V36.5625H45.7031Z" fill="#8CBD02"/>
<path d="M23.3594 47.7344H21.3281V49.7656H23.3594V47.7344Z" fill="#8CBD02"/>
<path d="M51.7969 47.7344H49.7656V49.7656H51.7969V47.7344Z" fill="#8CBD02"/>
<path d="M7.10938 44.6875H2.03125V46.7188H7.10938V44.6875Z" fill="#8CBD02"/>
<path d="M7.10938 40.625H4.0625V42.6562H7.10938V40.625Z" fill="#8CBD02"/>
<path d="M7.10938 36.5625H5.07812V38.5938H7.10938V36.5625Z" fill="#8CBD02"/>
<path d="M15.2344 35.5469C17.8457 35.5469 20.3984 34.7725 22.5696 33.3218C24.7409 31.871 26.4332 29.8089 27.4325 27.3964C28.4318 24.9838 28.6933 22.3291 28.1838 19.768C27.6744 17.2068 26.4169 14.8542 24.5704 13.0077C22.7239 11.1612 20.3713 9.90377 17.8102 9.39433C15.249 8.88488 12.5943 9.14635 10.1818 10.1457C7.7692 11.145 5.70716 12.8372 4.25638 15.0085C2.8056 17.1797 2.03125 19.7324 2.03125 22.3438C2.03528 25.8442 3.42762 29.2001 5.90281 31.6753C8.378 34.1505 11.7339 35.5428 15.2344 35.5469ZM15.2344 11.1719C17.444 11.1719 19.6039 11.8271 21.4411 13.0547C23.2783 14.2823 24.7103 16.0271 25.5558 18.0685C26.4014 20.1099 26.6227 22.3561 26.1916 24.5233C25.7605 26.6904 24.6965 28.681 23.1341 30.2435C21.5717 31.8059 19.581 32.8699 17.4139 33.301C15.2468 33.732 13.0005 33.5108 10.9591 32.6652C8.91769 31.8196 7.17288 30.3877 5.9453 28.5505C4.71772 26.7133 4.0625 24.5533 4.0625 22.3438C4.06599 19.3819 5.24415 16.5423 7.33853 14.4479C9.4329 12.3535 12.2725 11.1754 15.2344 11.1719Z" fill="#8CBD02"/>
<path d="M15.2344 31.4844C15.5037 31.4843 15.762 31.3773 15.9524 31.1868C16.6065 30.5327 22.3438 24.6695 22.3438 20.3125C22.3438 18.427 21.5947 16.6187 20.2615 15.2854C18.9282 13.9521 17.1199 13.2031 15.2344 13.2031C13.3489 13.2031 11.5406 13.9521 10.2073 15.2854C8.87402 16.6187 8.125 18.427 8.125 20.3125C8.125 24.6695 13.8623 30.5327 14.5163 31.1868C14.7068 31.3773 14.965 31.4843 15.2344 31.4844ZM15.2344 15.2344C16.5807 15.236 17.8714 15.7715 18.8234 16.7235C19.7754 17.6755 20.3109 18.9662 20.3125 20.3125C20.3125 22.9186 17.1163 26.9455 15.2344 28.9971C13.3524 26.9455 10.1562 22.9186 10.1562 20.3125C10.1579 18.9662 10.6934 17.6755 11.6454 16.7235C12.5974 15.7715 13.8881 15.236 15.2344 15.2344Z" fill="#8CBD02"/>
<path d="M18.2812 20.3125C18.2812 19.7099 18.1026 19.1208 17.7678 18.6197C17.433 18.1187 16.9571 17.7282 16.4004 17.4976C15.8436 17.2669 15.231 17.2066 14.64 17.3242C14.0489 17.4417 13.506 17.7319 13.0799 18.158C12.6538 18.5841 12.3636 19.127 12.246 19.7181C12.1285 20.3091 12.1888 20.9217 12.4194 21.4785C12.65 22.0352 13.0406 22.5111 13.5416 22.8459C14.0427 23.1807 14.6318 23.3594 15.2344 23.3594C16.0425 23.3594 16.8174 23.0384 17.3888 22.467C17.9602 21.8956 18.2812 21.1206 18.2812 20.3125ZM14.2188 20.3125C14.2188 20.1116 14.2783 19.9153 14.3899 19.7482C14.5015 19.5812 14.6601 19.4511 14.8457 19.3742C15.0313 19.2973 15.2355 19.2772 15.4325 19.3164C15.6295 19.3556 15.8105 19.4523 15.9525 19.5943C16.0946 19.7364 16.1913 19.9173 16.2305 20.1144C16.2697 20.3114 16.2496 20.5156 16.1727 20.7012C16.0958 20.8867 15.9656 21.0454 15.7986 21.157C15.6316 21.2686 15.4352 21.3281 15.2344 21.3281C14.965 21.3281 14.7067 21.2211 14.5162 21.0307C14.3258 20.8402 14.2188 20.5819 14.2188 20.3125Z" fill="#8CBD02"/>
<path d="M44.6875 40.625H40.625V42.6562H44.6875V40.625Z" fill="#8CBD02"/>
</svg>
