<svg width="24" height="26" viewBox="0 0 24 26" fill="none" xmlns="http://www.w3.org/2000/svg">
<g clip-path="url(#clip0)">
<path d="M2.5998 25.8999H2.2998C1.9998 25.8999 1.7998 25.6999 1.7998 25.3999V17.3999C1.7998 17.0999 1.9998 16.8999 2.2998 16.8999H2.5998C2.8998 16.8999 3.0998 17.0999 3.0998 17.3999V25.3999C3.0998 25.6999 2.8998 25.8999 2.5998 25.8999Z" fill="white"/>
<path d="M7.6002 25.9H7.2002C6.9002 25.9 6.7002 25.7 6.7002 25.4V14.4C6.8002 14.2 7.0002 14 7.2002 14H7.5002C7.8002 14 8.0002 14.2 8.0002 14.4V25.4C8.0002 25.7 7.8002 25.9 7.6002 25.9Z" fill="white"/>
<path d="M12.5002 25.9H12.2002C11.9002 25.9 11.7002 25.7 11.7002 25.4V11.5C11.7002 11.2 11.9002 11 12.2002 11H12.5002C12.8002 11 13.0002 11.2 13.0002 11.5V25.4C13.0002 25.7 12.8002 25.9 12.5002 25.9Z" fill="white"/>
<path d="M17.3996 25.9H17.0996C16.7996 25.9 16.5996 25.7 16.5996 25.4V8.5C16.5996 8.2 16.7996 8 17.0996 8H17.3996C17.6996 8 17.8996 8.2 17.8996 8.5V25.4C17.8996 25.7 17.6996 25.9 17.3996 25.9Z" fill="white"/>
<path d="M22.3996 25.9H22.0996C21.7996 25.9 21.5996 25.7 21.5996 25.4V5.5C21.5996 5.2 21.7996 5 22.0996 5H22.3996C22.6996 5 22.8996 5.2 22.8996 5.5V25.4C22.8996 25.7 22.6996 25.9 22.3996 25.9Z" fill="white"/>
<path d="M0.3 14L0 13.5L20.4 1.5L20.7 2L0.3 14Z" fill="white"/>
<path d="M23.3002 0.100098C22.3002 1.3001 21.2002 3.1001 20.7002 4.5001L20.2002 1.9001L18.2002 0.200098C19.7002 0.500098 21.7002 0.400098 23.3002 0.100098Z" fill="white" stroke="white" stroke-width="0.25" stroke-miterlimit="10" stroke-linecap="round" stroke-linejoin="round"/>
</g>
<defs>
<clipPath id="clip0">
<rect width="23.4" height="25.9" fill="white"/>
</clipPath>
</defs>
</svg>
