<svg width="14" height="14" viewBox="0 0 14 14" fill="none" xmlns="http://www.w3.org/2000/svg">
<mask id="path-1-inside-1" fill="white">
<path d="M14 7C14 3.14033 10.8597 0 7 0C3.14033 0 0 3.14033 0 7C0 9.03865 0.876654 10.8762 2.27207 12.1566L2.26545 12.1624L2.49251 12.3539C2.50727 12.3663 2.52331 12.3765 2.53807 12.3887C2.65873 12.4888 2.78371 12.5837 2.91098 12.6756C2.95222 12.7054 2.99345 12.7352 3.03545 12.7642C3.17138 12.8579 3.31087 12.9467 3.45342 13.0309C3.48447 13.0493 3.51578 13.0671 3.54709 13.0849C3.70313 13.1737 3.86247 13.2575 4.02564 13.3344C4.0376 13.34 4.04982 13.3451 4.06178 13.3507C4.59353 13.5978 5.16116 13.7793 5.75476 13.8865C5.77029 13.8893 5.78582 13.8921 5.8016 13.8949C5.98589 13.9267 6.17222 13.9521 6.36084 13.9692C6.38375 13.9712 6.40665 13.9725 6.42982 13.9745C6.61767 13.9901 6.80756 14 7 14C7.19065 14 7.37876 13.9901 7.5656 13.9751C7.58927 13.973 7.61295 13.9717 7.63662 13.9697C7.82371 13.9527 8.00851 13.928 8.19102 13.8967C8.2068 13.8939 8.22284 13.8911 8.23862 13.888C8.82331 13.7831 9.3828 13.6057 9.90767 13.3649C9.92702 13.356 9.94662 13.3476 9.96596 13.3384C10.123 13.2646 10.2765 13.1849 10.4269 13.1002C10.4644 13.0791 10.5015 13.0577 10.5387 13.0358C10.6756 12.9551 10.8103 12.8708 10.9411 12.7812C10.9882 12.7492 11.0343 12.7153 11.0809 12.6817C11.1926 12.6013 11.3023 12.5183 11.409 12.4315C11.4327 12.4124 11.4581 12.3959 11.4813 12.3763L11.7142 12.1818L11.7073 12.1759C13.1149 10.8951 14 9.04909 14 7ZM0.509091 7C0.509091 3.42084 3.42084 0.509091 7 0.509091C10.5792 0.509091 13.4909 3.42084 13.4909 7C13.4909 8.92869 12.6445 10.6627 11.3046 11.8524C11.2298 11.8007 11.1544 11.7544 11.0773 11.7157L8.92207 10.6382C8.72862 10.5415 8.60847 10.347 8.60847 10.1309V9.37822C8.65836 9.31662 8.71105 9.24687 8.76553 9.17025C9.04451 8.77622 9.26825 8.33789 9.43142 7.86622C9.75393 7.71298 9.96215 7.39175 9.96215 7.02902V6.12665C9.96215 5.90596 9.8812 5.69189 9.73636 5.52364V4.33567C9.7496 4.20356 9.79644 3.458 9.25705 2.84302C8.78793 2.30745 8.02862 2.03636 7 2.03636C5.97138 2.03636 5.21207 2.30745 4.74295 2.84276C4.20356 3.45775 4.2504 4.20331 4.26364 4.33542V5.52338C4.11905 5.69164 4.03785 5.90571 4.03785 6.1264V7.02876C4.03785 7.30902 4.1636 7.57044 4.37895 7.74684C4.58513 8.55451 5.00945 9.16593 5.16625 9.37313V10.1098C5.16625 10.3175 5.05298 10.5084 4.87047 10.6082L2.85778 11.706C2.79364 11.7409 2.73 11.7816 2.66636 11.8272C1.34298 10.638 0.509091 8.91469 0.509091 7ZM10.8077 12.2518C10.7187 12.3164 10.628 12.3791 10.5361 12.4389C10.4939 12.4664 10.4519 12.4939 10.4089 12.5206C10.2887 12.5949 10.1665 12.6657 10.0418 12.7319C10.0143 12.7464 9.98658 12.7601 9.95884 12.7744C9.67222 12.9212 9.37567 13.0475 9.07098 13.1501C9.06029 13.1536 9.0496 13.1575 9.03865 13.161C8.87905 13.214 8.71742 13.2611 8.554 13.3015C8.55349 13.3015 8.55298 13.3018 8.55247 13.3018C8.38753 13.3425 8.22055 13.3764 8.05255 13.4041C8.04796 13.4049 8.04338 13.4059 8.0388 13.4067C7.88073 13.4324 7.72138 13.4509 7.56153 13.4649C7.53327 13.4675 7.50502 13.4693 7.47651 13.4713C7.31844 13.4833 7.1596 13.4909 7 13.4909C6.83862 13.4909 6.67775 13.483 6.51764 13.4711C6.48989 13.469 6.46215 13.4672 6.43465 13.4647C6.27327 13.4504 6.11265 13.4313 5.95356 13.4054C5.94644 13.4041 5.93931 13.4028 5.93218 13.4016C5.59567 13.3453 5.26451 13.2626 4.942 13.1544C4.93207 13.1511 4.92189 13.1475 4.91196 13.1442C4.75185 13.0897 4.59353 13.0294 4.438 12.9627C4.43698 12.9622 4.43571 12.9617 4.43469 12.9612C4.28756 12.8978 4.14324 12.8276 4.00069 12.7535C3.98211 12.7438 3.96327 12.7347 3.94495 12.7247C3.81487 12.6552 3.6876 12.5801 3.56211 12.5017C3.52495 12.4783 3.48804 12.4547 3.45138 12.4307C3.33582 12.3551 3.22178 12.2765 3.1108 12.1932C3.09935 12.1846 3.0884 12.1754 3.07695 12.1668C3.08509 12.1622 3.09324 12.1576 3.10138 12.153L5.11407 11.0552C5.46025 10.8663 5.67535 10.5041 5.67535 10.1098L5.67509 9.19291L5.61655 9.12215C5.61095 9.11578 5.06062 8.44633 4.85265 7.53989L4.82949 7.43909L4.74269 7.38284C4.62025 7.30367 4.54695 7.17131 4.54695 7.02851V6.12615C4.54695 6.00778 4.59709 5.89756 4.68873 5.81484L4.77273 5.73898V4.32116L4.77044 4.28782C4.76967 4.28171 4.69458 3.66953 5.12578 3.178C5.49385 2.75851 6.12462 2.54545 7 2.54545C7.87207 2.54545 8.5008 2.75673 8.86989 3.17316C9.30058 3.6596 9.23007 4.28324 9.22956 4.28833L9.22727 5.73949L9.31127 5.81535C9.40265 5.89782 9.45305 6.00829 9.45305 6.12665V7.02902C9.45305 7.21051 9.3296 7.3752 9.15244 7.42993L9.02593 7.46887L8.9852 7.59487C8.83502 8.06145 8.6212 8.4924 8.34985 8.87574C8.28316 8.96993 8.21826 9.05342 8.16251 9.11731L8.09938 9.18935V10.1309C8.09938 10.5412 8.32745 10.9103 8.69451 11.0936L10.8497 12.1711C10.8635 12.178 10.877 12.1851 10.8905 12.1922C10.8632 12.2128 10.8352 12.2319 10.8077 12.2518Z"/>
</mask>
<path d="M14 7C14 3.14033 10.8597 0 7 0C3.14033 0 0 3.14033 0 7C0 9.03865 0.876654 10.8762 2.27207 12.1566L2.26545 12.1624L2.49251 12.3539C2.50727 12.3663 2.52331 12.3765 2.53807 12.3887C2.65873 12.4888 2.78371 12.5837 2.91098 12.6756C2.95222 12.7054 2.99345 12.7352 3.03545 12.7642C3.17138 12.8579 3.31087 12.9467 3.45342 13.0309C3.48447 13.0493 3.51578 13.0671 3.54709 13.0849C3.70313 13.1737 3.86247 13.2575 4.02564 13.3344C4.0376 13.34 4.04982 13.3451 4.06178 13.3507C4.59353 13.5978 5.16116 13.7793 5.75476 13.8865C5.77029 13.8893 5.78582 13.8921 5.8016 13.8949C5.98589 13.9267 6.17222 13.9521 6.36084 13.9692C6.38375 13.9712 6.40665 13.9725 6.42982 13.9745C6.61767 13.9901 6.80756 14 7 14C7.19065 14 7.37876 13.9901 7.5656 13.9751C7.58927 13.973 7.61295 13.9717 7.63662 13.9697C7.82371 13.9527 8.00851 13.928 8.19102 13.8967C8.2068 13.8939 8.22284 13.8911 8.23862 13.888C8.82331 13.7831 9.3828 13.6057 9.90767 13.3649C9.92702 13.356 9.94662 13.3476 9.96596 13.3384C10.123 13.2646 10.2765 13.1849 10.4269 13.1002C10.4644 13.0791 10.5015 13.0577 10.5387 13.0358C10.6756 12.9551 10.8103 12.8708 10.9411 12.7812C10.9882 12.7492 11.0343 12.7153 11.0809 12.6817C11.1926 12.6013 11.3023 12.5183 11.409 12.4315C11.4327 12.4124 11.4581 12.3959 11.4813 12.3763L11.7142 12.1818L11.7073 12.1759C13.1149 10.8951 14 9.04909 14 7ZM0.509091 7C0.509091 3.42084 3.42084 0.509091 7 0.509091C10.5792 0.509091 13.4909 3.42084 13.4909 7C13.4909 8.92869 12.6445 10.6627 11.3046 11.8524C11.2298 11.8007 11.1544 11.7544 11.0773 11.7157L8.92207 10.6382C8.72862 10.5415 8.60847 10.347 8.60847 10.1309V9.37822C8.65836 9.31662 8.71105 9.24687 8.76553 9.17025C9.04451 8.77622 9.26825 8.33789 9.43142 7.86622C9.75393 7.71298 9.96215 7.39175 9.96215 7.02902V6.12665C9.96215 5.90596 9.8812 5.69189 9.73636 5.52364V4.33567C9.7496 4.20356 9.79644 3.458 9.25705 2.84302C8.78793 2.30745 8.02862 2.03636 7 2.03636C5.97138 2.03636 5.21207 2.30745 4.74295 2.84276C4.20356 3.45775 4.2504 4.20331 4.26364 4.33542V5.52338C4.11905 5.69164 4.03785 5.90571 4.03785 6.1264V7.02876C4.03785 7.30902 4.1636 7.57044 4.37895 7.74684C4.58513 8.55451 5.00945 9.16593 5.16625 9.37313V10.1098C5.16625 10.3175 5.05298 10.5084 4.87047 10.6082L2.85778 11.706C2.79364 11.7409 2.73 11.7816 2.66636 11.8272C1.34298 10.638 0.509091 8.91469 0.509091 7ZM10.8077 12.2518C10.7187 12.3164 10.628 12.3791 10.5361 12.4389C10.4939 12.4664 10.4519 12.4939 10.4089 12.5206C10.2887 12.5949 10.1665 12.6657 10.0418 12.7319C10.0143 12.7464 9.98658 12.7601 9.95884 12.7744C9.67222 12.9212 9.37567 13.0475 9.07098 13.1501C9.06029 13.1536 9.0496 13.1575 9.03865 13.161C8.87905 13.214 8.71742 13.2611 8.554 13.3015C8.55349 13.3015 8.55298 13.3018 8.55247 13.3018C8.38753 13.3425 8.22055 13.3764 8.05255 13.4041C8.04796 13.4049 8.04338 13.4059 8.0388 13.4067C7.88073 13.4324 7.72138 13.4509 7.56153 13.4649C7.53327 13.4675 7.50502 13.4693 7.47651 13.4713C7.31844 13.4833 7.1596 13.4909 7 13.4909C6.83862 13.4909 6.67775 13.483 6.51764 13.4711C6.48989 13.469 6.46215 13.4672 6.43465 13.4647C6.27327 13.4504 6.11265 13.4313 5.95356 13.4054C5.94644 13.4041 5.93931 13.4028 5.93218 13.4016C5.59567 13.3453 5.26451 13.2626 4.942 13.1544C4.93207 13.1511 4.92189 13.1475 4.91196 13.1442C4.75185 13.0897 4.59353 13.0294 4.438 12.9627C4.43698 12.9622 4.43571 12.9617 4.43469 12.9612C4.28756 12.8978 4.14324 12.8276 4.00069 12.7535C3.98211 12.7438 3.96327 12.7347 3.94495 12.7247C3.81487 12.6552 3.6876 12.5801 3.56211 12.5017C3.52495 12.4783 3.48804 12.4547 3.45138 12.4307C3.33582 12.3551 3.22178 12.2765 3.1108 12.1932C3.09935 12.1846 3.0884 12.1754 3.07695 12.1668C3.08509 12.1622 3.09324 12.1576 3.10138 12.153L5.11407 11.0552C5.46025 10.8663 5.67535 10.5041 5.67535 10.1098L5.67509 9.19291L5.61655 9.12215C5.61095 9.11578 5.06062 8.44633 4.85265 7.53989L4.82949 7.43909L4.74269 7.38284C4.62025 7.30367 4.54695 7.17131 4.54695 7.02851V6.12615C4.54695 6.00778 4.59709 5.89756 4.68873 5.81484L4.77273 5.73898V4.32116L4.77044 4.28782C4.76967 4.28171 4.69458 3.66953 5.12578 3.178C5.49385 2.75851 6.12462 2.54545 7 2.54545C7.87207 2.54545 8.5008 2.75673 8.86989 3.17316C9.30058 3.6596 9.23007 4.28324 9.22956 4.28833L9.22727 5.73949L9.31127 5.81535C9.40265 5.89782 9.45305 6.00829 9.45305 6.12665V7.02902C9.45305 7.21051 9.3296 7.3752 9.15244 7.42993L9.02593 7.46887L8.9852 7.59487C8.83502 8.06145 8.6212 8.4924 8.34985 8.87574C8.28316 8.96993 8.21826 9.05342 8.16251 9.11731L8.09938 9.18935V10.1309C8.09938 10.5412 8.32745 10.9103 8.69451 11.0936L10.8497 12.1711C10.8635 12.178 10.877 12.1851 10.8905 12.1922C10.8632 12.2128 10.8352 12.2319 10.8077 12.2518Z" fill="#C4C4C4"/>
<path d="M14 7C14 3.14033 10.8597 0 7 0C3.14033 0 0 3.14033 0 7C0 9.03865 0.876654 10.8762 2.27207 12.1566L2.26545 12.1624L2.49251 12.3539C2.50727 12.3663 2.52331 12.3765 2.53807 12.3887C2.65873 12.4888 2.78371 12.5837 2.91098 12.6756C2.95222 12.7054 2.99345 12.7352 3.03545 12.7642C3.17138 12.8579 3.31087 12.9467 3.45342 13.0309C3.48447 13.0493 3.51578 13.0671 3.54709 13.0849C3.70313 13.1737 3.86247 13.2575 4.02564 13.3344C4.0376 13.34 4.04982 13.3451 4.06178 13.3507C4.59353 13.5978 5.16116 13.7793 5.75476 13.8865C5.77029 13.8893 5.78582 13.8921 5.8016 13.8949C5.98589 13.9267 6.17222 13.9521 6.36084 13.9692C6.38375 13.9712 6.40665 13.9725 6.42982 13.9745C6.61767 13.9901 6.80756 14 7 14C7.19065 14 7.37876 13.9901 7.5656 13.9751C7.58927 13.973 7.61295 13.9717 7.63662 13.9697C7.82371 13.9527 8.00851 13.928 8.19102 13.8967C8.2068 13.8939 8.22284 13.8911 8.23862 13.888C8.82331 13.7831 9.3828 13.6057 9.90767 13.3649C9.92702 13.356 9.94662 13.3476 9.96596 13.3384C10.123 13.2646 10.2765 13.1849 10.4269 13.1002C10.4644 13.0791 10.5015 13.0577 10.5387 13.0358C10.6756 12.9551 10.8103 12.8708 10.9411 12.7812C10.9882 12.7492 11.0343 12.7153 11.0809 12.6817C11.1926 12.6013 11.3023 12.5183 11.409 12.4315C11.4327 12.4124 11.4581 12.3959 11.4813 12.3763L11.7142 12.1818L11.7073 12.1759C13.1149 10.8951 14 9.04909 14 7ZM0.509091 7C0.509091 3.42084 3.42084 0.509091 7 0.509091C10.5792 0.509091 13.4909 3.42084 13.4909 7C13.4909 8.92869 12.6445 10.6627 11.3046 11.8524C11.2298 11.8007 11.1544 11.7544 11.0773 11.7157L8.92207 10.6382C8.72862 10.5415 8.60847 10.347 8.60847 10.1309V9.37822C8.65836 9.31662 8.71105 9.24687 8.76553 9.17025C9.04451 8.77622 9.26825 8.33789 9.43142 7.86622C9.75393 7.71298 9.96215 7.39175 9.96215 7.02902V6.12665C9.96215 5.90596 9.8812 5.69189 9.73636 5.52364V4.33567C9.7496 4.20356 9.79644 3.458 9.25705 2.84302C8.78793 2.30745 8.02862 2.03636 7 2.03636C5.97138 2.03636 5.21207 2.30745 4.74295 2.84276C4.20356 3.45775 4.2504 4.20331 4.26364 4.33542V5.52338C4.11905 5.69164 4.03785 5.90571 4.03785 6.1264V7.02876C4.03785 7.30902 4.1636 7.57044 4.37895 7.74684C4.58513 8.55451 5.00945 9.16593 5.16625 9.37313V10.1098C5.16625 10.3175 5.05298 10.5084 4.87047 10.6082L2.85778 11.706C2.79364 11.7409 2.73 11.7816 2.66636 11.8272C1.34298 10.638 0.509091 8.91469 0.509091 7ZM10.8077 12.2518C10.7187 12.3164 10.628 12.3791 10.5361 12.4389C10.4939 12.4664 10.4519 12.4939 10.4089 12.5206C10.2887 12.5949 10.1665 12.6657 10.0418 12.7319C10.0143 12.7464 9.98658 12.7601 9.95884 12.7744C9.67222 12.9212 9.37567 13.0475 9.07098 13.1501C9.06029 13.1536 9.0496 13.1575 9.03865 13.161C8.87905 13.214 8.71742 13.2611 8.554 13.3015C8.55349 13.3015 8.55298 13.3018 8.55247 13.3018C8.38753 13.3425 8.22055 13.3764 8.05255 13.4041C8.04796 13.4049 8.04338 13.4059 8.0388 13.4067C7.88073 13.4324 7.72138 13.4509 7.56153 13.4649C7.53327 13.4675 7.50502 13.4693 7.47651 13.4713C7.31844 13.4833 7.1596 13.4909 7 13.4909C6.83862 13.4909 6.67775 13.483 6.51764 13.4711C6.48989 13.469 6.46215 13.4672 6.43465 13.4647C6.27327 13.4504 6.11265 13.4313 5.95356 13.4054C5.94644 13.4041 5.93931 13.4028 5.93218 13.4016C5.59567 13.3453 5.26451 13.2626 4.942 13.1544C4.93207 13.1511 4.92189 13.1475 4.91196 13.1442C4.75185 13.0897 4.59353 13.0294 4.438 12.9627C4.43698 12.9622 4.43571 12.9617 4.43469 12.9612C4.28756 12.8978 4.14324 12.8276 4.00069 12.7535C3.98211 12.7438 3.96327 12.7347 3.94495 12.7247C3.81487 12.6552 3.6876 12.5801 3.56211 12.5017C3.52495 12.4783 3.48804 12.4547 3.45138 12.4307C3.33582 12.3551 3.22178 12.2765 3.1108 12.1932C3.09935 12.1846 3.0884 12.1754 3.07695 12.1668C3.08509 12.1622 3.09324 12.1576 3.10138 12.153L5.11407 11.0552C5.46025 10.8663 5.67535 10.5041 5.67535 10.1098L5.67509 9.19291L5.61655 9.12215C5.61095 9.11578 5.06062 8.44633 4.85265 7.53989L4.82949 7.43909L4.74269 7.38284C4.62025 7.30367 4.54695 7.17131 4.54695 7.02851V6.12615C4.54695 6.00778 4.59709 5.89756 4.68873 5.81484L4.77273 5.73898V4.32116L4.77044 4.28782C4.76967 4.28171 4.69458 3.66953 5.12578 3.178C5.49385 2.75851 6.12462 2.54545 7 2.54545C7.87207 2.54545 8.5008 2.75673 8.86989 3.17316C9.30058 3.6596 9.23007 4.28324 9.22956 4.28833L9.22727 5.73949L9.31127 5.81535C9.40265 5.89782 9.45305 6.00829 9.45305 6.12665V7.02902C9.45305 7.21051 9.3296 7.3752 9.15244 7.42993L9.02593 7.46887L8.9852 7.59487C8.83502 8.06145 8.6212 8.4924 8.34985 8.87574C8.28316 8.96993 8.21826 9.05342 8.16251 9.11731L8.09938 9.18935V10.1309C8.09938 10.5412 8.32745 10.9103 8.69451 11.0936L10.8497 12.1711C10.8635 12.178 10.877 12.1851 10.8905 12.1922C10.8632 12.2128 10.8352 12.2319 10.8077 12.2518Z" fill="url(#paint0_linear)"/>
<path d="M14 7C14 3.14033 10.8597 0 7 0C3.14033 0 0 3.14033 0 7C0 9.03865 0.876654 10.8762 2.27207 12.1566L2.26545 12.1624L2.49251 12.3539C2.50727 12.3663 2.52331 12.3765 2.53807 12.3887C2.65873 12.4888 2.78371 12.5837 2.91098 12.6756C2.95222 12.7054 2.99345 12.7352 3.03545 12.7642C3.17138 12.8579 3.31087 12.9467 3.45342 13.0309C3.48447 13.0493 3.51578 13.0671 3.54709 13.0849C3.70313 13.1737 3.86247 13.2575 4.02564 13.3344C4.0376 13.34 4.04982 13.3451 4.06178 13.3507C4.59353 13.5978 5.16116 13.7793 5.75476 13.8865C5.77029 13.8893 5.78582 13.8921 5.8016 13.8949C5.98589 13.9267 6.17222 13.9521 6.36084 13.9692C6.38375 13.9712 6.40665 13.9725 6.42982 13.9745C6.61767 13.9901 6.80756 14 7 14C7.19065 14 7.37876 13.9901 7.5656 13.9751C7.58927 13.973 7.61295 13.9717 7.63662 13.9697C7.82371 13.9527 8.00851 13.928 8.19102 13.8967C8.2068 13.8939 8.22284 13.8911 8.23862 13.888C8.82331 13.7831 9.3828 13.6057 9.90767 13.3649C9.92702 13.356 9.94662 13.3476 9.96596 13.3384C10.123 13.2646 10.2765 13.1849 10.4269 13.1002C10.4644 13.0791 10.5015 13.0577 10.5387 13.0358C10.6756 12.9551 10.8103 12.8708 10.9411 12.7812C10.9882 12.7492 11.0343 12.7153 11.0809 12.6817C11.1926 12.6013 11.3023 12.5183 11.409 12.4315C11.4327 12.4124 11.4581 12.3959 11.4813 12.3763L11.7142 12.1818L11.7073 12.1759C13.1149 10.8951 14 9.04909 14 7ZM0.509091 7C0.509091 3.42084 3.42084 0.509091 7 0.509091C10.5792 0.509091 13.4909 3.42084 13.4909 7C13.4909 8.92869 12.6445 10.6627 11.3046 11.8524C11.2298 11.8007 11.1544 11.7544 11.0773 11.7157L8.92207 10.6382C8.72862 10.5415 8.60847 10.347 8.60847 10.1309V9.37822C8.65836 9.31662 8.71105 9.24687 8.76553 9.17025C9.04451 8.77622 9.26825 8.33789 9.43142 7.86622C9.75393 7.71298 9.96215 7.39175 9.96215 7.02902V6.12665C9.96215 5.90596 9.8812 5.69189 9.73636 5.52364V4.33567C9.7496 4.20356 9.79644 3.458 9.25705 2.84302C8.78793 2.30745 8.02862 2.03636 7 2.03636C5.97138 2.03636 5.21207 2.30745 4.74295 2.84276C4.20356 3.45775 4.2504 4.20331 4.26364 4.33542V5.52338C4.11905 5.69164 4.03785 5.90571 4.03785 6.1264V7.02876C4.03785 7.30902 4.1636 7.57044 4.37895 7.74684C4.58513 8.55451 5.00945 9.16593 5.16625 9.37313V10.1098C5.16625 10.3175 5.05298 10.5084 4.87047 10.6082L2.85778 11.706C2.79364 11.7409 2.73 11.7816 2.66636 11.8272C1.34298 10.638 0.509091 8.91469 0.509091 7ZM10.8077 12.2518C10.7187 12.3164 10.628 12.3791 10.5361 12.4389C10.4939 12.4664 10.4519 12.4939 10.4089 12.5206C10.2887 12.5949 10.1665 12.6657 10.0418 12.7319C10.0143 12.7464 9.98658 12.7601 9.95884 12.7744C9.67222 12.9212 9.37567 13.0475 9.07098 13.1501C9.06029 13.1536 9.0496 13.1575 9.03865 13.161C8.87905 13.214 8.71742 13.2611 8.554 13.3015C8.55349 13.3015 8.55298 13.3018 8.55247 13.3018C8.38753 13.3425 8.22055 13.3764 8.05255 13.4041C8.04796 13.4049 8.04338 13.4059 8.0388 13.4067C7.88073 13.4324 7.72138 13.4509 7.56153 13.4649C7.53327 13.4675 7.50502 13.4693 7.47651 13.4713C7.31844 13.4833 7.1596 13.4909 7 13.4909C6.83862 13.4909 6.67775 13.483 6.51764 13.4711C6.48989 13.469 6.46215 13.4672 6.43465 13.4647C6.27327 13.4504 6.11265 13.4313 5.95356 13.4054C5.94644 13.4041 5.93931 13.4028 5.93218 13.4016C5.59567 13.3453 5.26451 13.2626 4.942 13.1544C4.93207 13.1511 4.92189 13.1475 4.91196 13.1442C4.75185 13.0897 4.59353 13.0294 4.438 12.9627C4.43698 12.9622 4.43571 12.9617 4.43469 12.9612C4.28756 12.8978 4.14324 12.8276 4.00069 12.7535C3.98211 12.7438 3.96327 12.7347 3.94495 12.7247C3.81487 12.6552 3.6876 12.5801 3.56211 12.5017C3.52495 12.4783 3.48804 12.4547 3.45138 12.4307C3.33582 12.3551 3.22178 12.2765 3.1108 12.1932C3.09935 12.1846 3.0884 12.1754 3.07695 12.1668C3.08509 12.1622 3.09324 12.1576 3.10138 12.153L5.11407 11.0552C5.46025 10.8663 5.67535 10.5041 5.67535 10.1098L5.67509 9.19291L5.61655 9.12215C5.61095 9.11578 5.06062 8.44633 4.85265 7.53989L4.82949 7.43909L4.74269 7.38284C4.62025 7.30367 4.54695 7.17131 4.54695 7.02851V6.12615C4.54695 6.00778 4.59709 5.89756 4.68873 5.81484L4.77273 5.73898V4.32116L4.77044 4.28782C4.76967 4.28171 4.69458 3.66953 5.12578 3.178C5.49385 2.75851 6.12462 2.54545 7 2.54545C7.87207 2.54545 8.5008 2.75673 8.86989 3.17316C9.30058 3.6596 9.23007 4.28324 9.22956 4.28833L9.22727 5.73949L9.31127 5.81535C9.40265 5.89782 9.45305 6.00829 9.45305 6.12665V7.02902C9.45305 7.21051 9.3296 7.3752 9.15244 7.42993L9.02593 7.46887L8.9852 7.59487C8.83502 8.06145 8.6212 8.4924 8.34985 8.87574C8.28316 8.96993 8.21826 9.05342 8.16251 9.11731L8.09938 9.18935V10.1309C8.09938 10.5412 8.32745 10.9103 8.69451 11.0936L10.8497 12.1711C10.8635 12.178 10.877 12.1851 10.8905 12.1922C10.8632 12.2128 10.8352 12.2319 10.8077 12.2518Z" stroke="black" stroke-width="4" mask="url(#path-1-inside-1)"/>
<defs>
<linearGradient id="paint0_linear" x1="7" y1="0" x2="7" y2="14" gradientUnits="userSpaceOnUse">
<stop stop-color="white"/>
<stop offset="1" stop-color="white" stop-opacity="0"/>
</linearGradient>
</defs>
</svg>
