<svg width="18" height="18" viewBox="0 0 18 18" fill="none" xmlns="http://www.w3.org/2000/svg">
<g clip-path="url(#clip0)">
<path d="M17.3663 10.4199C17.9033 5.89964 17.1083 3.04589 15.6743 1.75514L15.6751 1.75439C13.3606 -0.449859 5.54406 -0.77611 2.77506 1.85339C1.53156 3.13964 1.09356 5.02739 1.04556 7.36439C0.99756 9.70214 0.94056 14.0814 5.02131 15.2694H5.02506L5.02131 17.0836C5.02131 17.0836 4.99356 17.8186 5.46306 17.9664C6.00006 18.1404 6.24306 17.7991 7.91331 15.8041C10.7063 16.0464 12.8513 15.4914 13.0951 15.4104C13.6591 15.2214 16.8503 14.7991 17.3663 10.4199ZM8.18856 14.5276C8.18856 14.5276 6.42081 16.7319 5.87106 17.3041C5.69106 17.4901 5.49381 17.4729 5.49681 17.1039C5.49681 16.8616 5.51031 14.0919 5.51031 14.0919C2.05056 13.1004 2.25456 9.37139 2.29206 7.42064C2.32956 5.46914 2.68656 3.87089 3.73956 2.79464C6.16881 0.516891 13.0216 1.02614 14.7676 2.66714C16.9021 4.55939 16.1423 9.90539 16.1468 10.0876C15.7081 13.7431 13.1221 13.9749 12.6466 14.1331C12.4433 14.2006 10.5571 14.6859 8.18856 14.5276Z" fill="white"/>
<path d="M9.16651 3.22266C8.87776 3.22266 8.87776 3.67266 9.16651 3.67641C11.4068 3.69366 13.2518 5.25516 13.272 8.11941C13.272 8.42166 13.7145 8.41791 13.7108 8.11566H13.71C13.686 5.02941 11.6715 3.23991 9.16651 3.22266Z" fill="white"/>
<path d="M12.1132 7.64453C12.1065 7.94303 12.5482 7.95728 12.552 7.65503C12.5887 5.95328 11.5395 4.55153 9.5677 4.40378C9.27895 4.38278 9.24895 4.83653 9.53695 4.85753C11.247 4.98728 12.1477 6.15428 12.1132 7.64453Z" fill="white"/>
<path d="M11.6409 9.58034C11.2704 9.36584 10.8932 9.49934 10.7372 9.71009L10.4109 10.1323C10.2452 10.3468 9.93541 10.3183 9.93541 10.3183C7.67491 9.72059 7.07041 7.35509 7.07041 7.35509C7.07041 7.35509 7.04266 7.03483 7.24966 6.86308L7.65766 6.52558C7.86166 6.36358 7.99066 5.97358 7.78291 5.59033C7.22791 4.58758 6.85516 4.24183 6.66541 3.97633C6.46591 3.72658 6.16591 3.67033 5.85391 3.83908H5.84716C5.19841 4.21858 4.48816 4.92883 4.71541 5.66008C5.10316 6.43108 5.81566 8.88884 8.08666 10.7458C9.15391 11.6241 10.8429 12.5241 11.5599 12.7318L11.5667 12.7423C12.2732 12.9778 12.9602 12.2398 13.3269 11.5716V11.5663C13.4897 11.2431 13.4357 10.9371 13.1979 10.7368C12.7764 10.3258 12.1404 9.87209 11.6409 9.58034Z" fill="white"/>
<path d="M9.87676 6.07801C10.5975 6.12001 10.947 6.49651 10.9845 7.26976C10.998 7.57201 11.4368 7.55101 11.4233 7.24876C11.3753 6.23926 10.8488 5.67676 9.90076 5.62426C9.61201 5.60701 9.58501 6.06076 9.87676 6.07801Z" fill="white"/>
</g>
<defs>
<clipPath id="clip0">
<rect width="18" height="18" fill="white"/>
</clipPath>
</defs>
</svg>
