<svg width="13" height="13" viewBox="0 0 13 13" fill="none" xmlns="http://www.w3.org/2000/svg">
<mask id="path-1-inside-1" fill="white">
<path d="M11.1063 1.34749C11.9753 2.21642 12.4538 3.36733 12.4537 4.58826L12.4538 6.72524C12.4538 7.94617 11.9753 9.09718 11.1063 9.96612C10.2374 10.835 9.08647 11.3135 7.86554 11.3135L5.95013 11.3136L4.58261 12.6811C4.37096 12.8927 4.15355 13 3.93614 13C3.63185 13 3.27648 12.7748 3.27648 12.1401V10.9126C2.52161 10.5739 1.87415 10.0396 1.39272 9.35565C0.847015 8.58035 0.558594 7.67085 0.558594 6.72524V4.58826C0.558594 3.36733 1.03715 2.21642 1.90608 1.34739C2.77492 0.478554 3.92603 0 5.14686 0H7.86544C9.08647 0 10.2374 0.478554 11.1063 1.34749Z"/>
</mask>
<path d="M11.1063 1.34749C11.9753 2.21642 12.4538 3.36733 12.4537 4.58826L12.4538 6.72524C12.4538 7.94617 11.9753 9.09718 11.1063 9.96612C10.2374 10.835 9.08647 11.3135 7.86554 11.3135L5.95013 11.3136L4.58261 12.6811C4.37096 12.8927 4.15355 13 3.93614 13C3.63185 13 3.27648 12.7748 3.27648 12.1401V10.9126C2.52161 10.5739 1.87415 10.0396 1.39272 9.35565C0.847015 8.58035 0.558594 7.67085 0.558594 6.72524V4.58826C0.558594 3.36733 1.03715 2.21642 1.90608 1.34739C2.77492 0.478554 3.92603 0 5.14686 0H7.86544C9.08647 0 10.2374 0.478554 11.1063 1.34749Z" stroke="black" stroke-width="2" mask="url(#path-1-inside-1)"/>
<mask id="path-2-inside-2" fill="white">
<path d="M6.98087 6.22922C7.12964 6.08045 7.37075 6.08045 7.51943 6.22922L8.96183 7.67163C9.03324 7.74304 9.07341 7.83994 9.07341 7.94091C9.07341 8.04198 9.03324 8.13878 8.96183 8.21029L7.95216 9.21986C7.68833 9.48359 7.33653 9.62879 6.96163 9.62879C6.58682 9.62879 6.23502 9.48359 5.97119 9.21986L2.79826 6.04673C2.25216 5.50043 2.25216 4.61186 2.79816 4.06586L3.80783 3.05619C3.87924 2.98478 3.97614 2.94461 4.07711 2.94461C4.17818 2.94461 4.27498 2.98478 4.34639 3.05619L5.7887 4.4985C5.86011 4.56991 5.90028 4.66681 5.90028 4.76778C5.90028 4.86884 5.86011 4.96574 5.7887 5.03715L5.48104 5.34472L6.6732 6.53679L6.98087 6.22922Z"/>
</mask>
<path d="M6.98087 6.22922C7.12964 6.08045 7.37075 6.08045 7.51943 6.22922L8.96183 7.67163C9.03324 7.74304 9.07341 7.83994 9.07341 7.94091C9.07341 8.04198 9.03324 8.13878 8.96183 8.21029L7.95216 9.21986C7.68833 9.48359 7.33653 9.62879 6.96163 9.62879C6.58682 9.62879 6.23502 9.48359 5.97119 9.21986L2.79826 6.04673C2.25216 5.50043 2.25216 4.61186 2.79816 4.06586L3.80783 3.05619C3.87924 2.98478 3.97614 2.94461 4.07711 2.94461C4.17818 2.94461 4.27498 2.98478 4.34639 3.05619L5.7887 4.4985C5.86011 4.56991 5.90028 4.66681 5.90028 4.76778C5.90028 4.86884 5.86011 4.96574 5.7887 5.03715L5.48104 5.34472L6.6732 6.53679L6.98087 6.22922Z" stroke="black" stroke-width="2" mask="url(#path-2-inside-2)"/>
<path d="M6.59863 1.68481C7.67377 1.68481 8.68453 2.10346 9.44476 2.86369C10.205 3.62392 10.6236 4.63469 10.6236 5.70982" stroke="black"/>
<path d="M8.9919 5.70972C8.9919 4.39011 7.91825 3.31656 6.59863 3.31656" stroke="black"/>
</svg>
