<svg width="13" height="13" viewBox="0 0 13 13" fill="none" xmlns="http://www.w3.org/2000/svg">
    <path d="M11.9537 4.58829V4.58822C11.9538 3.5009 11.5286 2.4769 10.7528 1.70104C9.97691 0.92519 8.9529 0.5 7.86544 0.5H5.14686C4.05959 0.5 3.03539 0.925196 2.25966 1.70092C2.25965 1.70093 2.25964 1.70094 2.25964 1.70094M11.9537 4.58829L2.25964 1.70094M11.9537 4.58829L11.9538 6.72524C11.9538 6.72525 11.9538 6.72526 11.9538 6.72527C11.9538 7.81262 11.5286 8.83672 10.7528 9.61256C9.9769 10.3883 8.95288 10.8135 7.86554 10.8135H7.86551L5.95011 10.8136L5.74302 10.8136L5.59658 10.9601L4.22914 12.3275C4.22911 12.3275 4.22909 12.3275 4.22906 12.3276C4.07503 12.4815 3.97735 12.5 3.93614 12.5C3.90584 12.5 3.87895 12.4896 3.85736 12.4665C3.83739 12.4451 3.77648 12.3638 3.77648 12.1401V10.9126V10.5889L3.48117 10.4564C2.8088 10.1547 2.23167 9.67887 1.80158 9.06785C1.31502 8.37656 1.05859 7.56752 1.05859 6.72524V4.58826C1.05859 3.50093 1.48377 2.47691 2.25964 1.70094M11.9537 4.58829L2.25964 1.70094" stroke="black"/>
    <path d="M7.25013 6.66704L8.52405 7.94096L7.59867 8.86624C7.42917 9.03568 7.20476 9.12879 6.96163 9.12879C6.71862 9.12879 6.49419 9.03569 6.32468 8.86624L3.15187 5.69324C3.15186 5.69322 3.15184 5.6932 3.15182 5.69319C2.8009 5.34208 2.80105 4.77008 3.15171 4.41942L4.07711 3.49402L5.35091 4.76781L5.12754 4.99111L4.77386 5.34468L5.1275 5.69829L6.31967 6.89036L6.67316 7.24382L7.0267 6.8904L7.25013 6.66704ZM7.16576 6.58266L7.16587 6.58278C7.16583 6.58274 7.16579 6.5827 7.16576 6.58266Z" stroke="black"/>
    <path d="M6.59863 1.68481C7.67377 1.68481 8.68453 2.10346 9.44476 2.86369C10.205 3.62392 10.6236 4.63469 10.6236 5.70982" stroke="black"/>
    <path d="M8.9919 5.70972C8.9919 4.39011 7.91825 3.31656 6.59863 3.31656" stroke="black"/>
</svg>