<svg width="48" height="30" viewBox="0 0 48 30" fill="none" xmlns="http://www.w3.org/2000/svg">
<path d="M3.32211 2.14014H45.2494C45.779 2.14014 46.1453 2.54969 46.1453 2.97821V27.5286C46.1453 27.9573 45.7789 28.3668 45.2494 28.3668H3.32211C2.79268 28.3668 2.42627 27.9573 2.42627 27.5286V2.97821C2.42627 2.54966 2.79263 2.14014 3.32211 2.14014Z" fill="#74BD00" stroke="white" stroke-width="3"/>
<path d="M18.4719 21.1023L20.4701 9.65942H23.6663L21.6666 21.1023H18.4719ZM33.2129 9.90593C32.5797 9.67411 31.5877 9.42529 30.3485 9.42529C27.1905 9.42529 24.9659 10.9773 24.947 13.2015C24.9291 14.8458 26.5351 15.7631 27.7473 16.3104C28.9914 16.8713 29.4096 17.2289 29.4036 17.7298C29.3957 18.4968 28.4101 18.8473 27.4916 18.8473C26.2124 18.8473 25.5328 18.6739 24.4832 18.2466L24.0714 18.0647L23.6227 20.6263C24.3693 20.9458 25.7497 21.2225 27.1829 21.2368C30.5424 21.2368 32.7234 19.7026 32.7482 17.3274C32.7602 16.0257 31.9088 15.035 30.0649 14.2183C28.9478 13.6891 28.2636 13.3358 28.2709 12.7998C28.2709 12.3242 28.8499 11.8155 30.101 11.8155C31.1463 11.7997 31.9033 12.0221 32.4932 12.2539L32.7796 12.386L33.2128 9.90574L33.2129 9.90593ZM41.4374 9.65904H38.9678C38.2028 9.65904 37.6303 9.86285 37.2942 10.6081L32.5479 21.0948H35.9038C35.9038 21.0948 36.4525 19.6846 36.5767 19.3751C36.9435 19.3751 40.2037 19.38 40.6698 19.38C40.7654 19.7807 41.0586 21.0948 41.0586 21.0948H44.0243L41.4374 9.65873V9.65904ZM37.5191 17.0482C37.7835 16.3889 38.7925 13.8494 38.7925 13.8494C38.7736 13.88 39.0549 13.1869 39.2164 12.7574L39.4323 13.744C39.4323 13.744 40.0443 16.4754 40.1722 17.0482H37.5191ZM15.7594 9.65904L12.6305 17.4622L12.2971 15.8763C11.7146 14.0482 9.89972 12.0676 7.87085 11.0761L10.7318 21.0835L14.1133 21.0797L19.1448 9.65861H15.7594" fill="white"/>
<path d="M9.70994 9.65942H4.5564L4.51562 9.89753C8.52494 10.8447 11.1777 13.1336 12.2795 15.8839L11.1589 10.6254C10.9654 9.90096 10.4043 9.68476 9.71019 9.65942" fill="white"/>
</svg>
