<svg width="20" height="22" viewBox="0 0 20 22" fill="none" xmlns="http://www.w3.org/2000/svg">
<path fill-rule="evenodd" clip-rule="evenodd" d="M15.3358 4.94257C14.6428 4.2101 13.8182 3.6293 12.9099 3.23383C12.0015 2.83836 11.0275 2.63607 10.0442 2.6387C5.92083 2.6387 2.56417 6.16232 2.5625 10.4936C2.5625 11.8778 2.90667 13.2288 3.56083 14.4206L2.5 18.4902L6.46583 17.3973C7.56283 18.0243 8.79183 18.3531 10.0408 18.3537H10.0442C14.1667 18.3537 17.5233 14.8301 17.525 10.4988C17.5278 9.46674 17.3358 8.44431 16.9601 7.49062C16.5843 6.53693 16.0323 5.6709 15.3358 4.94257ZM10.0442 17.0281H10.0417C8.92793 17.0282 7.83469 16.7136 6.87667 16.1172L6.65 15.9754L4.29667 16.6238L4.92417 14.2149L4.77667 13.9682C4.15399 12.9273 3.82436 11.7228 3.82583 10.4936C3.8275 6.89382 6.61667 3.9652 10.0467 3.9652C10.8635 3.96329 11.6727 4.13152 12.4272 4.46014C13.1818 4.78876 13.8667 5.27126 14.4425 5.8797C15.0213 6.48523 15.4802 7.20523 15.7924 7.99807C16.1047 8.79091 16.2641 9.64087 16.2617 10.4988C16.26 14.0986 13.4708 17.0281 10.0442 17.0281ZM13.455 12.1377C13.2675 12.0388 12.3492 11.5646 12.1775 11.4989C12.0067 11.4333 11.8825 11.4009 11.7575 11.5969C11.6325 11.7929 11.2742 12.2348 11.165 12.3661C11.0558 12.4973 10.9467 12.5131 10.76 12.4151C10.5733 12.3171 9.97083 12.1097 9.25667 11.4412C8.70083 10.9206 8.32583 10.2783 8.21667 10.0814C8.1075 9.88457 8.205 9.7787 8.29917 9.6807C8.38333 9.5932 8.48583 9.45145 8.57917 9.33682C8.6725 9.2222 8.70333 9.14082 8.76583 9.00957C8.82833 8.87832 8.7975 8.7637 8.75 8.6657C8.70333 8.56682 8.32917 7.60082 8.17333 7.20795C8.0225 6.82732 7.86833 6.87807 7.75333 6.87282C7.63423 6.86771 7.51503 6.86537 7.39583 6.86582C7.30105 6.86836 7.20778 6.89143 7.12188 6.93359C7.03599 6.97575 6.95931 7.03609 6.89667 7.11082C6.725 7.3077 6.2425 7.78195 6.2425 8.74795C6.2425 9.71395 6.9125 10.6476 7.00583 10.7788C7.09917 10.9101 8.32417 12.8919 10.1992 13.7424C10.6458 13.9446 10.9942 14.0653 11.265 14.1563C11.7125 14.3059 12.12 14.2841 12.4425 14.2342C12.8017 14.1782 13.5483 13.7599 13.7042 13.3014C13.86 12.8429 13.86 12.4501 13.8133 12.3678C13.7667 12.2856 13.6408 12.2357 13.455 12.1377Z" fill="white"/>
</svg>
