<svg width="28" height="27" viewBox="0 0 28 27" fill="none" xmlns="http://www.w3.org/2000/svg">
<g clip-path="url(#clip0)">
<path d="M0.100109 16.1C0.100109 16 0.100109 16 0.100109 15.9C0.100109 15.8 0.000108507 15.8 0.100109 15.7C0.200109 15.5 0.200109 15.3 0.100109 15.1C0.100109 14.8 0.100109 14.6 0.300109 14.4C0.300109 14.3 0.300109 14.2 0.400109 14.1C0.500109 13.9 0.500109 13.7 0.600109 13.5C0.600109 13.4 0.700108 13.3 0.700108 13.2C0.700108 13.1 0.700109 13.1 0.600109 13C0.400109 12.8 0.300109 12.6 0.300109 12.3C0.300109 12 0.400109 11.7 0.400109 11.4V11.3C0.400109 11.2 0.500109 11 0.500109 11C0.600109 10.9 0.600109 10.8 0.600109 10.7C0.600109 10.7 0.600109 10.7 0.600109 10.6C0.600109 10.5 0.500109 10.4 0.600109 10.2C0.600109 10.1 0.600109 10.1 0.600109 10C0.600109 9.7 0.700108 9.4 0.900108 9.2C0.900108 9.1 1.00011 9.1 1.00011 9C0.900108 8.7 1.00011 8.3 1.30011 8C1.50011 7.8 1.70011 7.6 1.90011 7.4C2.00011 7.3 2.10011 7.3 2.20011 7.2L2.30011 7.1C2.30011 7 2.40011 7 2.40011 6.9C2.50011 6.8 2.60011 6.6 2.60011 6.4C2.70011 6.1 2.70011 5.8 2.70011 5.5C2.70011 5.4 2.80011 5.3 2.90011 5.2C2.90011 5.2 3.00011 5.1 3.00011 5C3.00011 4.9 3.10011 4.9 3.10011 4.8C3.20011 4.4 3.50011 4.1 3.90011 4L4.00011 3.9C4.10011 3.8 4.10011 3.7 4.20011 3.6C4.30011 3.5 4.30011 3.4 4.40011 3.3C4.40011 3.1 4.50011 3 4.60011 2.9C4.70011 2.8 4.70011 2.7 4.80011 2.6C5.00011 2.3 5.30011 2 5.70011 1.9C5.80011 1.9 6.00011 1.9 6.10011 1.8C6.30011 1.7 6.40011 1.6 6.50011 1.5C6.80011 1.4 6.90011 1.2 7.00011 1.1C7.10011 1 7.30011 0.9 7.50011 0.9C7.90011 0.8 8.30011 0.7 8.70011 0.5C8.70011 0.5 8.80011 0.5 8.90011 0.5C9.00011 0.5 9.10011 0.6 9.30011 0.6C9.40011 0.6 9.50011 0.6 9.60011 0.6C9.80011 0.6 10.0001 0.5 10.2001 0.5C10.3001 0.5 10.4001 0.4 10.6001 0.3C10.8001 0.2 10.9001 0.1 11.1001 0.1C11.4001 0.1 11.6001 0.1 11.9001 0H12.0001C12.1001 0 12.1001 0 12.2001 0C12.4001 0 12.5001 0 12.7001 0.1C12.8001 0.1 12.9001 0.1 13.0001 0.1C13.2001 0.1 13.4001 0.1 13.6001 0C13.7001 0 13.7001 0 13.8001 0C14.3001 0 14.7001 0 15.2001 0C15.5001 0 15.8001 0.1 16.1001 0.2C16.4001 0.3 16.6001 0.3 16.9001 0.4H17.0001C17.4001 0.3 17.7001 0.4 18.1001 0.4C18.3001 0.4 18.5001 0.5 18.8001 0.6C18.9001 0.6 18.9001 0.7 18.9001 0.7C18.6001 0.9 18.7001 1 18.8001 1C19.0001 1 19.2001 1 19.3001 1C19.4001 1 19.5001 1 19.7001 1C19.8001 1 19.8001 1 19.9001 1.1C20.1001 1.4 20.3001 1.5 20.6001 1.6C20.8001 1.7 21.0001 1.7 21.1001 1.8C21.3001 2 21.5001 2.1 21.6001 2.4C21.6001 2.5 21.7001 2.5 21.8001 2.6C21.9001 2.7 22.1001 2.7 22.2001 2.7C22.3001 2.7 22.4001 2.7 22.5001 2.8C22.6001 2.9 22.7001 2.9 22.8001 3C22.9001 3 23.0001 3 23.0001 3.1C23.3001 3.3 23.5001 3.6 23.6001 3.9C23.6001 4 23.6001 4 23.7001 4.1C23.8001 4.2 23.8001 4.2 23.9001 4.2C24.1001 4.2 24.2001 4.3 24.3001 4.4C24.4001 4.6 24.6001 4.8 24.8001 5C24.9001 5.2 25.0001 5.4 25.0001 5.6C25.0001 5.8 25.1001 6 25.2001 6.1C25.3001 6.2 25.3001 6.3 25.4001 6.4C25.5001 6.5 25.6001 6.6 25.7001 6.7C25.8001 6.8 25.8001 6.8 25.9001 6.9C26.1001 7 26.2001 7.2 26.3001 7.4C26.4001 7.7 26.6001 8 26.7001 8.2C26.8001 8.3 26.8001 8.4 26.7001 8.6C26.6001 8.8 26.7001 8.9 26.8001 9.1C26.8001 9.2 26.8001 9.2 26.9001 9.3C26.9001 9.4 27.0001 9.4 27.0001 9.5C27.1001 9.6 27.2001 9.7 27.3001 9.8C27.4001 9.9 27.4001 10.1 27.4001 10.2C27.4001 10.4 27.5001 10.7 27.6001 10.9C27.7001 11.2 27.7001 11.4 27.6001 11.6C27.5001 11.7 27.6001 11.9 27.6001 12.1C27.6001 12.3 27.6001 12.5 27.5001 12.6C27.5001 12.8 27.5001 13 27.5001 13.1C27.5001 13.5 27.6001 13.9 27.4001 14.3C27.4001 14.5 27.2001 14.6 27.1001 14.8C27.1001 14.8 27.0001 14.9 27.0001 15C27.0001 15.2 27.0001 15.4 27.0001 15.6C27.0001 16.1 26.9001 16.5 26.7001 17C26.6001 17.1 26.5001 17.3 26.6001 17.4C26.6001 17.5 26.5001 17.6 26.5001 17.7C26.5001 17.8 26.5001 17.9 26.5001 18C26.5001 18.2 26.6001 18.4 26.6001 18.5C26.7001 18.8 26.6001 19.1 26.5001 19.5C26.5001 19.7 26.5001 19.8 26.4001 20C26.3001 20.1 26.2001 20.2 26.1001 20.3C25.9001 20.4 25.7001 20.6 25.6001 20.8C25.5001 20.9 25.5001 21.1 25.5001 21.2C25.5001 21.3 25.5001 21.4 25.4001 21.5C25.2001 21.8 24.9001 22.2 24.7001 22.5C24.6001 22.6 24.5001 22.7 24.3001 22.7C24.1001 22.7 23.9001 22.8 23.8001 22.9C24.0001 22.9 24.0001 23 23.9001 23.1C23.6001 23.7 23.1001 24 22.5001 24.3C22.4001 24.4 22.3001 24.4 22.1001 24.4C22.0001 24.4 21.8001 24.5 21.8001 24.6C21.8001 24.7 21.7001 24.7 21.7001 24.8C21.6001 25 21.5001 25 21.4001 25C21.0001 25.1 20.7001 25.2 20.4001 25.5C20.4001 25.6 20.3001 25.6 20.2001 25.6C19.7001 25.7 19.4001 26 19.0001 26.3C18.7001 26.5 18.4001 26.7 18.0001 26.7C17.8001 26.7 17.7001 26.7 17.5001 26.7C17.3001 26.7 17.1001 26.8 17.0001 26.9C16.9001 27 16.8001 27 16.7001 27C16.5001 27 16.3001 27 16.1001 27C15.9001 27 15.6001 27 15.4001 26.9C15.2001 26.8 15.1001 26.9 14.9001 26.8C14.8001 26.8 14.7001 26.9 14.7001 26.8C14.5001 26.8 14.3001 26.8 14.1001 26.7C13.8001 26.6 13.5001 26.5 13.2001 26.4C13.1001 26.4 13.1001 26.3 13.1001 26.3C13.0001 26.2 12.9001 26.2 12.7001 26.3C12.2001 26.4 11.8001 26.3 11.4001 26.1C11.1001 26 10.9001 25.9 10.6001 26C10.5001 26 10.4001 26.1 10.3001 26.1C10.0001 26.1 9.80011 26 9.50011 26C9.20011 26 9.00011 25.8 8.70011 25.7C8.60011 25.6 8.40011 25.6 8.30011 25.6C8.10011 25.6 7.90011 25.6 7.70011 25.5C7.40011 25.4 7.20011 25.3 6.90011 25.2C6.80011 25.2 6.70011 25.1 6.60011 25C6.50011 25 6.50011 24.9 6.50011 24.8C6.50011 24.7 6.40011 24.5 6.30011 24.5C6.20011 24.5 6.20011 24.4 6.10011 24.3C6.00011 24.2 5.80011 24.2 5.70011 24.1C5.40011 23.9 5.20011 23.7 4.90011 23.5C4.80011 23.4 4.60011 23.3 4.60011 23.1C4.60011 23.1 4.60011 23.1 4.60011 23C4.50011 23 4.50011 22.9 4.50011 22.8C4.50011 22.8 4.50011 22.7 4.40011 22.6C4.30011 22.5 4.30011 22.4 4.20011 22.4C4.10011 22.4 4.00011 22.4 3.90011 22.3H3.80011C3.60011 22.2 3.40011 22 3.30011 21.9C3.10011 21.7 3.00011 21.5 2.90011 21.2C2.80011 21.1 2.80011 21 2.60011 20.9C2.50011 20.9 2.40011 20.7 2.30011 20.7C2.00011 20.5 1.80011 20.3 1.60011 20C1.50011 19.8 1.40011 19.6 1.40011 19.3V19.2C1.30011 19.1 1.30011 19.1 1.20011 19C1.10011 18.8 0.900108 18.6 0.700108 18.5C0.400108 18.4 0.300109 18.2 0.200109 17.9C0.100109 17.5 0.100109 17.2 0.200109 16.8V16.7C0.100109 16.5 0.200109 16.4 0.200109 16.2C0.200109 16.2 0.200109 16.2 0.100109 16.1ZM12.2001 1.1C11.9001 1.1 11.6001 1.1 11.4001 1.1C10.8001 1.2 10.2001 1.4 9.60011 1.5C9.30011 1.6 9.00011 1.7 8.70011 1.8C8.50011 1.8 8.40011 1.9 8.20011 1.9C8.00011 2 7.70011 2 7.50011 2.1C7.40011 2.2 7.30011 2.3 7.20011 2.3C7.00011 2.5 6.70011 2.7 6.40011 2.8C6.20011 2.9 5.90011 3 5.70011 3.2C5.50011 3.5 5.20011 3.7 5.00011 4C4.60011 4.5 4.20011 5.1 4.00011 5.7C3.90011 5.9 3.70011 6.1 3.60011 6.3C3.50011 6.7 3.30011 7.1 3.10011 7.4C2.80011 7.9 2.40011 8.3 2.20011 8.8C2.10011 9.1 1.90011 9.3 1.80011 9.6C1.70011 9.7 1.70011 9.9 1.70011 10C1.60011 10.2 1.60011 10.4 1.60011 10.7C1.60011 10.9 1.50011 11.1 1.50011 11.4C1.50011 11.6 1.50011 11.9 1.50011 12.1C1.50011 12.7 1.50011 13.3 1.40011 13.9C1.40011 14.1 1.40011 14.3 1.40011 14.6C1.40011 14.9 1.30011 15.2 1.30011 15.5C1.30011 15.7 1.20011 15.8 1.20011 16C1.20011 16.2 1.20011 16.5 1.20011 16.7C1.20011 17 1.20011 17.2 1.30011 17.5C1.40011 17.7 1.50011 17.9 1.60011 18.1C1.80011 18.4 1.90011 18.6 2.10011 18.9C2.30011 19.2 2.40011 19.5 2.60011 19.8C2.80011 20 3.00011 20.3 3.30011 20.6C3.60011 20.8 3.90011 21 4.10011 21.3L4.20011 21.4C4.40011 21.6 4.60011 21.8 4.80011 22C5.10011 22.3 5.30011 22.6 5.60011 22.9C5.90011 23.2 6.10011 23.4 6.50011 23.6C6.60011 23.7 6.70011 23.8 6.90011 23.9L7.00011 24C7.30011 24.3 7.60011 24.4 8.00011 24.6C8.80011 24.9 9.70011 25.1 10.6001 25.2C11.2001 25.2 11.8001 25.3 12.4001 25.4C12.8001 25.5 13.3001 25.6 13.7001 25.7C14.1001 25.8 14.5001 25.9 14.9001 25.9C15.2001 26 15.6001 26 15.9001 26C16.2001 26 16.5001 26 16.9001 25.9C17.3001 25.8 17.8001 25.7 18.2001 25.4C18.5001 25.2 18.9001 25 19.2001 24.8C19.8001 24.5 20.4001 24.1 21.0001 23.8C21.2001 23.7 21.4001 23.5 21.6001 23.4C21.9001 23.2 22.2001 23.1 22.5001 22.9C22.8001 22.7 23.1001 22.4 23.4001 22.2C23.5001 22.1 23.7001 22 23.9001 21.9C24.1001 21.8 24.3001 21.6 24.4001 21.4C24.5001 21.2 24.7001 21 24.8001 20.8C25.0001 20.5 25.2001 20.1 25.4001 19.8C25.4001 19.8 25.5001 19.7 25.5001 19.6C25.7001 19.2 25.8001 18.7 25.8001 18.2C25.8001 18 25.8001 17.7 25.9001 17.5C26.0001 16.7 26.1001 16 26.2001 15.2C26.3001 14.7 26.4001 14.2 26.5001 13.7C26.5001 13.6 26.6001 13.4 26.6001 13.3C26.6001 13.1 26.6001 13 26.7001 12.8C26.7001 12.4 26.8001 12.1 26.8001 11.7C26.8001 11.5 26.7001 11.3 26.7001 11C26.7001 10.5 26.6001 10 26.4001 9.5C26.1001 8.9 25.8001 8.3 25.4001 7.7C25.2001 7.4 25.0001 7 24.8001 6.7C24.7001 6.6 24.6001 6.4 24.6001 6.3C24.4001 6 24.3001 5.7 24.1001 5.5C24.0001 5.2 23.8001 5 23.6001 4.8C23.3001 4.6 23.1001 4.3 22.8001 4.1C22.4001 3.8 22.0001 3.4 21.6001 3.1C21.3001 3.2 21.0001 3 20.7001 2.7C20.6001 2.7 20.6001 2.6 20.5001 2.6C20.1001 2.3 19.6001 2.1 19.1001 2.1C18.7001 2 18.3001 1.9 17.9001 1.7C17.7001 1.6 17.4001 1.5 17.2001 1.4C16.9001 1.3 16.5001 1.3 16.2001 1.2C16.0001 1.2 15.8001 1.2 15.7001 1.1C15.3001 1 15.0001 0.9 14.6001 1C14.4001 1 14.2001 1 13.9001 1C13.8001 1 13.6001 1 13.5001 1C13.1001 1.1 12.7001 1.1 12.2001 1.1Z" fill="white"/>
<path d="M24.1998 7.8999C24.2998 7.9999 24.3998 8.0999 24.3998 8.1999C24.8998 8.8999 25.2998 9.5999 25.4998 10.3999C25.6998 10.9999 25.7998 11.6999 25.8998 12.2999C25.8998 12.6999 25.8998 12.9999 25.8998 13.3999C25.7998 14.1999 25.5998 14.8999 25.2998 15.5999C25.2998 15.6999 25.1998 15.7999 25.1998 15.8999C25.0998 16.5999 24.9998 17.1999 24.8998 17.8999C24.7998 18.6999 24.4998 19.4999 24.0998 20.0999C23.6998 20.5999 23.2998 21.0999 22.7998 21.4999C21.9998 22.0999 21.0998 22.6999 20.2998 23.1999C19.6998 23.4999 19.0998 23.8999 18.4998 24.2999C17.8998 24.5999 17.2998 24.8999 16.5998 25.0999C16.0998 25.1999 15.5998 25.1999 15.0998 25.1999C14.3998 25.0999 13.5998 24.7999 12.8998 24.6999C12.4998 24.5999 11.9998 24.4999 11.5998 24.4999C10.6998 24.3999 9.7998 24.1999 8.8998 23.8999C8.0998 23.5999 7.1998 23.1999 6.5998 22.5999C6.0998 22.0999 5.6998 21.5999 5.1998 21.0999C4.9998 20.7999 4.6998 20.5999 4.4998 20.3999C3.9998 19.8999 3.4998 19.4999 2.9998 18.9999C2.4998 18.3999 2.0998 17.6999 1.9998 16.8999C1.8998 16.3999 1.8998 15.8999 1.9998 15.3999C2.0998 14.7999 2.0998 14.2999 2.0998 13.6999C2.1998 12.8999 2.1998 12.1999 2.2998 11.3999C2.3998 10.7999 2.5998 10.1999 2.8998 9.5999C2.8998 9.3999 2.9998 9.1999 3.0998 8.9999V9.0999C2.9998 9.3999 2.8998 9.6999 2.6998 9.9999C2.4998 10.4999 2.3998 10.9999 2.2998 11.4999C2.2998 12.0999 2.1998 12.5999 2.1998 13.1999C2.1998 13.9999 2.0998 14.6999 1.9998 15.4999C1.9998 15.8999 1.8998 16.2999 1.9998 16.7999C2.0998 17.5999 2.4998 18.2999 3.0998 18.9999C3.4998 19.4999 3.9998 19.8999 4.5998 20.3999C4.7998 20.4999 4.9998 20.6999 5.0998 20.7999C5.3998 21.1999 5.6998 21.4999 6.0998 21.8999C6.7998 22.6999 7.6998 23.2999 8.7998 23.6999C9.6998 23.9999 10.6998 24.1999 11.5998 24.3999C11.9998 24.3999 12.3998 24.4999 12.6998 24.5999C13.3998 24.7999 14.1998 24.9999 14.8998 25.0999C15.3998 25.1999 15.9998 25.1999 16.4998 25.0999C17.1998 24.8999 17.7998 24.6999 18.3998 24.3999C19.2998 23.8999 20.1998 23.3999 20.9998 22.8999C21.6998 22.4999 22.4998 21.9999 23.0998 21.3999C23.5998 20.8999 23.9998 20.3999 24.3998 19.7999C24.6998 19.1999 24.7998 18.5999 24.8998 17.9999C24.9998 17.2999 25.0998 16.5999 25.1998 15.9999C25.1998 15.8999 25.1998 15.8999 25.1998 15.7999C25.4998 15.1999 25.6998 14.4999 25.7998 13.7999C25.8998 13.2999 25.8998 12.8999 25.7998 12.3999C25.6998 11.7999 25.5998 11.1999 25.3998 10.6999C25.2998 10.2999 25.1998 9.8999 24.9998 9.5999C24.7998 9.1999 24.5998 8.8999 24.2998 8.4999C24.2998 8.0999 24.2998 7.9999 24.1998 7.8999Z" stroke="white" stroke-width="0.5" stroke-miterlimit="10"/>
<path d="M14.4002 3.1001C14.8002 3.1001 15.1002 3.2001 15.5002 3.2001C16.4002 3.3001 17.2002 3.6001 18.1002 3.8001C19.0002 4.0001 19.7002 4.5001 20.4002 5.2001C20.9002 5.6001 21.3002 6.0001 21.7002 6.5001C22.0002 6.8001 22.2002 7.1001 22.4002 7.5001C22.7002 7.9001 23.1002 8.3001 23.4002 8.7001C24.0002 9.3001 24.4002 10.0001 24.7002 10.8001C25.0002 11.5001 25.0002 12.2001 24.9002 13.0001C24.8002 13.6001 24.7002 14.3001 24.5002 14.9001C24.4002 15.2001 24.3002 15.4001 24.2002 15.6001C24.0002 15.9001 24.0002 16.3001 23.9002 16.7001C23.8002 16.9001 23.9002 17.2001 23.8002 17.4001C23.7002 18.3001 23.3002 19.0001 22.8002 19.8001C22.2002 20.6001 21.4002 21.3001 20.5002 21.9001C19.6002 22.5001 18.6002 23.2001 17.5002 23.7001C16.8002 24.1001 16.0002 24.3001 15.2002 24.2001C14.7002 24.2001 14.2002 24.1001 13.8002 24.0001C13.3002 23.9001 12.7002 23.8001 12.2002 23.6001C11.7002 23.5001 11.3002 23.5001 10.8002 23.4001C9.80021 23.0001 8.70021 22.6001 7.70021 22.0001C7.00021 21.5001 6.40021 21.0001 5.90021 20.3001C5.80021 20.1001 5.60021 20.0001 5.50021 19.9001C5.00021 19.5001 4.40021 19.0001 3.90021 18.5001C3.50021 18.0001 3.10021 17.5001 2.90021 16.9001C2.80021 16.5001 2.70021 16.0001 2.80021 15.6001C2.90021 15.1001 2.90021 14.6001 2.90021 14.1001C3.00021 12.8001 3.20021 11.4001 3.60021 10.1001C3.90021 9.1001 4.40021 8.2001 5.00021 7.4001C5.20021 7.1001 5.40021 6.8001 5.60021 6.5001C6.10021 5.9001 6.60021 5.3001 7.30021 4.8001C7.70021 4.5001 8.10021 4.4001 8.50021 4.2001C9.20021 3.9001 9.90021 3.8001 10.7002 3.6001C11.8002 3.3001 12.8002 3.2001 13.9002 3.1001C14.2002 3.2001 14.3002 3.2001 14.4002 3.1001ZM14.4002 3.1001C14.4002 3.2001 14.4002 3.2001 14.4002 3.1001ZM25.0002 12.3001C25.0002 12.2001 25.0002 12.0001 25.0002 11.8001C25.0002 11.7001 25.0002 11.6001 25.0002 11.6001C24.8002 10.5001 24.2002 9.5001 23.5002 8.7001C23.1002 8.3001 22.8002 7.9001 22.5002 7.5001C22.2002 7.1001 22.0002 6.7001 21.6002 6.4001C21.0002 5.8001 20.6002 5.4001 20.1002 5.0001C19.6002 4.6001 19.1002 4.3001 18.5002 4.1001C18.1002 4.0001 17.7002 3.9001 17.3002 3.7001C16.6002 3.5001 15.9002 3.3001 15.2002 3.3001C14.6002 3.3001 14.0002 3.3001 13.4002 3.3001C12.4002 3.4001 11.5002 3.5001 10.6002 3.8001C9.90021 3.9001 9.20021 4.1001 8.50021 4.4001C8.10021 4.6001 7.70021 4.7001 7.40021 5.0001C6.80021 5.4001 6.20021 6.0001 5.80021 6.6001C5.60021 6.9001 5.40021 7.2001 5.20021 7.5001C4.50021 8.4001 4.00021 9.3001 3.70021 10.4001C3.30021 11.6001 3.20021 12.8001 3.00021 14.0001C2.90021 14.5001 2.90021 15.0001 2.90021 15.5001C2.80021 15.9001 2.80021 16.4001 3.00021 16.8001C3.20021 17.5001 3.60021 18.0001 4.00021 18.5001C4.50021 19.0001 5.10021 19.5001 5.70021 19.9001C5.80021 19.9001 5.80021 20.0001 5.80021 20.0001C6.10021 20.3001 6.30021 20.7001 6.60021 21.0001C7.60021 22.0001 8.70021 22.6001 10.0002 22.9001C10.6002 23.1001 11.2002 23.2001 11.8002 23.3001C12.4002 23.4001 13.0002 23.6001 13.6002 23.7001C14.1002 23.8001 14.6002 23.9001 15.1002 23.9001C16.0002 24.0001 16.8002 23.7001 17.6002 23.3001C18.6002 22.8001 19.6002 22.2001 20.6002 21.5001C21.3002 21.0001 22.0002 20.5001 22.5002 19.8001C23.2002 18.9001 23.7002 17.9001 23.7002 16.8001C23.7002 16.7001 23.7002 16.5001 23.8002 16.4001C23.8002 16.3001 23.9002 16.1001 23.9002 16.0001C23.9002 15.9001 24.0002 15.8001 24.0002 15.7001C24.7002 14.6001 25.0002 13.5001 25.0002 12.3001Z" stroke="white" stroke-width="0.5" stroke-miterlimit="10"/>
<path d="M14.4998 4.3999C15.0998 4.3999 15.5998 4.4999 16.1998 4.4999C16.6998 4.4999 17.1998 4.7999 17.5998 4.9999C17.9998 5.0999 18.2998 5.2999 18.6998 5.4999C19.0998 5.6999 19.3998 5.9999 19.6998 6.1999C20.1998 6.5999 20.6998 7.0999 21.0998 7.5999C21.3998 7.9999 21.6998 8.3999 22.0998 8.7999C22.2998 9.0999 22.5998 9.2999 22.7998 9.5999C22.8998 9.6999 23.0998 9.8999 23.1998 10.0999C23.3998 10.2999 23.4998 10.5999 23.5998 10.9999C23.6998 11.1999 23.6998 11.4999 23.7998 11.6999C23.8998 11.9999 23.8998 12.2999 23.9998 12.4999C24.0998 12.7999 24.0998 13.0999 23.9998 13.4999C23.7998 13.9999 23.5998 14.4999 23.4998 14.9999C23.3998 15.2999 23.1998 15.6999 23.0998 15.9999C22.9998 16.4999 22.8998 17.0999 22.7998 17.5999C22.5998 18.7999 21.8998 19.6999 20.9998 20.4999C20.4998 20.8999 19.8998 21.1999 19.3998 21.4999C18.6998 21.7999 18.0998 22.1999 17.3998 22.4999C16.9998 22.6999 16.5998 22.7999 16.0998 22.8999C15.3998 22.9999 14.6998 22.8999 14.0998 22.7999C13.4998 22.6999 12.8998 22.5999 12.2998 22.4999C11.8998 22.3999 11.3998 22.3999 10.8998 22.2999C9.89982 22.0999 9.09982 21.7999 8.29982 21.1999C7.89982 20.8999 7.59982 20.4999 7.29982 20.0999C6.99982 19.7999 6.79982 19.4999 6.39982 19.1999C6.09982 18.9999 5.79982 18.7999 5.49982 18.4999C5.09982 18.1999 4.69982 17.7999 4.39982 17.2999C4.09982 16.6999 3.89982 15.9999 3.89982 15.2999C3.89982 14.8999 3.99982 14.4999 3.99982 14.0999C4.09982 13.2999 4.29982 12.5999 4.39982 11.7999C4.49982 11.1999 4.59982 10.4999 4.89982 9.8999C5.09982 9.3999 5.39982 8.9999 5.69982 8.4999C6.09982 7.9999 6.39982 7.4999 6.89982 6.9999C7.49982 6.3999 8.19982 5.9999 8.99982 5.5999C9.99982 5.0999 11.0998 4.7999 12.0998 4.5999C12.8998 4.4999 13.6998 4.3999 14.4998 4.3999ZM14.4998 4.3999C13.8998 4.4999 13.1998 4.4999 12.5998 4.5999C11.2998 4.7999 10.0998 5.1999 8.99982 5.6999C8.19982 6.0999 7.59982 6.4999 6.99982 7.0999C6.59982 7.5999 6.19982 8.0999 5.79982 8.5999C5.49982 8.9999 5.19982 9.4999 4.99982 9.8999C4.69982 10.3999 4.59982 10.9999 4.49982 11.5999C4.29982 12.3999 4.19982 13.1999 3.99982 13.9999C3.89982 14.5999 3.79982 15.2999 3.89982 15.8999C3.99982 16.5999 4.19982 17.1999 4.59982 17.6999C4.89982 17.9999 5.09982 18.1999 5.39982 18.4999C5.69982 18.6999 5.89982 18.8999 6.19982 19.0999C6.59982 19.3999 6.89982 19.7999 7.19982 20.0999C7.59982 20.5999 8.09982 21.0999 8.69982 21.4999C9.49982 21.9999 10.2998 22.1999 11.1998 22.2999C11.5998 22.2999 11.9998 22.3999 12.2998 22.3999C13.0998 22.4999 13.7998 22.6999 14.5998 22.7999C15.0998 22.8999 15.5998 22.8999 16.0998 22.7999C16.4998 22.6999 16.8998 22.5999 17.2998 22.3999C17.8998 22.0999 18.5998 21.6999 19.1998 21.3999C19.7998 21.0999 20.3998 20.7999 20.8998 20.2999C21.5998 19.6999 22.0998 19.0999 22.2998 18.1999C22.4998 17.5999 22.4998 16.9999 22.6998 16.3999C22.7998 15.9999 22.8998 15.6999 22.9998 15.2999C23.1998 14.6999 23.3998 14.1999 23.5998 13.6999C23.6998 13.2999 23.7998 12.7999 23.5998 12.3999C23.4998 11.9999 23.3998 11.5999 23.2998 11.1999C23.1998 10.8999 23.1998 10.6999 23.0998 10.4999C22.8998 10.1999 22.6998 9.8999 22.3998 9.5999C21.7998 8.8999 21.1998 8.3999 20.6998 7.6999C20.3998 7.1999 19.8998 6.7999 19.3998 6.3999C19.0998 6.0999 18.7998 5.7999 18.3998 5.5999C17.8998 5.3999 17.3998 5.0999 16.8998 4.8999C16.6998 4.7999 16.3998 4.6999 16.0998 4.6999C15.6998 4.4999 15.0998 4.4999 14.4998 4.3999Z" stroke="white" stroke-width="0.5" stroke-miterlimit="10"/>
<path d="M14.2006 21.5998C13.5006 21.5998 12.7006 21.4998 12.0006 21.3998C11.5006 21.2998 11.0006 21.1998 10.4006 21.0998C9.40059 20.7998 8.60059 20.2998 8.00059 19.3998C7.80059 19.0998 7.50059 18.7998 7.20059 18.4998C6.80059 18.1998 6.40059 17.8998 6.10059 17.5998C6.00059 17.3998 5.90059 17.1998 5.80059 16.9998C5.40059 16.1998 5.20059 15.3998 5.10059 14.5998C5.10059 14.2998 5.10059 13.8998 5.10059 13.5998C5.20059 12.2998 5.70059 11.0998 6.30059 9.9998C6.90059 9.2998 7.30059 8.5998 8.00059 7.9998C8.30059 7.6998 8.60059 7.4998 8.90059 7.2998C9.60059 6.8998 10.3006 6.5998 11.0006 6.1998C11.8006 5.7998 12.7006 5.5998 13.5006 5.4998C14.1006 5.3998 14.7006 5.3998 15.2006 5.4998C15.5006 5.4998 15.8006 5.5998 16.1006 5.7998C16.8006 6.0998 17.6006 6.2998 18.3006 6.5998C18.5006 6.6998 18.6006 6.7998 18.8006 6.8998C19.3006 7.2998 19.7006 7.69981 20.1006 8.09981C20.2006 8.29981 20.4006 8.3998 20.6006 8.4998C21.0006 8.8998 21.5006 9.2998 21.8006 9.7998C21.9006 9.9998 22.0006 10.1998 22.1006 10.3998C22.2006 10.4998 22.2006 10.6998 22.2006 10.8998C22.3006 11.3998 22.5006 11.9998 22.6006 12.4998C22.8006 13.2998 22.7006 13.9998 22.4006 14.7998C22.2006 15.3998 22.0006 15.9998 21.8006 16.5998C21.6006 17.0998 21.5006 17.6998 21.3006 18.1998C21.0006 18.9998 20.4006 19.4998 19.7006 19.9998C19.1006 20.3998 18.4006 20.5998 17.7006 20.8998C17.0006 21.0998 16.3006 21.3998 15.6006 21.4998C15.2006 21.4998 14.7006 21.5998 14.2006 21.5998ZM14.3006 21.4998C14.8006 21.4998 15.4006 21.4998 16.0006 21.2998C16.5006 21.1998 16.9006 21.0998 17.4006 20.8998C18.1006 20.6998 18.9006 20.3998 19.6006 19.9998C20.4006 19.5998 21.0006 18.9998 21.4006 18.2998C21.7006 17.7998 21.8006 17.2998 22.0006 16.6998C22.2006 15.9998 22.4006 15.3998 22.6006 14.6998C22.8006 13.9998 23.0006 13.1998 22.8006 12.4998C22.6006 11.8998 22.5006 11.2998 22.3006 10.6998C22.3006 10.4998 22.2006 10.2998 22.1006 10.1998C21.7006 9.4998 21.1006 8.8998 20.4006 8.3998L20.3006 8.2998C19.9006 7.7998 19.4006 7.2998 18.9006 6.9998C18.8006 6.8998 18.6006 6.7998 18.5006 6.6998C17.8006 6.3998 17.0006 6.1998 16.3006 5.8998C15.9006 5.6998 15.5006 5.5998 15.0006 5.5998C13.9006 5.4998 12.9006 5.6998 11.9006 5.9998C11.3006 6.1998 10.7006 6.4998 10.1006 6.7998C9.50059 7.0998 9.10059 7.2998 8.70059 7.5998C8.10059 7.8998 7.60059 8.4998 7.20059 8.9998C6.20059 10.3998 5.50059 11.7998 5.30059 13.4998C5.30059 13.8998 5.20059 14.1998 5.30059 14.5998C5.40059 15.2998 5.60059 15.8998 5.80059 16.4998C6.00059 16.9998 6.20059 17.3998 6.60059 17.7998C6.80059 17.9998 7.00059 18.1998 7.20059 18.3998C7.50059 18.6998 7.80059 18.8998 8.10059 19.2998C8.70059 20.1998 9.50059 20.7998 10.5006 20.9998C11.0006 21.0998 11.5006 21.1998 12.0006 21.2998C12.7006 21.3998 13.5006 21.4998 14.3006 21.4998Z" stroke="white" stroke-width="0.5" stroke-miterlimit="10"/>
<path d="M13.9005 20.6001C12.6005 20.6001 11.5005 20.4001 10.5005 19.9001C9.80048 19.6001 9.30048 19.1001 8.80048 18.6001C8.30048 18.0001 7.80048 17.5001 7.30048 16.9001C6.80048 16.3001 6.50048 15.7001 6.50048 14.9001C6.40048 13.8001 6.70048 12.8001 7.10048 11.9001C7.30048 11.5001 7.60048 11.0001 7.80048 10.6001C8.30048 9.9001 8.90048 9.2001 9.50048 8.6001C9.80048 8.3001 10.1005 8.1001 10.4005 7.9001C11.0005 7.5001 11.6005 7.2001 12.2005 7.0001C13.1005 6.7001 14.0005 6.6001 14.9005 6.7001C15.3005 6.7001 15.7005 6.9001 16.1005 7.1001C16.5005 7.3001 17.0005 7.5001 17.5005 7.6001C17.7005 7.7001 18.0005 7.8001 18.2005 7.9001C19.0005 8.5001 19.9005 9.1001 20.6005 9.9001C20.9005 10.2001 21.2005 10.5001 21.4005 10.8001C21.9005 11.6001 22.1005 12.4001 21.9005 13.4001C21.8005 13.9001 21.7005 14.3001 21.5005 14.7001C21.3005 15.3001 21.1005 16.0001 20.9005 16.6001C20.7005 17.3001 20.4005 18.0001 19.9005 18.6001C19.4005 19.1001 18.9005 19.5001 18.2005 19.7001C17.5005 19.9001 16.8005 20.1001 16.0005 20.3001C15.6005 20.4001 15.1005 20.5001 14.7005 20.6001C14.5005 20.6001 14.1005 20.6001 13.9005 20.6001ZM13.8005 20.5001C14.4005 20.5001 15.0005 20.4001 15.6005 20.3001C15.8005 20.2001 16.1005 20.2001 16.3005 20.1001C17.0005 19.9001 17.7005 19.8001 18.3005 19.5001C19.1005 19.2001 19.8005 18.7001 20.2005 17.9001C20.5005 17.4001 20.7005 16.9001 20.8005 16.4001C21.0005 15.8001 21.1005 15.1001 21.4005 14.5001C21.5005 14.1001 21.7005 13.7001 21.7005 13.2001C21.9005 12.2001 21.6005 11.4001 21.0005 10.6001C20.8005 10.3001 20.6005 10.1001 20.3005 9.9001C19.6005 9.1001 18.7005 8.5001 17.9005 7.9001C17.7005 7.8001 17.6005 7.7001 17.4005 7.6001C16.9005 7.5001 16.4005 7.3001 15.9005 7.1001C15.4005 6.8001 15.0005 6.7001 14.4005 6.7001C13.6005 6.7001 12.9005 6.8001 12.2005 7.0001C11.5005 7.2001 10.9005 7.5001 10.4005 7.9001C10.1005 8.1001 9.70048 8.4001 9.40048 8.7001C8.80048 9.3001 8.20048 9.9001 7.80048 10.7001C7.50048 11.2001 7.20048 11.7001 6.90048 12.3001C6.50048 13.2001 6.30048 14.1001 6.40048 15.0001C6.50048 15.7001 6.70048 16.3001 7.10048 16.8001C7.70048 17.5001 8.30048 18.1001 8.90048 18.8001C9.30048 19.3001 9.80048 19.6001 10.4005 19.9001C11.6005 20.3001 12.7005 20.5001 13.8005 20.5001Z" stroke="white" stroke-width="0.5" stroke-miterlimit="10"/>
<path d="M14.4003 19.5998C12.6003 19.5998 11.1003 18.9998 9.80034 17.8998C9.50034 17.5998 9.10034 17.2998 8.80034 16.8998C8.50034 16.4998 8.20034 16.0998 8.00034 15.5998C7.70034 14.8998 7.60034 14.0998 7.80034 13.3998C8.00034 12.6998 8.30034 11.9998 8.70034 11.3998C9.20034 10.6998 9.70034 9.9998 10.3003 9.3998C10.7003 8.8998 11.3003 8.4998 11.9003 8.1998C12.6003 7.8998 13.4003 7.7998 14.2003 7.7998C14.4003 7.7998 14.7003 7.7998 14.9003 7.8998C15.1003 7.8998 15.3003 7.9998 15.5003 8.0998C16.0003 8.3998 16.6003 8.5998 17.2003 8.6998C17.4003 8.7998 17.6003 8.7998 17.8003 8.9998C18.5003 9.3998 19.1003 9.7998 19.7003 10.3998C20.0003 10.6998 20.3003 10.9998 20.5003 11.3998C20.8003 11.9998 20.9003 12.5998 20.8003 13.1998C20.6003 14.3998 20.3003 15.5998 19.7003 16.5998C19.1003 17.6998 18.2003 18.4998 17.1003 18.9998C16.5003 19.2998 15.9003 19.3998 15.3003 19.4998C15.0003 19.4998 14.7003 19.5998 14.4003 19.5998ZM14.1003 7.7998C14.0003 7.7998 14.0003 7.7998 13.9003 7.7998C12.5003 7.8998 11.3003 8.2998 10.4003 9.3998C9.90034 9.9998 9.40034 10.5998 8.90034 11.2998C8.50034 11.9998 8.20034 12.5998 8.00034 13.2998C7.80034 14.0998 7.80034 14.7998 8.10034 15.4998C8.30034 15.9998 8.60034 16.4998 9.00034 16.8998C9.50034 17.4998 10.1003 17.9998 10.8003 18.3998C11.9003 19.0998 13.2003 19.4998 14.6003 19.3998C14.9003 19.3998 15.2003 19.2998 15.5003 19.2998C16.2003 19.1998 16.9003 18.9998 17.5003 18.6998C18.9003 17.8998 19.8003 16.6998 20.4003 15.1998C20.6003 14.5998 20.8003 13.9998 20.9003 13.2998C21.0003 12.6998 21.0003 12.0998 20.8003 11.4998C20.6003 11.0998 20.3003 10.6998 20.0003 10.3998C19.4003 9.7998 18.7003 9.2998 18.0003 8.8998C17.9003 8.7998 17.7003 8.6998 17.6003 8.6998C17.0003 8.4998 16.4003 8.3998 15.9003 8.0998C15.6003 8.0998 15.5003 7.9998 15.3003 7.9998C14.9003 7.8998 14.5003 7.8998 14.1003 7.7998Z" stroke="white" stroke-width="0.5" stroke-miterlimit="10"/>
<path d="M14.6006 18.7C13.7006 18.7 12.9006 18.4 12.1006 18C11.4006 17.6 10.7006 17.1 10.2006 16.5C9.90059 16.2 9.60059 15.8 9.40059 15.4C9.20059 15 9.10059 14.6 9.10059 14.2C9.10059 13.7 9.30059 13.2 9.50059 12.7C9.80059 12 10.2006 11.4 10.7006 10.9C10.9006 10.6 11.1006 10.3 11.3006 10C11.4006 9.9 11.6006 9.7 11.7006 9.6C12.3006 9.2 12.9006 9 13.5006 9C13.9006 9 14.3006 9 14.8006 9C14.8006 9 14.9006 9 14.9006 9.1C15.3006 9.4 15.8006 9.5 16.3006 9.7C16.7006 9.8 17.1006 9.9 17.5006 10C17.8006 10.1 18.0006 10.2 18.2006 10.3C18.8006 10.6 19.3006 11.1 19.7006 11.6C20.3006 12.3 20.4006 13.1 20.1006 13.9C19.7006 15.2 19.1006 16.3 18.1006 17.2C17.3006 17.9 16.5006 18.4 15.4006 18.6C15.2006 18.6 14.9006 18.6 14.6006 18.7ZM14.0006 9C13.8006 9 13.7006 9 13.5006 9C12.8006 9.1 12.1006 9.3 11.6006 9.8L11.5006 9.9C11.1006 10.5 10.7006 11 10.3006 11.6C9.90059 12.1 9.60059 12.7 9.40059 13.3C9.10059 14 9.20059 14.8 9.60059 15.4C9.80059 15.7 10.1006 16 10.3006 16.3C10.9006 17 11.7006 17.6 12.5006 18C13.1006 18.3 13.8006 18.5 14.5006 18.5C15.4006 18.5 16.2006 18.3 17.0006 17.8C18.6006 16.8 19.6006 15.4 20.1006 13.6C20.3006 12.8 20.1006 12.1 19.6006 11.5C19.2006 11 18.8006 10.7 18.3006 10.4C18.1006 10.3 17.9006 10.1 17.7006 10.1C17.3006 10 16.9006 9.9 16.6006 9.8C16.1006 9.7 15.6006 9.5 15.2006 9.3C14.8006 9.1 14.5006 9 14.2006 9C14.2006 9 14.1006 9 14.0006 9Z" stroke="white" stroke-width="0.5" stroke-miterlimit="10"/>
<path d="M14.1 10.0999C14.6 10.0999 15.1 10.1999 15.6 10.2999C16.4 10.4999 17.2 10.7999 17.9 11.1999C18.3 11.3999 18.6 11.6999 18.9 12.0999C19.3 12.6999 19.3 13.3999 19 14.0999C18.5 15.0999 17.9 15.8999 17 16.4999C16.4 16.8999 15.8 17.2999 15.1 17.3999C14.4 17.5999 13.8 17.3999 13.1 17.0999C12.2 16.6999 11.6 15.9999 11 15.0999C10.8 14.7999 10.6 14.4999 10.6 14.1999C10.5 13.6999 10.6 13.2999 10.7 12.7999C10.9 12.1999 11.3 11.5999 11.7 10.9999C11.8 10.7999 12 10.5999 12.2 10.3999C12.6 10.0999 13.1 9.9999 13.6 9.8999C13.9 10.0999 14 10.0999 14.1 10.0999ZM14.2 10.1999C13.7 10.1999 13.3 10.1999 12.8 10.3999C12.5 10.4999 12.3 10.5999 12.1 10.7999C11.9 11.0999 11.7 11.3999 11.5 11.6999C11.2 12.1999 10.9 12.5999 10.8 13.1999C10.6 13.7999 10.7 14.3999 11 14.8999C11.2 15.1999 11.4 15.4999 11.6 15.7999C12.1 16.4999 12.8 16.9999 13.6 17.2999C14 17.3999 14.5 17.4999 14.9 17.3999C15.4 17.2999 15.8 17.0999 16.2 16.8999C17.5 16.1999 18.4 15.1999 19 13.8999C19.2 13.3999 19.2 12.9999 19 12.4999C18.8 11.8999 18.3 11.4999 17.8 11.2999C17.1 10.8999 16.5 10.6999 15.7 10.4999C15.3 10.3999 14.8 10.1999 14.2 10.1999Z" stroke="white" stroke-width="0.5" stroke-miterlimit="10"/>
<path d="M14.6002 11.3999C15.3002 11.4999 15.9002 11.5999 16.5002 11.8999C16.8002 11.9999 17.0002 12.1999 17.2002 12.3999C17.8002 12.7999 17.9002 13.3999 17.7002 14.0999C17.6002 14.4999 17.3002 14.8999 17.0002 15.1999C16.5002 15.5999 16.0002 15.8999 15.4002 16.0999C14.9002 16.2999 14.4002 16.1999 13.9002 15.9999C13.3002 15.6999 12.8002 15.2999 12.5002 14.7999C12.1002 14.1999 12.2002 13.4999 12.5002 12.8999C12.7002 12.5999 12.9002 12.1999 13.2002 11.8999C13.3002 11.7999 13.5002 11.6999 13.7002 11.5999C13.9002 11.4999 14.3002 11.3999 14.6002 11.3999ZM14.6002 11.4999C14.4002 11.4999 14.1002 11.5999 13.9002 11.5999C13.7002 11.6999 13.4002 11.6999 13.2002 11.8999C12.9002 12.2999 12.6002 12.6999 12.4002 13.0999C12.2002 13.4999 12.2002 13.8999 12.4002 14.2999C12.6002 14.9999 13.1002 15.3999 13.6002 15.7999C14.1002 16.0999 14.5002 16.1999 15.1002 16.0999C15.5002 15.9999 15.9002 15.7999 16.2002 15.5999C16.7002 15.2999 17.2002 14.8999 17.5002 14.3999C17.7002 14.0999 17.8002 13.7999 17.8002 13.4999C17.8002 12.9999 17.5002 12.5999 17.2002 12.3999C16.9002 12.1999 16.7002 12.0999 16.4002 11.8999C15.8002 11.5999 15.2002 11.4999 14.6002 11.4999Z" stroke="white" stroke-width="0.5" stroke-miterlimit="10"/>
<path d="M13.7002 13.8C13.7002 13.3 14.0002 13 14.4002 12.9C14.9002 12.7 15.3002 12.7 15.8002 12.9C16.1002 13 16.3002 13.2 16.4002 13.6C16.4002 13.8 16.4002 14 16.3002 14.1C16.0002 14.6 15.6002 14.9 15.0002 14.9C14.4002 14.9 13.8002 14.5 13.7002 14C13.7002 13.9 13.7002 13.8 13.7002 13.8ZM15.0002 12.8C14.7002 12.8 14.4002 12.9 14.2002 13.1C14.0002 13.2 13.9002 13.4 13.8002 13.7C13.7002 14.2 14.0002 14.6 14.5002 14.8C15.1002 15 15.7002 14.8 16.1002 14.3C16.4002 14 16.3002 13.5 16.0002 13.3C15.7002 12.9 15.4002 12.8 15.0002 12.8Z" stroke="white" stroke-width="0.5" stroke-miterlimit="10"/>
</g>
<defs>
<clipPath id="clip0">
<rect width="27.8" height="26.9" fill="white"/>
</clipPath>
</defs>
</svg>
