<svg width="32" height="33" viewBox="0 0 32 33" fill="none" xmlns="http://www.w3.org/2000/svg">
<path d="M16.5901 20.4237L20.1701 24.0137L16.5801 27.6037L18.0001 29.0137L23.0001 24.0137L18.0001 19.0137L16.5901 20.4237Z" fill="white"/>
<path d="M23.5901 20.4237L27.1701 24.0137L23.5801 27.6037L25.0001 29.0137L30.0001 24.0137L25.0001 19.0137L23.5901 20.4237Z" fill="white"/>
<path d="M14 23.0137H4V7.92367L15.43 15.8337C15.5974 15.9498 15.7963 16.012 16 16.012C16.2037 16.012 16.4026 15.9498 16.57 15.8337L28 7.92367V17.0137H30V7.01367C30 6.48324 29.7893 5.97453 29.4142 5.59946C29.0391 5.22439 28.5304 5.01367 28 5.01367H4C3.46957 5.01367 2.96086 5.22439 2.58579 5.59946C2.21071 5.97453 2 6.48324 2 7.01367V23.0137C2 23.5441 2.21071 24.0528 2.58579 24.4279C2.96086 24.803 3.46957 25.0137 4 25.0137H14V23.0137ZM25.8 7.01367L16 13.7937L6.2 7.01367H25.8Z" fill="white"/>
</svg>
