<svg width="23" height="17" viewBox="0 0 23 17" fill="none" xmlns="http://www.w3.org/2000/svg">
<path fill-rule="evenodd" clip-rule="evenodd" d="M15.3985 7.78311L9.4575 10.9667V6.06499V4.57427L12.1382 6.02078L15.3985 7.78311ZM22.5047 3.46255C22.5047 3.46255 22.2945 1.89602 21.6323 1.20751C20.7982 0.29792 19.8621 0.291603 19.4291 0.24107C16.3536 0.0136719 11.7371 0.0136719 11.7371 0.0136719H11.7244C11.7244 0.0136719 7.10786 0.0136719 4.02595 0.24107C3.59932 0.291603 2.66328 0.29792 1.82276 1.20751C1.1669 1.89602 0.950404 3.46255 0.950404 3.46255C0.950404 3.46255 0.727539 5.307 0.727539 7.14514V7.37253V8.87589C0.727539 10.714 0.950404 12.5585 0.950404 12.5585C0.950404 12.5585 1.1669 14.125 1.82276 14.8135C2.66328 15.7231 3.75851 15.6915 4.24881 15.7863C6.01263 15.9631 11.7307 16.0137 11.7307 16.0137C11.7307 16.0137 16.3536 16.0074 19.4291 15.78C19.8621 15.7231 20.7982 15.7231 21.6323 14.8135C22.2945 14.125 22.5047 12.5585 22.5047 12.5585C22.5047 12.5585 22.7275 10.714 22.7275 8.87589V7.46728V7.14514C22.7275 5.307 22.5047 3.46255 22.5047 3.46255Z" fill="#74BD00"/>
</svg>
