<?xml version="1.0" standalone="no"?>
<!DOCTYPE svg PUBLIC "-//W3C//DTD SVG 20010904//EN"
 "http://www.w3.org/TR/2001/REC-SVG-20010904/DTD/svg10.dtd">
<svg version="1.0" xmlns="http://www.w3.org/2000/svg"
 width="794.000000pt" height="794.000000pt" viewBox="0 0 794.000000 794.000000"
 preserveAspectRatio="xMidYMid meet">
<metadata>
Created by potrace 1.11, written by Peter Selinger 2001-2013
</metadata>
<g transform="translate(0.000000,794.000000) scale(0.100000,-0.100000)"
fill="#000000" stroke="none">
<path d="M4040 7918 c-19 -5 -97 -39 -172 -74 -214 -101 -414 -159 -693 -200
-141 -21 -473 -29 -630 -16 -186 16 -237 0 -282 -88 -20 -39 -23 -59 -23 -170
0 -140 -9 -186 -46 -230 -25 -29 -53 -43 -38 -18 4 6 3 8 -4 4 -6 -3 -10 -15
-9 -26 1 -15 6 -18 20 -14 49 15 236 -67 329 -144 56 -47 139 -142 133 -152
-2 -4 -34 -24 -71 -46 -150 -88 -261 -277 -213 -365 5 -11 14 -17 20 -14 5 4
9 -5 9 -20 0 -14 -7 -28 -15 -31 -12 -5 -13 -10 -4 -20 6 -8 7 -14 2 -14 -5 0
-20 14 -32 31 -13 17 -48 42 -78 56 -46 21 -66 25 -113 20 -115 -10 -174 -62
-245 -212 -61 -130 -91 -161 -196 -200 -167 -62 -206 -106 -264 -300 -65 -216
-92 -259 -206 -326 -107 -62 -141 -118 -120 -194 23 -85 125 -334 134 -328 6
3 7 1 3 -6 -10 -16 3 -53 16 -45 7 5 9 0 6 -14 -4 -12 -3 -22 2 -22 17 0 30
-96 30 -222 0 -172 9 -219 74 -418 30 -91 60 -194 65 -229 6 -35 13 -66 15
-69 12 -12 27 58 25 113 -1 33 -1 104 0 159 1 54 -1 96 -6 93 -4 -3 -6 21 -5
54 2 32 8 57 13 53 5 -3 9 4 9 15 0 26 15 34 48 26 27 -8 27 -8 4 -14 -20 -5
-9 -14 75 -66 168 -102 277 -227 317 -364 23 -78 20 -212 -4 -281 -28 -76 -28
-74 -1 -78 13 -2 21 0 18 5 -4 6 0 10 8 10 8 0 13 -3 12 -7 -1 -3 22 -29 51
-58 72 -70 105 -143 110 -248 3 -57 -1 -98 -12 -139 l-17 -57 54 -53 c103
-101 182 -252 207 -398 7 -37 11 -120 9 -186 l-4 -118 100 93 c309 286 616
456 949 525 117 24 313 29 416 10 85 -16 305 -88 318 -104 5 -6 12 -77 16
-157 3 -81 11 -184 17 -230 8 -57 10 -193 6 -415 -8 -503 -46 -1521 -60 -1605
l-12 -75 -55 2 c-159 7 -390 95 -560 214 -149 104 -303 285 -389 457 -135 269
-159 632 -61 924 99 295 315 550 585 690 44 23 82 46 84 52 2 6 36 44 74 84
39 39 66 72 61 72 -22 0 -186 -50 -259 -79 -368 -147 -672 -471 -799 -851 -58
-176 -71 -254 -71 -450 0 -194 18 -300 77 -469 164 -470 593 -830 1087 -915
123 -21 348 -21 472 0 360 60 700 275 911 576 47 67 158 280 158 304 0 8 4 14
9 14 11 0 31 55 31 85 0 12 7 35 15 51 21 43 44 195 46 304 2 113 -10 281 -21
295 -4 6 -11 26 -15 45 -33 169 -129 389 -233 534 -156 218 -403 407 -644 492
l-38 13 -8 -32 -8 -32 72 -26 c289 -106 530 -327 670 -613 168 -346 163 -745
-14 -1090 -156 -304 -449 -538 -778 -622 -54 -13 -98 -23 -100 -21 -2 1 -8
113 -14 247 -29 658 -89 1681 -114 1955 -15 153 -16 195 -6 195 3 0 5 66 6
148 1 166 20 286 66 431 34 109 100 251 152 329 20 29 35 58 33 65 -1 6 8 16
20 21 20 9 22 16 18 61 -18 214 -18 276 0 341 10 38 32 85 51 109 l32 43 -72
4 c-84 4 -166 40 -258 113 -48 38 -58 50 -58 76 0 60 187 336 303 448 l36 34
11 -43 c33 -124 39 -280 15 -407 -18 -92 -17 -85 -7 -79 4 2 8 -4 8 -14 0 -16
-3 -17 -16 -7 -13 10 -13 10 -3 -4 7 -9 10 -18 7 -22 -3 -3 22 6 56 20 102 41
193 56 305 50 309 -17 637 -220 883 -546 l59 -79 7 65 c17 160 125 331 254
397 30 16 32 19 26 56 -15 93 42 210 126 258 33 19 47 32 38 36 -7 3 1 5 18 3
l31 -3 -9 39 c-11 49 3 131 32 188 47 92 156 172 293 215 40 12 56 22 52 32
-3 9 1 12 15 7 36 -11 21 12 -34 53 -59 45 -95 91 -180 229 -80 129 -138 190
-232 240 -44 23 -93 56 -109 73 -28 29 -30 37 -30 104 0 59 5 81 28 125 15 30
26 55 24 57 -1 2 -23 -4 -47 -13 -32 -11 -106 -18 -260 -24 -221 -8 -280 -18
-358 -58 -91 -47 -185 -160 -212 -255 -7 -26 -16 -49 -21 -51 -4 -3 -17 8 -28
24 -37 52 -109 60 -159 19 -7 -7 -52 -12 -100 -12 -86 -1 -89 -2 -217 -64
-148 -70 -225 -91 -283 -76 l-38 10 20 -40 c27 -54 26 -142 -4 -236 -25 -80
-26 -106 -5 -130 19 -22 9 -37 -91 -132 -50 -48 -108 -112 -130 -142 -21 -30
-42 -55 -46 -56 -5 0 -8 28 -8 62 0 34 -5 114 -11 177 -20 207 24 466 109 630
l47 91 409 316 c394 306 409 316 425 298 24 -25 58 -112 73 -184 9 -45 9 -76
0 -137 -7 -43 -12 -94 -12 -114 0 -38 18 -99 28 -99 4 1 19 18 33 39 15 21 78
81 140 133 137 114 161 152 184 289 22 130 40 180 78 217 75 72 179 69 291 -8
48 -32 61 -37 50 -17 -4 6 5 -1 21 -16 20 -19 31 -24 36 -16 8 14 0 41 -10 35
-4 -3 -7 3 -8 12 0 9 -12 61 -27 116 -20 75 -26 123 -26 200 0 60 -5 111 -13
126 -7 14 -41 44 -77 68 -60 39 -99 86 -100 121 0 31 -41 98 -72 121 -19 13
-27 16 -19 7 7 -9 9 -17 3 -17 -13 0 -33 25 -26 32 10 10 -139 128 -196 155
-43 20 -78 27 -165 34 -126 8 -138 12 -225 68 -92 59 -125 67 -224 53 -100
-15 -176 -15 -211 -2 -14 5 -67 37 -116 70 -50 33 -109 65 -132 71 -54 14
-144 6 -188 -17 -52 -27 -60 -26 -52 4 21 74 -5 180 -54 224 -48 43 -128 58
-203 36z m-1053 -1046 c71 -37 63 -42 -69 -43 -68 0 -144 -4 -170 -8 -27 -4
-48 -5 -48 -1 0 10 42 46 75 64 42 23 156 17 212 -12z m208 -222 c29 -47 84
-117 122 -156 37 -38 106 -124 153 -190 46 -65 101 -139 122 -165 21 -25 55
-73 75 -107 21 -34 80 -112 132 -174 93 -112 124 -165 178 -308 l25 -65 -29
26 c-37 35 -99 75 -206 134 -107 60 -164 110 -306 270 -119 133 -213 209 -295
236 l-51 18 30 11 c17 7 45 14 63 17 17 3 32 11 32 17 0 6 14 19 30 28 38 22
54 57 46 101 -9 47 -45 78 -98 83 -71 8 -88 14 -108 34 -29 29 -25 44 20 86
54 52 53 80 -4 142 -52 57 -70 88 -61 110 6 14 13 10 42 -23 19 -22 59 -78 88
-125z m-24 -568 c24 -16 94 -81 154 -146 114 -122 279 -274 402 -372 40 -31
70 -61 67 -66 -8 -13 -71 -1 -157 28 -39 13 -82 24 -96 24 -37 0 -109 -38
-134 -71 l-21 -29 -18 48 c-24 65 -77 125 -136 153 -41 21 -58 23 -132 20 -47
-3 -127 -5 -178 -5 -50 -1 -92 -3 -92 -6 0 -3 12 -23 25 -45 27 -43 32 -91 12
-115 -7 -8 -33 -32 -60 -53 -26 -21 -56 -56 -67 -78 -11 -21 -27 -39 -35 -39
-28 0 -145 49 -201 85 -31 20 -58 35 -60 33 -2 -2 8 -39 21 -81 31 -97 34
-212 6 -272 -31 -70 -109 -121 -224 -149 -25 -6 -23 -2 22 41 66 64 94 149 93
278 -1 50 -5 111 -10 137 l-9 47 81 52 c46 30 125 97 183 156 80 81 108 103
129 103 38 0 98 67 153 171 25 46 65 105 89 132 42 44 48 47 96 47 40 0 63 -7
97 -28z m871 -466 c23 -22 40 -63 64 -161 5 -18 -24 28 -103 163 -21 37 -22
42 -6 33 10 -5 30 -21 45 -35z m206 -83 c-9 -10 -24 -35 -35 -56 l-19 -38 -21
50 -21 49 24 -10 c20 -10 29 -8 52 9 31 24 42 21 20 -4z m-307 -123 c57 -39
106 -76 110 -83 8 -14 54 -223 63 -285 l7 -44 -62 48 c-33 27 -73 64 -89 84
-39 50 -110 167 -104 173 3 3 -3 22 -14 44 -25 49 -34 90 -27 114 4 10 8 19 9
19 2 0 50 -32 107 -70z m-35 -272 c27 -35 73 -89 101 -120 29 -32 53 -60 53
-62 0 -2 -17 0 -37 6 -26 7 -54 7 -92 -1 -30 -6 -56 -9 -59 -7 -15 16 -33 246
-18 246 1 0 25 -28 52 -62z m-193 -310 c-27 -29 -70 -82 -96 -117 -27 -36 -49
-57 -51 -50 -7 25 -27 151 -24 154 28 24 145 62 197 64 22 1 19 -4 -26 -51z
m370 -31 c51 -39 63 -77 59 -179 l-3 -88 -42 24 c-100 58 -247 71 -342 32 -21
-9 -40 -15 -41 -13 -2 2 10 31 26 65 35 74 96 143 153 172 59 30 142 24 190
-13z"/>
</g>
</svg>
